<svg xmlns="http://www.w3.org/2000/svg"
      width="40"
      height="40"
      viewBox="0 0 40 40"
      fill="none"
    >
      <path
        d="M6.28551 21.8326C7.14511 20.9709 7.933 20.181 8.72172 19.3911C9.12526 18.987 9.52796 18.5821 9.93233 18.1796C10.5635 17.5509 11.1454 17.5542 11.7824 18.1913C12.5228 18.9311 13.2623 19.6725 14.0027 20.4123C14.0852 20.495 14.1719 20.5735 14.2745 20.6703C14.3787 20.5726 14.4746 20.4883 14.5646 20.3981C16.4314 18.5303 18.2973 16.6608 20.1641 14.793C20.8461 14.1109 21.4056 14.1117 22.0909 14.7972C22.7896 15.4952 23.4924 16.1882 24.1811 16.8963C24.6989 17.4282 24.6647 18.142 24.1244 18.5913C23.6592 18.977 23.0656 18.957 22.6095 18.5136C22.1167 18.0343 21.6432 17.5359 21.1463 17.0307C21.0187 17.1509 20.9237 17.2361 20.8328 17.3263C18.9743 19.1857 17.1168 21.0469 15.2592 22.9063C14.5446 23.6211 14.0052 23.6177 13.2832 22.8946C12.4853 22.0956 11.6874 21.2957 10.8686 20.4749C10.7803 20.5526 10.6994 20.616 10.6268 20.6887C9.24782 22.0689 7.8663 23.4457 6.49728 24.8359C6.38139 24.9537 6.29885 25.1574 6.29468 25.3235C6.27467 26.1919 6.28218 27.0611 6.28634 27.9303C6.28968 28.7218 6.70822 29.1443 7.49778 29.146C9.36455 29.1493 11.2305 29.1435 13.0972 29.1493C13.8543 29.1518 14.3087 29.6303 14.2728 30.3634C14.2436 30.9662 13.8384 31.4188 13.2356 31.4229C11.203 31.438 9.16778 31.4797 7.1376 31.4071C5.32419 31.3428 4.01104 29.8499 4.0052 27.9804C3.9952 24.9211 4.0027 21.8618 4.0027 18.8025C4.0027 15.0293 3.99936 11.2553 4.00437 7.4821C4.00687 5.91822 4.8748 4.65325 6.278 4.20321C6.66737 4.0788 7.09175 4.01033 7.50028 4.0095C14.3003 3.99781 21.1004 3.99864 27.9005 4.00282C29.9448 4.00449 31.3847 5.44229 31.3955 7.4821C31.4039 8.98169 31.4039 10.4821 31.3947 11.9817C31.3897 12.8451 30.6702 13.3477 29.8523 13.0788C29.3804 12.9244 29.1186 12.5453 29.1169 11.9792C29.1119 10.5272 29.1161 9.07437 29.1152 7.62237C29.1152 6.66634 28.7334 6.28644 27.7721 6.28644C21.0554 6.28644 14.3379 6.28644 7.62117 6.28644C6.66486 6.28644 6.28634 6.66801 6.28634 7.62989C6.28634 12.213 6.28634 16.7961 6.28634 21.3792V21.8326H6.28551Z"
        fill="url(#paint0_linear_5006_665)"
      />
      <path
        d="M31.8716 15.4059C33.5058 15.4952 34.8698 16.3619 35.6393 18.0778C36.3497 19.6617 35.9878 21.5353 34.7556 22.807C33.9527 23.6361 33.1272 24.4435 32.3118 25.2601C29.302 28.2735 26.2847 31.2802 23.2915 34.3102C22.9355 34.6701 22.5703 34.8605 22.0809 34.9515C20.365 35.2696 18.6575 35.6353 16.945 35.9693C16.4322 36.0695 15.9512 35.9259 15.6302 35.5176C15.4743 35.3189 15.3709 34.9799 15.4151 34.7369C15.7636 32.8432 16.1404 30.9545 16.544 29.0717C16.6073 28.7769 16.7941 28.4688 17.0092 28.2526C20.8494 24.3867 24.7005 20.5317 28.5558 16.6809C29.402 15.8359 30.4384 15.4184 31.8708 15.4075L31.8716 15.4059ZM18.0422 33.3759C19.1928 33.1605 20.2875 32.9643 21.3772 32.743C21.5706 32.7038 21.7791 32.5935 21.9183 32.4541C24.8489 29.5334 27.7712 26.6044 30.6952 23.6762C30.7744 23.5968 30.8494 23.5117 30.8678 23.4925C29.8689 22.4788 28.9051 21.5003 27.9363 20.5167C27.9255 20.5242 27.8946 20.5426 27.8704 20.5668C24.8698 23.5693 21.87 26.5718 18.8735 29.5777C18.7951 29.6562 18.7251 29.7689 18.7042 29.8758C18.4824 31.018 18.2707 32.1627 18.043 33.3751L18.0422 33.3759ZM29.648 18.8C30.6385 19.7994 31.6107 20.7805 32.5845 21.7633C33.8518 20.6753 34.0769 19.2859 33.1247 18.3049C32.1684 17.3204 30.7819 17.5275 29.6488 18.8H29.648Z"
        fill="url(#paint0_linear_5006_665)"
      />
      <path
        d="M17.6995 11.9867C17.7054 13.933 16.2138 15.4309 14.2728 15.4293C12.3469 15.4276 10.8586 13.9422 10.8528 12.0151C10.847 10.0688 12.3377 8.57172 14.2803 8.57339C16.2096 8.57506 17.6937 10.0571 17.6995 11.9867ZM15.4167 12.0076C15.4201 11.3246 14.9623 10.862 14.2828 10.8587C13.6008 10.8553 13.1381 11.3129 13.1356 11.9942C13.1331 12.6772 13.59 13.1406 14.2695 13.144C14.9507 13.1473 15.4142 12.6881 15.4167 12.0076Z"
        fill="url(#paint0_linear_5006_665)"
      />
      <defs>
        <linearGradient
          id="paint0_linear_5006_665"
          x1="20"
          y1="8"
          x2="20"
          y2="27.8742"
          gradientUnits="userSpaceOnUse"
        >
          <stop stop-color="#5442DD" />
          <stop offset="1" stop-color="#C892F6" />
        </linearGradient>
      </defs>
    </svg>
