<svg width="40" height="40" viewBox="0 0 40 40" fill="none" xmlns="http://www.w3.org/2000/svg">
<g id="icon \ 01">
<g id="Vector">
<path d="M35.997 10.0745V9.86815C35.9937 8.77066 35.6775 7.75702 35.0591 6.856C33.7733 4.98492 31.9791 4.02883 29.7261 4.01239C27.4111 3.99595 25.0571 3.99923 22.7813 4.00334C21.7978 4.00499 20.8143 4.00663 19.8308 4.00663L19.5896 4.0091C18.6518 4.0091 17.7147 4.00745 16.7769 4.00499C14.4742 4.00088 12.0932 3.99595 9.75062 4.01485C8.23912 4.02718 6.81399 4.61991 5.73679 5.68452C4.65633 6.75324 4.05093 8.17628 4.033 9.69058C3.989 13.3851 3.989 17.2686 4.033 21.5641C4.05907 24.1323 5.83294 26.3848 8.34749 27.0417C9.07676 27.2324 9.81499 27.2817 10.5451 27.2817C10.9484 27.2817 11.3501 27.2669 11.7469 27.2513C11.9832 27.2422 12.2195 27.2332 12.455 27.2274C12.8266 27.2184 13.1493 27.0269 13.3391 26.703C13.5404 26.3601 13.5518 25.9261 13.3685 25.5693C13.1517 25.1476 12.7704 24.9322 12.2342 24.9305C11.9735 24.9297 11.7135 24.9305 11.4528 24.9322C10.8759 24.9346 10.2786 24.9371 9.69522 24.9165C7.84719 24.8516 6.32999 23.3151 6.31369 21.4925C6.28436 18.256 6.29331 14.9643 6.30228 11.7812C6.30391 11.1128 6.30554 10.4444 6.30717 9.7769C6.3088 9.17677 6.47666 8.60295 6.80585 8.06941C7.53675 6.88642 8.62943 6.31096 10.1466 6.31096H10.1491C13.2894 6.3126 16.4306 6.3126 19.5709 6.3126C22.8783 6.3126 26.1856 6.3126 29.4922 6.31425C29.7904 6.31425 30.0764 6.33315 30.3421 6.36933C32.0434 6.60362 33.8067 8.01351 33.722 10.1657C33.7016 10.6878 33.7073 11.2156 33.713 11.7269C33.7154 11.9193 33.7171 12.1116 33.7179 12.304C33.7212 13.0686 34.1905 13.6004 34.8595 13.6004H34.8635C35.5382 13.598 35.9937 13.0743 35.9978 12.2974C36.0018 11.5567 35.9994 10.8037 35.9978 10.0761L35.997 10.0745Z" fill="url(#paint0_linear_5006_677)"/>
<path d="M29.7024 26.2738C29.8027 26.3667 29.8964 26.4547 29.9974 26.5377C31.1716 27.5135 32.7694 27.6147 34.0691 26.7942C35.3671 25.9746 35.9929 24.4266 35.627 22.9411C35.1895 21.167 33.4897 19.9758 31.7566 20.2298C29.8703 20.5068 28.5829 22.0853 28.6945 23.9835C28.7035 24.1397 28.6831 24.1808 28.5543 24.2581C26.9076 25.247 25.5713 26.0609 24.3507 26.8213C24.2162 26.9052 24.16 26.9035 24.0158 26.8123C23.5375 26.5089 23.0461 26.2113 22.5711 25.9236C22.4 25.82 22.228 25.7156 22.0569 25.6112L21.3969 25.2092C20.5854 24.7143 19.773 24.2194 18.9598 23.7262C18.5271 23.4639 18.0879 23.4647 17.6903 23.7294C17.3285 23.9703 17.1492 24.3452 17.1859 24.7867C17.2193 25.1846 17.4303 25.4961 17.8321 25.7386C18.651 26.2335 19.4813 26.7399 20.2847 27.2307L20.6758 27.4691C21.0384 27.6903 21.3994 27.9123 21.7717 28.14L21.9763 28.2649C21.9632 28.2732 21.9502 28.2814 21.938 28.2888C21.4711 28.5732 21.0034 28.8577 20.5357 29.1421C19.6483 29.6814 18.7308 30.2396 17.8296 30.7912C17.199 31.1776 17.0026 31.8328 17.3391 32.4214C17.4947 32.6935 17.727 32.876 18.0097 32.95C18.3275 33.0331 18.6868 32.9665 19.0225 32.7626C20.618 31.7942 22.3315 30.7518 24.0451 29.6978C24.1787 29.6156 24.213 29.6214 24.3156 29.6847C25.7179 30.5528 27.1529 31.4209 28.5397 32.2603L28.5503 32.2669C28.6668 32.3376 28.6872 32.3713 28.6896 32.493C28.7092 33.5658 29.1801 34.5564 29.9811 35.2124C30.6101 35.7271 31.3973 36 32.2153 36C32.4508 36 32.6888 35.977 32.9259 35.9318C34.7829 35.5717 36.0157 33.7088 35.6735 31.7786C35.341 29.9058 33.5012 28.5946 31.6539 28.9152C30.8122 29.0615 30.1074 29.4677 29.5061 30.1541L26.4114 28.2633L29.6902 26.2623C29.6951 26.2664 29.6992 26.2705 29.7041 26.2755L29.7024 26.2738ZM30.9597 23.7656C30.9622 23.0874 31.5293 22.5136 32.1982 22.5128H32.1991C32.8762 22.5128 33.4302 23.0734 33.4343 23.7632C33.4376 24.4611 32.9022 25.0177 32.2145 25.0308C31.8919 25.039 31.5773 24.9092 31.337 24.6707C31.0925 24.4274 30.9581 24.106 30.9597 23.7656ZM33.4343 32.4379C33.4343 33.126 32.8835 33.6916 32.2072 33.6981C32.2031 33.6981 32.1991 33.6981 32.195 33.6981C31.8731 33.6981 31.5676 33.5683 31.3321 33.3307C31.0893 33.0857 30.9573 32.7634 30.9605 32.4231C30.967 31.7473 31.5317 31.1801 32.1958 31.1801C32.1991 31.1801 32.2031 31.1801 32.2064 31.1801C32.8835 31.1866 33.4351 31.7506 33.4351 32.4371L33.4343 32.4379Z" fill="url(#paint1_linear_5006_677)"/>
<path d="M18.9663 20.959C19.1016 20.8513 19.2376 20.7453 19.3729 20.6384L19.6345 20.4329C20.0329 20.1188 20.4322 19.8056 20.8314 19.4924C21.7473 18.7739 22.6941 18.0315 23.6149 17.2859C24.1755 16.8321 24.4818 16.2205 24.477 15.5636C24.4729 14.9109 24.147 14.2828 23.5839 13.8389C23.4413 13.7271 23.2979 13.6169 23.1537 13.5076C23.0812 13.4525 23.0087 13.3966 22.9361 13.3407L21.8891 12.535C20.9178 11.7877 19.9473 11.0413 18.9761 10.2932C18.6314 10.0276 18.0912 9.68647 17.3929 9.79581C16.398 9.95118 15.7225 10.7979 15.7111 11.902C15.7021 12.7619 15.7046 13.6358 15.7062 14.4809C15.707 14.8525 15.7078 15.2241 15.7078 15.5957C15.7078 15.9714 15.707 16.3462 15.7054 16.7219C15.7021 17.5884 15.6997 18.4837 15.7135 19.3658C15.7282 20.2643 16.1217 20.9269 16.8526 21.2813C17.1199 21.4103 17.3872 21.4753 17.6552 21.4753C18.0928 21.4753 18.5312 21.3026 18.9647 20.959H18.9663ZM18.0325 18.7599V12.4725L22.0838 15.5685L18.0325 18.7599Z" fill="url(#paint2_linear_5006_677)"/>
</g>
</g>
<defs>
<linearGradient id="paint0_linear_5006_677" x1="20" y1="4" x2="20" y2="29.439" gradientUnits="userSpaceOnUse">
<stop stop-color="#5442DD"/>
<stop offset="1" stop-color="#C892F6"/>
</linearGradient>
<linearGradient id="paint1_linear_5006_677" x1="20" y1="4" x2="20" y2="29.439" gradientUnits="userSpaceOnUse">
<stop stop-color="#5442DD"/>
<stop offset="1" stop-color="#C892F6"/>
</linearGradient>
<linearGradient id="paint2_linear_5006_677" x1="20" y1="4" x2="20" y2="29.439" gradientUnits="userSpaceOnUse">
<stop stop-color="#5442DD"/>
<stop offset="1" stop-color="#C892F6"/>
</linearGradient>
</defs>
</svg>
