<svg width="40" height="40" viewBox="0 0 40 40" fill="none" xmlns="http://www.w3.org/2000/svg">
<path d="M4 23.9974C4.13602 23.2648 4.60296 22.692 5.00154 22.0873C6.43957 19.9058 7.88707 17.7301 9.31698 15.5434C9.7203 14.927 10.2461 14.4807 10.9452 14.2009C11.8669 13.8323 12.7899 13.4637 13.6906 13.0508C14.6333 12.6182 15.5672 12.4786 16.5491 12.951C16.6262 12.8498 16.6946 12.7644 16.7589 12.6763C17.7624 11.2985 18.7653 9.92009 19.7703 8.54296C20.2277 7.91539 20.7007 7.83775 21.3585 8.2794C22.2802 8.89849 23.2019 9.51823 24.1209 10.1406C24.7367 10.5574 24.822 11.0317 24.3895 11.6273C23.6627 12.6293 22.9332 13.6294 22.2051 14.6308C22.1347 14.728 22.0664 14.8265 21.9838 14.9426C22.3885 15.1344 22.7688 15.3151 23.1498 15.4945C24.8497 16.2956 26.5469 17.1013 28.2529 17.89C28.4674 17.9891 28.726 18.0433 28.9648 18.0446C30.9124 18.057 32.86 18.0609 34.8076 18.0459C35.3862 18.0413 35.7963 18.2272 36 18.7648V30.0095C35.8274 30.2013 35.6934 30.4642 35.4762 30.5738C34.2338 31.202 32.9785 31.8087 31.7123 32.3913C31.0613 32.6907 30.3981 32.2615 30.3792 31.5602C30.3643 31.0298 30.3758 30.4981 30.3758 29.9671C30.3758 29.7936 30.3758 29.6194 30.3758 29.4204C26.5665 31.0866 22.7945 31.1042 19.0144 29.457C19.101 32.1447 16.1552 33.3405 14.3118 31.8224C12.8461 32.9458 10.9079 32.5883 9.9531 31.099C8.84734 31.675 7.74022 32.2497 6.63582 32.8297C6.26024 33.0273 5.88737 33.0834 5.52059 32.8323C5.14365 32.5733 5.08343 32.2067 5.15245 31.7892C5.29862 30.8993 5.4272 30.0069 5.56728 29.1164C5.67826 28.4086 5.68841 27.6675 6.2528 27.1013C6.26768 27.0863 6.25889 27.0491 6.26092 27.0165C5.6424 26.8938 5.1308 26.6009 4.71258 26.1606C4.32347 25.7509 4.13128 25.2466 4.00068 24.7163V23.9948L4 23.9974ZM17.0972 21.6502C17.9742 21.6841 18.7484 21.5256 19.4921 21.2157C20.1303 20.9495 20.6676 20.5444 21.1853 20.1034C21.6103 19.7414 22.1713 19.7903 22.5204 20.1811C22.8581 20.5588 22.8311 21.0898 22.4176 21.4434C22.0373 21.7683 21.6468 22.0899 21.2218 22.356C19.9855 23.1317 18.6144 23.4742 17.1398 23.467C15.2971 23.4579 13.4538 23.4579 11.6111 23.467C10.2739 23.4742 9.39345 24.5206 9.69053 25.7261C9.88678 26.522 10.6325 27.0667 11.5657 27.0706C13.2528 27.0778 14.9412 27.1189 16.6255 27.0569C17.7448 27.0158 18.7362 27.2389 19.7222 27.7504C21.1311 28.481 22.672 28.8203 24.2765 28.8712C26.3892 28.939 28.3524 28.4132 30.208 27.4764C30.2986 27.4307 30.367 27.2592 30.3677 27.1457C30.3765 24.8115 30.3744 22.4774 30.3738 20.1432C30.3738 20.0565 30.3636 19.9697 30.3562 19.8568C29.7762 19.8568 29.2145 19.881 28.6569 19.8477C28.3348 19.8288 27.991 19.7714 27.7034 19.6383C25.5197 18.6297 23.3474 17.5977 21.1711 16.5742C21.0804 16.5318 20.9863 16.4959 20.8794 16.4509C19.6227 18.1777 18.3776 19.8888 17.0959 21.6502H17.0972ZM15.4102 14.5179C15.3973 14.4873 15.3844 14.4566 15.3716 14.4259C15.1868 14.469 14.9919 14.4879 14.8201 14.5584C13.7393 15.0013 12.6586 15.4456 11.5901 15.9146C11.3661 16.0131 11.136 16.1841 11.0047 16.3811C9.33322 18.8822 7.67391 21.3905 6.03151 23.9093C5.91308 24.0907 5.88331 24.3731 5.9212 24.5917C5.99497 25.0209 6.39152 25.2721 6.86117 25.2623C7.35991 25.2525 7.72398 24.9961 7.82481 24.5669C8.09415 23.4226 8.76478 22.5817 9.84685 22.037C9.9761 21.9718 10.0857 21.8472 10.1724 21.7285C11.8655 19.4093 13.5532 17.0869 15.2423 14.7652C15.3012 14.6843 15.3547 14.6001 15.4108 14.5179H15.4102ZM32.2618 30.1198C32.816 29.853 33.3195 29.5959 33.8379 29.3689C34.0599 29.2717 34.1329 29.1556 34.1316 28.9188C34.1221 26.0158 34.1255 23.1128 34.1255 20.2098C34.1255 20.1028 34.1255 19.9951 34.1255 19.8764H32.2618V30.1198ZM12.5118 21.6606C13.2216 21.6606 13.8618 21.6508 14.5013 21.6658C14.7267 21.6711 14.8546 21.596 14.9811 21.4205C16.5254 19.2854 18.0778 17.1561 19.6288 15.0248C19.8366 14.7397 20.0436 14.454 20.2649 14.1506C19.7493 13.8023 19.2492 13.465 18.7308 13.1153C16.6607 15.9603 14.6069 18.7824 12.5118 21.6606ZM7.25772 30.4531C8.23491 29.9045 9.35082 29.6194 9.75211 28.5365C9.28991 28.149 8.82839 27.7621 8.35875 27.3681C8.24506 27.524 8.11039 27.7002 7.9852 27.8828C7.83767 28.0981 7.62518 28.3023 7.57105 28.5391C7.43164 29.1497 7.36329 29.776 7.25772 30.4531ZM20.8821 10.1608C20.5187 10.6599 20.1695 11.14 19.8075 11.6378C20.3218 11.9842 20.8205 12.3201 21.3423 12.6717C21.7043 12.174 22.0528 11.6958 22.4169 11.1948C21.9026 10.8484 21.4113 10.5176 20.8814 10.1608H20.8821ZM17.1195 28.9012H15.2552C15.2552 29.2358 15.2376 29.5457 15.2592 29.8536C15.2924 30.3227 15.6856 30.6678 16.164 30.6769C16.6594 30.686 17.0762 30.3461 17.1148 29.8693C17.1398 29.5535 17.1195 29.2339 17.1195 28.9012ZM13.3712 28.8757C12.9713 28.8757 12.6058 28.9018 12.2472 28.8679C11.9156 28.8366 11.6929 28.9527 11.5901 29.2319C11.5204 29.4204 11.5008 29.637 11.5102 29.8393C11.5326 30.32 11.9393 30.6749 12.4339 30.6769C12.9293 30.6788 13.3353 30.3292 13.3678 29.8471C13.3888 29.5392 13.3719 29.2286 13.3719 28.8757H13.3712Z" fill="url(#paint0_linear_5006_665)"/>
<defs>
<linearGradient id="paint0_linear_5006_665" x1="20" y1="8" x2="20" y2="27.8742" gradientUnits="userSpaceOnUse">
<stop stop-color="#5442DD"/>
<stop offset="1" stop-color="#C892F6"/>
</linearGradient>
</defs>
</svg>
