<svg width="40" height="40" viewBox="0 0 40 40" fill="none" xmlns="http://www.w3.org/2000/svg">
<path d="M31.5888 8.00622C23.9133 7.99793 16.1153 7.99793 8.41088 8.00622C5.89798 8.00878 4.00218 9.81935 4.00151 12.2173C3.99881 17.5584 4.00016 22.8547 4.00218 27.7821C4.00218 27.9864 4.00488 28.2035 4.03924 28.411C4.39361 30.5842 6.12433 31.9913 8.44927 31.9957C11.1474 32.0008 13.8907 31.9995 16.5438 31.9983C17.6823 31.9983 18.8215 31.9976 19.9601 31.9976C21.0986 31.9976 22.2695 31.9976 23.4242 31.9989C26.0874 32.0002 28.8408 32.0015 31.549 31.9957C34.1253 31.9906 35.9961 30.219 35.9975 27.7827C36.0008 22.6185 36.0008 17.3821 35.9975 12.2179C35.9961 9.78041 34.1421 8.00942 31.5888 8.00622ZM33.9878 27.6455C33.9925 28.342 33.7325 28.9734 33.2548 29.4235C32.7819 29.8691 32.1352 30.1015 31.3907 30.0919C28.6818 30.0613 25.9257 30.0677 23.2612 30.0734C21.0899 30.0779 18.9192 30.0779 16.7479 30.0734C14.0821 30.0677 11.3253 30.0613 8.61499 30.0926C8.60152 30.0926 8.58806 30.0926 8.57458 30.0926C7.84362 30.0926 7.21235 29.8615 6.74683 29.4222C6.26581 28.9689 6.00442 28.3267 6.00981 27.6148C6.04753 22.7347 6.04821 17.5999 6.01116 12.3533C6.00644 11.6638 6.26379 11.0368 6.73606 10.588C7.20495 10.1424 7.84631 9.90746 8.59075 9.90746C8.59547 9.90746 8.60018 9.90746 8.60489 9.90746C16.1968 9.93874 23.8608 9.93874 31.3846 9.90746C31.3894 9.90746 31.3948 9.90746 31.3995 9.90746C32.1473 9.90746 32.7907 10.143 33.2602 10.5893C33.7345 11.04 33.9932 11.6778 33.9878 12.3839C33.9508 17.2628 33.9508 22.3976 33.9865 27.6455H33.9878Z" fill="url(#paint0_linear_5006_560)"/>
<path d="M17.3313 20.0042C17.3333 20.5839 17.7894 20.9586 18.4928 20.9586C22.2769 20.9599 26.0611 20.9599 29.8446 20.9586C30.2057 20.9586 30.5196 20.8482 30.7291 20.649C30.9083 20.4785 31.0027 20.2519 31.0013 19.9946C30.9986 19.4245 30.5284 19.0414 29.8325 19.0408C28.4945 19.0395 27.1565 19.0401 25.8186 19.0401H22.5323C21.9845 19.0401 21.4368 19.0401 20.8898 19.0401C20.0867 19.0401 19.2837 19.0401 18.4806 19.0414C18.1202 19.0414 17.8083 19.15 17.6021 19.3466C17.4243 19.5158 17.3306 19.7437 17.332 20.0048L17.3313 20.0042Z" fill="url(#paint1_linear_5006_560)"/>
<path d="M19.8476 23.7741C18.5581 23.7741 17.2592 23.7734 15.9576 23.7734C14.0181 23.7734 12.0718 23.7734 10.1376 23.7753C10.0143 23.7753 9.88426 23.7792 9.77108 23.8066C9.27524 23.9254 8.94444 24.3684 9.00103 24.8377C9.05897 25.321 9.49891 25.6868 10.0244 25.6893C11.2114 25.6951 12.4187 25.6938 13.5862 25.6932C14.0625 25.6932 14.5388 25.6925 15.0151 25.6925H15.9893C17.2768 25.6938 18.5635 25.6945 19.8503 25.6925C20.5455 25.6919 21.0117 25.3057 21.0111 24.7323C21.0111 24.1597 20.5428 23.7747 19.8482 23.7747L19.8476 23.7741Z" fill="url(#paint2_linear_5006_560)"/>
<path d="M29.8682 23.7741C29.3184 23.7722 28.7687 23.7722 28.2189 23.7728C27.7346 23.7728 27.2502 23.7728 26.7658 23.7728C26.5239 23.7728 26.2821 23.7728 26.0402 23.7728C25.7317 23.7728 25.4231 23.7728 25.1146 23.7741C24.4523 23.7766 23.9875 24.168 23.9834 24.7253C23.9814 24.982 24.077 25.2105 24.2603 25.3855C24.4651 25.5815 24.7622 25.69 25.097 25.6913C26.7018 25.6951 28.3146 25.6951 29.8897 25.6913C30.2239 25.6906 30.521 25.5821 30.7258 25.3861C30.9084 25.2105 31.004 24.982 31.002 24.7247C30.9973 24.168 30.5311 23.7773 29.8688 23.7747L29.8682 23.7741Z" fill="url(#paint3_linear_5006_560)"/>
<path d="M13.312 19.0427C12.9375 19.0363 12.5555 19.0382 12.1856 19.0395C12.0172 19.0401 11.8494 19.0408 11.681 19.0408C11.5159 19.0408 11.3502 19.0401 11.1852 19.0395C11.0161 19.0395 10.8443 19.0382 10.6725 19.0382C10.465 19.0382 10.2561 19.0389 10.05 19.0421C9.45376 19.0504 9.00104 19.4596 8.99767 19.9933C8.9943 20.5277 9.44972 20.951 10.0338 20.9561C11.0626 20.9656 12.131 20.9656 13.2999 20.9567C13.8867 20.9522 14.3502 20.5341 14.3549 20.0042C14.3596 19.4749 13.9015 19.0523 13.3127 19.0421L13.312 19.0427Z" fill="url(#paint4_linear_5006_560)"/>
<defs>
<linearGradient id="paint0_linear_5006_560" x1="20" y1="8" x2="20" y2="27.0793" gradientUnits="userSpaceOnUse">
<stop stop-color="#5442DD"/>
<stop offset="1" stop-color="#C892F6"/>
</linearGradient>
<linearGradient id="paint1_linear_5006_560" x1="20" y1="8" x2="20" y2="27.0793" gradientUnits="userSpaceOnUse">
<stop stop-color="#5442DD"/>
<stop offset="1" stop-color="#C892F6"/>
</linearGradient>
<linearGradient id="paint2_linear_5006_560" x1="20" y1="8" x2="20" y2="27.0793" gradientUnits="userSpaceOnUse">
<stop stop-color="#5442DD"/>
<stop offset="1" stop-color="#C892F6"/>
</linearGradient>
<linearGradient id="paint3_linear_5006_560" x1="20" y1="8" x2="20" y2="27.0793" gradientUnits="userSpaceOnUse">
<stop stop-color="#5442DD"/>
<stop offset="1" stop-color="#C892F6"/>
</linearGradient>
<linearGradient id="paint4_linear_5006_560" x1="20" y1="8" x2="20" y2="27.0793" gradientUnits="userSpaceOnUse">
<stop stop-color="#5442DD"/>
<stop offset="1" stop-color="#C892F6"/>
</linearGradient>
</defs>
</svg>
