<svg width="40" height="40" viewBox="0 0 40 40" fill="none" xmlns="http://www.w3.org/2000/svg">
<g id="icon \ 05">
<g id="Vector">
<path d="M35.9099 19.6955C35.8503 19.4967 35.7892 19.2921 35.6933 19.1015C35.1781 18.0775 34.329 17.5274 33.1698 17.4661C32.858 17.4495 32.5513 17.4537 32.2255 17.4578C32.1172 17.4595 32.0081 17.4603 31.8973 17.4611V16.7892C31.8973 16.5912 31.8973 16.394 31.8989 16.196C31.9006 15.7495 31.9031 15.288 31.894 14.834C31.8873 14.4794 31.7476 14.1737 31.502 13.9732C31.2614 13.7769 30.9456 13.7031 30.6107 13.7661C28.3948 14.1803 26.7312 15.3568 25.6646 17.2623C25.5737 17.4255 25.5017 17.4686 25.324 17.4661C24.6989 17.4553 24.0639 17.457 23.4495 17.4586C23.2155 17.4586 22.9824 17.4603 22.7484 17.4603H22.54V7.17722C22.54 5.48463 21.7397 4.45815 20.0934 4.03894L20.0893 4.03562C20.081 4.02983 20.0728 4.02403 20.0645 4.01906L20.0347 4.00083H6.52101L6.50033 4.00828C6.39698 4.04557 6.2895 4.08119 6.18532 4.11433C5.94802 4.19138 5.70162 4.27091 5.47755 4.3927C4.76564 4.7796 4.29436 5.40344 4.0769 6.24683C4.06119 6.30649 4.04547 6.36531 4.02894 6.42413L4.00083 6.52603V20.0186L4.00662 20.0369C4.02895 20.1098 4.04961 20.1835 4.07028 20.2581C4.11575 20.4229 4.16288 20.5944 4.23647 20.7552C4.73919 21.8637 5.6115 22.4618 6.82859 22.5331C7.14031 22.5513 7.44789 22.5472 7.77366 22.5422C7.88197 22.5405 7.99194 22.5389 8.10356 22.538V24.3234C8.10356 24.4088 8.10356 24.4941 8.10273 24.5794C8.10108 24.7708 8.10026 24.9688 8.10522 25.1643C8.11514 25.5222 8.25653 25.8288 8.5021 26.0259C8.74601 26.2223 9.07095 26.2935 9.41822 26.2281C11.6275 25.8081 13.287 24.6258 14.3486 22.7137C14.4288 22.5695 14.4917 22.5314 14.6421 22.5347C15.3549 22.5438 16.0535 22.543 16.7935 22.5414C17.0143 22.5414 17.2367 22.5414 17.4608 22.5405V25.9978C17.4608 28.291 17.4608 30.5834 17.4608 32.8766C17.4608 34.7738 18.6886 36 20.587 36C22.4408 36 24.2937 36 26.1475 36C27.7912 36 29.4358 36 31.0795 36H32.8283C34.5117 36 35.5345 35.2055 35.9553 33.5717C35.957 33.5668 35.9644 33.5535 35.9694 33.5444C35.9752 33.5336 35.9818 33.5228 35.9868 33.5121L36 33.4856V19.978L35.9934 19.959C35.9636 19.872 35.9372 19.7834 35.9107 19.6939L35.9099 19.6955ZM19.5684 24.6366V22.5712C19.5684 22.5637 19.5692 22.5554 19.5701 22.5472C21.4271 22.3773 22.1952 21.611 22.5574 19.5679H23.3702C23.6347 19.5679 23.8993 19.5663 24.1639 19.5655C24.7774 19.5621 25.4116 19.5597 26.0334 19.5729C26.6444 19.587 27.0388 19.3293 27.2736 18.7627C27.7267 17.6707 28.4899 16.8456 29.5416 16.3104C29.6177 16.2714 29.6962 16.2375 29.7872 16.1977V16.7437C29.7872 17.2764 29.7872 17.7933 29.7872 18.3103C29.7872 19.1786 30.1725 19.5663 31.0349 19.5671C31.2623 19.5671 31.4896 19.5671 31.717 19.5671C32.1404 19.5671 32.5645 19.5663 32.9879 19.5679C33.56 19.5713 33.8883 19.8977 33.8883 20.4652C33.8899 24.6407 33.8899 28.8163 33.8883 32.9918C33.8883 33.5618 33.5608 33.889 32.9895 33.889C28.814 33.8907 24.6385 33.8907 20.4639 33.889C19.9206 33.889 19.5692 33.5593 19.5692 33.0498C19.5659 30.2446 19.5667 27.3929 19.5676 24.6349L19.5684 24.6366ZM9.89613 20.7411C9.68198 20.5282 9.37441 20.4205 8.97918 20.4205C8.93205 20.4205 8.8841 20.4221 8.83449 20.4254C8.39709 20.4528 7.94812 20.4453 7.5132 20.4379C7.34701 20.4354 7.18082 20.4329 7.01463 20.4312C6.43998 20.4279 6.11007 20.1023 6.11007 19.5381C6.10842 15.3634 6.10842 11.1887 6.11007 7.01483C6.11007 6.42247 6.4284 6.11014 7.03116 6.10931C11.1843 6.10848 15.3383 6.10848 19.4923 6.10931C20.1249 6.10931 20.4316 6.42082 20.4316 7.0604C20.4324 11.2036 20.4324 15.3477 20.4316 19.4909C20.4316 20.1147 20.1108 20.4312 19.4791 20.4312C19.0425 20.4312 18.6051 20.4321 18.1686 20.4329C16.7902 20.4354 15.3648 20.4379 13.9633 20.4254C13.3473 20.4213 12.9571 20.6781 12.7247 21.2357C12.2658 22.3384 11.4936 23.1685 10.4311 23.7029C10.3633 23.7369 10.2922 23.7683 10.2112 23.8031C10.2103 23.6308 10.2078 23.461 10.2054 23.2928C10.1988 22.7849 10.1921 22.3044 10.2194 21.8231C10.2467 21.3459 10.1376 20.9813 9.89613 20.7411Z" fill="url(#paint0_linear_5006_772)"/>
<path d="M13.2407 30.4301C12.8281 30.0341 12.1856 30.0424 11.7788 30.4484C11.3844 30.8427 11.372 31.4707 11.7507 31.909C11.7672 31.928 11.7838 31.9463 11.8003 31.9653C11.7763 31.9636 11.7532 31.9612 11.7309 31.9578C10.0301 31.7209 8.62612 30.9405 7.55785 29.6398C6.62106 28.499 6.13405 27.1518 6.10842 25.6349C6.09932 25.0922 5.79092 24.6929 5.28324 24.567C4.80864 24.4493 4.35389 24.6747 4.09674 25.1552C4.08517 25.1759 4.06863 25.1991 4.05126 25.2223C4.04134 25.2356 4.03142 25.2488 4.02233 25.2629L4 25.2944V26.325L4.00414 26.3557C4.01075 26.3822 4.0182 26.4087 4.02646 26.4344C4.04052 26.4833 4.05458 26.5297 4.05871 26.5719C4.23483 28.2753 4.98806 29.9446 6.18118 31.2727C7.3743 32.6016 8.95685 33.532 10.6353 33.8915C10.957 33.9603 11.2745 34.0092 11.6118 34.0614C11.692 34.0738 11.773 34.0862 11.8549 34.0995C11.84 34.1152 11.826 34.1309 11.8119 34.1459C11.3704 34.6164 11.3596 35.261 11.7871 35.6785C11.9938 35.8807 12.2493 35.9809 12.5089 35.9809C12.7843 35.9809 13.0645 35.8674 13.2944 35.6421C13.9319 35.0191 14.5446 34.406 15.1151 33.8211C15.5483 33.377 15.5632 32.7673 15.1515 32.3381C14.5363 31.6969 13.8939 31.054 13.2415 30.4285L13.2407 30.4301Z" fill="url(#paint1_linear_5006_772)"/>
<path d="M35.9975 13.902C35.9727 13.7553 35.9504 13.6079 35.9289 13.4604C35.8809 13.1439 35.8322 12.8175 35.7594 12.4985C34.9433 8.90377 31.9163 6.25512 28.2278 5.90716C28.1906 5.90384 28.1534 5.89887 28.1145 5.8939C28.1277 5.87899 28.1418 5.86408 28.155 5.84999C28.4386 5.55091 28.5602 5.20129 28.4973 4.86576C28.4337 4.52774 28.1906 4.24357 27.8144 4.06628C27.8069 4.06214 27.8011 4.05551 27.7945 4.04971C27.7854 4.04142 27.7763 4.03397 27.7673 4.02651L27.7334 4H27.2224L27.1926 4.0174C27.148 4.04391 27.1008 4.06876 27.0529 4.09362C26.9396 4.15244 26.8222 4.21375 26.7263 4.30654C25.9904 5.02234 25.3909 5.62133 24.8378 6.19298C24.4227 6.62214 24.4227 7.22113 24.8378 7.65028C25.4546 8.28986 26.0904 8.92448 26.7254 9.53838C27.1496 9.94765 27.802 9.94185 28.2096 9.52347C28.5974 9.12663 28.6032 8.49864 28.2237 8.06369C28.2104 8.04878 28.198 8.03469 28.1848 8.01978C30.232 8.30975 31.7666 9.27244 32.8688 10.9559C33.5145 11.9418 33.8461 13.0611 33.8808 14.3775C33.8908 14.7321 34.0479 15.0478 34.3133 15.2433C34.4902 15.3734 34.7019 15.4413 34.921 15.4413C35.021 15.4413 35.1227 15.4272 35.2236 15.399C35.6693 15.2731 35.8528 14.916 35.9901 14.5913L36 14.5681V13.9227L35.9983 13.902H35.9975Z" fill="url(#paint2_linear_5006_772)"/>
<path d="M22.5285 31.4053C23.0717 31.6737 23.6612 31.4591 23.9622 30.8825L24.0176 30.7764C24.1796 30.4674 24.3467 30.1485 24.4897 29.822C24.5492 29.6853 24.6096 29.6514 24.7766 29.6547C25.2479 29.6638 25.7258 29.6621 26.1888 29.6605C26.5485 29.6597 26.9082 29.6597 27.2687 29.6605C27.7433 29.6613 28.2336 29.663 28.7165 29.6563C28.8554 29.653 28.9041 29.6837 28.9571 29.7997C29.1142 30.146 29.2919 30.4873 29.4639 30.8179L29.4986 30.885C29.7111 31.2951 30.0708 31.5212 30.4561 31.5212C30.614 31.5212 30.7769 31.4831 30.9357 31.4044C31.1854 31.2802 31.3706 31.0697 31.4566 30.8121C31.5492 30.5345 31.5211 30.2238 31.378 29.9372C30.6785 28.5337 29.9765 27.1311 29.2746 25.7285C28.7487 24.678 28.2228 23.6267 27.6978 22.5753C27.4919 22.1636 27.1579 21.9457 26.7304 21.9457H26.7296C26.3029 21.9457 25.9689 22.1644 25.7622 22.577C25.2355 23.6308 24.7088 24.6846 24.1813 25.7385C23.4801 27.1386 22.7798 28.5395 22.0811 29.9405C21.9381 30.2263 21.9108 30.5362 22.0034 30.8121C22.0902 31.0697 22.2763 31.2802 22.5285 31.4053ZM25.6439 27.5305L26.7304 25.3549L27.8185 27.5305H25.6439Z" fill="url(#paint3_linear_5006_772)"/>
<path d="M13.3944 17.0005C14.4189 17.626 15.5599 17.9706 16.8837 18.0543C16.911 18.056 16.9374 18.0568 16.9639 18.0568C17.5534 18.0568 18.0181 17.6417 18.0586 17.0635C18.0983 16.4968 17.67 16.0295 17.04 15.9516C16.5273 15.8887 16.0841 15.8108 15.6848 15.7139C15.4739 15.6625 15.268 15.578 15.0506 15.4885C14.9977 15.467 14.9448 15.4454 14.891 15.4239C15.5682 14.4943 15.9676 13.4239 16.1404 12.0777C16.2032 12.0777 16.2652 12.0777 16.3264 12.0777C16.5339 12.0777 16.7307 12.0793 16.9283 12.076C17.5832 12.0669 18.0479 11.6427 18.0586 11.0429C18.0636 10.767 17.9635 10.5094 17.7766 10.3155C17.5666 10.0976 17.2632 9.97499 16.9234 9.97002C16.5629 9.96422 16.1966 9.96588 15.8427 9.9667C15.6856 9.9667 15.531 9.96588 15.3714 9.96753H14.3205C14.3205 9.95096 14.3205 9.93439 14.3205 9.91865C14.3205 9.80432 14.3222 9.70076 14.3188 9.5972C14.3007 8.94105 13.8707 8.48041 13.2721 8.4771H13.2663C12.6768 8.4771 12.2344 8.94353 12.2137 9.58892C12.2104 9.69993 12.2113 9.80929 12.2121 9.92528C12.2121 9.93937 12.2121 9.95428 12.2121 9.96836C11.9682 9.96836 11.7276 9.96836 11.4894 9.9667C10.8346 9.96505 10.2161 9.96339 9.58855 9.97085C8.95024 9.9783 8.4715 10.4348 8.47646 11.033C8.48059 11.627 8.95354 12.0652 9.60012 12.0752C9.80435 12.0785 10.0053 12.0777 10.2178 12.0768C10.2773 12.0768 10.3377 12.0768 10.398 12.0768C10.5617 13.3983 10.9694 14.4952 11.6416 15.4222C11.6358 15.4256 11.63 15.428 11.6242 15.4305C11.5283 15.4794 11.4456 15.5208 11.3613 15.5407C11.253 15.5664 11.1438 15.5929 11.0355 15.6186C10.5344 15.7395 10.0168 15.8638 9.50339 15.9467C8.86838 16.0486 8.4467 16.5026 8.47812 17.051C8.49465 17.3369 8.61867 17.5953 8.82621 17.7793C9.04945 17.9773 9.35125 18.0742 9.67619 18.0518C10.9867 17.964 12.1186 17.6219 13.1356 17.0055C13.2431 16.94 13.2936 16.9392 13.3928 16.9997L13.3944 17.0005ZM13.9939 12.1034C13.9054 12.8125 13.6681 13.4554 13.2704 14.0586C12.8818 13.4844 12.647 12.8564 12.5403 12.1034H13.9939Z" fill="url(#paint4_linear_5006_772)"/>
</g>
</g>
<defs>
<linearGradient id="paint0_linear_5006_772" x1="20" y1="4" x2="20" y2="29.439" gradientUnits="userSpaceOnUse">
<stop stop-color="#5442DD"/>
<stop offset="1" stop-color="#C892F6"/>
</linearGradient>
<linearGradient id="paint1_linear_5006_772" x1="20" y1="4" x2="20" y2="29.439" gradientUnits="userSpaceOnUse">
<stop stop-color="#5442DD"/>
<stop offset="1" stop-color="#C892F6"/>
</linearGradient>
<linearGradient id="paint2_linear_5006_772" x1="20" y1="4" x2="20" y2="29.439" gradientUnits="userSpaceOnUse">
<stop stop-color="#5442DD"/>
<stop offset="1" stop-color="#C892F6"/>
</linearGradient>
<linearGradient id="paint3_linear_5006_772" x1="20" y1="4" x2="20" y2="29.439" gradientUnits="userSpaceOnUse">
<stop stop-color="#5442DD"/>
<stop offset="1" stop-color="#C892F6"/>
</linearGradient>
<linearGradient id="paint4_linear_5006_772" x1="20" y1="4" x2="20" y2="29.439" gradientUnits="userSpaceOnUse">
<stop stop-color="#5442DD"/>
<stop offset="1" stop-color="#C892F6"/>
</linearGradient>
</defs>
</svg>
