<svg width="40" height="40" viewBox="0 0 40 40" fill="none" xmlns="http://www.w3.org/2000/svg">
<path d="M4 10.6871C4.05343 10.4567 4.10185 10.2237 4.16195 9.99494C4.74629 7.78067 6.70716 6.25523 9.00193 6.25189C13.6983 6.24522 18.3947 6.25023 23.0911 6.24939C23.2147 6.24939 23.3374 6.24939 23.5002 6.24939C23.5002 5.92042 23.4977 5.6115 23.5002 5.3034C23.5077 4.54778 24.047 3.99338 24.7623 4.00006C25.4652 4.00674 25.9978 4.5553 25.9978 5.29839C26.0003 13.4316 26.0003 21.5639 25.9978 29.697C25.9978 30.4518 25.4485 31.0062 24.7331 30.9979C24.0328 30.9895 23.5085 30.4368 23.5002 29.6962C23.4968 29.3956 23.5002 29.0942 23.5002 28.7494H23.1237C18.469 28.7494 13.8144 28.7494 9.15971 28.7494C6.49429 28.7494 4.49919 27.0578 4.04925 24.4227C4.04257 24.3843 4.0167 24.3484 4 24.3117C4 19.7696 4 15.2283 4 10.6863V10.6871ZM23.486 8.7492H23.1537C18.4882 8.7492 13.8219 8.7492 9.15636 8.7492C7.55444 8.7492 6.50013 9.80707 6.50013 11.4135C6.49929 15.4646 6.50013 19.5166 6.50013 23.5677C6.50013 25.195 7.54943 26.2479 9.17222 26.2487C13.8277 26.2487 18.4832 26.2487 23.1387 26.2487H23.486V8.7492Z" fill="url(#paint0_linear_5006_6)"/>
<path d="M4 34.4996C4.25127 33.7523 4.77967 33.4751 5.5535 33.491C6.98596 33.5202 8.41926 33.4985 9.85256 33.4994C10.6013 33.4994 11.1139 33.8868 11.2333 34.5405C11.3468 35.1634 10.9954 35.6994 10.3 35.9641C10.2816 35.9708 10.2666 35.9875 10.2499 36H5.00005C4.49502 35.838 4.16111 35.5057 4 34.9997V34.4996Z" fill="url(#paint1_linear_5006_6)"/>
<path d="M19.7496 35.9992C19.6644 35.9624 19.5793 35.9265 19.495 35.8881C18.9682 35.651 18.6644 35.0849 18.767 34.5355C18.8756 33.9561 19.3531 33.5102 19.9382 33.5052C21.5627 33.4918 23.1871 33.4918 24.8116 33.5052C25.3968 33.5102 25.8734 33.9552 25.9828 34.5355C26.0863 35.0849 25.7816 35.6502 25.2549 35.8881C25.1705 35.9265 25.0854 35.9624 25.0003 35.9992H19.7496Z" fill="url(#paint2_linear_5006_6)"/>
<path d="M35.9992 17.5303C35.9992 19.5609 36.0008 21.5914 35.9992 23.6228C35.9967 26.5652 33.8096 28.7452 30.8603 28.7494C30.4855 28.7494 30.1107 28.7569 29.7359 28.7469C29.0297 28.7293 28.4913 28.1716 28.5004 27.4803C28.5096 26.8023 29.0472 26.2696 29.7426 26.2504C30.3035 26.2345 30.8737 26.2796 31.4246 26.1953C32.6584 26.0049 33.4949 24.9813 33.4982 23.7164C33.504 20.6546 33.5007 17.5929 33.5007 14.5312C33.5007 13.4691 33.504 12.4062 33.5007 11.3442C33.4949 9.82377 32.4222 8.75588 30.8987 8.75004C30.5131 8.74837 30.1282 8.75672 29.7426 8.74753C29.0355 8.73083 28.4954 8.17643 28.5021 7.48594C28.5088 6.80797 29.0447 6.25523 29.7384 6.2544C30.5999 6.25357 31.4647 6.19011 32.3153 6.42473C34.4632 7.01921 35.9741 8.96128 36 11.1881C36 11.219 36 11.2507 36 11.2816C36 13.3648 36 15.4471 36 17.5303H35.9992Z" fill="url(#paint3_linear_5006_6)"/>
<path d="M32.2486 30.9995C33.0599 30.9995 33.8713 30.997 34.6827 31.0004C35.4432 31.0037 35.9975 31.5339 35.9983 32.2486C35.9983 32.9625 35.444 33.4968 34.6844 33.4985C33.0616 33.5019 31.4388 33.5019 29.816 33.4985C29.0564 33.4968 28.5013 32.9633 28.5013 32.2503C28.5013 31.5364 29.0564 31.0046 29.8152 31.0012C30.6266 30.997 31.438 31.0004 32.2494 31.0004L32.2486 30.9995Z" fill="url(#paint4_linear_5006_6)"/>
<path d="M15.0114 33.4985C14.5957 33.4985 14.1792 33.5044 13.7634 33.4968C13.0497 33.4852 12.5063 32.9483 12.5013 32.2603C12.4954 31.5573 13.043 31.0071 13.7718 31.0012C14.5932 30.9937 15.4146 30.9937 16.236 31.0012C16.9506 31.0079 17.4932 31.5464 17.499 32.2369C17.5049 32.9399 16.9581 33.486 16.2285 33.4977C15.8228 33.5044 15.4171 33.4985 15.0123 33.4985H15.0114Z" fill="url(#paint5_linear_5006_6)"/>
<path d="M11.25 17.4977C11.25 16.2787 11.2491 15.0605 11.25 13.8415C11.2508 12.8012 11.6941 12.0005 12.6206 11.5287C13.5598 11.0503 14.4755 11.1697 15.3195 11.8009C16.9364 13.0116 18.5542 14.2206 20.1661 15.4371C21.6169 16.5325 21.6161 18.4646 20.1644 19.5609C18.5525 20.7782 16.9347 21.9872 15.3178 23.197C14.4855 23.819 13.5798 23.946 12.6465 23.4809C11.7032 23.0108 11.2508 22.2068 11.25 21.1531C11.2483 19.9341 11.25 18.7159 11.25 17.4969V17.4977ZM13.7751 21.2316C15.4472 19.9775 17.0816 18.751 18.7512 17.4977C17.08 16.2445 15.4447 15.0179 13.7751 13.7655V21.2316Z" fill="url(#paint6_linear_5006_6)"/>
<defs>
<linearGradient id="paint0_linear_5006_6" x1="20" y1="4" x2="20" y2="29.439" gradientUnits="userSpaceOnUse">
<stop stop-color="#5442DD"/>
<stop offset="1" stop-color="#C892F6"/>
</linearGradient>
<linearGradient id="paint1_linear_5006_6" x1="20" y1="4" x2="20" y2="29.439" gradientUnits="userSpaceOnUse">
<stop stop-color="#5442DD"/>
<stop offset="1" stop-color="#C892F6"/>
</linearGradient>
<linearGradient id="paint2_linear_5006_6" x1="20" y1="4" x2="20" y2="29.439" gradientUnits="userSpaceOnUse">
<stop stop-color="#5442DD"/>
<stop offset="1" stop-color="#C892F6"/>
</linearGradient>
<linearGradient id="paint3_linear_5006_6" x1="20" y1="4" x2="20" y2="29.439" gradientUnits="userSpaceOnUse">
<stop stop-color="#5442DD"/>
<stop offset="1" stop-color="#C892F6"/>
</linearGradient>
<linearGradient id="paint4_linear_5006_6" x1="20" y1="4" x2="20" y2="29.439" gradientUnits="userSpaceOnUse">
<stop stop-color="#5442DD"/>
<stop offset="1" stop-color="#C892F6"/>
</linearGradient>
<linearGradient id="paint5_linear_5006_6" x1="20" y1="4" x2="20" y2="29.439" gradientUnits="userSpaceOnUse">
<stop stop-color="#5442DD"/>
<stop offset="1" stop-color="#C892F6"/>
</linearGradient>
<linearGradient id="paint6_linear_5006_6" x1="20" y1="4" x2="20" y2="29.439" gradientUnits="userSpaceOnUse">
<stop stop-color="#5442DD"/>
<stop offset="1" stop-color="#C892F6"/>
</linearGradient>
</defs>
</svg>
