<svg width="40" height="40" viewBox="0 0 40 40" fill="none" xmlns="http://www.w3.org/2000/svg">
<g id="icon \ 17">
<g id="Vector">
<path d="M16.1739 36L16.15 35.9871C16.0754 35.9472 15.9934 35.9227 15.9186 35.883C15.6819 35.7573 15.481 35.5404 15.4037 35.28C15.321 35.0016 15.3446 34.7054 15.4879 34.4501C15.6234 34.2085 15.8404 34.0325 16.1085 33.9601C16.3202 33.9029 16.534 33.9097 16.7514 33.9096L17.4432 33.9095L18.9563 33.9116L18.9549 33.8969L18.9545 30.9779L18.0788 30.838C17.7881 30.7811 17.4872 30.7008 17.2042 30.6151C15.6589 30.1467 14.2488 29.2766 13.12 28.1255C12.8131 27.8124 12.5084 27.476 12.2533 27.1186C11.93 26.6656 11.6312 26.1996 11.3795 25.7024C10.8175 24.5924 10.4541 23.3062 10.3906 22.0625C10.3766 21.7881 10.3345 21.4844 10.3815 21.2133C10.4305 20.9306 10.581 20.6974 10.8149 20.5317C11.0331 20.3771 11.3212 20.3199 11.5832 20.368C11.8687 20.4204 12.1081 20.5787 12.2722 20.8179C12.4422 21.0658 12.4494 21.3519 12.4616 21.6413L12.4937 22.1776C12.5143 22.4167 12.5577 22.6707 12.6052 22.9062C13.195 25.8381 15.584 28.2184 18.5176 28.7946C20.4592 29.176 22.5526 28.7836 24.1929 27.6637C25.8238 26.5504 27.0397 24.8148 27.4037 22.8594C27.4551 22.5833 27.5006 22.296 27.5202 22.0159C27.5599 21.4478 27.4863 20.8871 28.0195 20.5231C28.2416 20.3716 28.5281 20.3204 28.7909 20.3706C29.0699 20.4239 29.3166 20.5901 29.4719 20.8281C29.5595 20.9624 29.6119 21.1197 29.632 21.2785C29.6537 21.448 29.6337 21.6271 29.625 21.7975C29.5984 22.3252 29.5499 22.8617 29.433 23.3783C29.3175 23.8891 29.1798 24.3903 28.9885 24.8788C28.3949 26.3953 27.4137 27.7521 26.1614 28.7907C25.8482 29.0505 25.5204 29.3079 25.174 29.5233C24.1629 30.1517 23.0694 30.6009 21.9021 30.8423L21.0493 30.9829L21.0452 33.9133L22.7727 33.9098L23.3439 33.9104C23.4986 33.9107 23.658 33.9068 23.81 33.9398C24.01 33.9831 24.1959 34.0789 24.3419 34.2234C24.5379 34.4176 24.6528 34.7026 24.6472 34.9786C24.6415 35.2568 24.5247 35.5257 24.3223 35.7169C24.2187 35.8146 24.1024 35.8807 23.9717 35.9353C23.9194 35.9572 23.8575 35.9702 23.8105 36H16.1739Z" fill="url(#paint0_linear_5006_731)"/>
<path d="M19.5212 4H20.4784C20.6819 4.07342 20.9411 4.07103 21.1563 4.11133C21.7209 4.21703 22.3134 4.43378 22.8135 4.71579C24.1533 5.4713 25.2372 6.72377 25.6527 8.22262C25.7644 8.62552 25.8478 9.04144 25.8754 9.45925L25.8972 10.6203L25.8974 20.3351C25.8974 21.0637 25.9364 21.8141 25.85 22.5379C25.7597 23.2957 25.5281 24.0527 25.1476 24.7167C24.3759 26.0633 23.1098 27.1126 21.6004 27.5222C20.1085 27.927 18.464 27.7643 17.1164 26.9857C16.0519 26.3706 15.2137 25.4859 14.682 24.3756C14.5469 24.0933 14.4188 23.7914 14.3388 23.4884C14.2596 23.1887 14.1905 22.8892 14.1544 22.5807C14.0871 22.0057 14.1014 21.4254 14.1012 20.8477L14.1011 11.2984C14.1012 10.6001 14.069 9.88559 14.1528 9.19172C14.2423 8.45085 14.4709 7.67851 14.8486 7.03106C15.6194 5.70961 16.808 4.68838 18.289 4.25128C18.4889 4.19227 18.6984 4.13441 18.9045 4.10075C19.1017 4.06855 19.3119 4.05709 19.5043 4.00483L19.5212 4ZM19.746 6.10024C18.7404 6.17599 17.8065 6.62247 17.1435 7.3895C16.7011 7.90127 16.3844 8.51992 16.2672 9.18937C16.2013 9.56576 16.1999 9.93791 16.1992 10.3187L16.1994 21.1659C16.1995 21.5157 16.1911 21.8685 16.2182 22.2174C16.2942 23.197 16.815 24.132 17.5582 24.7629C18.3209 25.4103 19.3075 25.7086 20.3008 25.6401C21.3172 25.565 22.2385 25.0655 22.9002 24.2987C23.3599 23.7661 23.648 23.1106 23.7591 22.4177C23.805 22.1309 23.8034 21.8277 23.8042 21.5376L23.8044 10.6417C23.8042 10.2797 23.812 9.91481 23.7835 9.55359C23.7084 8.60067 23.2289 7.64842 22.501 7.02619C21.7352 6.37149 20.7556 6.02475 19.746 6.10024Z" fill="url(#paint1_linear_5006_731)"/>
</g>
</g>
<defs>
<linearGradient id="paint0_linear_5006_731" x1="20.0008" y1="4" x2="20.0008" y2="29.439" gradientUnits="userSpaceOnUse">
<stop stop-color="#5442DD"/>
<stop offset="1" stop-color="#C892F6"/>
</linearGradient>
<linearGradient id="paint1_linear_5006_731" x1="20.0008" y1="4" x2="20.0008" y2="29.439" gradientUnits="userSpaceOnUse">
<stop stop-color="#5442DD"/>
<stop offset="1" stop-color="#C892F6"/>
</linearGradient>
</defs>
</svg>
