<svg width="14" height="13" viewBox="0 0 14 13" fill="none" xmlns="http://www.w3.org/2000/svg">
  <path
    d="M0.962427 5.66597C4.72052 3.97251 7.2265 2.85607 8.48037 2.31666C12.0604 0.776548 12.8043 0.509014 13.2892 0.500086C13.3958 0.498237 13.6343 0.525572 13.7887 0.655196C13.9192 0.764649 13.955 0.912504 13.9722 1.01628C13.9894 1.12005 14.0108 1.35645 13.9938 1.54116C13.7998 3.64946 12.9603 8.76575 12.5332 11.1271C12.3525 12.1263 11.9967 12.4613 11.6522 12.4941C10.9036 12.5653 10.3351 11.9824 9.61007 11.4908C8.47546 10.7215 7.83448 10.2427 6.73315 9.49202C5.46037 8.62453 6.28546 8.14774 7.01081 7.36853C7.20064 7.16461 10.4991 4.06157 10.5629 3.78007C10.5709 3.74487 10.5783 3.61364 10.503 3.54434C10.4276 3.47505 10.3163 3.49874 10.236 3.51759C10.1222 3.5443 8.3097 4.7834 4.7984 7.23487C4.28392 7.60027 3.81791 7.7783 3.40039 7.76897C2.9401 7.75868 2.05469 7.49979 1.39648 7.2785C0.589162 7.00708 -0.0524811 6.86357 0.00339163 6.40261C0.0324936 6.16251 0.352172 5.91697 0.962427 5.66597Z"
    fill="white" />
</svg>