<svg width="90" height="90" viewBox="0 0 90 90" fill="none" xmlns="http://www.w3.org/2000/svg">
<g id="tg">
<g id="Vector">
<path d="M35.5735 60.5754C37.7825 58.5667 39.9915 56.5593 42.2306 54.5246C42.391 54.6288 42.546 54.7138 42.6845 54.8207C45.7162 57.138 48.7465 59.4552 51.7741 61.7751C52.3898 62.2468 52.6407 63.5768 52.2801 64.4077C52.0127 65.0247 51.1242 65.447 50.2905 65.2976C50.0409 65.2523 49.7982 65.0768 49.5871 64.9164C47.4055 63.2573 45.2308 61.5873 43.052 59.9227C42.8723 59.7856 42.6872 59.6567 42.4665 59.4949C41.0308 60.7989 39.6116 62.085 38.1938 63.3725C37.8044 63.7263 37.4287 64.0951 37.0256 64.431C35.5899 65.6253 33.5455 65.336 32.5788 63.7482C32.1921 63.1134 31.9124 62.3949 31.6875 61.6819C30.5892 58.1978 29.5169 54.7056 28.4611 51.2091C28.3267 50.7635 28.1073 50.5373 27.6686 50.3933C24.87 49.476 22.0645 48.5738 19.2974 47.5688C18.4418 47.2589 17.5807 46.7667 16.9253 46.1442C15.3539 44.651 15.5705 42.3735 17.312 41.0819C17.7302 40.772 18.1964 40.5074 18.6749 40.3031C21.5311 39.0856 24.3846 37.8584 27.2709 36.7135C28.0347 36.4105 28.9054 36.3213 29.7363 36.2542C30.5604 36.187 30.9375 36.6161 31.1445 37.6102C31.3365 38.5275 31.076 39.2295 30.389 39.5216C28.0772 40.5033 25.7585 41.4686 23.4439 42.4435C22.4005 42.8822 21.3583 43.3279 20.1572 43.8365C21.8136 44.3987 23.2972 44.9033 24.7808 45.4024C26.7937 46.0797 28.8121 46.7379 30.8168 47.4372C31.2501 47.588 31.5655 47.5414 31.9494 47.3028C39.4032 42.6793 46.8639 38.0695 54.3273 33.4625C54.6152 33.2843 54.9292 33.1293 55.2528 33.0388C55.4132 32.9936 55.7177 33.0621 55.7848 33.1787C55.8795 33.3419 55.8877 33.6367 55.7985 33.8053C55.6642 34.059 55.427 34.2646 55.2103 34.4648C49.3087 39.9617 43.4071 45.4586 37.4918 50.9404C37.0503 51.3504 36.7952 51.7727 36.7075 52.3828C36.3167 55.0922 35.8724 57.7934 35.4473 60.4972C35.4885 60.5233 35.531 60.548 35.5721 60.574L35.5735 60.5754Z" fill="black"/>
<path d="M35.5735 60.5754C37.7825 58.5667 39.9915 56.5593 42.2306 54.5246C42.391 54.6288 42.546 54.7138 42.6845 54.8207C45.7162 57.138 48.7465 59.4552 51.7741 61.7751C52.3898 62.2468 52.6407 63.5768 52.2801 64.4077C52.0127 65.0247 51.1242 65.447 50.2905 65.2976C50.0409 65.2523 49.7982 65.0768 49.5871 64.9164C47.4055 63.2573 45.2308 61.5873 43.052 59.9227C42.8723 59.7856 42.6872 59.6567 42.4665 59.4949C41.0308 60.7989 39.6116 62.085 38.1938 63.3725C37.8044 63.7263 37.4287 64.0951 37.0256 64.431C35.5899 65.6253 33.5455 65.336 32.5788 63.7482C32.1921 63.1134 31.9124 62.3949 31.6875 61.6819C30.5892 58.1978 29.5169 54.7056 28.4611 51.2091C28.3267 50.7635 28.1073 50.5373 27.6686 50.3933C24.87 49.476 22.0645 48.5738 19.2974 47.5688C18.4418 47.2589 17.5807 46.7667 16.9253 46.1442C15.3539 44.651 15.5705 42.3735 17.312 41.0819C17.7302 40.772 18.1964 40.5074 18.6749 40.3031C21.5311 39.0856 24.3846 37.8584 27.2709 36.7135C28.0347 36.4105 28.9054 36.3213 29.7363 36.2542C30.5604 36.187 30.9375 36.6161 31.1445 37.6102C31.3365 38.5275 31.076 39.2295 30.389 39.5216C28.0772 40.5033 25.7585 41.4686 23.4439 42.4435C22.4005 42.8822 21.3583 43.3279 20.1572 43.8365C21.8136 44.3987 23.2972 44.9033 24.7808 45.4024C26.7937 46.0797 28.8121 46.7379 30.8168 47.4372C31.2501 47.588 31.5655 47.5414 31.9494 47.3028C39.4032 42.6793 46.8639 38.0695 54.3273 33.4625C54.6152 33.2843 54.9292 33.1293 55.2528 33.0388C55.4132 32.9936 55.7177 33.0621 55.7848 33.1787C55.8795 33.3419 55.8877 33.6367 55.7985 33.8053C55.6642 34.059 55.427 34.2646 55.2103 34.4648C49.3087 39.9617 43.4071 45.4586 37.4918 50.9404C37.0503 51.3504 36.7952 51.7727 36.7075 52.3828C36.3167 55.0922 35.8724 57.7934 35.4473 60.4972C35.4885 60.5233 35.531 60.548 35.5721 60.574L35.5735 60.5754Z" fill="url(#paint0_linear_206_1333)"/>
<path d="M61.8592 26.3079C59.3444 27.3609 56.9654 28.3523 54.5905 29.3505C48.7177 31.8185 42.8477 34.292 36.9748 36.7601C35.6297 37.325 34.9098 37.107 34.4203 36.0046C33.9445 34.9324 34.4656 33.6599 35.6091 33.1787C43.7554 29.7549 51.903 26.3367 60.052 22.9212C61.0118 22.5181 61.9977 22.2603 63.0535 22.5126C64.5742 22.8759 65.7479 24.1429 65.6643 25.6964C65.5793 27.2814 65.2803 28.8623 64.9773 30.4254C62.9959 40.6473 60.9871 50.8636 58.9907 61.0827C58.7781 62.1728 57.8224 62.7294 56.7584 62.3716C55.5723 61.9726 55.1047 61.1746 55.3502 59.7842C55.6889 57.8729 56.081 55.9725 56.454 54.0666C58.2091 45.1035 59.9642 36.1403 61.718 27.1772C61.766 26.9359 61.7975 26.6904 61.8606 26.3065L61.8592 26.3079Z" fill="black"/>
<path d="M61.8592 26.3079C59.3444 27.3609 56.9654 28.3523 54.5905 29.3505C48.7177 31.8185 42.8477 34.292 36.9748 36.7601C35.6297 37.325 34.9098 37.107 34.4203 36.0046C33.9445 34.9324 34.4656 33.6599 35.6091 33.1787C43.7554 29.7549 51.903 26.3367 60.052 22.9212C61.0118 22.5181 61.9977 22.2603 63.0535 22.5126C64.5742 22.8759 65.7479 24.1429 65.6643 25.6964C65.5793 27.2814 65.2803 28.8623 64.9773 30.4254C62.9959 40.6473 60.9871 50.8636 58.9907 61.0827C58.7781 62.1728 57.8224 62.7294 56.7584 62.3716C55.5723 61.9726 55.1047 61.1746 55.3502 59.7842C55.6889 57.8729 56.081 55.9725 56.454 54.0666C58.2091 45.1035 59.9642 36.1403 61.718 27.1772C61.766 26.9359 61.7975 26.6904 61.8606 26.3065L61.8592 26.3079Z" fill="url(#paint1_linear_206_1333)"/>
<path d="M6.80453 43.8763C7.07877 29.5013 12.7281 18.4691 24.2488 10.5563C24.7616 10.2039 25.4568 10.0448 26.089 9.96256C26.7266 9.8803 27.3491 10.5905 27.3203 11.2405C27.2833 12.0919 27.0694 12.7295 26.2343 13.3123C14.3749 21.5843 8.94496 32.9634 10.6137 47.3411C11.8464 57.962 17.3394 66.1998 26.1685 72.2108C26.8349 72.6647 27.2901 73.6629 27.0844 74.2566C26.8513 74.9326 26.0615 75.5029 25.3321 75.4536C25.0537 75.4358 24.7534 75.3178 24.5189 75.1629C15.4636 69.1354 9.77864 60.8071 7.60804 50.1424C7.15967 47.9362 7.02666 45.6656 6.80453 43.8749V43.8763Z" fill="black"/>
<path d="M6.80453 43.8763C7.07877 29.5013 12.7281 18.4691 24.2488 10.5563C24.7616 10.2039 25.4568 10.0448 26.089 9.96256C26.7266 9.8803 27.3491 10.5905 27.3203 11.2405C27.2833 12.0919 27.0694 12.7295 26.2343 13.3123C14.3749 21.5843 8.94496 32.9634 10.6137 47.3411C11.8464 57.962 17.3394 66.1998 26.1685 72.2108C26.8349 72.6647 27.2901 73.6629 27.0844 74.2566C26.8513 74.9326 26.0615 75.5029 25.3321 75.4536C25.0537 75.4358 24.7534 75.3178 24.5189 75.1629C15.4636 69.1354 9.77864 60.8071 7.60804 50.1424C7.15967 47.9362 7.02666 45.6656 6.80453 43.8749V43.8763Z" fill="url(#paint2_linear_206_1333)"/>
<path d="M84.0739 43.4485C83.8984 61.0114 71.2615 76.5587 54.0352 80.402C48.6067 81.6128 43.1671 81.669 37.7112 80.5789C37.197 80.4761 36.8734 80.2252 36.883 79.7521C36.8953 79.1338 36.9447 78.4797 37.1641 77.9121C37.3862 77.3375 37.9251 77.1579 38.5901 77.2909C52.8779 80.1333 67.3536 73.9796 75.1707 61.6805C80.1756 53.8061 81.6908 45.2255 80.1029 36.0595C80.0083 35.5151 80.0453 34.9228 80.1495 34.3771C80.3127 33.5297 80.698 33.2541 81.4576 33.2568C82.3873 33.261 82.9948 33.6846 83.173 34.4703C83.8449 37.4251 84.1054 40.4224 84.0739 43.4485Z" fill="black"/>
<path d="M84.0739 43.4485C83.8984 61.0114 71.2615 76.5587 54.0352 80.402C48.6067 81.6128 43.1671 81.669 37.7112 80.5789C37.197 80.4761 36.8734 80.2252 36.883 79.7521C36.8953 79.1338 36.9447 78.4797 37.1641 77.9121C37.3862 77.3375 37.9251 77.1579 38.5901 77.2909C52.8779 80.1333 67.3536 73.9796 75.1707 61.6805C80.1756 53.8061 81.6908 45.2255 80.1029 36.0595C80.0083 35.5151 80.0453 34.9228 80.1495 34.3771C80.3127 33.5297 80.698 33.2541 81.4576 33.2568C82.3873 33.261 82.9948 33.6846 83.173 34.4703C83.8449 37.4251 84.1054 40.4224 84.0739 43.4485Z" fill="url(#paint3_linear_206_1333)"/>
<path d="M45.8259 4.11328C58.7548 4.51365 69.3939 9.94884 77.2056 20.7822C77.8734 21.7077 77.7911 22.6209 77.0314 23.1556C76.1772 23.7576 75.013 23.5354 74.3919 22.6552C70.0027 16.4357 64.2369 12.0138 57.0491 9.49774C50.5647 7.22714 43.9638 6.95154 37.271 8.48721C36.5525 8.65175 35.7792 8.68054 35.0401 8.63529C34.0803 8.57771 33.6867 8.17733 33.6305 7.44515C33.5715 6.68142 34.0857 5.81761 34.8399 5.66952C37.3451 5.17728 39.8557 4.7111 42.376 4.31073C43.3852 4.1503 44.4259 4.18595 45.8259 4.11328Z" fill="black"/>
<path d="M45.8259 4.11328C58.7548 4.51365 69.3939 9.94884 77.2056 20.7822C77.8734 21.7077 77.7911 22.6209 77.0314 23.1556C76.1772 23.7576 75.013 23.5354 74.3919 22.6552C70.0027 16.4357 64.2369 12.0138 57.0491 9.49774C50.5647 7.22714 43.9638 6.95154 37.271 8.48721C36.5525 8.65175 35.7792 8.68054 35.0401 8.63529C34.0803 8.57771 33.6867 8.17733 33.6305 7.44515C33.5715 6.68142 34.0857 5.81761 34.8399 5.66952C37.3451 5.17728 39.8557 4.7111 42.376 4.31073C43.3852 4.1503 44.4259 4.18595 45.8259 4.11328Z" fill="url(#paint4_linear_206_1333)"/>
<path d="M50.2768 85.8866C49.9381 85.6878 49.3649 85.5383 49.3114 85.2805C49.1922 84.7088 49.8078 84.6868 50.2055 84.5813C53.6664 83.6667 57.1464 82.8248 60.5881 81.8445C66.1277 80.2663 70.9612 77.3869 75.2818 73.6108C76.365 72.6647 77.4442 71.7131 78.5507 70.7958C78.9552 70.4599 79.3844 70.0458 80.0069 70.3475C79.7999 70.7999 79.697 71.3566 79.368 71.6871C73.938 77.1538 67.7375 81.3824 60.2001 83.3952C57.2054 84.1946 54.1888 84.9117 51.1804 85.6576C50.9171 85.7234 50.6374 85.722 50.3659 85.7522C50.3357 85.7961 50.3069 85.8413 50.2768 85.8852V85.8866Z" fill="black"/>
<path d="M50.2768 85.8866C49.9381 85.6878 49.3649 85.5383 49.3114 85.2805C49.1922 84.7088 49.8078 84.6868 50.2055 84.5813C53.6664 83.6667 57.1464 82.8248 60.5881 81.8445C66.1277 80.2663 70.9612 77.3869 75.2818 73.6108C76.365 72.6647 77.4442 71.7131 78.5507 70.7958C78.9552 70.4599 79.3844 70.0458 80.0069 70.3475C79.7999 70.7999 79.697 71.3566 79.368 71.6871C73.938 77.1538 67.7375 81.3824 60.2001 83.3952C57.2054 84.1946 54.1888 84.9117 51.1804 85.6576C50.9171 85.7234 50.6374 85.722 50.3659 85.7522C50.3357 85.7961 50.3069 85.8413 50.2768 85.8852V85.8866Z" fill="url(#paint5_linear_206_1333)"/>
<path d="M50.972 12.3319C50.5455 12.8968 50.0162 13.0572 49.3745 12.9996C41.1899 12.251 34.0144 14.7808 27.6274 19.7744C26.7595 20.4532 26.1013 21.3951 25.3074 22.1753C25.0852 22.3933 24.6629 22.6525 24.4408 22.5757C23.9787 22.4166 24.0349 21.9011 24.2598 21.5843C24.8371 20.7713 25.3938 19.9088 26.1232 19.2466C29.6445 16.0436 33.7251 13.8374 38.3035 12.5115C41.9975 11.4407 45.7395 11.0924 49.5583 11.464C50.274 11.5339 50.4509 11.634 50.972 12.3333V12.3319Z" fill="black"/>
<path d="M50.972 12.3319C50.5455 12.8968 50.0162 13.0572 49.3745 12.9996C41.1899 12.251 34.0144 14.7808 27.6274 19.7744C26.7595 20.4532 26.1013 21.3951 25.3074 22.1753C25.0852 22.3933 24.6629 22.6525 24.4408 22.5757C23.9787 22.4166 24.0349 21.9011 24.2598 21.5843C24.8371 20.7713 25.3938 19.9088 26.1232 19.2466C29.6445 16.0436 33.7251 13.8374 38.3035 12.5115C41.9975 11.4407 45.7395 11.0924 49.5583 11.464C50.274 11.5339 50.4509 11.634 50.972 12.3333V12.3319Z" fill="url(#paint6_linear_206_1333)"/>
<path d="M60.8994 58.8464C61.563 54.7947 62.2267 50.7416 62.8917 46.6899C62.9027 46.6227 62.9301 46.5582 62.9493 46.4924C63.0919 46.0276 63.2962 45.5834 63.8831 45.7177C64.4316 45.8439 64.4467 46.3183 64.3685 46.7694C64.1834 47.8485 63.9448 48.9207 63.7912 50.0039C63.4004 52.7613 63.0439 55.5227 62.6737 58.2828C62.6408 58.5324 62.6202 58.7833 62.5736 59.0301C62.4776 59.532 62.2884 60.0242 61.6768 59.9419C61.1023 59.8651 61.0722 59.3441 60.898 58.845L60.8994 58.8464Z" fill="black"/>
<path d="M60.8994 58.8464C61.563 54.7947 62.2267 50.7416 62.8917 46.6899C62.9027 46.6227 62.9301 46.5582 62.9493 46.4924C63.0919 46.0276 63.2962 45.5834 63.8831 45.7177C64.4316 45.8439 64.4467 46.3183 64.3685 46.7694C64.1834 47.8485 63.9448 48.9207 63.7912 50.0039C63.4004 52.7613 63.0439 55.5227 62.6737 58.2828C62.6408 58.5324 62.6202 58.7833 62.5736 59.0301C62.4776 59.532 62.2884 60.0242 61.6768 59.9419C61.1023 59.8651 61.0722 59.3441 60.898 58.845L60.8994 58.8464Z" fill="url(#paint7_linear_206_1333)"/>
<path d="M5.92285 24.8503C6.06134 24.4952 6.14361 24.2059 6.27799 23.9454C8.47464 19.7058 11.0237 15.7227 14.6176 12.5005C14.9905 12.1659 15.3704 11.819 15.8037 11.5832C16.0381 11.4557 16.3933 11.5517 16.6936 11.5462C16.6456 11.841 16.625 12.1426 16.5386 12.4265C16.4975 12.5649 16.3466 12.6801 16.226 12.7816C12.4525 15.9818 9.77316 20.0171 7.42842 24.3074C7.26525 24.6063 7.10619 24.9258 6.87034 25.1616C6.72637 25.3056 6.41648 25.3947 6.22588 25.344C6.08191 25.3056 6.01061 25.0025 5.92422 24.8503H5.92285Z" fill="black"/>
<path d="M5.92285 24.8503C6.06134 24.4952 6.14361 24.2059 6.27799 23.9454C8.47464 19.7058 11.0237 15.7227 14.6176 12.5005C14.9905 12.1659 15.3704 11.819 15.8037 11.5832C16.0381 11.4557 16.3933 11.5517 16.6936 11.5462C16.6456 11.841 16.625 12.1426 16.5386 12.4265C16.4975 12.5649 16.3466 12.6801 16.226 12.7816C12.4525 15.9818 9.77316 20.0171 7.42842 24.3074C7.26525 24.6063 7.10619 24.9258 6.87034 25.1616C6.72637 25.3056 6.41648 25.3947 6.22588 25.344C6.08191 25.3056 6.01061 25.0025 5.92422 24.8503H5.92285Z" fill="url(#paint8_linear_206_1333)"/>
<path d="M66.9614 35.4602C66.4362 35.0928 66.3252 34.6047 66.3896 34.0494C66.7324 31.1 67.0752 28.1507 67.4194 25.2014C67.4852 24.6337 67.5071 24.0538 67.6552 23.508C67.7348 23.2146 68.0378 22.9829 68.2407 22.7224C68.4642 22.9719 68.877 23.2201 68.8783 23.471C68.8852 24.4925 68.7947 25.5181 68.6864 26.5369C68.4245 29.0132 68.1283 31.4853 67.8595 33.9602C67.791 34.5937 67.7169 35.2011 66.9614 35.4616V35.4602Z" fill="black"/>
<path d="M66.9614 35.4602C66.4362 35.0928 66.3252 34.6047 66.3896 34.0494C66.7324 31.1 67.0752 28.1507 67.4194 25.2014C67.4852 24.6337 67.5071 24.0538 67.6552 23.508C67.7348 23.2146 68.0378 22.9829 68.2407 22.7224C68.4642 22.9719 68.877 23.2201 68.8783 23.471C68.8852 24.4925 68.7947 25.5181 68.6864 26.5369C68.4245 29.0132 68.1283 31.4853 67.8595 33.9602C67.791 34.5937 67.7169 35.2011 66.9614 35.4616V35.4602Z" fill="url(#paint9_linear_206_1333)"/>
<path d="M22.7679 52.28C22.395 52.2608 21.7834 52.4898 21.7162 51.8303C21.6449 51.1283 22.299 51.12 22.7816 51.057C24.6232 50.8143 25.849 51.4107 26.6004 53.1137C27.382 54.8852 28.021 56.7198 28.7079 58.5324C28.8725 58.9657 28.8807 59.484 28.4104 59.6663C27.9414 59.8473 27.5918 59.4607 27.4204 59.0301C26.9226 57.7796 26.4537 56.5182 25.9683 55.2636C25.7873 54.796 25.6118 54.3244 25.402 53.8692C24.8275 52.6187 24.183 52.2293 22.7679 52.28Z" fill="black"/>
<path d="M22.7679 52.28C22.395 52.2608 21.7834 52.4898 21.7162 51.8303C21.6449 51.1283 22.299 51.12 22.7816 51.057C24.6232 50.8143 25.849 51.4107 26.6004 53.1137C27.382 54.8852 28.021 56.7198 28.7079 58.5324C28.8725 58.9657 28.8807 59.484 28.4104 59.6663C27.9414 59.8473 27.5918 59.4607 27.4204 59.0301C26.9226 57.7796 26.4537 56.5182 25.9683 55.2636C25.7873 54.796 25.6118 54.3244 25.402 53.8692C24.8275 52.6187 24.183 52.2293 22.7679 52.28Z" fill="url(#paint10_linear_206_1333)"/>
<path d="M28.7998 80.6722C27.9853 80.4624 27.323 80.2951 26.6621 80.1196C24.29 79.4902 22.1303 78.4345 20.2436 76.8535C19.8925 76.5601 19.3262 76.2365 19.7115 75.6963C20.1065 75.1424 20.585 75.5948 20.9607 75.8471C23.2273 77.3705 25.7215 78.3467 28.3569 78.9953C28.5557 79.0446 28.8121 79.0501 28.9342 79.179C29.1659 79.4203 29.4827 79.7535 29.4566 80.0181C29.4333 80.2649 29.011 80.4747 28.7971 80.6708L28.7998 80.6722Z" fill="black"/>
<path d="M28.7998 80.6722C27.9853 80.4624 27.323 80.2951 26.6621 80.1196C24.29 79.4902 22.1303 78.4345 20.2436 76.8535C19.8925 76.5601 19.3262 76.2365 19.7115 75.6963C20.1065 75.1424 20.585 75.5948 20.9607 75.8471C23.2273 77.3705 25.7215 78.3467 28.3569 78.9953C28.5557 79.0446 28.8121 79.0501 28.9342 79.179C29.1659 79.4203 29.4827 79.7535 29.4566 80.0181C29.4333 80.2649 29.011 80.4747 28.7971 80.6708L28.7998 80.6722Z" fill="url(#paint11_linear_206_1333)"/>
<path d="M54.5576 73.3914C54.149 73.6437 53.8131 73.9878 53.4223 74.0714C50.1767 74.7639 46.8844 75.0216 43.5689 75.0093C43.3646 75.0093 43.1617 74.9627 42.9587 74.9353C42.5734 74.8845 42.1497 74.7652 42.2567 74.3073C42.306 74.0975 42.7338 73.8658 43.0081 73.8383C43.9597 73.7451 44.9236 73.7835 45.8752 73.6862C48.209 73.4476 50.5387 73.1638 52.8711 72.8936C53.4141 72.8306 53.968 72.6866 54.559 73.3914H54.5576Z" fill="black"/>
<path d="M54.5576 73.3914C54.149 73.6437 53.8131 73.9878 53.4223 74.0714C50.1767 74.7639 46.8844 75.0216 43.5689 75.0093C43.3646 75.0093 43.1617 74.9627 42.9587 74.9353C42.5734 74.8845 42.1497 74.7652 42.2567 74.3073C42.306 74.0975 42.7338 73.8658 43.0081 73.8383C43.9597 73.7451 44.9236 73.7835 45.8752 73.6862C48.209 73.4476 50.5387 73.1638 52.8711 72.8936C53.4141 72.8306 53.968 72.6866 54.559 73.3914H54.5576Z" fill="url(#paint12_linear_206_1333)"/>
<path d="M76.1964 45.1583C75.6164 44.7442 75.5999 44.1972 75.6438 43.6021C75.8152 41.2972 75.7891 38.9964 75.3092 36.7231C75.1913 36.1678 74.9294 35.6426 74.8375 35.0859C74.7909 34.8049 74.9774 34.4868 75.0583 34.1851C75.3668 34.3058 75.8508 34.3455 75.9523 34.5622C76.3033 35.319 76.6941 36.1239 76.7572 36.9356C76.9341 39.2254 76.9711 41.5275 77.0301 43.8242C77.0452 44.3932 76.823 44.8978 76.1978 45.1569L76.1964 45.1583Z" fill="black"/>
<path d="M76.1964 45.1583C75.6164 44.7442 75.5999 44.1972 75.6438 43.6021C75.8152 41.2972 75.7891 38.9964 75.3092 36.7231C75.1913 36.1678 74.9294 35.6426 74.8375 35.0859C74.7909 34.8049 74.9774 34.4868 75.0583 34.1851C75.3668 34.3058 75.8508 34.3455 75.9523 34.5622C76.3033 35.319 76.6941 36.1239 76.7572 36.9356C76.9341 39.2254 76.9711 41.5275 77.0301 43.8242C77.0452 44.3932 76.823 44.8978 76.1978 45.1569L76.1964 45.1583Z" fill="url(#paint13_linear_206_1333)"/>
<path d="M32.5569 32.0955C32.4143 31.9803 32.1524 31.8679 32.0865 31.6842C32.0303 31.5265 32.1524 31.2481 32.2826 31.0987C32.4239 30.9355 32.6556 30.8409 32.8626 30.749C35.4898 29.5849 38.1184 28.4236 40.7525 27.2759C41.0829 27.132 41.4463 27.0127 41.8001 26.9949C41.9989 26.9853 42.3129 27.1663 42.3842 27.339C42.4555 27.5132 42.3458 27.8271 42.2128 27.9999C42.0688 28.185 41.8193 28.3112 41.5916 28.4058C38.8808 29.5493 36.1658 30.686 33.4495 31.8172C33.1986 31.9214 32.9298 31.9803 32.5555 32.0941L32.5569 32.0955Z" fill="black"/>
<path d="M32.5569 32.0955C32.4143 31.9803 32.1524 31.8679 32.0865 31.6842C32.0303 31.5265 32.1524 31.2481 32.2826 31.0987C32.4239 30.9355 32.6556 30.8409 32.8626 30.749C35.4898 29.5849 38.1184 28.4236 40.7525 27.2759C41.0829 27.132 41.4463 27.0127 41.8001 26.9949C41.9989 26.9853 42.3129 27.1663 42.3842 27.339C42.4555 27.5132 42.3458 27.8271 42.2128 27.9999C42.0688 28.185 41.8193 28.3112 41.5916 28.4058C38.8808 29.5493 36.1658 30.686 33.4495 31.8172C33.1986 31.9214 32.9298 31.9803 32.5555 32.0941L32.5569 32.0955Z" fill="url(#paint14_linear_206_1333)"/>
<path d="M46.628 13.7908C46.9475 13.7908 47.2697 13.7661 47.5865 13.7963C48.0513 13.8402 48.4654 14.0074 48.4476 14.5696C48.4311 15.081 48.0486 15.2607 47.6043 15.2922C46.7624 15.3525 45.8985 15.2894 45.0786 15.4499C43.5182 15.7556 41.9824 16.1821 40.4371 16.5605C40.3274 16.5879 40.215 16.6839 40.1162 16.6674C39.8283 16.6195 39.5486 16.5303 39.2647 16.4577C39.3593 16.1615 39.3689 15.6967 39.5636 15.5966C40.5111 15.1112 41.4751 14.5888 42.4966 14.3324C43.8377 13.9951 45.239 13.895 46.6143 13.6921C46.6184 13.725 46.6239 13.7579 46.628 13.7908Z" fill="black"/>
<path d="M46.628 13.7908C46.9475 13.7908 47.2697 13.7661 47.5865 13.7963C48.0513 13.8402 48.4654 14.0074 48.4476 14.5696C48.4311 15.081 48.0486 15.2607 47.6043 15.2922C46.7624 15.3525 45.8985 15.2894 45.0786 15.4499C43.5182 15.7556 41.9824 16.1821 40.4371 16.5605C40.3274 16.5879 40.215 16.6839 40.1162 16.6674C39.8283 16.6195 39.5486 16.5303 39.2647 16.4577C39.3593 16.1615 39.3689 15.6967 39.5636 15.5966C40.5111 15.1112 41.4751 14.5888 42.4966 14.3324C43.8377 13.9951 45.239 13.895 46.6143 13.6921C46.6184 13.725 46.6239 13.7579 46.628 13.7908Z" fill="url(#paint15_linear_206_1333)"/>
<path d="M78.7811 26.7274C80.0193 26.7178 80.9325 27.4884 80.9325 28.5428C80.9325 29.9139 80.07 30.9354 78.91 30.9354C77.7883 30.9354 76.8011 29.8783 76.7997 28.6758C76.7997 27.6433 77.7225 26.7356 78.7811 26.7274Z" fill="black"/>
<path d="M78.7811 26.7274C80.0193 26.7178 80.9325 27.4884 80.9325 28.5428C80.9325 29.9139 80.07 30.9354 78.91 30.9354C77.7883 30.9354 76.8011 29.8783 76.7997 28.6758C76.7997 27.6433 77.7225 26.7356 78.7811 26.7274Z" fill="url(#paint16_linear_206_1333)"/>
<path d="M75.3394 78.5455C75.0994 78.9007 74.9843 79.2352 74.7498 79.3929C73.5418 80.206 72.3063 80.9807 71.0709 81.7526C70.9036 81.8568 70.676 81.9432 70.4909 81.9213C70.2687 81.8952 69.9602 81.7951 69.8766 81.6306C69.7916 81.4647 69.9026 81.1671 69.9931 80.9546C70.048 80.8257 70.2221 80.7393 70.3524 80.6502C71.463 79.8906 72.5614 79.1132 73.6953 78.3906C73.9984 78.1973 74.4042 78.1164 74.769 78.0931C74.928 78.0835 75.1035 78.3481 75.3394 78.5442V78.5455Z" fill="black"/>
<path d="M75.3394 78.5455C75.0994 78.9007 74.9843 79.2352 74.7498 79.3929C73.5418 80.206 72.3063 80.9807 71.0709 81.7526C70.9036 81.8568 70.676 81.9432 70.4909 81.9213C70.2687 81.8952 69.9602 81.7951 69.8766 81.6306C69.7916 81.4647 69.9026 81.1671 69.9931 80.9546C70.048 80.8257 70.2221 80.7393 70.3524 80.6502C71.463 79.8906 72.5614 79.1132 73.6953 78.3906C73.9984 78.1973 74.4042 78.1164 74.769 78.0931C74.928 78.0835 75.1035 78.3481 75.3394 78.5442V78.5455Z" fill="url(#paint17_linear_206_1333)"/>
<path d="M18.8216 12.8036C18.5076 13.2889 18.254 13.8305 17.8687 14.2501C16.6963 15.5294 15.4828 16.7703 14.2638 18.0043C13.9786 18.2936 13.6043 18.768 13.1737 18.3375C12.7569 17.922 13.1984 17.5258 13.4795 17.2255C14.6011 16.0244 15.7173 14.815 16.9033 13.6797C17.386 13.2176 18.0414 12.9366 18.6173 12.5732C18.6845 12.65 18.7531 12.7268 18.8203 12.8036H18.8216Z" fill="black"/>
<path d="M18.8216 12.8036C18.5076 13.2889 18.254 13.8305 17.8687 14.2501C16.6963 15.5294 15.4828 16.7703 14.2638 18.0043C13.9786 18.2936 13.6043 18.768 13.1737 18.3375C12.7569 17.922 13.1984 17.5258 13.4795 17.2255C14.6011 16.0244 15.7173 14.815 16.9033 13.6797C17.386 13.2176 18.0414 12.9366 18.6173 12.5732C18.6845 12.65 18.7531 12.7268 18.8203 12.8036H18.8216Z" fill="url(#paint18_linear_206_1333)"/>
<path d="M27.6288 61.7984C27.541 61.9698 27.4889 62.244 27.3546 62.2948C27.1791 62.3606 26.8966 62.3071 26.7348 62.196C26.5415 62.063 26.3906 61.8327 26.285 61.6133C25.6159 60.2161 24.9468 58.8175 24.3256 57.3984C24.2269 57.1735 24.3736 56.8404 24.4065 56.5579C24.6917 56.6758 25.1223 56.7128 25.2374 56.924C25.9902 58.302 26.6786 59.7156 27.3792 61.1224C27.4793 61.3226 27.5369 61.5447 27.6288 61.7984Z" fill="black"/>
<path d="M27.6288 61.7984C27.541 61.9698 27.4889 62.244 27.3546 62.2948C27.1791 62.3606 26.8966 62.3071 26.7348 62.196C26.5415 62.063 26.3906 61.8327 26.285 61.6133C25.6159 60.2161 24.9468 58.8175 24.3256 57.3984C24.2269 57.1735 24.3736 56.8404 24.4065 56.5579C24.6917 56.6758 25.1223 56.7128 25.2374 56.924C25.9902 58.302 26.6786 59.7156 27.3792 61.1224C27.4793 61.3226 27.5369 61.5447 27.6288 61.7984Z" fill="url(#paint19_linear_206_1333)"/>
<path d="M50.3933 76.486C50.2507 76.4737 50.1136 76.5011 50.0272 76.4463C49.7489 76.2707 49.4897 76.0637 49.2223 75.8704C49.4623 75.6798 49.6762 75.4234 49.9504 75.3164C50.3042 75.178 50.7032 75.1409 51.0871 75.0916C51.5533 75.0312 52.0785 74.9915 52.1635 75.6126C52.2403 76.1816 51.7604 76.3146 51.3175 76.3914C51.0035 76.4449 50.6826 76.4586 50.3933 76.486Z" fill="black"/>
<path d="M50.3933 76.486C50.2507 76.4737 50.1136 76.5011 50.0272 76.4463C49.7489 76.2707 49.4897 76.0637 49.2223 75.8704C49.4623 75.6798 49.6762 75.4234 49.9504 75.3164C50.3042 75.178 50.7032 75.1409 51.0871 75.0916C51.5533 75.0312 52.0785 74.9915 52.1635 75.6126C52.2403 76.1816 51.7604 76.3146 51.3175 76.3914C51.0035 76.4449 50.6826 76.4586 50.3933 76.486Z" fill="url(#paint20_linear_206_1333)"/>
<path d="M66.923 37.2893C66.7064 37.4497 66.4349 37.798 66.114 37.8528C65.6149 37.9379 65.3132 37.5635 65.3064 37.0576C65.3009 36.5818 65.4956 36.1567 66.0331 36.1622C66.5693 36.1677 66.8037 36.5749 66.9216 37.2879L66.923 37.2893Z" fill="black"/>
<path d="M66.923 37.2893C66.7064 37.4497 66.4349 37.798 66.114 37.8528C65.6149 37.9379 65.3132 37.5635 65.3064 37.0576C65.3009 36.5818 65.4956 36.1567 66.0331 36.1622C66.5693 36.1677 66.8037 36.5749 66.9216 37.2879L66.923 37.2893Z" fill="url(#paint21_linear_206_1333)"/>
<path d="M32.7653 35.5754C33.2589 35.6275 33.5674 35.91 33.5743 36.4036C33.5811 36.867 33.3083 37.1893 32.8188 37.1838C32.3361 37.1797 32.0742 36.8547 32.0399 36.3995C32.0043 35.9168 32.2826 35.6481 32.7653 35.5741V35.5754Z" fill="black"/>
<path d="M32.7653 35.5754C33.2589 35.6275 33.5674 35.91 33.5743 36.4036C33.5811 36.867 33.3083 37.1893 32.8188 37.1838C32.3361 37.1797 32.0742 36.8547 32.0399 36.3995C32.0043 35.9168 32.2826 35.6481 32.7653 35.5741V35.5754Z" fill="url(#paint22_linear_206_1333)"/>
</g>
</g>
<defs>
<linearGradient id="paint0_linear_206_1333" x1="44.9996" y1="4.11328" x2="44.9996" y2="85.8866" gradientUnits="userSpaceOnUse">
<stop stop-color="#5442DD"/>
<stop offset="1" stop-color="#C892F6"/>
</linearGradient>
<linearGradient id="paint1_linear_206_1333" x1="44.9996" y1="4.11328" x2="44.9996" y2="85.8866" gradientUnits="userSpaceOnUse">
<stop stop-color="#5442DD"/>
<stop offset="1" stop-color="#C892F6"/>
</linearGradient>
<linearGradient id="paint2_linear_206_1333" x1="44.9996" y1="4.11328" x2="44.9996" y2="85.8866" gradientUnits="userSpaceOnUse">
<stop stop-color="#5442DD"/>
<stop offset="1" stop-color="#C892F6"/>
</linearGradient>
<linearGradient id="paint3_linear_206_1333" x1="44.9996" y1="4.11328" x2="44.9996" y2="85.8866" gradientUnits="userSpaceOnUse">
<stop stop-color="#5442DD"/>
<stop offset="1" stop-color="#C892F6"/>
</linearGradient>
<linearGradient id="paint4_linear_206_1333" x1="44.9996" y1="4.11328" x2="44.9996" y2="85.8866" gradientUnits="userSpaceOnUse">
<stop stop-color="#5442DD"/>
<stop offset="1" stop-color="#C892F6"/>
</linearGradient>
<linearGradient id="paint5_linear_206_1333" x1="44.9996" y1="4.11328" x2="44.9996" y2="85.8866" gradientUnits="userSpaceOnUse">
<stop stop-color="#5442DD"/>
<stop offset="1" stop-color="#C892F6"/>
</linearGradient>
<linearGradient id="paint6_linear_206_1333" x1="44.9996" y1="4.11328" x2="44.9996" y2="85.8866" gradientUnits="userSpaceOnUse">
<stop stop-color="#5442DD"/>
<stop offset="1" stop-color="#C892F6"/>
</linearGradient>
<linearGradient id="paint7_linear_206_1333" x1="44.9996" y1="4.11328" x2="44.9996" y2="85.8866" gradientUnits="userSpaceOnUse">
<stop stop-color="#5442DD"/>
<stop offset="1" stop-color="#C892F6"/>
</linearGradient>
<linearGradient id="paint8_linear_206_1333" x1="44.9996" y1="4.11328" x2="44.9996" y2="85.8866" gradientUnits="userSpaceOnUse">
<stop stop-color="#5442DD"/>
<stop offset="1" stop-color="#C892F6"/>
</linearGradient>
<linearGradient id="paint9_linear_206_1333" x1="44.9996" y1="4.11328" x2="44.9996" y2="85.8866" gradientUnits="userSpaceOnUse">
<stop stop-color="#5442DD"/>
<stop offset="1" stop-color="#C892F6"/>
</linearGradient>
<linearGradient id="paint10_linear_206_1333" x1="44.9996" y1="4.11328" x2="44.9996" y2="85.8866" gradientUnits="userSpaceOnUse">
<stop stop-color="#5442DD"/>
<stop offset="1" stop-color="#C892F6"/>
</linearGradient>
<linearGradient id="paint11_linear_206_1333" x1="44.9996" y1="4.11328" x2="44.9996" y2="85.8866" gradientUnits="userSpaceOnUse">
<stop stop-color="#5442DD"/>
<stop offset="1" stop-color="#C892F6"/>
</linearGradient>
<linearGradient id="paint12_linear_206_1333" x1="44.9996" y1="4.11328" x2="44.9996" y2="85.8866" gradientUnits="userSpaceOnUse">
<stop stop-color="#5442DD"/>
<stop offset="1" stop-color="#C892F6"/>
</linearGradient>
<linearGradient id="paint13_linear_206_1333" x1="44.9996" y1="4.11328" x2="44.9996" y2="85.8866" gradientUnits="userSpaceOnUse">
<stop stop-color="#5442DD"/>
<stop offset="1" stop-color="#C892F6"/>
</linearGradient>
<linearGradient id="paint14_linear_206_1333" x1="44.9996" y1="4.11328" x2="44.9996" y2="85.8866" gradientUnits="userSpaceOnUse">
<stop stop-color="#5442DD"/>
<stop offset="1" stop-color="#C892F6"/>
</linearGradient>
<linearGradient id="paint15_linear_206_1333" x1="44.9996" y1="4.11328" x2="44.9996" y2="85.8866" gradientUnits="userSpaceOnUse">
<stop stop-color="#5442DD"/>
<stop offset="1" stop-color="#C892F6"/>
</linearGradient>
<linearGradient id="paint16_linear_206_1333" x1="44.9996" y1="4.11328" x2="44.9996" y2="85.8866" gradientUnits="userSpaceOnUse">
<stop stop-color="#5442DD"/>
<stop offset="1" stop-color="#C892F6"/>
</linearGradient>
<linearGradient id="paint17_linear_206_1333" x1="44.9996" y1="4.11328" x2="44.9996" y2="85.8866" gradientUnits="userSpaceOnUse">
<stop stop-color="#5442DD"/>
<stop offset="1" stop-color="#C892F6"/>
</linearGradient>
<linearGradient id="paint18_linear_206_1333" x1="44.9996" y1="4.11328" x2="44.9996" y2="85.8866" gradientUnits="userSpaceOnUse">
<stop stop-color="#5442DD"/>
<stop offset="1" stop-color="#C892F6"/>
</linearGradient>
<linearGradient id="paint19_linear_206_1333" x1="44.9996" y1="4.11328" x2="44.9996" y2="85.8866" gradientUnits="userSpaceOnUse">
<stop stop-color="#5442DD"/>
<stop offset="1" stop-color="#C892F6"/>
</linearGradient>
<linearGradient id="paint20_linear_206_1333" x1="44.9996" y1="4.11328" x2="44.9996" y2="85.8866" gradientUnits="userSpaceOnUse">
<stop stop-color="#5442DD"/>
<stop offset="1" stop-color="#C892F6"/>
</linearGradient>
<linearGradient id="paint21_linear_206_1333" x1="44.9996" y1="4.11328" x2="44.9996" y2="85.8866" gradientUnits="userSpaceOnUse">
<stop stop-color="#5442DD"/>
<stop offset="1" stop-color="#C892F6"/>
</linearGradient>
<linearGradient id="paint22_linear_206_1333" x1="44.9996" y1="4.11328" x2="44.9996" y2="85.8866" gradientUnits="userSpaceOnUse">
<stop stop-color="#5442DD"/>
<stop offset="1" stop-color="#C892F6"/>
</linearGradient>
</defs>
</svg>
