<svg width="191" height="190" viewBox="0 0 191 190" fill="none" xmlns="http://www.w3.org/2000/svg">
<g clip-path="url(#clip0_5016_567)">
<path d="M56.0586 142.786C45.5531 142.786 35.0476 142.738 24.5421 142.809C20.4019 142.838 16.2642 143.091 12.1288 143.324C10.9178 143.392 9.70682 143.674 8.51953 143.956C5.77761 144.608 4.05948 146.362 3.26084 149.037C3.09258 149.604 2.95039 150.18 2.77502 150.744C2.5878 151.343 2.19915 151.665 1.53559 151.583C0.879144 151.5 0.573434 151.118 0.526037 150.478C0.398066 148.698 0.696666 147.03 1.67541 145.499C3.03807 143.369 4.98846 142.058 7.36067 141.297C9.91063 140.48 12.553 140.259 15.1978 140.229C19.4232 140.176 23.6486 140.257 27.8741 140.285C28.2698 140.288 28.6703 140.267 29.0566 140.328C29.796 140.447 30.0519 140.058 30.1183 139.418C30.2794 137.89 30.4335 136.361 30.6136 134.835C30.879 132.565 31.1871 130.299 31.4336 128.029C31.6682 125.874 31.8957 123.718 32.0402 121.557C32.3317 117.151 32.4905 112.736 32.846 108.335C33.2133 103.778 33.8698 99.254 34.7608 94.7608C35.0808 93.1445 35.1779 91.4785 35.332 89.8315C35.704 85.8288 36.1306 81.8285 36.3865 77.8164C36.8202 70.9888 37.9364 64.2656 39.4721 57.6182C40.6736 52.4116 42.5102 47.4065 45.2995 42.8185C47.1101 39.8396 49.3543 37.1854 51.9209 34.8131C52.3854 34.3842 52.8167 33.9245 53.2717 33.486C53.5561 33.2135 53.8333 32.9268 54.1485 32.6969C54.8026 32.2229 55.8548 32.2039 56.215 32.6234C56.5208 32.9765 56.3525 33.8131 55.8051 34.4411C53.9424 36.5858 52.1223 38.7732 50.1767 40.8397C48.9941 42.0933 48.0438 43.4702 47.2238 44.9585C44.4369 50.0062 42.5884 55.3858 41.3917 61.0213C40.4793 65.3131 39.965 69.6475 39.5171 74.0057C38.4412 84.478 37.8369 94.9954 36.2657 105.418C35.614 109.741 35.3414 114.122 34.9646 118.485C34.4599 124.339 34.0404 130.202 33.5451 136.058C33.4432 137.273 33.1944 138.477 32.974 139.679C32.891 140.139 32.9834 140.359 33.4764 140.342C33.8318 140.331 34.1873 140.342 34.5428 140.342C53.2646 140.352 71.984 140.354 90.7058 140.376C92.3599 140.376 94.0141 140.468 95.6659 140.584C97.4219 140.707 98.8059 141.634 99.8083 142.989C100.526 143.959 101.064 145.089 101.531 146.21C102.974 149.675 105.067 152.713 107.508 155.533C108.38 156.543 109.494 156.953 110.797 156.754C114.11 156.251 116.779 154.635 118.864 152.023C122.222 147.819 124.14 143.023 124.986 137.726C125.571 134.06 125.96 130.384 126.175 126.683C126.381 123.142 126.692 119.604 126.813 116.061C126.9 113.504 126.77 110.937 126.692 108.376C126.666 107.484 126.604 107.489 125.758 107.906C118.715 111.388 111.795 115.087 105.072 119.168C98.832 122.957 92.4476 126.507 86.1249 130.159C85.9211 130.278 85.7125 130.403 85.4921 130.477C85.0324 130.628 84.5821 130.74 84.2266 130.226C83.8261 129.645 84.165 129.23 84.5442 128.894C84.9542 128.531 85.4423 128.251 85.9163 127.969C88.6985 126.315 91.4902 124.675 94.2748 123.026C100.048 119.606 105.761 116.08 111.61 112.795C116.596 109.994 121.751 107.489 126.81 104.816C129.147 103.581 131.439 102.259 133.745 100.97C134.463 100.569 134.432 100.555 133.778 100.098C132.391 99.126 130.969 98.1899 129.676 97.1069C125.979 94.0166 124.896 89.9097 125.353 85.298C125.599 82.8191 126.495 80.5583 128.031 78.5652C128.242 78.2903 128.429 77.9633 128.512 77.6315C128.794 76.4916 129.036 75.3422 129.27 74.1905C129.325 73.9251 129.32 73.6407 129.299 73.3682C128.737 66.3392 130.213 59.642 132.624 53.106C135.088 46.4254 138.352 40.1192 141.79 33.9031C143.269 31.2299 145.181 28.8672 147.421 26.777C147.565 26.6419 147.727 26.5211 147.847 26.367C147.957 26.2272 148.02 26.0518 148.106 25.8907C147.949 25.8788 147.793 25.848 147.639 25.8599C146.418 25.9428 145.198 26.0542 143.975 26.1158C138.138 26.412 132.304 26.7486 126.464 26.969C115.885 27.3671 105.332 28.033 94.8127 29.2677C88.2648 30.0355 81.6909 30.5688 75.124 31.1636C73.7116 31.2916 72.2802 31.1968 70.8631 31.2845C67.9908 31.4598 65.1185 31.6684 62.251 31.9101C61.1396 32.0025 60.8505 31.9527 60.5542 31.2868C60.1964 30.4834 60.4002 29.9644 61.2581 29.7843C62.1823 29.59 63.1279 29.4691 64.0687 29.3862C68.2349 29.0236 72.4035 28.6776 76.572 28.3435C80.3093 28.0449 84.0489 27.7818 87.7838 27.4832C90.8124 27.2415 93.8387 26.9903 96.865 26.7059C99.3391 26.4737 101.806 26.1632 104.283 25.9357C106.953 25.6916 109.627 25.4167 112.307 25.303C121.142 24.9333 129.981 24.656 138.816 24.2934C143.115 24.118 147.407 23.836 151.703 23.5848C152.253 23.5516 152.8 23.4426 153.338 23.3241C154.5 23.0729 155.623 23.2815 156.72 23.6251C158.123 24.0612 158.881 25.0873 158.938 26.5211C159.017 28.4075 158.481 30.1185 157.507 31.7845C156.573 33.3818 155.232 34.4553 153.848 35.5691C149.348 39.1831 145.395 43.2759 142.71 48.4658C140.785 52.1841 139.506 56.1015 139.1 60.27C139.003 61.2677 138.506 61.7417 138.027 61.7014C137.437 61.6516 137.129 61.0947 137.167 60.1089C137.332 55.7792 138.479 51.7267 140.484 47.8852C143.328 42.4393 147.167 37.8584 152.135 34.2278C152.772 33.7633 153.343 33.2088 153.981 32.7466C155.741 31.4764 156.445 29.6398 156.815 27.6112C157.052 26.303 156.298 25.3812 154.945 25.3669C153.395 25.3504 151.926 25.7343 150.743 26.7249C149.298 27.9359 147.895 29.2179 146.615 30.6019C144.838 32.5262 143.544 34.7942 142.376 37.1356C141.285 39.323 140.167 41.4985 139.048 43.6716C135.008 51.5348 132.349 59.8269 131.256 68.6071C131.178 69.2328 131.142 69.8632 131.107 70.4935C131.093 70.759 131.126 71.0291 131.14 71.2969C131.358 71.1547 131.607 71.0457 131.789 70.868C134.65 68.1355 137.65 65.5619 140.932 63.3627C145.094 60.5734 149.319 57.8741 153.585 55.2436C156.739 53.2979 159.981 51.4874 163.225 49.691C164.991 48.7123 166.88 48.0061 168.906 47.7359C171.773 47.3567 174.233 48.0724 176.075 50.4044C176.456 50.8878 176.807 51.0798 177.463 50.9826C180.295 50.5655 182.961 51.1746 185.466 52.5088C186.727 53.1795 187.554 54.298 188.315 55.4592C189.716 57.6016 190.251 60.0093 190.45 62.5166C190.666 65.2301 190.19 67.8559 189.483 70.4604C189.332 71.0173 189.035 71.3514 188.488 71.4984C187.528 71.7567 186.812 71.1239 187.016 70.1523C187.204 69.266 187.467 68.3962 187.666 67.5123C188.246 64.9268 188.178 62.346 187.531 59.7795C186.635 56.2271 182.867 52.8003 178.236 52.869C177.658 52.8785 177.352 52.997 177.428 53.6676C177.603 55.2151 176.883 56.3835 175.824 57.4381C173.589 59.6586 170.98 61.3744 168.268 62.9006C163.868 65.377 159.405 67.7469 154.914 70.0575C149.419 72.8871 144.233 76.1788 139.427 80.063C139.122 80.3094 138.833 80.6389 138.479 80.7526C138.115 80.8711 137.446 80.928 137.328 80.7408C137.117 80.4137 137.124 79.8615 137.226 79.4468C137.299 79.1435 137.643 78.8852 137.906 78.6529C141.352 75.6171 144.985 72.8326 149.092 70.7424C155.038 67.7185 161.05 64.8272 166.764 61.3673C168.216 60.4881 169.726 59.6894 171.096 58.6965C172.366 57.7746 173.492 56.6536 174.658 55.5943C175.153 55.1441 175.15 54.5279 174.977 53.9378C174.338 51.7504 172.162 50.0844 169.87 49.9612C168.664 49.8972 167.503 50.0655 166.401 50.5489C165.282 51.0419 164.135 51.4992 163.083 52.1107C155.782 56.355 148.409 60.4881 141.534 65.4221C138.707 67.4507 135.975 69.5906 133.583 72.1311C133.069 72.6762 132.581 73.2449 132.076 73.8018C130.628 75.4015 130.65 77.2334 131.282 79.1269C131.6 80.0772 132.252 80.7431 133.294 80.9351C133.486 80.9706 133.683 81.018 133.858 81.1033C134.332 81.3285 134.602 81.7053 134.498 82.2432C134.389 82.8096 133.946 82.9968 133.434 82.9803C132.332 82.9447 131.351 82.5584 130.505 81.8546C130.263 81.6531 130.052 81.4162 129.837 81.1863C129.263 80.5772 129.18 80.563 128.832 81.3688C128.519 82.0868 128.284 82.8452 128.081 83.6035C127.562 85.5326 127.514 87.509 127.694 89.4784C127.896 91.6918 128.912 93.5474 130.538 95.0428C132.47 96.8202 134.83 97.7965 137.302 98.5478C137.87 98.7208 138.366 98.6283 138.892 98.3724C146.34 94.73 153.684 90.9098 160.822 86.6749C164.619 84.4235 168.643 82.5561 172.532 80.4611C176.662 78.2358 180.826 76.0579 184.682 73.3611C185.372 72.8776 185.952 72.8705 186.234 73.2947C186.661 73.9369 186.554 74.5247 185.85 75.0081C181.298 78.1434 176.691 81.165 171.731 83.6557C167.043 86.0089 162.417 88.5091 157.9 91.1728C152.926 94.1043 147.779 96.6803 142.605 99.2161C140.769 100.117 138.859 100.868 136.977 101.669C135.773 102.181 135.818 102.195 135.749 103.487C135.591 106.477 135.323 109.461 135.171 112.452C134.984 116.149 134.868 119.85 134.726 123.55C134.624 126.228 134.567 128.908 134.422 131.583C134.278 134.259 134.003 136.927 133.863 139.603C133.607 144.513 132.569 149.191 130.078 153.497C129.029 155.31 127.827 156.964 126.471 158.583C123.45 162.195 119.485 164.323 115.366 166.226C113.933 166.887 112.264 167.264 110.681 167.342C102.91 167.726 95.135 167.773 87.3548 167.496C83.172 167.347 78.9821 167.42 74.797 167.415C70.0976 167.408 65.3958 167.397 60.6964 167.442C57.6559 167.47 54.6178 167.593 51.5773 167.681C46.4086 167.828 41.24 168.143 36.0737 168.089C30.3553 168.027 24.6368 167.676 18.9231 167.356C16.2334 167.205 13.6265 166.527 11.1098 165.543C9.42955 164.884 7.94602 163.929 6.73977 162.579C4.8747 160.493 2.86744 158.512 1.58773 155.971C1.3934 155.588 1.11139 155.168 1.13272 154.777C1.15405 154.365 1.38866 153.846 1.70622 153.595C2.13042 153.26 2.49775 153.682 2.77502 154.031C2.94565 154.246 3.10917 154.474 3.24188 154.713C4.28698 156.637 5.68993 158.287 7.15213 159.898C9.53619 162.531 12.5435 163.993 16.0035 164.501C22.8215 165.498 29.6822 165.638 36.5595 165.363C49.1505 164.858 61.7463 164.683 74.3467 164.83C78.6504 164.88 82.954 164.979 87.2576 165.043C91.4025 165.105 95.5497 165.155 99.6946 165.197C99.9837 165.2 100.275 165.117 100.567 165.074C100.37 164.894 100.195 164.685 99.9766 164.541C96.3413 162.138 94.4312 158.552 93.2984 154.519C92.7367 152.519 92.4571 150.433 92.1395 148.374C92.04 147.734 92.1798 147.042 92.303 146.39C92.4002 145.876 92.8102 145.568 93.3434 145.611C93.9714 145.663 94.0307 146.17 94.0307 146.665C94.0236 149.45 94.488 152.156 95.391 154.789C96.3436 157.566 97.9338 159.886 100.443 161.443C102.079 162.458 103.771 163.444 105.548 164.162C108.994 165.555 112.468 165.207 115.781 163.655C122.201 160.647 126.948 156.04 129.325 149.217C130.379 146.186 131.074 143.094 131.429 139.899C132.173 133.221 132.202 126.517 132.382 119.815C132.51 115.082 132.612 110.35 132.702 105.617C132.73 104.134 132.697 104.134 131.37 104.882C130.716 105.252 130.076 105.65 129.398 105.963C128.811 106.236 128.592 106.612 128.645 107.259C128.763 108.752 128.78 110.255 128.915 111.745C129.175 114.625 129.107 117.492 128.822 120.365C128.491 123.739 128.232 127.121 127.905 130.496C127.464 135.051 126.915 139.601 125.512 143.975C124.265 147.862 122.677 151.601 119.798 154.628C117.395 157.149 114.575 158.818 110.97 158.827C109.207 158.832 107.657 158.292 106.271 157.173C104.235 155.528 102.628 153.571 101.593 151.163C100.986 149.751 100.436 148.312 99.8012 146.912C99.3296 145.876 98.8557 144.819 98.2134 143.888C97.4409 142.767 96.6138 142.793 95.6682 143.788C95.4526 144.016 95.2843 144.293 95.0639 144.516C94.7629 144.819 94.3459 145.023 94.0212 144.686C93.7937 144.452 93.7321 144.025 93.6752 143.672C93.6491 143.506 93.8529 143.312 93.8624 143.127C93.8695 143.008 93.7178 142.781 93.6278 142.774C93.1965 142.748 92.7604 142.79 92.3267 142.79C80.2405 142.79 68.1567 142.79 56.0705 142.79V142.762L56.0586 142.786Z" fill="url(#paint0_linear_5016_567)"/>
<path d="M98.8818 96.6164C97.2703 96.6164 95.6588 96.6164 94.0473 96.6164C91.521 96.6164 88.9948 96.6164 86.4661 96.6164C86.1889 96.6164 85.914 96.6235 85.6367 96.6093C85.222 96.588 84.767 96.4932 84.7693 96.0073C84.7717 95.5097 85.075 95.1092 85.6414 95.0594C85.9945 95.0286 86.3524 95.0357 86.7055 95.0357C91.3646 95.0357 96.0237 94.9836 100.68 95.0594C102.519 95.0902 103.785 94.0143 105.136 93.1138C105.802 92.6706 105.65 91.7487 105.581 91.0046C105.423 89.2556 104.294 88.2532 102.553 88.2532C101.763 88.2532 100.972 88.2319 100.185 88.2579C99.588 88.2769 99.287 87.9902 99.2562 87.438C99.2254 86.8621 99.6638 86.6986 100.119 86.6844C101.263 86.6488 102.415 86.5754 103.55 86.6796C104.541 86.7697 105.233 87.5043 105.849 88.2295C106.56 89.0613 106.932 90.0495 107.02 91.142C107.091 92.0307 107.096 92.0307 107.909 91.5686C110.243 90.2439 112.579 88.9286 114.907 87.5944C116.926 86.4355 118.931 85.253 120.947 84.087C121.357 83.85 121.77 83.6059 122.206 83.4329C123.253 83.0182 124.121 83.414 124.431 84.4875C124.5 84.7269 124.343 85.1084 124.168 85.3193C123.95 85.58 123.613 85.7554 123.308 85.9308C118.89 88.4594 114.461 90.969 110.053 93.5119C102.534 97.8487 95.0426 102.235 87.5041 106.544C83.4991 108.833 79.423 111.001 75.3753 113.22C74.6762 113.603 74.1382 113.53 73.823 113.042C73.5031 112.546 73.6145 111.975 74.2117 111.487C74.7615 111.042 75.3705 110.67 75.9417 110.248C76.0483 110.17 76.0957 110.013 76.1715 109.892C76.0578 109.864 75.9464 109.807 75.8326 109.807C74.0173 109.793 72.1997 109.774 70.3844 109.788C70.1284 109.788 69.8417 109.909 69.6213 110.051C67.5951 111.345 67.6472 114.862 69.6971 116.134C70.0313 116.343 70.2493 116.374 70.3512 115.9C70.4412 115.478 70.5621 115.054 70.7375 114.66C71.029 114.004 71.5195 113.746 72.0338 113.907C72.5575 114.07 72.7637 114.521 72.6499 115.269C72.3774 117.059 71.9911 118.838 71.8655 120.637C71.7802 121.874 71.9864 123.147 72.1878 124.382C72.4082 125.732 73.2448 126.687 74.5671 127.067C76.6882 127.673 78.8329 128.195 80.9681 128.749C81.2738 128.827 81.5914 128.868 81.8876 128.97C82.89 129.311 83.3711 130.278 82.954 131.228C82.8592 131.444 82.4706 131.662 82.2241 131.655C81.4397 131.628 80.6411 131.569 79.878 131.396C77.5366 130.868 75.207 130.273 72.8703 129.726C72.6405 129.671 72.3584 129.742 72.1286 129.827C71.9556 129.891 71.8205 130.069 71.6736 130.199C69.7184 131.934 67.7349 131.147 66.3651 129.889C65.5049 129.097 65.3129 128.062 65.6589 126.953C66.1376 125.419 67.0144 124.168 68.5193 123.519C69.1734 123.237 69.3772 122.836 69.4293 122.187C69.5265 121.009 69.6687 119.836 69.8393 118.665C69.9104 118.177 69.818 117.936 69.3559 117.642C67.1282 116.222 66.2348 113.862 66.941 111.523C67.6093 109.314 69.4293 108.046 71.7352 108.113C73.9439 108.176 76.1549 108.205 78.366 108.195C78.8518 108.195 79.3969 108.065 79.8164 107.826C86.0159 104.283 92.2012 100.711 98.3865 97.1449C98.5547 97.0477 98.7182 96.9363 98.8841 96.832C98.8818 96.7609 98.877 96.6875 98.8747 96.6164H98.8818ZM68.3084 127.384C68.3273 128.403 69.28 128.967 70.2327 128.519C70.6379 128.33 70.8678 128.105 70.5858 127.614C70.3156 127.14 70.1426 126.612 69.8772 126.135C69.7943 125.986 69.5241 125.808 69.3914 125.841C68.8487 125.979 68.2989 126.818 68.3084 127.386V127.384Z" fill="url(#paint1_linear_5016_567)"/>
<path d="M96.5523 46.3471C91.4997 46.3471 86.4472 46.3518 81.3924 46.3447C79.6955 46.3447 78.6125 47.2666 78.3495 48.9563C78.0272 51.0252 79.4041 53.2955 81.9398 53.1628C84.3807 53.0372 86.8335 53.1296 89.2816 53.1343C89.6987 53.1343 90.1632 53.049 90.2461 53.7055C90.348 54.5088 90.2461 54.6984 89.4285 54.7032C86.7435 54.7174 84.0584 54.7553 81.3758 54.7032C78.6125 54.651 76.3659 51.447 77.0034 48.5605C77.5698 45.994 79.4989 44.546 82.1294 44.6716C83.4304 44.7332 84.7338 44.7593 86.0349 44.7593C94.6801 44.7569 103.325 44.7498 111.97 44.719C112.807 44.7166 113.509 44.9086 114.158 45.4229C115.824 46.7405 116.551 48.4563 116.177 50.5299C115.791 52.6675 114.44 54.087 112.352 54.5894C111.307 54.8406 110.158 54.6984 109.056 54.6747C108.52 54.6629 108.515 54.1723 108.503 53.786C108.489 53.3618 108.738 53.1367 109.169 53.1343C109.918 53.1296 110.669 53.1272 111.418 53.1248C113.07 53.1177 114.184 52.3144 114.691 50.7645C115.163 49.3236 114.686 47.5178 113.499 46.7239C113.084 46.4466 112.471 46.3637 111.947 46.3613C106.816 46.3352 101.683 46.3447 96.5523 46.3447V46.3471Z" fill="url(#paint2_linear_5016_567)"/>
<path d="M94.2487 65.569C97.6826 65.569 101.116 65.6046 104.55 65.5477C105.584 65.5311 106.382 65.8676 107.124 66.5099C108.75 67.9152 109.352 70.1879 108.622 72.2117C107.892 74.2356 105.994 75.5603 103.799 75.5603C99.1021 75.5603 94.4051 75.5532 89.7081 75.5437C89.3549 75.5437 88.9734 75.5816 88.6535 75.4679C88.3596 75.3636 88.1321 75.0769 87.8762 74.8683C88.1487 74.5744 88.3738 74.1882 88.7103 74.0152C88.9947 73.8682 89.4047 73.9654 89.7602 73.9654C94.4572 73.9654 99.1543 73.9251 103.851 73.9867C105.375 74.0057 106.47 73.4725 107.122 72.1359C107.776 70.7922 107.664 69.4627 106.809 68.2161C106.302 67.4768 105.641 67.1639 104.707 67.1687C97.9172 67.1995 91.1276 67.1853 84.3404 67.1829C84.0631 67.1829 83.7882 67.19 83.5109 67.1805C82.7099 67.1474 82.4326 66.9009 82.4587 66.2563C82.4848 65.5501 82.9919 65.6022 83.473 65.6022C87.0657 65.6022 90.656 65.6022 94.2487 65.6022V65.5714V65.569Z" fill="url(#paint3_linear_5016_567)"/>
<path d="M83.3141 88.2507C79.603 88.2507 75.8918 88.2554 72.1806 88.2507C70.4269 88.2483 69.3368 89.2128 69.0974 90.9523C68.8249 92.9335 70.1639 95.1967 72.6712 95.0664C74.9936 94.9455 77.3279 95.0355 79.6575 95.0379C79.9727 95.0379 80.2902 95.0379 80.603 95.0664C81.032 95.1066 81.4064 95.2678 81.3472 95.7844C81.3021 96.1802 81.1623 96.5973 80.6528 96.5996C77.6147 96.6044 74.5647 96.7324 71.5384 96.538C69.5643 96.4101 67.8059 94.0355 67.6684 91.8742C67.5262 89.6252 68.9197 87.3691 70.9033 86.734C71.3796 86.5823 71.9152 86.5752 72.4247 86.5752C78.5816 86.5989 84.7408 86.6392 90.8976 86.6724C92.2011 86.6795 93.5045 86.6724 94.8055 86.6747C95.0804 86.6747 95.4217 86.6036 95.616 86.7364C95.9122 86.9354 96.2559 87.2601 96.3056 87.5753C96.3791 88.0398 95.9407 88.2151 95.5094 88.2412C95.1942 88.2602 94.879 88.2554 94.5614 88.2554C90.81 88.2554 87.0609 88.2554 83.3094 88.2554L83.3141 88.2507Z" fill="url(#paint4_linear_5016_567)"/>
<path d="M55.6415 106.162C56.3999 106.34 57.163 106.503 57.919 106.698C58.4048 106.823 58.8408 107.029 58.6678 107.669C58.5517 108.101 57.9593 108.418 57.4355 108.326C57.1654 108.278 56.9047 108.174 56.6369 108.112C54.2836 107.575 51.8593 108.786 50.9824 110.928C50.1174 113.047 50.954 115.502 52.9873 116.798C54.8832 118.007 57.2104 117.924 58.8432 116.573C60.5756 115.139 61.0969 112.672 60.2509 110.783C60.1111 110.47 60.0495 109.985 60.1964 109.707C60.5329 109.072 61.2533 109.174 61.6562 109.85C63.6493 113.201 61.9643 117.587 58.1654 118.938C53.6461 120.545 48.8045 117.125 48.9444 112.426C49.0463 108.97 51.9683 106.281 55.6415 106.162Z" fill="url(#paint5_linear_5016_567)"/>
<path d="M72.1855 50.2621C72.1168 51.8119 71.3442 53.4732 69.7351 54.7008C69.5076 54.8738 69.1331 55.0515 68.9033 54.9828C68.5644 54.8785 68.2231 54.5989 68.0288 54.3003C67.9577 54.1913 68.2516 53.7434 68.4719 53.568C69.9223 52.4068 70.5124 50.909 70.3228 49.0843C70.0906 46.8353 68.2255 45.0626 65.813 44.7925C63.5071 44.5342 61.2747 45.911 60.5898 48.0131C59.8955 50.1436 60.8434 52.5158 62.8744 53.6912C63.1801 53.869 63.5166 53.9922 63.8365 54.1439C64.4598 54.4377 64.7537 54.933 64.5498 55.4236C64.2678 56.1061 63.7607 55.8928 63.2559 55.7222C59.7035 54.5183 57.7816 50.6555 59.0518 47.2666C60.36 43.7829 64.4124 42.1288 67.9838 43.6241C70.5313 44.6906 72.2021 47.1505 72.1831 50.2621H72.1855Z" fill="url(#paint6_linear_5016_567)"/>
<path d="M79.2951 75.5555C77.6386 75.5555 75.9773 75.4797 74.3279 75.5745C72.1761 75.6953 69.965 73.5174 69.6024 71.2282C69.2351 68.8962 70.7068 66.3084 72.8325 65.6401C73.1998 65.5239 73.6098 65.4955 74.0008 65.5002C75.4204 65.5168 76.8399 65.55 78.2571 65.6164C78.5391 65.6306 78.8922 65.7491 79.0699 65.9481C79.2477 66.1448 79.3709 66.5525 79.2832 66.7752C79.205 66.9743 78.8093 67.1544 78.551 67.1615C77.1314 67.1994 75.7095 67.2279 74.2923 67.1662C73.252 67.1212 72.3491 67.2136 71.6974 68.164C70.9793 69.2114 70.7779 70.3324 71.1191 71.5339C71.5623 73.0909 72.6951 73.9535 74.3374 73.963C77.6504 73.9819 80.9635 73.9606 84.2741 73.9724C84.6272 73.9724 85.0704 73.8066 85.2387 74.3801C85.523 75.3541 85.4117 75.5389 84.3808 75.5437C82.684 75.5508 80.9895 75.5437 79.2927 75.5437C79.2927 75.546 79.2927 75.5508 79.2927 75.5531L79.2951 75.5555Z" fill="url(#paint7_linear_5016_567)"/>
<path d="M111.906 162.173C111.774 162.15 111.48 162.183 111.326 162.052C111.082 161.844 110.814 161.538 110.783 161.251C110.759 161.026 111.032 160.692 111.26 160.54C111.506 160.377 111.852 160.337 112.162 160.292C116.511 159.661 119.971 157.408 122.86 154.249C123.689 153.343 124.13 152.09 124.798 151.028C125.123 150.511 125.493 149.969 125.972 149.618C126.581 149.172 127.126 149.528 127.116 150.303C127.111 150.644 127.01 151.011 126.86 151.322C123.915 157.521 119.111 161.228 112.243 162.145C112.165 162.154 112.087 162.159 111.904 162.173H111.906Z" fill="url(#paint8_linear_5016_567)"/>
<path d="M51.5417 70.6712C51.6057 65.6069 56.4687 62.6043 60.86 64.4622C61.469 64.7205 62.0402 65.0997 62.5758 65.4931C63.3104 66.0358 63.3839 66.415 62.981 66.9506C62.6208 67.4269 62.3364 67.4174 61.5852 66.8463C60.1893 65.7893 58.6631 65.3343 56.9213 65.7633C55.0965 66.2112 53.9282 67.3676 53.5135 69.1592C53.0845 71.0077 53.5016 72.6832 55.0017 73.9748C55.2387 74.1786 55.4946 74.3777 55.7719 74.5222C56.2791 74.7876 56.4781 75.155 56.1985 75.6763C55.9639 76.1124 55.3453 76.2522 54.869 75.956C52.7243 74.6312 51.6152 72.7045 51.5417 70.6688V70.6712Z" fill="url(#paint9_linear_5016_567)"/>
<path d="M17.4066 162.356C16.7501 162.128 16.1577 161.929 15.5676 161.718C13.6836 161.045 12.0033 160.031 10.6051 158.6C9.11924 157.078 7.65941 155.531 6.22092 153.967C5.85359 153.566 5.58106 153.071 5.30616 152.597C5.04073 152.137 5.07391 151.661 5.51707 151.327C5.96971 150.983 6.41761 151.127 6.78494 151.509C7.02903 151.765 7.23284 152.059 7.47456 152.317C8.73532 153.675 10.0008 155.026 11.2639 156.379C12.8399 158.069 14.8069 159.093 16.9824 159.792C17.5654 159.979 18.1436 160.28 18.6294 160.652C19.2195 161.104 19.1816 161.443 18.5702 161.851C18.2266 162.081 17.8 162.188 17.4066 162.353V162.356Z" fill="url(#paint10_linear_5016_567)"/>
<path d="M55.7623 84.8643C60.8385 84.9899 64.2251 90.149 62.0187 94.4858C61.7889 94.9385 61.4713 95.3485 61.1703 95.7608C60.8765 96.1613 60.4902 96.3035 60.0423 96.012C59.5991 95.7253 59.5019 95.1683 59.874 94.692C60.9618 93.2962 61.1585 91.7463 60.63 90.1182C59.5233 86.7175 55.2125 85.5515 52.5085 87.8906C52.3308 88.0446 52.1554 88.2105 52.0085 88.393C51.6886 88.7911 51.371 88.9475 50.9278 88.5399C50.442 88.092 50.2927 87.6394 50.7714 87.2246C51.5345 86.5634 52.364 85.9307 53.2669 85.4946C54.0252 85.1297 54.9258 85.0633 55.7623 84.8643Z" fill="url(#paint11_linear_5016_567)"/>
<path d="M95.4526 148.127C95.4977 147.58 95.5166 147.03 95.5948 146.487C95.6683 145.987 96.0095 145.724 96.5096 145.755C97.0618 145.791 97.2348 146.191 97.2158 146.668C97.0973 149.763 98.0405 152.564 99.5667 155.206C100.429 156.701 101.56 157.943 103.017 158.882C103.216 159.01 103.418 159.138 103.603 159.282C103.956 159.559 104.33 159.901 104.072 160.365C103.813 160.827 103.309 161.138 102.773 160.939C102.23 160.737 101.707 160.42 101.256 160.055C99.1543 158.346 97.6779 156.168 96.7395 153.651C96.0806 151.879 95.564 150.052 95.4526 148.127Z" fill="url(#paint12_linear_5016_567)"/>
<path d="M153.969 29.9195C153.834 30.237 153.661 30.8532 153.339 31.3769C152.227 33.1851 150.568 34.4885 149.014 35.8796C148.807 36.0621 148.272 36.1522 148.082 36.0171C147.724 35.7588 147.613 35.2777 147.931 34.8606C148.191 34.5193 148.509 34.2184 148.796 33.8961C149.819 32.7514 150.845 31.6092 151.853 30.4527C151.959 30.3318 151.962 30.1185 152.011 29.9479C151.829 29.9811 151.616 29.9621 151.469 30.0545C150.938 30.3863 150.428 30.7536 149.912 31.1091C149.656 31.2869 149.424 31.5286 149.142 31.6329C148.587 31.8367 148.215 31.4599 148.348 30.8769C148.374 30.7631 148.421 30.6517 148.473 30.5451C149.035 29.4052 151.509 28.026 152.758 28.1563C153.538 28.2369 153.981 28.7748 153.967 29.9242L153.969 29.9195Z" fill="url(#paint13_linear_5016_567)"/>
<path d="M99.8581 54.7103C98.1637 54.7103 96.4692 54.7103 94.7748 54.7103C94.4999 54.7103 94.1373 54.7979 93.969 54.6581C93.7012 54.4377 93.4785 54.0775 93.4097 53.741C93.3789 53.5964 93.7534 53.3097 93.9951 53.1865C94.1871 53.0893 94.4572 53.1319 94.6942 53.1319C98.1613 53.1272 101.631 53.1248 105.098 53.1296C105.55 53.1296 106.062 53.0111 106.202 53.7007C106.359 54.4638 106.221 54.6984 105.418 54.7055C103.565 54.7197 101.714 54.7103 99.8605 54.7103H99.8581Z" fill="url(#paint14_linear_5016_567)"/>
<path d="M55.9213 98.1141C52.6959 98.024 49.8236 95.5973 49.2549 92.4288C49.1625 91.9098 49.198 91.5164 49.7502 91.27C50.4374 90.9619 50.7479 91.0851 50.8877 91.8458C51.3119 94.1825 52.6722 95.6423 54.9781 96.1874C55.4615 96.3011 55.9971 96.3106 56.49 96.2419C57.0232 96.1684 57.4996 96.204 57.9214 96.5286C58.1157 96.6779 58.4096 96.9291 58.3812 97.0808C58.3314 97.3391 58.1039 97.6946 57.8787 97.761C57.246 97.9458 56.5777 98.0051 55.9236 98.1141H55.9213Z" fill="url(#paint15_linear_5016_567)"/>
<path d="M104.887 98.2964C105.048 98.4244 105.306 98.55 105.444 98.7561C105.615 99.0097 105.702 99.3273 105.802 99.6235C106.795 102.6 108.522 105.093 110.75 107.278C111.087 107.608 111.378 108.093 111.454 108.546C111.549 109.103 111.179 109.349 110.641 109.153C110.25 109.008 109.866 108.766 109.556 108.482C107.427 106.529 105.92 104.157 104.927 101.455C104.669 100.754 104.444 100.043 104.238 99.3249C104.098 98.8367 104.271 98.4765 104.885 98.2964H104.887Z" fill="url(#paint16_linear_5016_567)"/>
<path d="M88.2695 153.618C88.644 154.298 89.0184 154.981 89.3905 155.661C89.5967 156.035 89.8905 156.391 89.9829 156.794C90.0493 157.085 89.9498 157.564 89.7412 157.725C89.5398 157.879 89.0919 157.787 88.7791 157.704C88.5729 157.649 88.3857 157.443 88.2387 157.265C86.4898 155.147 85.44 152.727 85.1342 149.995C85.0987 149.684 85.1177 149.364 85.1485 149.054C85.2077 148.454 85.549 148.115 86.158 148.127C86.7647 148.141 86.8737 148.582 86.978 149.087C87.2458 150.39 87.5586 151.684 87.8856 152.974C87.9472 153.22 88.1558 153.429 88.298 153.654L88.2672 153.618H88.2695Z" fill="url(#paint17_linear_5016_567)"/>
<path d="M184.701 65.5405C184.798 62.6824 183.554 60.3861 181.663 58.3646C181.395 58.0778 181.094 57.8172 180.855 57.5091C180.592 57.1726 180.487 56.7175 180.885 56.4734C181.111 56.3336 181.651 56.3668 181.829 56.5445C182.715 57.4261 183.679 58.2864 184.338 59.3291C185.547 61.2416 186.196 63.3958 186.369 65.6661C186.402 66.0903 186.424 66.5595 186.277 66.9411C186.161 67.2468 185.791 67.6496 185.516 67.6639C184.995 67.6923 184.696 67.2799 184.701 66.7207C184.703 66.3273 184.701 65.9339 184.701 65.5429V65.5405Z" fill="url(#paint18_linear_5016_567)"/>
<path d="M65.0806 70.4318C65.045 73.7922 62.5733 76.5436 59.4996 76.9015C58.8171 76.9797 58.3597 76.7261 58.1962 76.1787C58.016 75.5767 58.1606 75.3611 58.8005 75.2663C61.2864 74.9013 62.7984 73.669 63.2629 71.5409C63.3861 70.9792 63.3624 70.3678 63.3079 69.7896C63.2653 69.3417 63.3695 69.0905 63.8174 69.0573C64.2701 69.0265 64.8175 68.8582 64.9786 69.5147C65.0711 69.8915 65.0687 70.292 65.0829 70.4342L65.0806 70.4318Z" fill="url(#paint19_linear_5016_567)"/>
<path d="M19.0346 159.417C18.6317 159.254 18.3426 159.199 18.1293 159.04C16.9894 158.199 15.8543 157.348 14.7546 156.457C14.4608 156.22 14.2688 155.843 14.0769 155.502C13.8114 155.028 13.6953 154.519 14.1598 154.097C14.5745 153.72 15.039 153.841 15.4727 154.097C15.7452 154.256 16.0178 154.419 16.269 154.606C17.3093 155.388 18.345 156.173 19.3687 156.971C19.6128 157.161 19.9233 157.379 20.0015 157.644C20.1129 158.021 20.184 158.536 20.0062 158.837C19.8261 159.14 19.3237 159.256 19.0346 159.415V159.417Z" fill="url(#paint20_linear_5016_567)"/>
<path d="M80.5867 111.482C80.7478 111.601 81.0085 111.717 81.1531 111.916C81.3071 112.129 81.3735 112.419 81.4446 112.684C81.9683 114.632 82.9447 116.307 84.414 117.703C84.7197 117.992 84.9875 118.36 85.1581 118.741C85.2458 118.938 85.17 119.355 85.0159 119.481C84.8121 119.644 84.4543 119.663 84.1651 119.656C83.9945 119.651 83.8097 119.495 83.6627 119.367C81.601 117.563 80.2904 115.341 79.8876 112.608C79.8094 112.073 79.9065 111.674 80.5867 111.482Z" fill="url(#paint21_linear_5016_567)"/>
<path d="M75.2048 117.514C75.2522 117.161 75.2379 116.912 75.3209 116.698C75.5318 116.156 76.1882 116.044 76.5579 116.492C76.7025 116.665 76.8091 116.902 76.8471 117.125C77.1575 118.917 77.8898 120.488 79.1932 121.784C79.3733 121.964 79.5084 122.246 79.5487 122.5C79.6435 123.111 79.2051 123.479 78.6079 123.303C78.3875 123.239 78.1647 123.118 77.9964 122.964C76.3399 121.474 75.5531 119.547 75.2024 117.509L75.2048 117.514Z" fill="url(#paint22_linear_5016_567)"/>
<path d="M141.141 43.3233C140.911 42.8777 140.646 42.5934 140.653 42.3185C140.665 41.9488 140.847 41.5625 141.03 41.2236C142.03 39.349 143.053 37.4887 144.068 35.6213C144.125 35.517 144.155 35.363 144.243 35.3203C144.527 35.1757 144.833 35.0691 145.129 34.9482C145.236 35.2563 145.385 35.5573 145.433 35.8725C145.459 36.0407 145.328 36.2469 145.236 36.4175C144.158 38.4272 143.082 40.4392 141.98 42.437C141.821 42.7213 141.522 42.9299 141.141 43.3233Z" fill="url(#paint23_linear_5016_567)"/>
<path d="M127.521 138.785C127.718 136.918 127.898 135.114 128.104 133.313C128.135 133.05 128.227 132.74 128.403 132.564C128.569 132.401 128.974 132.252 129.114 132.342C129.374 132.51 129.675 132.853 129.683 133.133C129.706 133.955 129.623 134.785 129.533 135.605C129.42 136.622 129.256 137.633 129.116 138.65C129.104 138.728 129.109 138.809 129.095 138.885C128.974 139.586 128.467 140.207 128.062 140.153C127.697 140.103 127.488 139.544 127.521 138.783V138.785Z" fill="url(#paint24_linear_5016_567)"/>
<path d="M106.6 97.3841C106.698 97.2656 106.844 96.9291 107.027 96.9078C107.278 96.877 107.577 97.0571 107.818 97.2064C107.923 97.2704 107.944 97.4813 107.987 97.6306C108.544 99.5051 109.596 101.105 110.748 102.652C110.956 102.932 111.181 103.233 111.262 103.558C111.312 103.759 111.169 104.112 110.999 104.235C110.84 104.349 110.413 104.354 110.3 104.228C108.558 102.325 107.131 100.235 106.617 97.6424C106.61 97.6045 106.612 97.5642 106.6 97.3841Z" fill="url(#paint25_linear_5016_567)"/>
<path d="M128.543 85.1037C128.566 84.6321 128.559 84.1557 128.626 83.6912C128.68 83.3263 128.687 82.8286 129.28 82.9234C129.751 82.9992 130.235 83.1296 130.287 83.7339C130.311 84.0064 130.28 84.2837 130.261 84.5586C130.171 85.8407 130.375 87.0564 130.939 88.2247C131.365 89.1134 131.294 89.6632 130.834 89.9216C130.401 90.1657 129.91 89.8386 129.441 88.9641C128.791 87.7603 128.5 86.4711 128.543 85.1013V85.1037Z" fill="url(#paint26_linear_5016_567)"/>
<path d="M52.921 112.364C52.831 111.302 53.2386 110.257 53.9662 109.328C54.1557 109.087 54.4022 108.868 54.6653 108.717C54.7909 108.643 55.0776 108.693 55.1914 108.797C55.3004 108.897 55.3359 109.153 55.298 109.314C55.2553 109.492 55.0942 109.643 54.9804 109.802C53.4566 111.935 53.7197 114.196 55.6724 115.888C56.0066 116.177 56.6299 116.461 56.1559 116.985C55.7388 117.445 55.2838 116.964 54.9212 116.703C53.6036 115.751 52.959 114.364 52.921 112.366V112.364Z" fill="url(#paint27_linear_5016_567)"/>
<path d="M104.181 103.591C104.223 104.226 104.017 104.524 103.524 104.688C102.993 104.863 102.842 104.513 102.626 104.181C101.858 102.998 101.583 101.659 101.389 100.301C101.292 99.6189 101.664 99.0975 102.19 99.0762C102.809 99.0525 103.076 99.4459 103.221 99.9957C103.496 101.053 103.799 102.103 104.086 103.155C104.138 103.342 104.166 103.534 104.178 103.591H104.181Z" fill="url(#paint28_linear_5016_567)"/>
<path d="M77.091 90.2248C75.2899 90.3598 73.477 90.457 71.8086 91.2627C71.446 91.4381 71.0313 91.6395 70.7777 91.1751C70.5336 90.7319 70.8702 90.4286 71.228 90.2319C71.5693 90.0423 71.9319 89.8716 72.3039 89.7603C74.0481 89.2389 75.8326 88.9806 77.655 89.0398C78.148 89.0564 78.8566 88.9948 78.8708 89.6536C78.8874 90.4001 78.1551 90.1774 77.6811 90.22C77.4868 90.2366 77.2877 90.2224 77.091 90.2224V90.2248Z" fill="url(#paint29_linear_5016_567)"/>
<path d="M137.366 97.7561C136.468 97.5214 135.555 97.3295 134.681 97.0309C134.219 96.8745 133.858 96.4811 134.131 95.9194C134.356 95.4549 134.78 95.4692 135.249 95.5331C136.484 95.7061 137.728 95.8246 138.968 95.9621C139.411 96.0119 139.89 96.0829 139.946 96.6209C140.008 97.2157 139.534 97.4456 139.053 97.5214C138.513 97.6068 137.958 97.5949 137.408 97.6257C137.394 97.6684 137.38 97.7134 137.366 97.7561Z" fill="url(#paint30_linear_5016_567)"/>
<path d="M61.3789 49.0748C61.5495 47.7714 62.8529 45.9774 64.026 45.6694C64.2677 45.6054 64.5782 45.7926 64.8555 45.8637C64.7607 46.1315 64.7228 46.4443 64.5569 46.6552C64.173 47.141 63.6255 47.5226 63.3245 48.0487C62.8506 48.8734 62.9003 49.7739 63.2606 50.6745C63.3482 50.8949 63.1752 51.2219 63.1207 51.4992C62.8435 51.402 62.424 51.3831 62.3174 51.1911C61.9453 50.5181 61.6822 49.7834 61.3789 49.0725V49.0748Z" fill="url(#paint31_linear_5016_567)"/>
<path d="M132.875 77.8447C133.188 76.6716 133.496 75.4986 133.82 74.3302C133.873 74.1454 133.963 73.9202 134.11 73.8254C134.389 73.6453 134.721 73.5458 135.029 73.4131C135.124 73.733 135.342 74.0719 135.292 74.3658C135.162 75.136 134.894 75.8848 134.719 76.6503C134.607 77.148 134.558 77.6599 134.491 78.1646C134.42 78.7002 134.302 79.2666 133.633 79.2192C132.998 79.1766 133.031 78.6007 133.029 78.1196C133.029 78.0414 133.029 77.9608 133.029 77.8826C132.977 77.8684 132.925 77.8542 132.873 77.84L132.875 77.8447Z" fill="url(#paint32_linear_5016_567)"/>
<path d="M183.807 64.7702C183.713 65.0096 183.675 65.3769 183.499 65.4599C183.336 65.5381 183.004 65.3556 182.793 65.2158C182.573 65.0688 182.355 64.8698 182.227 64.6399C181.618 63.5426 181.018 62.4383 180.473 61.3103C180.366 61.0899 180.419 60.6159 180.577 60.4903C180.757 60.3481 181.144 60.4618 181.44 60.4832C181.509 60.4879 181.58 60.5566 181.634 60.6111C182.767 61.7676 183.322 63.2203 183.807 64.7702Z" fill="url(#paint33_linear_5016_567)"/>
<path d="M84.0796 52.1462C83.1151 52.0443 82.1648 51.7837 81.3756 51.1367C80.2286 50.1959 80.2499 48.5678 81.4064 47.6388C81.5865 47.4942 81.8093 47.3473 82.025 47.3212C82.2264 47.2952 82.5345 47.371 82.634 47.5132C82.7146 47.6293 82.5985 47.9374 82.4918 48.1128C82.3947 48.2692 82.1695 48.3379 82.0344 48.4777C81.3804 49.1484 81.4396 49.9873 82.243 50.4684C82.7406 50.7646 83.3284 50.9139 83.8853 51.1083C84.1057 51.1841 84.3758 51.1533 84.5702 51.2623C84.7479 51.3642 84.8545 51.5917 84.9944 51.7623C84.819 51.8903 84.6531 52.0396 84.4635 52.1391C84.3711 52.1889 84.2313 52.1486 84.0796 52.1486V52.1462Z" fill="url(#paint34_linear_5016_567)"/>
<path d="M76.0695 72.4984C74.5742 72.0766 73.4177 71.4486 72.8134 70.1167C72.4792 69.3797 73.0314 68.1213 73.8016 67.8322C73.9817 67.7659 74.2708 67.8251 74.432 67.9389C74.541 68.0147 74.5386 68.2872 74.5363 68.4721C74.5363 68.574 74.4296 68.6759 74.3704 68.7778C73.8135 69.7281 73.9083 70.1618 74.8704 70.7234C75.2733 70.9604 75.7757 71.0362 76.1643 71.2875C76.4108 71.4462 76.6194 71.7851 76.6644 72.0719C76.6833 72.1927 76.2331 72.3847 76.0695 72.4961V72.4984Z" fill="url(#paint35_linear_5016_567)"/>
<path d="M133.37 62.1875C133.695 60.9575 133.948 59.8934 134.264 58.8483C134.399 58.3981 134.669 57.9099 135.257 58.0639C135.875 58.2251 135.766 58.7678 135.669 59.2346C135.477 60.1518 135.264 61.0641 135.06 61.9813C135.034 62.095 135.022 62.2135 134.996 62.3273C134.873 62.8652 134.501 63.2207 133.993 63.0453C133.707 62.9458 133.553 62.4576 133.37 62.1875Z" fill="url(#paint36_linear_5016_567)"/>
<path d="M78.6765 117.826C78.7879 117.691 78.9111 117.416 79.1173 117.326C79.2761 117.255 79.5605 117.376 79.7429 117.488C79.8994 117.582 79.9941 117.781 80.1103 117.943C80.6601 118.708 81.2028 119.478 81.7549 120.244C82.0488 120.651 82.3 121.094 81.8616 121.509C81.4682 121.881 81.0227 121.654 80.698 121.353C79.6955 120.426 78.9325 119.346 78.6765 117.829V117.826Z" fill="url(#paint37_linear_5016_567)"/>
<path d="M131.263 132.673C131.263 133.301 131.259 133.929 131.263 134.557C131.268 135.067 131.119 135.489 130.626 135.716C130.436 135.804 130.228 135.856 130.029 135.925C129.958 135.709 129.815 135.489 129.825 135.278C129.884 133.714 129.969 132.147 130.057 130.583C130.081 130.178 130.178 129.704 130.69 129.801C130.917 129.844 131.199 130.275 131.23 130.557C131.308 131.254 131.256 131.967 131.256 132.673H131.261H131.263Z" fill="url(#paint38_linear_5016_567)"/>
<path d="M23.7742 159.737C22.6651 159.538 21.8475 159.176 21.2006 158.496C20.8735 158.152 20.7716 157.723 21.0631 157.311C21.3593 156.894 21.793 156.87 22.222 157.078C22.8571 157.389 23.4875 157.714 24.0965 158.071C24.5089 158.313 24.7364 158.756 24.5184 159.176C24.3714 159.46 23.9567 159.605 23.7719 159.735L23.7742 159.737Z" fill="url(#paint39_linear_5016_567)"/>
<path d="M86.971 158.886C86.0704 158.882 84.53 157.453 84.5063 156.531C84.4992 156.265 84.6651 155.858 84.8689 155.758C85.1296 155.633 85.6438 155.625 85.8121 155.798C86.4638 156.46 87.0918 157.171 87.5942 157.948C87.9781 158.54 87.6867 158.891 86.9686 158.889L86.971 158.886Z" fill="url(#paint40_linear_5016_567)"/>
<path d="M61.9951 71.0741C61.7842 71.4864 61.6088 72.2235 61.3576 72.2495C60.6063 72.3301 60.7699 71.6002 60.7296 71.1333C60.6063 69.7849 60.4286 68.4767 59.2461 67.5596C59.1086 67.453 59.1181 67.1567 59.0588 66.9482C59.3029 66.8818 59.6181 66.6875 59.7745 66.7775C60.1703 67.0027 60.5566 67.306 60.8338 67.6662C61.5898 68.6355 61.7818 69.7967 61.9974 71.0741H61.9951Z" fill="url(#paint41_linear_5016_567)"/>
<path d="M58.7958 91.3599C58.7033 91.4784 58.509 91.7296 58.3171 91.9785C58.0896 91.796 57.8052 91.6538 57.6488 91.4239C57.5018 91.2106 57.4947 90.9049 57.4165 90.6419C57.1558 89.765 56.8027 88.9427 56.0207 88.3858C55.6865 88.1464 55.3216 87.8052 55.7031 87.4473C55.8903 87.272 56.4923 87.298 56.7411 87.4687C58.0066 88.3455 58.6631 89.6063 58.8005 91.3576L58.7958 91.3599Z" fill="url(#paint42_linear_5016_567)"/>
<path d="M74.9606 126.78C74.4866 126.545 73.9794 126.434 73.6856 126.123C72.9794 125.37 72.8632 124.379 72.9035 123.388C72.9106 123.215 73.169 122.917 73.3135 122.917C73.5386 122.917 73.7756 123.104 73.9818 123.249C74.0576 123.303 74.0695 123.459 74.0932 123.573C74.2591 124.374 74.6383 125.014 75.3492 125.479C75.5601 125.616 75.7521 126.026 75.6976 126.246C75.6454 126.455 75.2568 126.581 74.9606 126.78Z" fill="url(#paint43_linear_5016_567)"/>
<path d="M106.266 48.5393C105.558 48.5393 104.847 48.5796 104.145 48.518C103.908 48.4967 103.693 48.2194 103.468 48.0583C103.657 47.8947 103.823 47.6364 104.039 47.5819C105.52 47.2146 107.01 47.3757 108.487 47.6293C108.691 47.6649 108.845 47.9753 109.022 48.1578C108.812 48.2905 108.605 48.5204 108.387 48.537C107.683 48.5867 106.973 48.5559 106.266 48.5559C106.266 48.5512 106.266 48.5464 106.266 48.5417V48.5393Z" fill="url(#paint44_linear_5016_567)"/>
<path d="M131.477 108.025C131.477 108.065 131.477 108.103 131.477 108.143C131.47 108.709 131.458 109.292 130.728 109.413C130.176 109.506 129.808 109.06 129.737 108.217C129.702 107.788 129.706 107.352 129.723 106.92C129.742 106.475 130 106.091 130.429 106.141C130.747 106.176 131.143 106.47 131.294 106.759C131.484 107.119 131.455 107.593 131.522 108.018C131.508 108.018 131.493 108.022 131.477 108.025Z" fill="url(#paint45_linear_5016_567)"/>
<path d="M104.849 70.657C104.593 70.0242 104.313 69.3986 104.095 68.7516C104.022 68.536 104.11 68.2658 104.124 68.0217C104.375 68.0502 104.681 67.9957 104.87 68.1213C105.664 68.6379 106.171 70.8537 105.683 71.6926C105.574 71.8822 105.268 72.0291 105.041 72.0457C104.927 72.0528 104.728 71.7376 104.678 71.5409C104.614 71.2826 104.662 70.9983 104.662 70.7257C104.723 70.702 104.785 70.6807 104.844 70.657H104.849Z" fill="url(#paint46_linear_5016_567)"/>
<path d="M171.965 53.5587C171.923 53.2103 171.811 52.8525 171.863 52.5183C171.904 52.2647 172.11 51.9567 172.328 51.8476C172.458 51.7837 172.894 52.0064 172.958 52.1865C173.304 53.1463 173.537 54.1417 173.141 55.1417C173.058 55.3503 172.752 55.5944 172.548 55.5944C172.38 55.5944 172.11 55.2815 172.065 55.0683C171.961 54.5777 171.965 54.0658 171.925 53.5634C171.939 53.5634 171.954 53.561 171.968 53.5587H171.965Z" fill="url(#paint47_linear_5016_567)"/>
<path d="M137.882 93.9525C138.309 93.9525 138.745 93.9098 139.162 93.9714C139.345 93.9975 139.648 94.2558 139.634 94.3743C139.603 94.5947 139.385 94.9597 139.238 94.962C138.316 94.9857 137.389 94.9549 136.472 94.8672C136.337 94.8554 136.11 94.4241 136.155 94.244C136.2 94.0567 136.513 93.8292 136.728 93.8079C137.105 93.7676 137.498 93.8719 137.885 93.9146C137.885 93.9264 137.885 93.9406 137.885 93.9525H137.882Z" fill="url(#paint48_linear_5016_567)"/>
<path d="M64.9147 47.4111C65.0166 47.6623 65.2228 47.9206 65.1967 48.1529C65.1304 48.8093 65.0024 49.4682 64.8247 50.1033C64.7654 50.3118 64.5047 50.5464 64.2914 50.6033C64.1516 50.6412 63.8649 50.4256 63.7582 50.2549C63.3554 49.6009 63.7677 48.0107 64.4218 47.5912C64.5166 47.5296 64.6374 47.5107 64.9123 47.4111H64.9147Z" fill="url(#paint49_linear_5016_567)"/>
<path d="M85.9233 111.994C85.2787 111.975 84.7858 111.565 84.7834 111.046C84.7834 110.53 85.3072 110.101 85.9281 110.113C86.5514 110.122 87.0514 110.551 87.0538 111.079C87.0585 111.625 86.5751 112.016 85.921 111.997L85.9233 111.994Z" fill="url(#paint50_linear_5016_567)"/>
<path d="M171.534 54.4615C171.482 54.8904 171.513 55.1179 171.42 55.2696C171.288 55.4852 171.077 55.7767 170.878 55.7909C170.669 55.8075 170.309 55.5871 170.238 55.3881C170.044 54.843 169.927 54.2577 169.863 53.6818C169.844 53.5135 170.07 53.2007 170.238 53.1557C170.461 53.0964 170.856 53.1509 170.965 53.3074C171.245 53.7055 171.406 54.1866 171.534 54.4615Z" fill="url(#paint51_linear_5016_567)"/>
<path d="M55.5065 88.9877C55.1937 89.2555 55.0254 89.4736 54.805 89.5731C54.2789 89.8124 53.7362 90.0447 53.1769 90.1798C52.9399 90.2366 52.6437 90.0494 52.3735 89.9712C52.4588 89.7342 52.4731 89.4072 52.6413 89.2745C53.2622 88.7887 53.9637 88.4261 54.7884 88.5351C55.0041 88.5635 55.1937 88.7816 55.5065 88.9854V88.9877Z" fill="url(#paint52_linear_5016_567)"/>
<path d="M88.2981 153.651C88.2507 153.384 88.1132 153.087 88.182 152.853C88.2697 152.557 88.4806 152.158 88.7247 152.085C88.9759 152.007 89.3811 152.203 89.6228 152.395C89.8077 152.545 89.8811 152.869 89.938 153.13C90.0304 153.552 90.1015 154.009 89.6157 154.265C89.1844 154.493 88.8787 154.234 88.5991 153.936C88.4948 153.824 88.3787 153.723 88.2673 153.618L88.2981 153.654V153.651Z" fill="url(#paint53_linear_5016_567)"/>
<path d="M126 147.246C126.012 146.698 126.45 146.298 127.01 146.324C127.562 146.35 127.955 146.76 127.967 147.319C127.979 147.897 127.595 148.303 127.031 148.307C126.462 148.312 125.988 147.821 126 147.243V147.246Z" fill="url(#paint54_linear_5016_567)"/>
<path d="M103.911 90.9025C103.882 91.0234 103.851 91.4334 103.686 91.777C103.593 91.9713 103.252 92.1917 103.069 92.1585C102.892 92.1254 102.664 91.7889 102.65 91.5732C102.614 91.1087 102.714 90.6324 102.738 90.1608C102.757 89.7721 102.868 89.3621 103.299 89.4403C103.539 89.4854 103.733 89.893 103.899 90.1655C103.968 90.2816 103.911 90.4736 103.911 90.9025Z" fill="url(#paint55_linear_5016_567)"/>
<path d="M137.036 71.2614C137.01 71.7685 136.531 72.2117 136.012 72.2117C135.496 72.2117 135.126 71.8088 135.171 71.2945C135.216 70.7874 135.712 70.3774 136.245 70.4106C136.716 70.439 137.06 70.8111 137.039 71.2614H137.036Z" fill="url(#paint56_linear_5016_567)"/>
<path d="M55.08 111.354C55.1677 111.127 55.2791 110.705 55.4924 110.347C55.58 110.2 55.926 110.079 56.0872 110.136C56.2412 110.191 56.3929 110.494 56.3905 110.686C56.3858 111.115 56.3313 111.553 56.2081 111.963C56.1298 112.222 55.8929 112.433 55.727 112.665C55.5255 112.452 55.3004 112.257 55.1345 112.018C55.0587 111.906 55.1013 111.712 55.0776 111.354H55.08Z" fill="url(#paint57_linear_5016_567)"/>
<path d="M104.209 70.6925C104.178 70.9152 104.209 71.2233 104.086 71.4413C103.953 71.6736 103.674 71.8205 103.458 72.0054C103.316 71.7684 103.084 71.5409 103.053 71.2897C103.003 70.8726 103.043 70.4342 103.126 70.0194C103.171 69.7943 103.385 69.6023 103.52 69.3938C103.731 69.5763 103.996 69.7256 104.133 69.9531C104.24 70.1308 104.188 70.4057 104.209 70.6901V70.6925Z" fill="url(#paint58_linear_5016_567)"/>
<path d="M132.882 84.703C132.887 85.1699 132.47 85.6438 132.017 85.632C131.519 85.6178 131.233 85.331 131.19 84.831C131.147 84.3309 131.512 83.8807 131.974 83.8427C132.439 83.8048 132.875 84.2195 132.882 84.703Z" fill="url(#paint59_linear_5016_567)"/>
</g>
<defs>
<linearGradient id="paint0_linear_5016_567" x1="95.5003" y1="23.2134" x2="95.5003" y2="168.095" gradientUnits="userSpaceOnUse">
<stop stop-color="#5442DD"/>
<stop offset="1" stop-color="#C892F6"/>
</linearGradient>
<linearGradient id="paint1_linear_5016_567" x1="94.9719" y1="83.2715" x2="94.9719" y2="131.655" gradientUnits="userSpaceOnUse">
<stop stop-color="#5442DD"/>
<stop offset="1" stop-color="#C892F6"/>
</linearGradient>
<linearGradient id="paint2_linear_5016_567" x1="96.5837" y1="44.6641" x2="96.5837" y2="54.7362" gradientUnits="userSpaceOnUse">
<stop stop-color="#5442DD"/>
<stop offset="1" stop-color="#C892F6"/>
</linearGradient>
<linearGradient id="paint3_linear_5016_567" x1="95.6927" y1="65.5471" x2="95.6927" y2="75.5603" gradientUnits="userSpaceOnUse">
<stop stop-color="#5442DD"/>
<stop offset="1" stop-color="#C892F6"/>
</linearGradient>
<linearGradient id="paint4_linear_5016_567" x1="81.9861" y1="86.5752" x2="81.9861" y2="96.6454" gradientUnits="userSpaceOnUse">
<stop stop-color="#5442DD"/>
<stop offset="1" stop-color="#C892F6"/>
</linearGradient>
<linearGradient id="paint5_linear_5016_567" x1="55.7209" y1="106.162" x2="55.7209" y2="119.34" gradientUnits="userSpaceOnUse">
<stop stop-color="#5442DD"/>
<stop offset="1" stop-color="#C892F6"/>
</linearGradient>
<linearGradient id="paint6_linear_5016_567" x1="65.4225" y1="43.0725" x2="65.4225" y2="55.8936" gradientUnits="userSpaceOnUse">
<stop stop-color="#5442DD"/>
<stop offset="1" stop-color="#C892F6"/>
</linearGradient>
<linearGradient id="paint7_linear_5016_567" x1="77.4599" y1="65.4998" x2="77.4599" y2="75.5793" gradientUnits="userSpaceOnUse">
<stop stop-color="#5442DD"/>
<stop offset="1" stop-color="#C892F6"/>
</linearGradient>
<linearGradient id="paint8_linear_5016_567" x1="118.949" y1="149.423" x2="118.949" y2="162.173" gradientUnits="userSpaceOnUse">
<stop stop-color="#5442DD"/>
<stop offset="1" stop-color="#C892F6"/>
</linearGradient>
<linearGradient id="paint9_linear_5016_567" x1="57.3829" y1="63.9082" x2="57.3829" y2="76.1129" gradientUnits="userSpaceOnUse">
<stop stop-color="#5442DD"/>
<stop offset="1" stop-color="#C892F6"/>
</linearGradient>
<linearGradient id="paint10_linear_5016_567" x1="12.0945" y1="151.132" x2="12.0945" y2="162.356" gradientUnits="userSpaceOnUse">
<stop stop-color="#5442DD"/>
<stop offset="1" stop-color="#C892F6"/>
</linearGradient>
<linearGradient id="paint11_linear_5016_567" x1="56.592" y1="84.8643" x2="56.592" y2="96.1664" gradientUnits="userSpaceOnUse">
<stop stop-color="#5442DD"/>
<stop offset="1" stop-color="#C892F6"/>
</linearGradient>
<linearGradient id="paint12_linear_5016_567" x1="99.8051" y1="145.753" x2="99.8051" y2="161" gradientUnits="userSpaceOnUse">
<stop stop-color="#5442DD"/>
<stop offset="1" stop-color="#C892F6"/>
</linearGradient>
<linearGradient id="paint13_linear_5016_567" x1="150.856" y1="28.1477" x2="150.856" y2="36.082" gradientUnits="userSpaceOnUse">
<stop stop-color="#5442DD"/>
<stop offset="1" stop-color="#C892F6"/>
</linearGradient>
<linearGradient id="paint14_linear_5016_567" x1="99.8335" y1="53.1218" x2="99.8335" y2="54.7374" gradientUnits="userSpaceOnUse">
<stop stop-color="#5442DD"/>
<stop offset="1" stop-color="#C892F6"/>
</linearGradient>
<linearGradient id="paint15_linear_5016_567" x1="53.7993" y1="91.1133" x2="53.7993" y2="98.1141" gradientUnits="userSpaceOnUse">
<stop stop-color="#5442DD"/>
<stop offset="1" stop-color="#C892F6"/>
</linearGradient>
<linearGradient id="paint16_linear_5016_567" x1="107.83" y1="98.2964" x2="107.83" y2="109.22" gradientUnits="userSpaceOnUse">
<stop stop-color="#5442DD"/>
<stop offset="1" stop-color="#C892F6"/>
</linearGradient>
<linearGradient id="paint17_linear_5016_567" x1="87.5592" y1="148.127" x2="87.5592" y2="157.808" gradientUnits="userSpaceOnUse">
<stop stop-color="#5442DD"/>
<stop offset="1" stop-color="#C892F6"/>
</linearGradient>
<linearGradient id="paint18_linear_5016_567" x1="183.507" y1="56.3867" x2="183.507" y2="67.6652" gradientUnits="userSpaceOnUse">
<stop stop-color="#5442DD"/>
<stop offset="1" stop-color="#C892F6"/>
</linearGradient>
<linearGradient id="paint19_linear_5016_567" x1="61.6037" y1="69.0154" x2="61.6037" y2="76.9154" gradientUnits="userSpaceOnUse">
<stop stop-color="#5442DD"/>
<stop offset="1" stop-color="#C892F6"/>
</linearGradient>
<linearGradient id="paint20_linear_5016_567" x1="16.9793" y1="153.857" x2="16.9793" y2="159.417" gradientUnits="userSpaceOnUse">
<stop stop-color="#5442DD"/>
<stop offset="1" stop-color="#C892F6"/>
</linearGradient>
<linearGradient id="paint21_linear_5016_567" x1="82.53" y1="111.482" x2="82.53" y2="119.657" gradientUnits="userSpaceOnUse">
<stop stop-color="#5442DD"/>
<stop offset="1" stop-color="#C892F6"/>
</linearGradient>
<linearGradient id="paint22_linear_5016_567" x1="77.382" y1="116.214" x2="77.382" y2="123.347" gradientUnits="userSpaceOnUse">
<stop stop-color="#5442DD"/>
<stop offset="1" stop-color="#C892F6"/>
</linearGradient>
<linearGradient id="paint23_linear_5016_567" x1="143.044" y1="34.9482" x2="143.044" y2="43.3233" gradientUnits="userSpaceOnUse">
<stop stop-color="#5442DD"/>
<stop offset="1" stop-color="#C892F6"/>
</linearGradient>
<linearGradient id="paint24_linear_5016_567" x1="128.602" y1="132.314" x2="128.602" y2="140.156" gradientUnits="userSpaceOnUse">
<stop stop-color="#5442DD"/>
<stop offset="1" stop-color="#C892F6"/>
</linearGradient>
<linearGradient id="paint25_linear_5016_567" x1="108.936" y1="96.9043" x2="108.936" y2="104.322" gradientUnits="userSpaceOnUse">
<stop stop-color="#5442DD"/>
<stop offset="1" stop-color="#C892F6"/>
</linearGradient>
<linearGradient id="paint26_linear_5016_567" x1="129.88" y1="82.9116" x2="129.88" y2="90" gradientUnits="userSpaceOnUse">
<stop stop-color="#5442DD"/>
<stop offset="1" stop-color="#C892F6"/>
</linearGradient>
<linearGradient id="paint27_linear_5016_567" x1="54.6181" y1="108.682" x2="54.6181" y2="117.176" gradientUnits="userSpaceOnUse">
<stop stop-color="#5442DD"/>
<stop offset="1" stop-color="#C892F6"/>
</linearGradient>
<linearGradient id="paint28_linear_5016_567" x1="102.78" y1="99.0752" x2="102.78" y2="104.735" gradientUnits="userSpaceOnUse">
<stop stop-color="#5442DD"/>
<stop offset="1" stop-color="#C892F6"/>
</linearGradient>
<linearGradient id="paint29_linear_5016_567" x1="74.7828" y1="89.0315" x2="74.7828" y2="91.4607" gradientUnits="userSpaceOnUse">
<stop stop-color="#5442DD"/>
<stop offset="1" stop-color="#C892F6"/>
</linearGradient>
<linearGradient id="paint30_linear_5016_567" x1="136.994" y1="95.5005" x2="136.994" y2="97.7561" gradientUnits="userSpaceOnUse">
<stop stop-color="#5442DD"/>
<stop offset="1" stop-color="#C892F6"/>
</linearGradient>
<linearGradient id="paint31_linear_5016_567" x1="63.1172" y1="45.6562" x2="63.1172" y2="51.4992" gradientUnits="userSpaceOnUse">
<stop stop-color="#5442DD"/>
<stop offset="1" stop-color="#C892F6"/>
</linearGradient>
<linearGradient id="paint32_linear_5016_567" x1="134.086" y1="73.4131" x2="134.086" y2="79.222" gradientUnits="userSpaceOnUse">
<stop stop-color="#5442DD"/>
<stop offset="1" stop-color="#C892F6"/>
</linearGradient>
<linearGradient id="paint33_linear_5016_567" x1="182.112" y1="60.4199" x2="182.112" y2="65.4786" gradientUnits="userSpaceOnUse">
<stop stop-color="#5442DD"/>
<stop offset="1" stop-color="#C892F6"/>
</linearGradient>
<linearGradient id="paint34_linear_5016_567" x1="82.7607" y1="47.3162" x2="82.7607" y2="52.164" gradientUnits="userSpaceOnUse">
<stop stop-color="#5442DD"/>
<stop offset="1" stop-color="#C892F6"/>
</linearGradient>
<linearGradient id="paint35_linear_5016_567" x1="74.6894" y1="67.8044" x2="74.6894" y2="72.4984" gradientUnits="userSpaceOnUse">
<stop stop-color="#5442DD"/>
<stop offset="1" stop-color="#C892F6"/>
</linearGradient>
<linearGradient id="paint36_linear_5016_567" x1="134.557" y1="58.0349" x2="134.557" y2="63.0905" gradientUnits="userSpaceOnUse">
<stop stop-color="#5442DD"/>
<stop offset="1" stop-color="#C892F6"/>
</linearGradient>
<linearGradient id="paint37_linear_5016_567" x1="80.3874" y1="117.305" x2="80.3874" y2="121.703" gradientUnits="userSpaceOnUse">
<stop stop-color="#5442DD"/>
<stop offset="1" stop-color="#C892F6"/>
</linearGradient>
<linearGradient id="paint38_linear_5016_567" x1="130.549" y1="129.788" x2="130.549" y2="135.925" gradientUnits="userSpaceOnUse">
<stop stop-color="#5442DD"/>
<stop offset="1" stop-color="#C892F6"/>
</linearGradient>
<linearGradient id="paint39_linear_5016_567" x1="22.747" y1="156.95" x2="22.747" y2="159.737" gradientUnits="userSpaceOnUse">
<stop stop-color="#5442DD"/>
<stop offset="1" stop-color="#C892F6"/>
</linearGradient>
<linearGradient id="paint40_linear_5016_567" x1="86.1351" y1="155.666" x2="86.1351" y2="158.889" gradientUnits="userSpaceOnUse">
<stop stop-color="#5442DD"/>
<stop offset="1" stop-color="#C892F6"/>
</linearGradient>
<linearGradient id="paint41_linear_5016_567" x1="60.5281" y1="66.7542" x2="60.5281" y2="72.2557" gradientUnits="userSpaceOnUse">
<stop stop-color="#5442DD"/>
<stop offset="1" stop-color="#C892F6"/>
</linearGradient>
<linearGradient id="paint42_linear_5016_567" x1="57.1704" y1="87.3276" x2="57.1704" y2="91.9785" gradientUnits="userSpaceOnUse">
<stop stop-color="#5442DD"/>
<stop offset="1" stop-color="#C892F6"/>
</linearGradient>
<linearGradient id="paint43_linear_5016_567" x1="74.3017" y1="122.917" x2="74.3017" y2="126.78" gradientUnits="userSpaceOnUse">
<stop stop-color="#5442DD"/>
<stop offset="1" stop-color="#C892F6"/>
</linearGradient>
<linearGradient id="paint44_linear_5016_567" x1="106.245" y1="47.3665" x2="106.245" y2="48.5654" gradientUnits="userSpaceOnUse">
<stop stop-color="#5442DD"/>
<stop offset="1" stop-color="#C892F6"/>
</linearGradient>
<linearGradient id="paint45_linear_5016_567" x1="130.616" y1="106.136" x2="130.616" y2="109.425" gradientUnits="userSpaceOnUse">
<stop stop-color="#5442DD"/>
<stop offset="1" stop-color="#C892F6"/>
</linearGradient>
<linearGradient id="paint46_linear_5016_567" x1="104.971" y1="68.0217" x2="104.971" y2="72.0458" gradientUnits="userSpaceOnUse">
<stop stop-color="#5442DD"/>
<stop offset="1" stop-color="#C892F6"/>
</linearGradient>
<linearGradient id="paint47_linear_5016_567" x1="172.599" y1="51.8364" x2="172.599" y2="55.5944" gradientUnits="userSpaceOnUse">
<stop stop-color="#5442DD"/>
<stop offset="1" stop-color="#C892F6"/>
</linearGradient>
<linearGradient id="paint48_linear_5016_567" x1="137.892" y1="93.7988" x2="137.892" y2="94.9697" gradientUnits="userSpaceOnUse">
<stop stop-color="#5442DD"/>
<stop offset="1" stop-color="#C892F6"/>
</linearGradient>
<linearGradient id="paint49_linear_5016_567" x1="64.3989" y1="47.4111" x2="64.3989" y2="50.6077" gradientUnits="userSpaceOnUse">
<stop stop-color="#5442DD"/>
<stop offset="1" stop-color="#C892F6"/>
</linearGradient>
<linearGradient id="paint50_linear_5016_567" x1="85.9186" y1="110.112" x2="85.9186" y2="111.997" gradientUnits="userSpaceOnUse">
<stop stop-color="#5442DD"/>
<stop offset="1" stop-color="#C892F6"/>
</linearGradient>
<linearGradient id="paint51_linear_5016_567" x1="170.698" y1="53.1323" x2="170.698" y2="55.7918" gradientUnits="userSpaceOnUse">
<stop stop-color="#5442DD"/>
<stop offset="1" stop-color="#C892F6"/>
</linearGradient>
<linearGradient id="paint52_linear_5016_567" x1="53.94" y1="88.5156" x2="53.94" y2="90.1904" gradientUnits="userSpaceOnUse">
<stop stop-color="#5442DD"/>
<stop offset="1" stop-color="#C892F6"/>
</linearGradient>
<linearGradient id="paint53_linear_5016_567" x1="89.0839" y1="152.067" x2="89.0839" y2="154.352" gradientUnits="userSpaceOnUse">
<stop stop-color="#5442DD"/>
<stop offset="1" stop-color="#C892F6"/>
</linearGradient>
<linearGradient id="paint54_linear_5016_567" x1="126.983" y1="146.323" x2="126.983" y2="148.307" gradientUnits="userSpaceOnUse">
<stop stop-color="#5442DD"/>
<stop offset="1" stop-color="#C892F6"/>
</linearGradient>
<linearGradient id="paint55_linear_5016_567" x1="103.288" y1="89.4307" x2="103.288" y2="92.1619" gradientUnits="userSpaceOnUse">
<stop stop-color="#5442DD"/>
<stop offset="1" stop-color="#C892F6"/>
</linearGradient>
<linearGradient id="paint56_linear_5016_567" x1="136.104" y1="70.4087" x2="136.104" y2="72.2117" gradientUnits="userSpaceOnUse">
<stop stop-color="#5442DD"/>
<stop offset="1" stop-color="#C892F6"/>
</linearGradient>
<linearGradient id="paint57_linear_5016_567" x1="55.7341" y1="110.122" x2="55.7341" y2="112.665" gradientUnits="userSpaceOnUse">
<stop stop-color="#5442DD"/>
<stop offset="1" stop-color="#C892F6"/>
</linearGradient>
<linearGradient id="paint58_linear_5016_567" x1="103.62" y1="69.3938" x2="103.62" y2="72.0054" gradientUnits="userSpaceOnUse">
<stop stop-color="#5442DD"/>
<stop offset="1" stop-color="#C892F6"/>
</linearGradient>
<linearGradient id="paint59_linear_5016_567" x1="132.034" y1="83.8403" x2="132.034" y2="85.6322" gradientUnits="userSpaceOnUse">
<stop stop-color="#5442DD"/>
<stop offset="1" stop-color="#C892F6"/>
</linearGradient>
<clipPath id="clip0_5016_567">
<rect width="190" height="144.885" fill="white" transform="translate(0.5 23.2222)"/>
</clipPath>
</defs>
</svg>
