<svg width="146" height="197" viewBox="0 0 146 197" fill="none" xmlns="http://www.w3.org/2000/svg">
<g clip-path="url(#clip0_5016_13)">
<path d="M112.859 119.879C114.826 114.871 114.928 109.96 111.982 105.268C111.26 104.116 110.385 103.042 109.472 102.028C107.654 100.011 106.682 97.6304 105.879 95.0663C104.897 91.9309 103.628 88.8765 102.324 85.8527C101.411 83.7332 99.8481 81.9902 97.8317 80.8779C94.5553 79.0766 93.1187 76.1556 92.1986 72.7703C91.883 71.6074 91.375 70.4538 90.7446 69.4245C89.9903 68.1882 88.8591 68.0982 87.7287 69.0258C86.0824 70.3766 85.4839 72.2976 85.6843 74.2374C86.0579 77.835 86.5137 81.4601 87.4195 84.9509C88.1614 87.8147 89.6004 90.4976 90.8891 93.6507C92.8478 92.6978 94.4792 91.9191 96.0914 91.1031C96.4657 90.9137 96.7427 90.5179 97.1209 90.3629C97.4692 90.2197 97.8983 90.2745 98.2918 90.2396C98.2039 90.6532 98.2615 91.2782 98.0101 91.4489C96.57 92.4181 95.0721 93.305 93.5585 94.1569C93.0398 94.4486 92.4135 94.5565 91.9996 94.6952C92.6242 97.8113 93.1011 100.837 93.852 103.79C95.0146 108.355 95.2996 113.009 95.4504 117.669C95.5721 121.391 94.0293 124.727 91.9856 127.694C89.8229 130.832 87.2804 133.721 84.79 136.62C84.4321 137.037 83.4209 137.032 82.7437 136.959C82.566 136.939 82.3438 135.904 82.4238 135.378C82.5078 134.813 82.8528 134.242 83.2079 133.766C83.8502 132.901 84.5831 132.106 85.4588 131.068C84.828 131.138 84.4339 131.156 84.0518 131.232C72.582 133.526 61.106 135.788 49.6515 138.157C47.3951 138.624 45.2269 139.443 42.8564 139.209C40.9038 139.016 39.2819 138.271 38.1971 136.62C37.7398 135.925 37.2802 135.704 36.458 135.892C35.5436 136.104 34.5884 136.143 33.5533 136.503C34.0232 136.688 34.4874 136.888 34.9658 137.056C38.8097 138.398 42.2752 140.378 45.2954 143.105C46.3454 144.053 46.4176 144.825 45.4453 145.38C45.0806 145.588 44.2834 145.593 44.0146 145.339C40.601 142.119 36.5093 140.144 32.1213 138.644C31.0089 138.266 29.9328 137.745 28.9054 137.174C26.8499 136.028 25.5891 134.234 25.1171 131.952C24.5834 129.364 24.1568 126.765 24.7119 124.099C24.8089 123.628 24.6228 122.994 24.3523 122.57C21.2207 117.657 21.6825 112.909 25.8458 108.88C26.6744 108.077 26.541 107.295 26.5288 106.338C26.5074 104.336 25.6296 103.438 23.6492 102.946C21.8116 102.49 19.9672 101.634 18.4174 100.543C14.6039 97.8546 14.2441 93.5033 17.2935 89.9852C19.1688 87.8229 21.4629 86.31 24.3751 85.3831C24.2637 84.8275 24.1557 84.2889 24.0478 83.7503C21.9246 73.1586 19.802 62.5696 17.6874 51.9762C17.3392 50.2391 17.5034 50.0595 19.5547 50.0384C19.6547 50.5376 19.7633 51.079 19.8712 51.6176C22 62.2082 24.1283 72.796 26.2571 83.3866C27.7975 91.0564 29.3384 98.7289 30.8873 106.397C31.019 107.054 30.9745 107.905 32.2859 107.689C32.1858 107.19 32.0897 106.71 31.9936 106.231C27.238 82.5066 22.4796 58.7828 17.7347 35.0535C17.5239 34.0016 17.4172 32.926 17.3088 31.8565C16.6773 25.5328 21.4528 22.7951 25.6402 21.1931C26.767 20.7619 27.8138 20.7691 28.8757 21.7618C30.3626 23.1562 32.1294 23.7143 34.3439 23.2147C40.3005 21.874 46.3052 20.729 52.307 19.5992C53.5385 19.3671 54.264 18.8139 54.655 17.6942C54.9684 16.8042 55.2422 15.8928 55.6501 15.0484C55.8127 14.7137 56.2945 14.532 56.6298 14.28C56.8296 14.6154 57.2778 15.0448 57.1906 15.2705C56.5094 17.0585 55.7791 18.8358 54.9298 20.5489C54.7638 20.8814 54.0266 20.994 53.5312 21.0933C47.219 22.3644 40.8526 23.4236 34.6038 24.9519C31.7036 25.6594 29.6453 24.7344 27.6206 23.0958C26.9742 22.5741 26.4794 22.3976 25.7387 22.8013C24.6611 23.3898 23.4986 23.834 22.4623 24.4817C19.7849 26.1536 18.4338 28.5364 18.8098 31.7492C18.9205 32.6833 18.9977 33.627 19.1826 34.5491C23.9947 58.5994 28.8238 82.6463 33.6161 106.701C33.8513 107.874 34.3318 108.508 35.4373 109.072C37.5635 110.16 39.7418 111.316 41.5151 112.876C44.7369 115.712 44.9102 119.162 42.4354 122.741C42.3306 122.894 42.2394 123.056 42.1499 123.197C45.3914 128.026 44.9303 130.398 39.9086 134.86C40.9696 136.642 42.6028 137.282 44.8835 136.819C58.7122 134.012 72.5408 131.205 86.37 128.401C88.897 127.888 90.1704 125.911 89.6645 123.373C82.8621 89.3785 76.0285 55.3907 69.3303 21.3729C68.6644 17.9923 67.3834 15.2748 64.6931 13.136C63.6108 12.2764 62.6196 11.9149 61.2035 12.2104C53.2782 13.8666 45.3308 15.4274 37.3931 17.0215C36.9741 17.1054 36.5568 17.1832 36.1383 17.27C35.3185 17.4403 34.7608 17.2294 34.559 16.3253C34.3334 15.3175 34.9569 15.1221 35.7212 14.9689C41.3862 13.8333 47.0495 12.6893 52.7127 11.5453C54.7568 11.1356 56.8115 10.7794 58.8392 10.3026C63.6594 9.16914 66.9092 11.2193 69.3171 14.6965C70.162 15.9146 70.5731 17.4953 70.9248 18.9706C71.6893 22.1819 72.2674 25.4334 72.973 28.6593C73.0453 28.9909 73.4195 29.3002 73.7263 29.5232C74.2946 29.9344 75.0152 30.18 75.4793 30.6736C75.7827 30.9971 75.7434 31.6386 75.8554 32.1382C75.3934 32.0812 74.919 32.0649 74.4689 31.9498C74.23 31.8891 74.033 31.6558 73.6 31.3466L77.6507 51.5544C77.7781 51.5582 77.9055 51.562 78.0329 51.5658C78.0416 50.9921 78.1516 50.3951 78.0442 49.8447C77.0901 44.9379 76.0957 40.0363 75.1133 35.1352C75.0392 34.7658 74.8661 34.3722 74.9353 34.0269C75.0141 33.6268 75.3138 33.2705 75.5154 32.8957C75.8573 33.1616 76.2904 33.3681 76.5122 33.7108C76.7295 34.0456 76.7446 34.5178 76.8277 34.9323C77.7763 39.6495 78.654 44.381 79.7039 49.0749C80.0838 50.7793 79.9084 52.1813 78.8402 53.5658C78.4386 54.0893 78.3393 54.8425 78.0758 55.57C80.0358 55.7989 81.2012 56.8383 81.572 58.6882C81.7111 59.3819 81.853 60.0751 81.9949 60.7682C82.4166 62.8279 82.1548 63.3585 80.178 64.3678L82.6154 76.5275C82.693 76.5324 82.7705 76.5374 82.8481 76.5424C82.8324 75.9941 82.8105 75.4441 82.8067 74.8963C82.7821 72.1293 83.3033 69.5287 85.2839 67.4362C87.9322 64.635 91.5664 65.0036 93.4405 68.359C94.235 69.7808 94.7446 71.3829 95.2236 72.95C95.908 75.1888 96.9469 77.0514 99.0832 78.2922C103.585 80.9038 105.62 85.3241 107.317 89.9412C108.08 92.0174 108.69 94.1626 109.61 96.1664C110.288 97.638 111.226 99.0426 112.276 100.284C114.823 103.296 117.051 106.505 117.238 110.539C117.367 113.373 116.869 116.236 116.696 119.086C116.635 120.09 116.443 121.205 116.772 122.098C119.474 129.435 119.502 137.065 119.383 144.715C119.374 145.201 119.295 145.804 119.001 146.144C118.209 147.069 117.158 146.898 116.729 145.752C116.443 144.988 116.324 144.117 116.343 143.298C116.483 137.491 116.38 131.701 115.394 125.959C115.307 125.454 115.192 124.952 115.091 124.447C112.6 125.038 111.84 124.245 112.466 121.87C112.64 121.213 112.728 120.533 112.856 119.865L112.85 119.866L112.859 119.879ZM25.5917 117.308C26.2208 120.447 27.5383 122.406 30.5202 122.636C32.5363 122.792 34.5661 122.825 36.5901 122.874C38.9483 122.929 39.7693 121.046 40.606 119.417C41.4303 117.815 40.6398 116.398 39.449 115.232C36.9042 112.732 33.6899 111.505 30.318 110.653C29.6851 110.492 28.7582 110.672 28.2287 111.057C25.9385 112.707 25.101 114.993 25.5894 117.312L25.5917 117.308ZM27.0256 125.123C26.87 128.152 27.0174 131.002 28.466 133.587C30.882 133.314 33.1394 133.072 35.3912 132.803C37.3582 132.567 39.0185 131.741 40.2113 130.126C41.0916 128.935 41.1385 127.362 40.3179 126.148C40.1459 125.892 39.7587 125.782 39.47 125.605C39.3198 125.943 39.0632 126.279 39.0439 126.624C39.0125 127.231 39.2224 127.852 39.1537 128.449C39.1043 128.879 38.7684 129.275 38.5622 129.686C38.264 129.314 37.8185 128.987 37.6986 128.565C37.4729 127.777 37.4375 126.94 37.3138 126.058C36.0642 126.156 34.9658 126.244 33.795 126.338C33.9846 128.019 35.0953 128.726 36.1724 129.502C36.5687 129.789 36.7938 130.31 37.0977 130.724C36.5084 130.722 35.8068 130.924 35.3483 130.679C33.5606 129.723 32.3613 128.265 32.2261 126.268C30.479 125.882 28.8672 125.525 27.0244 125.117L27.0256 125.123ZM85.5941 88.8749C85.1267 89.6872 90.5132 118.189 91.6594 120.969C93.8973 116.223 89.561 93.2687 85.5941 88.8749ZM24.3117 88.7397C22.2727 89.4388 20.811 90.6529 19.5496 92.1318C17.9235 94.0388 18.0164 95.8535 19.8576 97.5905C21.3388 98.9861 23.1917 99.6208 25.33 100.107C25.5317 96.2214 25.568 92.48 24.3111 88.7369L24.3117 88.7397ZM78.891 57.4188L79.9345 62.6244C80.7026 61.4467 79.9377 57.9393 78.891 57.4188Z" fill="url(#paint0_linear_5016_13)"/>
<path d="M115.935 153.074C116.026 155.631 116.593 158.076 118.068 160.264C118.537 160.96 121.81 162.127 119.798 156.832C119.182 155.803 119.212 154.383 118.972 153.137C118.772 152.112 117.977 151.832 117.175 151.978C116.693 152.066 115.92 152.708 115.935 153.074Z" fill="url(#paint1_linear_5016_13)"/>
<path d="M82.9905 179.472C85.6337 173.515 90.7714 170.925 96.3846 168.943C97.0527 168.707 97.7073 168.417 98.3947 168.247C99.2758 168.029 100.339 168.089 100.497 169.066C100.597 169.683 100.028 170.712 99.456 171.073C98.397 171.74 97.1258 172.097 95.918 172.507C91.5857 173.974 87.8126 176.129 85.5607 180.35C85.133 181.154 85.0807 181.716 85.5447 182.532C85.5607 188.372 82.039 182.525 82.039 182.525C82.039 182.525 81.7866 182.135 81.5697 182.05C71.2225 178.029 64.0509 170.341 57.6582 161.691C54.5506 157.485 51.1945 153.465 48.0173 149.309C47.7259 148.927 47.9226 148.175 47.8944 147.594C48.5756 147.598 49.5438 147.316 49.8862 147.658C51.7195 149.488 53.4769 151.409 55.1108 153.419C57.37 156.199 59.4119 159.157 61.7046 161.912C64.0861 164.773 66.4841 167.656 69.1907 170.2C71.5776 172.44 74.3308 174.32 77.0496 176.175C78.8677 177.415 80.9046 178.335 82.9956 179.482L82.9905 179.472Z" fill="url(#paint2_linear_5016_13)"/>
<path d="M54.1105 83.7756C53.3266 85.021 52.5845 86.2111 51.8294 87.3949C50.5775 89.3618 49.1043 89.358 47.9703 87.3442C46.7945 85.2539 45.7461 83.094 44.521 81.0369C44.1979 80.4974 43.4744 79.9883 42.8528 79.8695C41.1521 79.5387 39.4083 79.4189 37.681 79.2195C36.4179 79.0738 35.3553 78.5916 35.0172 77.272C34.6677 75.9106 35.5071 75.0589 36.5327 74.3576C43.8017 69.3835 51.0634 64.4021 58.3426 59.4494C60.8326 57.7535 62.4432 58.5746 62.6488 61.5987C63.1503 69.022 63.6088 76.451 64.1596 83.8703C64.3163 85.9889 62.2191 88.0285 59.926 86.6666C58.1474 85.6093 56.2113 84.8094 54.1088 83.7818L54.1105 83.7756ZM60.4636 60.8047C52.8678 66.1025 45.5019 71.2397 37.8364 76.5866C40.5115 76.9157 42.7427 77.234 44.9858 77.4355C45.3935 77.4712 45.9388 77.136 46.2633 76.8157C49.8319 73.3021 53.3671 69.754 56.921 66.2257C57.2178 65.9286 57.5848 65.7025 57.9212 65.4415C58.0174 65.5249 58.1142 65.6111 58.2132 65.6939C57.9249 66.2093 57.6637 66.7427 57.3453 67.2406C54.9464 70.9774 52.5304 74.703 50.1281 78.4375C49.9009 78.7881 49.5753 79.1907 49.5842 79.5585C49.6374 81.4545 49.784 83.3464 49.9084 85.451C51.1319 83.6951 52.2002 82.1639 53.3076 80.578C56.0882 81.9331 58.8428 83.2758 61.9042 84.7682C61.4097 76.5721 60.944 68.8277 60.4602 60.8025L60.4636 60.8047Z" fill="url(#paint3_linear_5016_13)"/>
<path d="M15.1791 38.1857C14.5788 35.1909 13.7526 32.215 13.4614 29.1905C13.2814 27.3376 13.7123 25.3446 14.2394 23.5229C15.0851 20.6167 17.2451 18.9048 20.1792 18.2345C23.1275 17.5614 26.0984 16.9717 29.0575 16.3375C29.8281 16.1713 30.6689 15.9881 30.9007 17.0123C31.1484 18.1154 30.3777 18.4576 29.4338 18.6409C26.2313 19.2653 23.0175 19.8479 19.8518 20.6262C18.9424 20.8496 17.9525 21.5085 17.3929 22.2572C15.6081 24.6507 15.191 27.4916 15.6731 30.337C16.5156 35.3042 17.583 40.2323 18.5705 45.1734C18.709 45.8643 18.8509 46.4695 17.8974 46.6929C17.0169 46.8987 16.589 46.6296 16.4217 45.7215C15.9588 43.2213 15.4365 40.733 14.9362 38.2373C15.0183 38.2209 15.1004 38.2044 15.1825 38.188L15.1791 38.1857Z" fill="url(#paint4_linear_5016_13)"/>
<path d="M85.3154 126.503C84.4637 126.838 83.6426 127.311 82.7593 127.488C70.6995 129.938 58.6335 132.356 46.5585 134.73C46.0545 134.831 45.4489 134.41 44.8918 134.231C45.3296 133.844 45.7137 133.204 46.2091 133.104C58.2202 130.647 70.2381 128.238 82.2656 125.862C83.214 125.672 84.224 125.789 85.2052 125.763L85.3154 126.503Z" fill="url(#paint5_linear_5016_13)"/>
<path d="M72.631 44.3623C73.8355 50.3716 75.0435 56.3832 76.2396 62.3943C76.3623 63.0062 76.7295 63.7656 75.6905 63.9592C74.6345 64.1562 74.7333 63.2682 74.6129 62.6822C72.193 50.7126 69.7894 38.7369 67.3865 26.7639C67.3215 26.4396 67.1732 26.0821 67.2543 25.796C67.3574 25.4439 67.6638 25.1507 67.8831 24.834C68.2017 25.0576 68.6195 25.2173 68.8097 25.5194C69.0224 25.861 69.0364 26.3275 69.1195 26.7421C70.2964 32.6132 71.4733 38.4844 72.6508 44.3583L72.6281 44.3629L72.631 44.3623Z" fill="url(#paint6_linear_5016_13)"/>
<path d="M87.9053 155.466C87.646 155.392 87.1234 155.371 86.7612 155.121C84.6719 153.674 82.4319 152.372 80.6037 150.641C77.8603 148.046 77.1689 144.803 78.632 141.186C79.0003 140.277 79.5054 139.99 80.3494 140.382C81.138 140.746 82.1451 141.025 81.5701 142.299C80.2868 145.137 81.3646 147.37 83.5268 149.181C84.8575 150.296 86.3882 151.174 87.8078 152.189C88.2992 152.539 88.8228 152.918 89.1499 153.404C89.7746 154.332 89.2194 155.338 87.9047 155.463L87.9053 155.466Z" fill="url(#paint7_linear_5016_13)"/>
<path d="M84.2487 105.213C83.1523 104.474 76.3082 73.2397 75.8761 68.3515C76.2759 68.2303 76.7011 68.104 77.3341 67.9125C79.7494 80.4022 82.27 92.7564 84.2487 105.213Z" fill="url(#paint8_linear_5016_13)"/>
<path d="M116.93 167.676C116.316 167.966 115.728 168.366 115.083 168.524C111.373 169.438 108.216 171.394 105.208 173.634C102.896 175.352 100.645 177.15 98.3086 178.836C95.5478 180.826 92.4589 182.106 89.0809 182.604C88.6263 182.671 88.11 182.314 87.622 182.157C88.0281 181.803 88.3957 181.213 88.8515 181.136C93.1445 180.413 96.6946 178.262 100.038 175.62C103.704 172.727 107.329 169.744 111.75 167.999C112.672 167.635 113.608 167.262 114.569 167.064C115.294 166.919 116.073 167.044 116.827 167.048C116.861 167.259 116.896 167.466 116.93 167.676Z" fill="url(#paint9_linear_5016_13)"/>
<path d="M82.1861 159.828C81.6641 159.677 81.0555 159.652 80.6321 159.362C74.7921 155.349 71.7146 149.516 74.4469 142.448C74.732 141.71 75.1472 140.99 75.6462 140.38C75.8994 140.071 76.4792 140.025 76.9118 139.862C76.8924 140.324 77.0411 140.889 76.8292 141.228C74.8976 144.299 74.4091 147.591 75.5652 150.979C76.5155 153.766 78.5276 155.856 80.8212 157.675C81.4478 158.172 81.9662 158.804 82.531 159.374C82.4172 159.526 82.3033 159.678 82.1861 159.828Z" fill="url(#paint10_linear_5016_13)"/>
<path d="M106.836 166.476C106.441 166.282 105.777 166.172 105.63 165.835C105.42 165.363 105.368 164.532 105.653 164.187C106.452 163.223 107.38 162.313 108.406 161.6C109.518 160.831 110.863 160.403 111.998 159.657C113.309 158.795 113.976 159.624 114.403 160.535C114.896 161.586 114.042 162.042 113.19 162.521C111.399 163.531 109.685 164.678 107.94 165.77C107.626 165.968 107.313 166.169 106.838 166.472L106.836 166.476Z" fill="url(#paint11_linear_5016_13)"/>
<path d="M85.2677 115.865C84.8053 113.558 84.2999 111.257 83.9174 108.937C83.8382 108.455 84.2155 107.898 84.3844 107.374C84.7551 107.769 85.3631 108.114 85.4631 108.569C86.4621 113.214 87.405 117.874 88.2771 122.548C88.3811 123.111 87.9624 123.77 87.785 124.383C87.4076 123.852 86.8398 123.37 86.686 122.779C86.2393 121.05 85.9579 119.279 85.6092 117.524C85.4984 116.972 85.387 116.416 85.2762 115.863L85.2706 115.864L85.2677 115.865Z" fill="url(#paint12_linear_5016_13)"/>
<path d="M51.2793 48.1438C51.5632 47.3712 51.7616 46.5541 52.144 45.8321C55.0423 40.3702 57.9797 34.9268 60.9041 29.4773C61.0157 29.2701 61.0882 29.0004 61.2638 28.8772C61.5656 28.6642 61.9325 28.5407 62.2712 28.379C62.2779 28.7208 62.4153 29.1274 62.2737 29.3905C59.0938 35.343 55.8885 41.2859 52.6628 47.2153C52.426 47.65 52.0046 47.9867 51.6721 48.3701L51.2793 48.1438Z" fill="url(#paint13_linear_5016_13)"/>
<path d="M63.4789 158.336C63.6971 155.928 63.8671 153.603 64.1549 151.292C64.2031 150.901 64.7558 150.573 65.073 150.217C65.1737 150.66 65.4441 151.142 65.35 151.54C64.3244 155.825 65.216 159.759 67.4184 163.474C67.6589 163.881 68.0132 164.238 68.1671 164.667C68.4227 165.385 68.5595 166.141 68.7467 166.883C68.1467 166.432 67.3151 166.102 66.9914 165.502C65.7522 163.198 64.6778 160.806 63.4845 158.335L63.4789 158.336Z" fill="url(#paint14_linear_5016_13)"/>
<path d="M71.8922 106.021C71.5546 106.496 71.2707 107.02 70.8743 107.437C66.601 111.916 62.3102 116.381 58.0229 120.848C57.828 121.051 57.6275 121.285 57.3818 121.396C57.1632 121.496 56.8767 121.447 56.6208 121.464C56.6248 121.205 56.5264 120.875 56.6499 120.698C56.9422 120.276 57.3324 119.916 57.6977 119.549C61.8911 115.318 66.0821 111.09 70.2868 106.871C70.6934 106.461 71.1804 106.129 71.6278 105.76C71.7161 105.848 71.8044 105.936 71.8927 106.024L71.8922 106.021Z" fill="url(#paint15_linear_5016_13)"/>
<path d="M62.1658 161.171C61.8545 160.706 61.4532 160.276 61.2507 159.765C59.8398 156.238 59.8042 152.519 59.8484 148.803C59.8676 147.209 60.0306 145.613 60.1953 144.026C60.23 143.684 60.559 143.372 60.7505 143.049C60.9468 143.382 61.2695 143.699 61.3101 144.048C61.3835 144.694 61.261 145.361 61.2744 146.015C61.3396 149.293 61.3385 152.579 61.5379 155.85C61.6122 157.088 62.1718 158.293 62.4822 159.518C62.5987 159.982 62.637 160.467 62.7088 160.942C62.5293 161.016 62.3475 161.094 62.168 161.168L62.1658 161.171Z" fill="url(#paint16_linear_5016_13)"/>
<path d="M92.4409 152.31C89.7301 152.156 87.4543 151.482 85.5445 149.903C85.2445 149.655 85.1627 148.836 85.3355 148.434C85.4613 148.151 86.2449 147.918 86.6339 148.021C88.5774 148.55 90.5124 149.139 92.3998 149.843C92.864 150.014 93.4113 150.687 93.4162 151.138C93.4223 151.55 92.7439 151.971 92.4381 152.311L92.4409 152.31Z" fill="url(#paint17_linear_5016_13)"/>
<path d="M58.9406 14.0694C61.3893 14.0772 63.4137 14.7303 64.8433 16.4413C65.819 17.6068 66.5229 19.0174 67.2047 20.3913C67.3784 20.7437 67.0108 21.363 66.8923 21.859C66.4898 21.5554 65.9764 21.3298 65.7059 20.9353C64.8938 19.7487 64.3037 18.3916 63.3874 17.3022C62.3443 16.0652 60.7948 15.6806 59.1903 15.5359C58.8756 15.508 58.4273 15.108 58.3623 14.8131C58.3148 14.5909 58.7837 14.2563 58.9428 14.066L58.9406 14.0694Z" fill="url(#paint18_linear_5016_13)"/>
<path d="M97.6476 85.1889C97.4024 85.0826 97.1086 85.0271 96.9213 84.8564C95.2232 83.2901 93.3774 81.8386 91.9189 80.0718C90.9851 78.939 90.5695 77.3503 90.0502 75.9203C89.9065 75.5267 90.2266 74.9639 90.3326 74.4792C90.4736 74.4774 90.6151 74.4783 90.7533 74.477C90.8811 74.7917 91.09 75.0989 91.1193 75.4215C91.3315 77.6552 92.5782 79.2327 94.2452 80.5998C95.264 81.4369 96.2466 82.3282 97.1511 83.285C97.562 83.7189 97.7429 84.3719 98.0276 84.925C97.8979 85.0126 97.771 85.0996 97.6413 85.1872L97.6476 85.1889Z" fill="url(#paint19_linear_5016_13)"/>
<path d="M98.6984 120.151C98.6739 120.543 98.7383 120.967 98.6119 121.321C97.397 124.691 95.6255 127.725 93.0288 130.24C92.8929 130.37 92.7558 130.553 92.5928 130.591C92.2326 130.675 91.8544 130.683 91.4824 130.723C91.6031 130.399 91.6553 130.028 91.8547 129.759C93.2589 127.876 94.7519 126.055 96.0853 124.127C96.6925 123.249 97.0258 122.179 97.4405 121.177C97.6304 120.714 97.7177 120.21 97.8532 119.725C98.1351 119.868 98.4165 120.008 98.6984 120.151Z" fill="url(#paint20_linear_5016_13)"/>
<path d="M112.864 119.875C111.811 119.312 110.811 118.597 109.698 118.216C107.944 117.617 106.11 117.252 104.316 116.764C103.945 116.662 103.599 116.464 103.244 116.31C103.59 116.082 103.928 115.683 104.288 115.657C107.355 115.442 110.005 116.573 112.386 118.372C112.729 118.632 112.711 119.363 112.861 119.876L112.867 119.875L112.864 119.875Z" fill="url(#paint21_linear_5016_13)"/>
<path d="M88.8335 135.284C89.6325 138.521 91.9797 140.681 94.0908 143.074C92.6486 143.504 91.3173 142.489 89.5517 139.675C88.7261 138.362 87.7419 136.993 88.8363 135.284L88.8335 135.284Z" fill="url(#paint22_linear_5016_13)"/>
<path d="M28.1287 45.2722C28.2562 44.7627 28.2858 44.2053 28.5255 43.7554C29.5152 41.8909 30.5349 40.0439 31.6242 38.2357C31.8208 37.9088 32.3955 37.8083 32.7959 37.6019C32.8031 38.0199 32.9632 38.5246 32.7892 38.8469C31.7468 40.7865 30.6428 42.6974 29.5143 44.5897C29.2962 44.9561 28.884 45.2059 28.5589 45.5086C28.4162 45.4287 28.2708 45.3493 28.1281 45.2694L28.1287 45.2722Z" fill="url(#paint23_linear_5016_13)"/>
<path d="M41.3045 17.7307C42.7693 17.3989 43.8137 17.9669 44.0438 18.9093C44.2632 19.7981 43.5773 20.7833 42.5609 20.943C41.45 21.1158 40.559 20.7107 40.2565 19.5981C39.9426 18.4437 40.6216 17.85 41.3045 17.7307Z" fill="url(#paint24_linear_5016_13)"/>
<path d="M52.3861 103.305C52.1754 103.576 52.0038 103.895 51.7467 104.111C49.4683 106.025 47.186 107.935 44.8686 109.801C44.5645 110.047 44.0685 110.056 43.6626 110.175C43.8297 109.79 43.8887 109.276 44.177 109.039C46.5142 107.125 48.8933 105.258 51.273 103.393C51.5097 103.208 51.837 103.136 52.1213 103.012C52.2084 103.109 52.2984 103.205 52.3856 103.302L52.3861 103.305Z" fill="url(#paint25_linear_5016_13)"/>
<path d="M33.8405 28.7834C34.0371 30.1901 30.5836 36.5259 29.3429 37.197C29.212 35.8387 32.5698 29.4517 33.8405 28.7834Z" fill="url(#paint26_linear_5016_13)"/>
<path d="M111.896 116.238C109.566 115.28 107.503 114.432 105.34 113.543C107.256 112.408 111.205 113.86 111.896 116.238Z" fill="url(#paint27_linear_5016_13)"/>
<path d="M97.8386 140.513C97.4026 140.6 97.0775 140.771 96.8188 140.7C95.0446 140.222 93.7161 139.134 92.8379 137.544C92.6993 137.293 92.8823 136.869 92.9164 136.525C93.1689 136.58 93.4831 136.561 93.6654 136.706C94.9055 137.693 96.1253 138.709 97.3293 139.735C97.5206 139.896 97.6162 140.167 97.8386 140.513Z" fill="url(#paint28_linear_5016_13)"/>
<path d="M58.875 27.8893C59.2148 29.1734 57.407 32.6714 56.0044 33.4454C55.5677 32.2218 57.5454 28.3963 58.875 27.8893Z" fill="url(#paint29_linear_5016_13)"/>
<path d="M55.5231 47.0437C55.4182 45.7858 57.0662 42.8419 57.9149 42.6249C58.1165 42.5727 58.6831 43.1367 58.6661 43.1695C57.8356 44.5503 57.2016 46.103 55.5231 47.0437Z" fill="url(#paint30_linear_5016_13)"/>
<path d="M102.413 119.439C103.576 119.185 106.37 121.048 106.42 121.959C106.43 122.139 105.719 122.589 105.594 122.512C104.488 121.824 103.42 121.067 102.397 120.266C102.253 120.154 102.402 119.675 102.413 119.439Z" fill="url(#paint31_linear_5016_13)"/>
<path d="M71.3481 109.858C70.9196 111.261 68.4107 113.451 67.2478 113.526C67.3597 112.321 69.9502 109.936 71.3481 109.858Z" fill="url(#paint32_linear_5016_13)"/>
<path d="M44.0065 107.293C43.577 108.397 42.4706 108.71 41.5045 109.165C41.4694 109.18 41.2046 108.711 41.0467 108.467C41.9392 107.925 42.8288 107.383 43.7213 106.84L44.0065 107.293Z" fill="url(#paint33_linear_5016_13)"/>
<path d="M95.607 85.0141C94.0521 85.5429 93.5977 84.6865 93.0799 84.013C92.9803 83.8833 93.0331 83.4562 93.1492 83.389C93.3604 83.2674 93.7743 83.1874 93.9158 83.3057C94.466 83.7733 94.9453 84.3284 95.607 85.0141Z" fill="url(#paint34_linear_5016_13)"/>
<path d="M35.4325 32.832C34.757 31.3423 35.5159 30.6916 36.1298 30.0229C36.2341 29.9111 36.6196 29.9101 36.7526 30.0154C36.8891 30.123 36.9858 30.4879 36.9042 30.6245C36.4991 31.307 36.0301 31.9495 35.4331 32.8348L35.4325 32.832Z" fill="url(#paint35_linear_5016_13)"/>
<path d="M75.7152 105.613C75.1702 105.053 74.7224 104.788 74.641 104.441C74.5822 104.191 75.0126 103.826 75.2267 103.514C75.5358 103.748 75.9898 103.927 76.1075 104.235C76.2087 104.505 75.9323 104.918 75.7152 105.613Z" fill="url(#paint36_linear_5016_13)"/>
<path d="M36.6438 114.548C37.0231 114.501 37.403 114.457 37.7824 114.41C37.8236 114.763 37.9814 115.154 37.8811 115.461C37.2855 117.279 37.3783 119.079 37.8754 120.883C38.1435 121.853 37.7906 122.267 36.7879 122.348C34.0515 122.565 31.0739 120.932 29.8891 118.503C29.0693 116.823 29.2996 115.548 30.9706 114.658C32.2634 113.968 33.7571 113.619 35.1987 113.259C36.1579 113.02 36.7115 113.548 36.6845 114.575C35.0668 114.981 33.4174 115.303 31.8524 115.854C31.4565 115.995 31.0293 116.934 31.1237 117.405C31.5087 119.326 34.0883 120.912 35.8067 120.67C36.0927 118.571 36.3668 116.56 36.6409 114.548L36.6438 114.548Z" fill="url(#paint37_linear_5016_13)"/>
<path d="M28.4674 117.345C27.4872 115.966 27.6323 113.737 28.6602 112.813C28.842 112.647 29.1506 112.556 29.3997 112.565C29.5033 112.567 29.7201 112.943 29.6798 113.095C29.3204 114.461 28.9146 115.815 28.4708 117.347L28.4674 117.345Z" fill="url(#paint38_linear_5016_13)"/>
<path d="M29.8338 127.379C30.2824 128.295 30.7606 129.196 31.1628 130.131C31.2884 130.419 31.2136 130.795 31.231 131.132C30.914 131.019 30.4418 131 30.3031 130.778C29.6592 129.725 29.0084 128.653 28.5779 127.504C28.445 127.15 28.9972 126.54 29.234 126.047C29.551 126.409 29.8685 126.773 30.1854 127.135C30.0693 127.217 29.9504 127.3 29.8343 127.382L29.8338 127.379Z" fill="url(#paint39_linear_5016_13)"/>
<path d="M21.5615 94.97C20.5806 94.0285 20.5463 93.2698 21.743 92.144C21.8513 93.2282 21.9371 94.0675 22.0201 94.9074C21.8683 94.929 21.7132 94.9483 21.5615 94.97Z" fill="url(#paint40_linear_5016_13)"/>
</g>
<defs>
<linearGradient id="paint0_linear_5016_13" x1="48.1486" y1="12.4382" x2="76.7282" y2="155.013" gradientUnits="userSpaceOnUse">
<stop stop-color="#5442DD"/>
<stop offset="1" stop-color="#C892F6"/>
</linearGradient>
<linearGradient id="paint1_linear_5016_13" x1="122.892" y1="150.832" x2="133.133" y2="201.918" gradientUnits="userSpaceOnUse">
<stop stop-color="#5442DD"/>
<stop offset="1" stop-color="#C892F6"/>
</linearGradient>
<linearGradient id="paint2_linear_5016_13" x1="70.9717" y1="142.968" x2="86.1829" y2="218.852" gradientUnits="userSpaceOnUse">
<stop stop-color="#5442DD"/>
<stop offset="1" stop-color="#C892F6"/>
</linearGradient>
<linearGradient id="paint3_linear_5016_13" x1="47.2158" y1="61.2136" x2="52.7639" y2="88.8913" gradientUnits="userSpaceOnUse">
<stop stop-color="#5442DD"/>
<stop offset="1" stop-color="#C892F6"/>
</linearGradient>
<linearGradient id="paint4_linear_5016_13" x1="20.973" y1="17.9555" x2="26.3924" y2="44.9917" gradientUnits="userSpaceOnUse">
<stop stop-color="#5442DD"/>
<stop offset="1" stop-color="#C892F6"/>
</linearGradient>
<linearGradient id="paint5_linear_5016_13" x1="64.912" y1="129.316" x2="65.2535" y2="131.02" gradientUnits="userSpaceOnUse">
<stop stop-color="#5442DD"/>
<stop offset="1" stop-color="#C892F6"/>
</linearGradient>
<linearGradient id="paint6_linear_5016_13" x1="67.8693" y1="24.8367" x2="75.7107" y2="63.9554" gradientUnits="userSpaceOnUse">
<stop stop-color="#5442DD"/>
<stop offset="1" stop-color="#C892F6"/>
</linearGradient>
<linearGradient id="paint7_linear_5016_13" x1="81.643" y1="139.801" x2="84.9059" y2="156.079" gradientUnits="userSpaceOnUse">
<stop stop-color="#5442DD"/>
<stop offset="1" stop-color="#C892F6"/>
</linearGradient>
<linearGradient id="paint8_linear_5016_13" x1="76.4893" y1="68.0819" x2="83.9447" y2="105.274" gradientUnits="userSpaceOnUse">
<stop stop-color="#5442DD"/>
<stop offset="1" stop-color="#C892F6"/>
</linearGradient>
<linearGradient id="paint9_linear_5016_13" x1="101.249" y1="169.734" x2="103.264" y2="179.789" gradientUnits="userSpaceOnUse">
<stop stop-color="#5442DD"/>
<stop offset="1" stop-color="#C892F6"/>
</linearGradient>
<linearGradient id="paint10_linear_5016_13" x1="75.2091" y1="140.203" x2="79.2604" y2="160.414" gradientUnits="userSpaceOnUse">
<stop stop-color="#5442DD"/>
<stop offset="1" stop-color="#C892F6"/>
</linearGradient>
<linearGradient id="paint11_linear_5016_13" x1="109.381" y1="159.996" x2="110.531" y2="165.735" gradientUnits="userSpaceOnUse">
<stop stop-color="#5442DD"/>
<stop offset="1" stop-color="#C892F6"/>
</linearGradient>
<linearGradient id="paint12_linear_5016_13" x1="84.4115" y1="107.369" x2="87.8207" y2="124.376" gradientUnits="userSpaceOnUse">
<stop stop-color="#5442DD"/>
<stop offset="1" stop-color="#C892F6"/>
</linearGradient>
<linearGradient id="paint13_linear_5016_13" x1="55.0831" y1="29.8199" x2="58.5262" y2="46.9962" gradientUnits="userSpaceOnUse">
<stop stop-color="#5442DD"/>
<stop offset="1" stop-color="#C892F6"/>
</linearGradient>
<linearGradient id="paint14_linear_5016_13" x1="63.6844" y1="150.495" x2="67.0381" y2="167.226" gradientUnits="userSpaceOnUse">
<stop stop-color="#5442DD"/>
<stop offset="1" stop-color="#C892F6"/>
</linearGradient>
<linearGradient id="paint15_linear_5016_13" x1="63.003" y1="107.489" x2="65.4689" y2="119.791" gradientUnits="userSpaceOnUse">
<stop stop-color="#5442DD"/>
<stop offset="1" stop-color="#C892F6"/>
</linearGradient>
<linearGradient id="paint16_linear_5016_13" x1="59.4155" y1="143.317" x2="62.9626" y2="161.012" gradientUnits="userSpaceOnUse">
<stop stop-color="#5442DD"/>
<stop offset="1" stop-color="#C892F6"/>
</linearGradient>
<linearGradient id="paint17_linear_5016_13" x1="88.8023" y1="147.487" x2="89.8724" y2="152.825" gradientUnits="userSpaceOnUse">
<stop stop-color="#5442DD"/>
<stop offset="1" stop-color="#C892F6"/>
</linearGradient>
<linearGradient id="paint18_linear_5016_13" x1="61.9604" y1="13.4612" x2="63.7693" y2="22.485" gradientUnits="userSpaceOnUse">
<stop stop-color="#5442DD"/>
<stop offset="1" stop-color="#C892F6"/>
</linearGradient>
<linearGradient id="paint19_linear_5016_13" x1="92.7472" y1="73.9952" x2="95.0936" y2="85.7008" gradientUnits="userSpaceOnUse">
<stop stop-color="#5442DD"/>
<stop offset="1" stop-color="#C892F6"/>
</linearGradient>
<linearGradient id="paint20_linear_5016_13" x1="94.0964" y1="120.478" x2="95.9875" y2="129.912" gradientUnits="userSpaceOnUse">
<stop stop-color="#5442DD"/>
<stop offset="1" stop-color="#C892F6"/>
</linearGradient>
<linearGradient id="paint21_linear_5016_13" x1="107.44" y1="115.021" x2="108.585" y2="120.733" gradientUnits="userSpaceOnUse">
<stop stop-color="#5442DD"/>
<stop offset="1" stop-color="#C892F6"/>
</linearGradient>
<linearGradient id="paint22_linear_5016_13" x1="90.205" y1="135.009" x2="91.9112" y2="143.521" gradientUnits="userSpaceOnUse">
<stop stop-color="#5442DD"/>
<stop offset="1" stop-color="#C892F6"/>
</linearGradient>
<linearGradient id="paint23_linear_5016_13" x1="29.8133" y1="38.1997" x2="31.1734" y2="44.9846" gradientUnits="userSpaceOnUse">
<stop stop-color="#5442DD"/>
<stop offset="1" stop-color="#C892F6"/>
</linearGradient>
<linearGradient id="paint24_linear_5016_13" x1="41.8216" y1="17.6257" x2="42.4897" y2="20.9589" gradientUnits="userSpaceOnUse">
<stop stop-color="#5442DD"/>
<stop offset="1" stop-color="#C892F6"/>
</linearGradient>
<linearGradient id="paint25_linear_5016_13" x1="47.4642" y1="103.945" x2="48.5178" y2="109.202" gradientUnits="userSpaceOnUse">
<stop stop-color="#5442DD"/>
<stop offset="1" stop-color="#C892F6"/>
</linearGradient>
<linearGradient id="paint26_linear_5016_13" x1="30.8679" y1="29.3792" x2="32.3155" y2="36.6011" gradientUnits="userSpaceOnUse">
<stop stop-color="#5442DD"/>
<stop offset="1" stop-color="#C892F6"/>
</linearGradient>
<linearGradient id="paint27_linear_5016_13" x1="108.203" y1="112.822" x2="109.004" y2="116.818" gradientUnits="userSpaceOnUse">
<stop stop-color="#5442DD"/>
<stop offset="1" stop-color="#C892F6"/>
</linearGradient>
<linearGradient id="paint28_linear_5016_13" x1="94.7538" y1="136.157" x2="95.7206" y2="140.98" gradientUnits="userSpaceOnUse">
<stop stop-color="#5442DD"/>
<stop offset="1" stop-color="#C892F6"/>
</linearGradient>
<linearGradient id="paint29_linear_5016_13" x1="56.9561" y1="28.2739" x2="57.916" y2="33.0622" gradientUnits="userSpaceOnUse">
<stop stop-color="#5442DD"/>
<stop offset="1" stop-color="#C892F6"/>
</linearGradient>
<linearGradient id="paint30_linear_5016_13" x1="56.6484" y1="42.8786" x2="57.4076" y2="46.6659" gradientUnits="userSpaceOnUse">
<stop stop-color="#5442DD"/>
<stop offset="1" stop-color="#C892F6"/>
</linearGradient>
<linearGradient id="paint31_linear_5016_13" x1="103.995" y1="119.121" x2="104.714" y2="122.708" gradientUnits="userSpaceOnUse">
<stop stop-color="#5442DD"/>
<stop offset="1" stop-color="#C892F6"/>
</linearGradient>
<linearGradient id="paint32_linear_5016_13" x1="69.0208" y1="110.31" x2="69.5741" y2="113.07" gradientUnits="userSpaceOnUse">
<stop stop-color="#5442DD"/>
<stop offset="1" stop-color="#C892F6"/>
</linearGradient>
<linearGradient id="paint33_linear_5016_13" x1="42.3723" y1="107.11" x2="42.7346" y2="108.918" gradientUnits="userSpaceOnUse">
<stop stop-color="#5442DD"/>
<stop offset="1" stop-color="#C892F6"/>
</linearGradient>
<linearGradient id="paint34_linear_5016_13" x1="94.0608" y1="83.1545" x2="94.4849" y2="85.2706" gradientUnits="userSpaceOnUse">
<stop stop-color="#5442DD"/>
<stop offset="1" stop-color="#C892F6"/>
</linearGradient>
<linearGradient id="paint35_linear_5016_13" x1="35.8214" y1="30.045" x2="36.344" y2="32.6522" gradientUnits="userSpaceOnUse">
<stop stop-color="#5442DD"/>
<stop offset="1" stop-color="#C892F6"/>
</linearGradient>
<linearGradient id="paint36_linear_5016_13" x1="75.2117" y1="103.517" x2="75.6351" y2="105.629" gradientUnits="userSpaceOnUse">
<stop stop-color="#5442DD"/>
<stop offset="1" stop-color="#C892F6"/>
</linearGradient>
<linearGradient id="paint37_linear_5016_13" x1="33.1877" y1="113.66" x2="35.0054" y2="122.728" gradientUnits="userSpaceOnUse">
<stop stop-color="#5442DD"/>
<stop offset="1" stop-color="#C892F6"/>
</linearGradient>
<linearGradient id="paint38_linear_5016_13" x1="28.4329" y1="112.73" x2="29.3243" y2="117.176" gradientUnits="userSpaceOnUse">
<stop stop-color="#5442DD"/>
<stop offset="1" stop-color="#C892F6"/>
</linearGradient>
<linearGradient id="paint39_linear_5016_13" x1="29.3183" y1="126.03" x2="30.3753" y2="131.303" gradientUnits="userSpaceOnUse">
<stop stop-color="#5442DD"/>
<stop offset="1" stop-color="#C892F6"/>
</linearGradient>
<linearGradient id="paint40_linear_5016_13" x1="21.1486" y1="92.2632" x2="21.6918" y2="94.9732" gradientUnits="userSpaceOnUse">
<stop stop-color="#5442DD"/>
<stop offset="1" stop-color="#C892F6"/>
</linearGradient>
<clipPath id="clip0_5016_13">
<rect width="111.979" height="178.447" fill="white" transform="translate(0.5 22) rotate(-11.3349)"/>
</clipPath>
</defs>
</svg>
