<svg width="191" height="190" viewBox="0 0 191 190" fill="none" xmlns="http://www.w3.org/2000/svg">
<g clip-path="url(#clip0_5016_490)">
<path d="M100.091 145.865C100.176 147.207 100.16 148.372 100.331 149.508C101.434 156.79 101.171 164.101 100.888 171.419C100.764 174.654 100.728 177.895 100.735 181.134C100.741 183.941 102.14 185.761 104.854 186.436C106.159 186.761 107.536 186.937 108.881 186.944C111.795 186.957 114.711 186.843 117.623 186.719C118.242 186.692 118.877 186.454 119.456 186.202C121.423 185.351 122.002 183.636 120.915 181.789C120.227 180.619 119.456 179.494 118.665 178.389C118.057 177.541 117.852 176.683 118.266 175.725C119.34 175.159 120.055 175.703 120.614 176.5C121.552 177.844 122.508 179.185 123.321 180.604C125.072 183.667 123.987 187.084 120.77 188.534C119.659 189.035 118.409 189.439 117.208 189.485C113.657 189.621 110.098 189.628 106.544 189.528C105.379 189.494 104.179 189.1 103.078 188.659C99.1575 187.088 97.7162 184.522 97.8677 180.325C98.1283 173.054 98.3266 165.776 98.3622 158.501C98.3823 154.068 98.0526 149.63 97.8521 145.197C97.8387 144.881 97.6716 144.507 97.4511 144.279C96.6202 143.417 95.7714 142.566 94.8714 141.778C90.7814 138.205 88.0013 133.716 85.7514 128.848C85.4506 128.198 85.1855 127.501 85.9741 127.057C86.8518 126.567 87.2461 127.264 87.656 127.895C89.4827 130.713 91.2225 133.595 93.2074 136.3C94.2054 137.659 95.6021 138.748 96.9142 139.849C98.0436 140.798 99.3 141.595 100.51 142.45C102.844 144.101 105.428 144.063 107.554 142.172C110.104 139.902 112 137.146 113.029 133.863C116.021 124.313 118.004 114.522 119.953 104.723C120.115 103.903 120.423 103.112 120.559 102.288C120.621 101.905 120.503 101.448 120.345 101.078C119.75 99.6837 118.993 98.3493 118.496 96.9214C116.273 90.5324 120.196 84.2838 126.921 83.4819C127.868 83.3682 128.411 83.0452 128.752 82.1252C129.616 79.804 130.646 77.5451 131.49 75.2172C137.567 58.4629 144.805 42.241 153.542 26.6964C155.148 23.8405 156.818 21.0069 158.195 18.0397C159.264 15.7385 160.029 13.2769 160.721 10.8265C161.142 9.33839 160.503 8.81266 159.066 9.43418C157.772 9.99332 156.368 10.6728 155.468 11.6997C152.183 15.4533 148.939 19.2626 145.959 23.2613C141.898 28.708 138.095 34.3462 134.181 39.902C134.09 40.0334 134.029 40.2295 133.905 40.2874C133.374 40.5302 132.671 41.0559 132.316 40.8844C131.537 40.5079 131.849 39.7149 132.234 39.1245C133.876 36.614 135.466 34.0677 137.215 31.6329C141.338 25.8877 145.397 20.0847 149.775 14.5378C151.806 11.9626 154.475 9.87303 156.957 7.67655C158.155 6.61618 159.619 5.66719 161.316 6.55826C162.953 7.41814 162.947 9.09558 162.904 10.6705C162.884 11.3767 162.757 12.1163 162.508 12.7757C161.381 15.763 160.425 18.8438 158.984 21.6774C154.58 30.3319 149.783 38.7926 145.522 47.5139C142.247 54.2192 139.55 61.2074 136.6 68.0709C136.556 68.1756 136.562 68.3003 136.527 68.5543C136.896 68.5543 137.228 68.5543 137.56 68.5543C139.632 68.5453 140.931 69.6057 141.053 71.6841C141.118 72.8091 140.984 74.0299 140.601 75.0858C139.358 78.5208 137.763 81.7977 135.328 84.569C134.557 85.4467 134.335 86.3533 134.31 87.4894C134.141 94.8853 130.775 100.521 124.459 104.239C123.049 105.07 122.564 105.99 122.091 107.378C121.229 109.915 121.641 112.435 121.748 114.972C121.851 117.405 122.085 119.84 122.011 122.268C121.675 133.417 121.196 144.562 120.884 155.712C120.759 160.185 120.928 164.669 120.964 169.147C120.971 170.027 121.004 170.909 120.966 171.787C120.926 172.687 120.679 173.497 119.556 173.5C118.817 173.5 117.863 172.393 117.89 171.597C118.22 162.052 118.589 152.506 118.881 142.961C119.108 135.534 119.238 128.104 119.126 120.628C118.774 122.263 118.44 123.903 118.07 125.536C117.462 128.225 116.994 130.958 116.175 133.58C114.889 137.69 112.541 141.259 109.507 144.268C107.415 146.344 104.626 146.67 101.768 146.222C101.263 146.142 100.764 146.008 100.091 145.863V145.865ZM123.343 102.205C128.476 100.238 132.985 91.8623 132.06 86.1528C131.2 85.9902 130.311 85.7964 129.411 85.6538C124.254 84.8407 119.79 88.0129 120.051 94.4152C120.169 97.3224 121.906 99.7015 123.341 102.205H123.343ZM129.855 83.3393C130.663 83.5019 131.303 83.5041 131.82 83.7581C132.751 84.217 133.214 83.8049 133.622 83.0541C135.297 79.9711 136.983 76.8946 138.65 73.8071C138.799 73.5331 138.879 73.2101 138.932 72.9004C139.193 71.4168 138.36 70.5057 136.892 70.8354C135.502 71.1473 134.27 71.6351 133.751 73.317C132.956 75.9033 131.877 78.4028 130.9 80.9334C130.601 81.7042 130.24 82.4527 129.853 83.3393H129.855Z" fill="url(#paint0_linear_5016_490)"/>
<path d="M63.4099 101.426C63.5034 101.553 63.5836 101.693 63.695 101.802C70.2533 108.249 76.8138 114.692 83.3676 121.141C83.6505 121.419 84.027 121.718 84.1049 122.063C84.2208 122.575 84.3232 123.391 84.047 123.627C83.4968 124.097 82.795 124.257 82.0777 123.482C79.0659 120.223 75.9762 117.04 72.9109 113.832C72.755 113.669 72.5678 113.535 72.2671 113.279C72.2337 113.613 72.198 113.794 72.2025 113.972C72.4609 124.324 70.6008 134.424 68.5892 144.507C68.5112 144.897 68.4422 145.335 68.215 145.634C67.9588 145.97 67.5288 146.175 67.1746 146.436C66.9162 146.059 66.5888 145.707 66.4284 145.293C66.3259 145.03 66.4417 144.663 66.5063 144.353C68.3018 135.817 69.6741 127.227 69.8167 118.474C69.8523 116.282 70.1486 114.095 70.2711 111.903C70.2889 111.568 70.1241 111.109 69.8813 110.896C64.7398 106.391 59.5961 101.887 54.3967 97.4494C53.3832 96.5851 52.1357 95.997 50.9372 95.244C50.3736 99.2182 48.4956 100.891 44.5861 101.045C43.3096 101.096 42.0109 101.283 40.7612 101.121C37.687 100.72 35.2121 99.1157 33.7195 96.4448C32.3874 94.0567 31.3315 91.4837 30.4226 88.8974C29.3511 85.8544 28.509 82.7246 27.6759 79.6036C27.0232 77.1554 28.1392 73.355 32.1 73.424C33.352 73.4463 34.3678 73.0943 35.4638 72.504C37.2793 71.5261 39.2308 70.7954 41.1421 70.0023C41.5743 69.8241 42.0777 69.7929 42.5522 69.7528C44.0225 69.6236 45.3814 69.8776 46.2524 71.2075C47.1034 72.504 46.7647 73.805 46.0964 75.0703C45.9717 75.3086 45.8625 75.5559 45.7311 75.8344C46.5821 76.242 47.159 76.1418 47.9254 75.5737C52.8374 71.936 57.7472 68.2848 62.804 64.8542C66.0385 62.66 69.5048 60.7999 72.902 58.8551C74.3188 58.0442 75.2388 58.1645 75.6576 58.9798C76.0719 59.7863 75.5863 60.4702 74.0893 61.2387C67.56 64.5936 61.5721 68.8039 55.5462 72.9562C53.7752 74.177 51.9775 75.3577 49.9926 76.6898C51.7013 77.2111 53.1715 77.641 54.6284 78.1111C55.769 78.4786 56.9029 78.8751 58.0256 79.2962C59.4424 79.8264 60.0038 80.5682 59.6763 81.3902C59.38 82.1342 58.2172 82.3815 57.0209 82.0072C52.5611 80.615 48.1147 79.1692 43.6237 77.8816C40.632 77.0239 37.5778 76.3779 34.5393 75.6918C33.7685 75.518 32.9488 75.4824 32.1557 75.5047C30.0706 75.5671 29.2063 77.0908 30.309 78.8774C31.2691 80.4301 32.677 81.5483 33.9 82.1788C34.8712 81.3969 35.7489 80.8154 36.4752 80.0848C39.0325 77.5074 41.3849 77.1376 45.0049 78.8863C48.9568 80.7954 50.6498 84.3998 51.033 88.6145C51.151 89.9199 50.8325 91.2654 50.7211 92.5107C54.4324 95.0369 58.3108 97.6744 62.1891 100.314C62.5968 100.686 63.0044 101.056 63.4099 101.428V101.426ZM42.2292 99.2605C43.6705 98.9709 45.1519 98.8039 46.5442 98.3606C48.2751 97.8103 48.7429 96.7232 48.6048 94.9277C48.5046 93.6379 48.5268 92.3058 48.734 91.0315C49.3689 87.1131 48.059 83.9409 45.1475 81.408C43.4968 79.9734 41.5698 79.6637 39.585 80.782C38.5469 81.3679 37.5623 82.054 36.5576 82.7C35.7289 83.2325 34.9603 83.9364 34.0559 84.246C33.4856 84.4421 32.8195 84.226 32.6302 85.0636C32.4832 85.7141 32.0733 86.3868 32.1579 86.9972C32.5812 90.0937 33.7886 92.9184 35.5729 95.4646C37.1657 97.7368 39.2441 99.2472 42.2314 99.2583L42.2292 99.2605ZM37.2214 73.4753C37.2437 73.6 37.2682 73.727 37.2905 73.8518C39.0815 74.3218 40.8726 74.7985 42.6703 75.2507C42.8285 75.2908 43.1582 75.2039 43.1849 75.1126C43.401 74.3307 43.7552 73.5087 43.6505 72.7557C43.6081 72.4439 42.4921 71.9805 41.9664 72.0874C40.358 72.4194 38.8008 72.9941 37.2214 73.4731V73.4753Z" fill="url(#paint1_linear_5016_490)"/>
<path d="M67.4176 152.867C70.4828 151.673 73.381 150.118 76.6802 150.958C76.7248 151.165 76.7693 151.374 76.8139 151.582C76.0876 151.755 75.3681 152.02 74.633 152.089C72.1959 152.314 69.9415 153.074 67.8653 154.328C67.5 154.549 67.1413 155.081 67.1012 155.5C66.6824 160.036 66.2503 164.573 65.9807 169.12C65.7735 172.622 64.6085 175.698 62.7172 178.625C61.8528 179.964 61.2982 181.568 60.9039 183.128C60.5296 184.611 61.2202 185.821 62.6214 186.612C64.4525 187.647 66.4151 187.85 68.4311 187.592C72.432 187.079 76.4196 186.471 80.4205 185.954C81.3182 185.839 81.8328 185.442 81.9152 184.573C82.0333 183.348 82.2739 182.094 82.1335 180.891C81.3293 173.985 82.3652 167.391 84.8245 160.898C87.2973 154.364 88.4913 147.507 89.0415 140.546C89.1017 139.793 89.3133 139.193 90.1977 139.162C91.1133 139.129 91.267 139.817 91.2202 140.463C91.0665 142.526 90.9061 144.593 90.6143 146.641C89.6519 153.382 88.1594 159.984 85.6599 166.355C84.2498 169.951 84.2298 173.785 84.506 177.605C84.604 178.962 84.7689 180.323 84.7243 181.675C84.682 182.94 84.477 184.215 84.2053 185.455C83.7909 187.331 82.6169 188.42 80.6388 188.623C76.5042 189.049 72.3808 189.588 68.2418 189.944C66.1656 190.122 64.0783 189.897 62.1558 188.948C59.2131 187.494 57.8809 185.001 58.6985 181.838C59.1395 180.134 59.8301 178.363 60.8771 176.973C62.7773 174.453 63.586 171.715 63.7887 168.637C64.1228 163.613 64.6018 158.599 65.0273 153.582C65.0651 153.145 65.054 152.658 65.2478 152.292C65.4951 151.827 65.9295 151.459 66.2837 151.049C66.6401 151.461 67.0121 151.864 67.3463 152.294C67.4287 152.399 67.3886 152.597 67.4198 152.869L67.4176 152.867Z" fill="url(#paint2_linear_5016_490)"/>
<path d="M99.6764 105.092C98.8811 104.669 98.0034 104.386 97.3596 103.832C92.0779 99.2827 85.9562 96.0125 79.9861 92.5462C75.3659 89.8664 70.494 87.6164 65.7312 85.1838C65.0651 84.8452 64.1251 84.6447 64.5149 83.6177C64.9048 82.5952 65.8515 82.8158 66.5733 83.1299C69.9036 84.5801 73.3342 85.8632 76.4864 87.6387C83.6884 91.6997 90.7479 96.0147 97.8653 100.225C98.0636 100.343 98.2752 100.441 98.5225 100.57C99.2844 98.0731 100.006 95.6249 100.779 93.1945C102.768 86.937 105.985 81.2698 109.289 75.6516C114.112 67.4538 118.966 59.276 123.88 51.1317C125.344 48.7057 127.054 46.4268 128.656 44.0833C128.792 43.8851 128.917 43.6044 129.108 43.5375C129.616 43.3616 130.158 43.2836 130.686 43.1655C130.692 43.7024 130.911 44.3707 130.672 44.7583C129.244 47.0684 127.623 49.2627 126.23 51.5928C121.209 59.9956 116.286 68.4607 111.258 76.8612C106.569 84.6959 103.002 92.9918 100.659 101.818C100.374 102.892 100.022 103.95 99.6764 105.09V105.092Z" fill="url(#paint3_linear_5016_490)"/>
<path d="M101.984 53.1411C106.083 54.7918 110.236 56.4314 114.357 58.1422C115.798 58.7415 116.074 59.4454 115.649 60.655C115.408 61.3367 114.952 61.5238 114.357 61.1897C109.598 58.5298 104.455 56.9616 99.1796 55.7363C97.7071 55.3955 97.4264 54.9611 97.6537 53.5376C97.7183 53.1322 98.1371 52.6822 98.5135 52.4439C105.179 48.2358 109.549 42.3325 110.971 34.5824C112.911 24.0121 109.538 15.2128 101.334 8.27143C101.06 8.03975 100.594 7.85486 100.536 7.58085C100.409 6.96825 100.483 6.31554 100.476 5.67843C101.022 5.70961 101.779 5.52026 102.08 5.80763C104.261 7.90387 106.656 9.87535 108.418 12.2968C117.749 25.1104 115.152 42.8047 102.666 52.5842C102.361 52.8226 102.064 53.0721 101.982 53.1411H101.984Z" fill="url(#paint4_linear_5016_490)"/>
<path d="M54.9404 29.4519C55.1543 12.4748 69.2666 -0.955766 86.228 0.0533673C89.2131 0.231581 92.1559 1.22512 95.0919 1.94243C95.5419 2.05159 95.9629 2.65974 96.1946 3.13646C96.335 3.42828 96.2102 4.04535 95.9718 4.26366C95.7335 4.48197 95.181 4.49756 94.809 4.41068C92.2917 3.81813 89.819 2.88696 87.2728 2.59959C73.7932 1.07587 61.1935 10.1893 58.2597 23.4105C57.3886 27.3356 57.353 31.2519 58.2285 35.1815C58.3176 35.5824 58.4045 36.1505 58.1995 36.4156C57.823 36.9034 57.2305 37.2265 56.7292 37.6185C56.4441 37.1017 55.9963 36.6138 55.9006 36.0658C55.5219 33.8738 55.2501 31.6617 54.9404 29.4564V29.4519Z" fill="url(#paint5_linear_5016_490)"/>
<path d="M78.2731 57.0461C78.1773 57.6877 78.0392 58.131 77.0657 57.857C69.6453 55.7808 63.8289 51.5482 59.6342 45.0858C59.505 44.8853 59.2778 44.6781 59.28 44.4754C59.2845 43.894 59.1842 42.9829 59.4872 42.8024C60.0864 42.4438 60.8527 42.1831 61.4743 43.2212C64.6576 48.532 69.182 52.3056 74.9628 54.5467C75.5932 54.7917 76.2303 55.0657 76.8897 55.1749C77.9657 55.3509 78.1639 56.1016 78.2731 57.0461Z" fill="url(#paint6_linear_5016_490)"/>
<path d="M101.184 110.279C101.47 109.621 101.773 109.067 101.957 108.474C103.163 104.629 104.317 100.766 105.54 96.9259C106.326 94.4554 107.197 92.0117 108.043 89.559C108.146 89.2627 108.289 88.9442 108.507 88.737C108.678 88.5744 109.041 88.4519 109.235 88.5276C109.429 88.6033 109.565 88.933 109.634 89.1781C109.681 89.3474 109.592 89.5679 109.532 89.755C107.475 96.1774 105.424 102.6 103.35 109.013C103.143 109.653 102.862 110.287 102.505 110.856C101.982 111.689 100.721 112.043 99.9815 111.421C97.0165 108.937 94.1116 106.382 91.2268 103.805C91.0018 103.604 91.111 103.032 91.0664 102.631C91.483 102.733 91.9998 102.711 92.2961 102.956C94.9158 105.11 97.4955 107.316 100.093 109.499C100.394 109.753 100.734 109.958 101.182 110.274L101.184 110.279Z" fill="url(#paint7_linear_5016_490)"/>
<path d="M131.318 47.623C130.942 48.2668 130.801 48.6054 130.579 48.8772C125.499 55.0812 122.015 62.2521 118.19 69.2224C117.155 71.1115 115.934 72.9003 114.784 74.7248C114.595 75.0255 114.361 75.3196 114.083 75.5356C113.936 75.6493 113.588 75.6804 113.448 75.5824C113.305 75.4822 113.227 75.1614 113.267 74.9654C113.321 74.7047 113.51 74.4686 113.65 74.228C116.558 69.1712 119.413 64.0854 122.394 59.071C124.455 55.6047 126.673 52.2298 128.861 48.8393C129.197 48.318 129.708 47.8792 130.213 47.5071C130.394 47.3757 130.806 47.5584 131.316 47.623H131.318Z" fill="url(#paint8_linear_5016_490)"/>
<path d="M158.797 10.9578C158.38 11.5504 158.155 11.9224 157.881 12.2565C154.769 16.0525 151.603 19.8039 148.556 23.6488C147.099 25.4889 145.86 27.5027 144.524 29.4385C144.274 29.7994 144.092 30.2316 143.773 30.5123C143.53 30.7261 143.123 30.7528 142.788 30.8642C142.773 30.5368 142.63 30.1358 142.766 29.893C143.432 28.7123 144.076 27.4982 144.909 26.4379C148.868 21.3855 152.88 16.3755 156.887 11.361C157.128 11.0603 157.467 10.7707 157.819 10.6459C158.039 10.568 158.371 10.8108 158.794 10.96L158.797 10.9578Z" fill="url(#paint9_linear_5016_490)"/>
<path d="M115.141 176.774C114.604 176.95 114.076 177.22 113.526 177.282C110.178 177.668 107.384 179.144 105.018 181.497C104.849 181.666 104.704 181.913 104.499 181.983C104.134 182.105 103.733 182.116 103.348 182.176C103.423 181.793 103.37 181.29 103.597 181.047C105.702 178.795 108.139 177.042 111.205 176.333C112.056 176.137 112.92 175.948 113.789 175.883C114.234 175.85 114.702 176.099 115.161 176.222C115.154 176.407 115.15 176.589 115.143 176.774H115.141Z" fill="url(#paint10_linear_5016_490)"/>
<path d="M105.003 80.3075C105.085 79.7416 105.045 79.1179 105.272 78.6167C106.901 75.0168 108.574 71.4391 110.273 67.8726C110.407 67.5942 110.844 67.4605 111.14 67.26C111.2 67.6454 111.43 68.1043 111.296 68.405C109.643 72.1252 107.948 75.8276 106.23 79.5189C106.061 79.882 105.673 80.1426 105.388 80.45C105.259 80.4033 105.13 80.3565 105.003 80.3075Z" fill="url(#paint11_linear_5016_490)"/>
<path d="M153.089 20.9089C152.913 21.2074 152.795 21.4636 152.628 21.6797C150.781 24.0744 148.932 26.4714 147.063 28.8505C146.856 29.1134 146.522 29.452 146.248 29.452C145.511 29.4498 145.515 28.8951 145.834 28.4562C147.707 25.8855 149.599 23.3304 151.537 20.8109C151.748 20.5369 152.292 20.4834 152.697 20.4143C152.795 20.3988 152.951 20.7307 153.087 20.9111L153.089 20.9089Z" fill="url(#paint12_linear_5016_490)"/>
<path d="M69.9882 174.602C72.6035 174.478 74.8134 175.525 76.8361 177.026C77.1702 177.273 77.246 177.866 77.4398 178.3C76.9386 178.258 76.297 178.401 75.9562 178.142C73.606 176.369 71.0598 175.576 68.1059 176.086C67.5668 176.18 66.4463 175.801 66.4418 175.616C66.4128 174.609 67.3796 174.908 67.9678 174.778C68.6227 174.636 69.3133 174.654 69.9882 174.602Z" fill="url(#paint13_linear_5016_490)"/>
<path d="M74.5283 41.9694C74.1986 42.0807 73.7999 42.3659 73.557 42.2656C72.9823 42.0295 72.441 41.6619 71.9576 41.261C69.8613 39.5256 68.9903 37.0774 68.2151 34.5958C68.1393 34.3552 68.4289 33.9988 68.5492 33.6958C68.8344 33.8473 69.2532 33.9275 69.3779 34.1636C69.6943 34.7539 69.8769 35.4156 70.1131 36.0482C70.8549 38.0331 71.9197 39.7729 73.8088 40.8756C74.1229 41.0582 74.4771 41.1719 74.8134 41.3167C74.7176 41.535 74.6241 41.751 74.5283 41.9694Z" fill="url(#paint14_linear_5016_490)"/>
<path d="M114.448 150.443C112.274 150.488 110.086 150.822 108.019 151.822C107.698 151.978 107.204 151.778 106.792 151.742C107.025 151.377 107.186 150.786 107.502 150.684C109.242 150.129 111.002 149.61 112.791 149.254C113.829 149.047 114.936 149.109 116.005 149.178C116.324 149.198 116.616 149.653 116.918 149.909C116.564 150.111 116.228 150.41 115.847 150.49C115.433 150.579 114.974 150.468 114.448 150.439V150.443Z" fill="url(#paint15_linear_5016_490)"/>
<path d="M59.0237 93.4573C59.3734 93.7023 59.6452 93.8605 59.8769 94.0632C61.4652 95.4577 63.0713 96.8322 64.604 98.2869C64.9203 98.5876 64.9448 99.1935 65.103 99.6591C64.653 99.5433 64.0983 99.5566 63.7731 99.2915C62.1023 97.9327 60.4783 96.5181 58.8766 95.079C58.6383 94.8652 58.538 94.4196 58.5202 94.0743C58.5113 93.8939 58.8165 93.6979 59.0259 93.4573H59.0237Z" fill="url(#paint16_linear_5016_490)"/>
<path d="M96.7915 137.536C96.4284 137.267 95.9762 137.064 95.7156 136.716C94.4258 134.988 93.1872 133.219 91.9352 131.464C91.8439 131.334 91.708 131.187 91.7102 131.049C91.7147 130.722 91.7904 130.397 91.8372 130.071C92.1535 130.156 92.6147 130.136 92.7662 130.343C94.1651 132.239 95.5285 134.164 96.8539 136.113C97.07 136.431 97.0455 136.91 97.1346 137.316C97.021 137.389 96.9074 137.463 96.7938 137.536H96.7915Z" fill="url(#paint17_linear_5016_490)"/>
<path d="M111.084 90.969C111.109 91.4613 111.298 92.0183 111.131 92.4304C110.507 93.9786 109.81 95.5023 109.035 96.9815C108.859 97.3179 108.266 97.4382 107.865 97.6565C107.801 97.2332 107.56 96.7365 107.703 96.3978C108.36 94.8207 109.106 93.2791 109.863 91.7442C110.026 91.4123 110.36 91.1651 110.616 90.8777C110.772 90.9066 110.931 90.9356 111.086 90.9668L111.084 90.969Z" fill="url(#paint18_linear_5016_490)"/>
<path d="M78.6183 61.7176C78.6183 61.1473 78.5737 60.7107 78.625 60.2852C78.8478 58.4764 79.0861 56.6675 79.3512 54.8653C79.3913 54.5891 79.6007 54.3351 79.7321 54.0723C79.9482 54.2082 80.2556 54.2906 80.367 54.4866C81.1734 55.89 80.416 60.4434 79.2198 61.535C79.1685 61.5817 79.0727 61.584 78.6161 61.7198L78.6183 61.7176Z" fill="url(#paint19_linear_5016_490)"/>
<path d="M68.1572 79.697C67.8609 80.118 67.6515 80.6104 67.4955 80.5925C67.1703 80.5591 66.6936 80.323 66.5933 80.0534C66.0186 78.4918 65.5129 76.9035 65.0429 75.3063C64.9783 75.0857 65.2166 74.5533 65.3458 74.5422C65.6354 74.5177 66.13 74.6513 66.2191 74.8607C66.9074 76.4535 67.52 78.0797 68.1549 79.6992L68.1572 79.697Z" fill="url(#paint20_linear_5016_490)"/>
<path d="M113.548 177.505C114.034 177.873 114.379 178.136 114.724 178.396C114.433 178.706 114.199 179.149 113.842 179.303C112.782 179.755 111.684 180.134 110.576 180.45C110.238 180.546 109.817 180.352 109.431 180.29C109.545 179.913 109.547 179.321 109.792 179.194C110.977 178.577 112.229 178.082 113.548 177.505Z" fill="url(#paint21_linear_5016_490)"/>
<path d="M78.1305 123.767C77.6004 122.836 77.0301 121.923 76.5623 120.962C76.4019 120.633 76.4999 120.178 76.4798 119.782C76.8697 119.944 77.4244 119.996 77.6182 120.287C78.4491 121.548 79.211 122.86 79.9127 124.197C80.0708 124.498 79.8859 124.979 79.857 125.375C79.5072 125.195 79.1018 125.072 78.8189 124.818C78.5026 124.536 78.2976 124.13 78.0437 123.778L78.1305 123.767Z" fill="url(#paint22_linear_5016_490)"/>
<path d="M100.706 23.9674C100.345 24.4753 100.155 24.7426 99.966 25.0077C99.7298 24.7961 99.3846 24.6313 99.2732 24.3662C98.6361 22.8447 98.039 21.3054 97.4754 19.7549C97.3908 19.521 97.5534 19.1958 97.6002 18.9128C97.941 19.0354 98.4734 19.0643 98.5893 19.2982C99.3489 20.842 100.022 22.4303 100.706 23.9674Z" fill="url(#paint23_linear_5016_490)"/>
<path d="M72.9734 9.0621C72.1447 9.57669 71.3383 10.1314 70.4762 10.5836C70.1265 10.7663 69.6609 10.7262 69.2488 10.7885C69.3824 10.4121 69.4025 9.8997 69.6676 9.68584C70.5609 8.96408 71.4943 8.26236 72.5079 7.73218C72.9578 7.49605 73.6328 7.69208 74.2053 7.69208C74.2722 7.85025 74.339 8.01064 74.4058 8.1688C74.0338 8.44503 73.664 8.71904 73.292 8.99527C73.1873 9.01754 73.0804 9.03982 72.9757 9.0621H72.9734Z" fill="url(#paint24_linear_5016_490)"/>
<path d="M75.9205 39.9444C75.6577 40.0625 75.4126 40.2674 75.1765 40.2607C74.3055 40.2318 71.7347 37.4316 71.7258 36.516C71.7258 36.3111 71.8439 36.0193 72.0021 35.9257C72.1535 35.8344 72.5189 35.8611 72.6347 35.9836C73.6661 37.0819 74.6686 38.2113 75.6688 39.3385C75.7668 39.4476 75.7913 39.6236 75.9205 39.9444Z" fill="url(#paint25_linear_5016_490)"/>
<path d="M63.4099 101.426C63.0023 101.054 62.5946 100.684 62.1892 100.312C61.8973 99.9154 61.6077 99.5189 61.3159 99.1202C61.4028 99.011 61.4897 98.9041 61.5743 98.7949C61.9664 98.8952 62.4208 98.8996 62.7372 99.1113C63.5904 99.686 64.4191 100.31 65.1831 100.998C65.397 101.19 65.3458 101.675 65.4148 102.025C65.0874 102.012 64.7398 102.065 64.4413 101.969C64.076 101.854 63.753 101.611 63.4099 101.424V101.426Z" fill="url(#paint26_linear_5016_490)"/>
<path d="M34.0492 76.3467C34.3455 76.5405 34.673 76.7543 35.0005 76.9682C34.6886 77.2467 34.4213 77.661 34.0582 77.7746C33.1916 78.0464 32.2872 78.2246 31.385 78.336C31.0285 78.3805 30.6365 78.1444 30.2622 78.0375C30.5095 77.7122 30.6944 77.2088 31.0152 77.0974C31.9441 76.7766 32.9287 76.6118 34.0492 76.3489V76.3467Z" fill="url(#paint27_linear_5016_490)"/>
<path d="M98.0368 48.7993C98.1593 49.1134 98.4222 49.4431 98.3487 49.6592C97.9699 50.7842 97.5222 51.8891 97.0566 52.9806C96.9853 53.1455 96.6623 53.3259 96.4997 53.2925C96.3304 53.2569 96.0608 52.9183 96.1009 52.798C96.5131 51.5416 96.9697 50.2985 97.442 49.0622C97.4799 48.9619 97.7138 48.9352 98.039 48.7993H98.0368Z" fill="url(#paint28_linear_5016_490)"/>
<path d="M105.676 76.5517C105.185 77.5719 104.747 78.5454 104.239 79.4833C104.145 79.6548 103.668 79.8152 103.55 79.7305C103.343 79.5791 103.103 79.1669 103.176 78.982C103.57 77.9907 104.032 77.0239 104.533 76.0838C104.617 75.9257 105.05 75.8143 105.243 75.89C105.433 75.9635 105.524 76.2977 105.678 76.5517H105.676Z" fill="url(#paint29_linear_5016_490)"/>
<path d="M112.844 151.332C113.321 151.419 114 151.488 114.644 151.684C114.867 151.753 115.183 152.199 115.128 152.35C115.032 152.615 114.666 152.978 114.433 152.965C113.479 152.912 112.528 152.76 111.588 152.575C111.387 152.535 111.111 152.212 111.109 152.016C111.109 151.816 111.363 151.51 111.572 151.437C111.9 151.323 112.281 151.366 112.842 151.328L112.844 151.332Z" fill="url(#paint30_linear_5016_490)"/>
<path d="M99.8836 136.471C99.6697 136.859 99.5917 137.151 99.4893 137.16C99.1974 137.182 98.7809 137.198 98.6227 137.026C98.0145 136.358 97.4621 135.632 96.9519 134.883C96.8406 134.72 96.9118 134.335 97.0344 134.141C97.1168 134.012 97.5601 133.925 97.6425 134.012C98.42 134.816 99.1551 135.663 99.8813 136.471H99.8836Z" fill="url(#paint31_linear_5016_490)"/>
<path d="M75.5642 179.281C75.3437 179.367 74.9516 179.668 74.7556 179.572C73.9425 179.169 73.1606 178.684 72.4388 178.133C72.3052 178.033 72.3787 177.329 72.5658 177.198C73.1517 176.779 75.5665 178.309 75.5665 179.281H75.5642Z" fill="url(#paint32_linear_5016_490)"/>
<path d="M72.4453 154.598C72.276 154.48 71.8438 154.319 71.8394 154.146C71.8305 153.867 72.0421 153.404 72.2671 153.328C72.9644 153.087 73.7084 152.934 74.4435 152.874C74.7086 152.854 75.0027 153.199 75.2834 153.377C75.0784 153.629 74.9203 154.016 74.6618 154.103C73.9958 154.328 73.2829 154.42 72.4453 154.596V154.598Z" fill="url(#paint33_linear_5016_490)"/>
<path d="M104.813 17.8703C104.635 18.142 104.495 18.5341 104.352 18.5363C104.096 18.5363 103.713 18.3693 103.606 18.1598C103.265 17.4915 102.98 16.7854 102.775 16.0636C102.715 15.852 102.927 15.4644 103.129 15.3173C103.247 15.2305 103.731 15.3886 103.815 15.5557C104.19 16.2908 104.477 17.0683 104.813 17.8725V17.8703Z" fill="url(#paint34_linear_5016_490)"/>
<path d="M65.5865 77.71C65.1588 78.111 64.9361 78.3182 64.7155 78.5254C64.2321 77.7947 63.7242 77.0752 63.2943 76.3133C63.2408 76.2197 63.6128 75.8878 63.7888 75.665C64.3524 76.3066 64.9182 76.9482 65.5865 77.71Z" fill="url(#paint35_linear_5016_490)"/>
<path d="M77.1659 38.1867C76.6803 38.5075 76.2927 38.8172 76.257 38.7793C75.6823 38.1934 75.141 37.5741 74.6397 36.9236C74.6108 36.888 74.9939 36.5338 75.1855 36.3289C75.787 36.8925 76.3885 37.4561 77.1681 38.1867H77.1659Z" fill="url(#paint36_linear_5016_490)"/>
<path d="M78.1305 123.767C78.1305 123.767 78.0458 123.778 78.0436 123.778C78.1505 124.397 78.6985 125.193 77.7941 125.489C77.5446 125.571 76.9075 124.694 76.5711 124.177C76.4218 123.947 76.58 123.52 76.5978 123.181C76.9453 123.261 77.3018 123.319 77.6404 123.435C77.8208 123.495 77.9656 123.653 78.1282 123.769L78.1305 123.767Z" fill="url(#paint37_linear_5016_490)"/>
<path d="M97.4465 5.54917C97.5691 4.95439 97.6314 4.33732 97.8564 3.78486C97.9166 3.63783 98.5826 3.54873 98.7809 3.69353C99.0527 3.89179 99.3757 4.50217 99.271 4.64697C98.9368 5.11923 98.4156 5.46007 97.9678 5.84991L97.4465 5.54695V5.54917Z" fill="url(#paint38_linear_5016_490)"/>
<path d="M33.2006 78.1755C33.5815 78.4473 33.8934 78.6701 34.2075 78.8951C33.9089 79.149 33.6104 79.403 33.3075 79.6525C33.283 79.6748 33.2317 79.6703 33.1916 79.6681C32.6681 79.6413 32.1424 79.6302 31.6256 79.5545C31.5699 79.5456 31.4875 78.9998 31.5632 78.953C32.0466 78.6723 32.5723 78.4607 33.1983 78.1755H33.2006Z" fill="url(#paint39_linear_5016_490)"/>
<path d="M106.564 16.7855C106.117 17.1219 105.874 17.3045 105.631 17.4872C105.29 16.9392 104.896 16.4157 104.644 15.8298C104.584 15.6917 104.998 15.3464 105.197 15.0969C105.613 15.6115 106.032 16.1283 106.564 16.7855Z" fill="url(#paint40_linear_5016_490)"/>
<path d="M85.4862 58.3314C85.0117 58.8215 84.6775 59.1668 84.3434 59.5121C84.1875 59.1178 83.8823 58.7079 83.9179 58.3314C83.958 57.9015 84.3011 57.5005 84.5149 57.0862C84.7912 57.4382 85.0674 57.7924 85.4884 58.3314H85.4862Z" fill="url(#paint41_linear_5016_490)"/>
<path d="M98.9881 24.0032C98.5849 24.4286 98.3488 24.6759 98.1149 24.9254C97.8186 24.4175 97.4555 23.9319 97.2639 23.3861C97.1993 23.199 97.5647 22.8604 97.7362 22.5908C98.1171 23.0208 98.5003 23.4529 98.9904 24.0054L98.9881 24.0032Z" fill="url(#paint42_linear_5016_490)"/>
<path d="M72.9734 9.06219C73.0781 9.03991 73.185 9.01764 73.2897 8.99536C73.6796 9.07333 74.0694 9.1513 74.4592 9.22927C74.3969 9.51218 74.4258 9.92207 74.2498 10.0513C73.8578 10.3409 73.361 10.4924 72.9065 10.7018C72.7974 10.4411 72.5902 10.1738 72.6058 9.91984C72.6259 9.62579 72.8419 9.3451 72.9734 9.05996V9.06219Z" fill="url(#paint43_linear_5016_490)"/>
<path d="M82.167 59.715C81.6724 60.4367 81.267 61.0271 80.8638 61.6174C80.6878 61.4169 80.3225 61.134 80.367 61.0271C80.6522 60.361 81.0286 59.735 81.3739 59.0979C81.5811 59.2583 81.7883 59.4209 82.1692 59.7172L82.167 59.715Z" fill="url(#paint44_linear_5016_490)"/>
<path d="M101.55 26.9326C101.191 27.4227 100.946 27.7613 100.699 28.0977C100.467 27.7078 100.082 27.3291 100.051 26.9237C100.022 26.5673 100.389 26.1797 100.583 25.8054C100.873 26.1418 101.16 26.4782 101.55 26.9326Z" fill="url(#paint45_linear_5016_490)"/>
<path d="M110.456 102.248C109.877 102.678 109.505 103.15 109.255 103.092C108.908 103.012 108.491 102.566 108.415 102.212C108.369 101.994 108.901 101.415 109.166 101.419C109.52 101.426 109.868 101.842 110.456 102.248Z" fill="url(#paint46_linear_5016_490)"/>
<path d="M127.317 57.0883C126.781 57.4938 126.482 57.8546 126.119 57.9348C125.93 57.9772 125.382 57.4002 125.426 57.3111C125.642 56.8656 125.999 56.4913 126.308 56.0903C126.576 56.3554 126.843 56.6183 127.317 57.0883Z" fill="url(#paint47_linear_5016_490)"/>
<path d="M104.575 82.6753C103.989 83.0429 103.539 83.4528 103.423 83.3726C103.045 83.112 102.755 82.6932 102.519 82.2833C102.49 82.232 103.056 81.6595 103.205 81.713C103.624 81.8667 103.967 82.2231 104.575 82.6731V82.6753Z" fill="url(#paint48_linear_5016_490)"/>
<path d="M95.2591 126.641C95.6534 127.218 96.0521 127.558 96.0878 127.933C96.1145 128.213 95.6756 128.539 95.4462 128.842C95.1588 128.458 94.7912 128.104 94.6197 127.674C94.5529 127.505 94.9227 127.162 95.2591 126.641Z" fill="url(#paint49_linear_5016_490)"/>
<path d="M76.7694 7.69446C76.3506 7.34695 76.0833 7.12418 75.8137 6.90141C76.1612 6.66974 76.4887 6.30663 76.863 6.25539C77.1147 6.21975 77.4288 6.62295 77.7161 6.83013C77.4355 7.08854 77.1548 7.34472 76.7716 7.69669L76.7694 7.69446Z" fill="url(#paint50_linear_5016_490)"/>
<path d="M122.107 92.818C122.229 91.9915 122.285 91.1472 122.512 90.3497C122.599 90.0423 123.069 89.8418 123.365 89.5923C123.492 89.9688 123.777 90.3697 123.724 90.7195C123.376 92.9739 123.417 95.157 124.479 97.2555C124.617 97.5295 124.377 97.995 124.31 98.3715C123.958 98.1822 123.383 98.0641 123.294 97.7901C122.768 96.1795 122.358 94.531 121.908 92.8959C121.975 92.8692 122.042 92.8447 122.107 92.818Z" fill="url(#paint51_linear_5016_490)"/>
<path d="M125.074 93.2791C125.6 94.3773 125.992 95.1837 126.344 96.0079C126.351 96.0213 125.669 96.3844 125.642 96.3488C125.159 95.6693 124.7 94.9676 124.312 94.2303C124.261 94.1345 124.635 93.8137 125.074 93.2791Z" fill="url(#paint52_linear_5016_490)"/>
<path d="M136.148 76.7076C135.631 77.7457 135.166 78.7503 134.615 79.7082C134.515 79.882 133.998 79.9845 133.795 79.882C133.608 79.7862 133.437 79.3073 133.519 79.1045C133.907 78.1511 134.361 77.2199 134.856 76.3155C134.947 76.1462 135.353 76.0281 135.564 76.0816C135.769 76.1328 135.91 76.438 136.148 76.7098V76.7076Z" fill="url(#paint53_linear_5016_490)"/>
<path d="M135.308 74.8251C135.308 74.3283 135.197 73.7959 135.346 73.3481C135.448 73.0363 135.909 72.8447 136.21 72.5974C136.328 72.9672 136.613 73.3882 136.522 73.6979C136.388 74.1501 135.983 74.5221 135.693 74.9298C135.566 74.8941 135.437 74.8607 135.31 74.8251H135.308Z" fill="url(#paint54_linear_5016_490)"/>
<path d="M34.7088 86.2954C34.9895 86.5159 35.2702 86.6741 35.4684 86.9036C36.3016 87.8681 37.1637 88.8149 37.9144 89.8419C39.1753 91.5638 40.8037 92.7891 42.7039 93.7002C43.0269 93.8539 43.3989 93.9697 43.6418 94.2103C43.8556 94.4219 43.9224 94.7851 44.0561 95.0813C43.7375 95.1704 43.4168 95.3375 43.1027 95.3241C42.8041 95.3108 42.5079 95.117 42.2183 94.9833C39.6943 93.8272 37.6872 92.0472 36.0098 89.8597C35.4528 89.1335 34.818 88.4629 34.29 87.7167C34.1162 87.4738 34.1007 87.0662 34.1385 86.7499C34.1586 86.5961 34.4682 86.4759 34.7066 86.2976L34.7088 86.2954Z" fill="url(#paint55_linear_5016_490)"/>
<path d="M38.1994 93.4307C37.1591 93.5131 34.6307 92.1298 34.2564 91.2721C34.1651 91.0627 34.2029 90.7197 34.321 90.5214C34.4146 90.3632 34.7242 90.2518 34.9314 90.2608C35.4415 90.2853 38.0256 92.7825 38.1994 93.4307Z" fill="url(#paint56_linear_5016_490)"/>
<path d="M41.8284 96.0569C42.1759 96.4445 42.5991 96.7408 42.5546 96.9101C42.4744 97.2064 42.1068 97.4247 41.8573 97.6742C41.6301 97.4447 41.2558 97.2354 41.2224 96.9792C41.1912 96.7519 41.5365 96.4735 41.8284 96.0547V96.0569Z" fill="url(#paint57_linear_5016_490)"/>
</g>
<defs>
<linearGradient id="paint0_linear_5016_490" x1="124.185" y1="6.20459" x2="124.185" y2="189.596" gradientUnits="userSpaceOnUse">
<stop stop-color="#5442DD"/>
<stop offset="1" stop-color="#C892F6"/>
</linearGradient>
<linearGradient id="paint1_linear_5016_490" x1="55.8625" y1="58.3042" x2="55.8625" y2="146.436" gradientUnits="userSpaceOnUse">
<stop stop-color="#5442DD"/>
<stop offset="1" stop-color="#C892F6"/>
</linearGradient>
<linearGradient id="paint2_linear_5016_490" x1="74.8445" y1="139.161" x2="74.8445" y2="190" gradientUnits="userSpaceOnUse">
<stop stop-color="#5442DD"/>
<stop offset="1" stop-color="#C892F6"/>
</linearGradient>
<linearGradient id="paint3_linear_5016_490" x1="97.6033" y1="43.1655" x2="97.6033" y2="105.092" gradientUnits="userSpaceOnUse">
<stop stop-color="#5442DD"/>
<stop offset="1" stop-color="#C892F6"/>
</linearGradient>
<linearGradient id="paint4_linear_5016_490" x1="106.707" y1="5.64575" x2="106.707" y2="61.3512" gradientUnits="userSpaceOnUse">
<stop stop-color="#5442DD"/>
<stop offset="1" stop-color="#C892F6"/>
</linearGradient>
<linearGradient id="paint5_linear_5016_490" x1="75.597" y1="0" x2="75.597" y2="37.6185" gradientUnits="userSpaceOnUse">
<stop stop-color="#5442DD"/>
<stop offset="1" stop-color="#C892F6"/>
</linearGradient>
<linearGradient id="paint6_linear_5016_490" x1="68.7703" y1="42.4863" x2="68.7703" y2="57.9395" gradientUnits="userSpaceOnUse">
<stop stop-color="#5442DD"/>
<stop offset="1" stop-color="#C892F6"/>
</linearGradient>
<linearGradient id="paint7_linear_5016_490" x1="100.357" y1="88.5046" x2="100.357" y2="111.737" gradientUnits="userSpaceOnUse">
<stop stop-color="#5442DD"/>
<stop offset="1" stop-color="#C892F6"/>
</linearGradient>
<linearGradient id="paint8_linear_5016_490" x1="122.287" y1="47.4607" x2="122.287" y2="75.6411" gradientUnits="userSpaceOnUse">
<stop stop-color="#5442DD"/>
<stop offset="1" stop-color="#C892F6"/>
</linearGradient>
<linearGradient id="paint9_linear_5016_490" x1="150.752" y1="10.6309" x2="150.752" y2="30.8642" gradientUnits="userSpaceOnUse">
<stop stop-color="#5442DD"/>
<stop offset="1" stop-color="#C892F6"/>
</linearGradient>
<linearGradient id="paint10_linear_5016_490" x1="109.254" y1="175.88" x2="109.254" y2="182.176" gradientUnits="userSpaceOnUse">
<stop stop-color="#5442DD"/>
<stop offset="1" stop-color="#C892F6"/>
</linearGradient>
<linearGradient id="paint11_linear_5016_490" x1="108.17" y1="67.26" x2="108.17" y2="80.45" gradientUnits="userSpaceOnUse">
<stop stop-color="#5442DD"/>
<stop offset="1" stop-color="#C892F6"/>
</linearGradient>
<linearGradient id="paint12_linear_5016_490" x1="149.359" y1="20.4138" x2="149.359" y2="29.452" gradientUnits="userSpaceOnUse">
<stop stop-color="#5442DD"/>
<stop offset="1" stop-color="#C892F6"/>
</linearGradient>
<linearGradient id="paint13_linear_5016_490" x1="71.9405" y1="174.592" x2="71.9405" y2="178.302" gradientUnits="userSpaceOnUse">
<stop stop-color="#5442DD"/>
<stop offset="1" stop-color="#C892F6"/>
</linearGradient>
<linearGradient id="paint14_linear_5016_490" x1="71.508" y1="33.6958" x2="71.508" y2="42.2866" gradientUnits="userSpaceOnUse">
<stop stop-color="#5442DD"/>
<stop offset="1" stop-color="#C892F6"/>
</linearGradient>
<linearGradient id="paint15_linear_5016_490" x1="111.855" y1="149.112" x2="111.855" y2="151.881" gradientUnits="userSpaceOnUse">
<stop stop-color="#5442DD"/>
<stop offset="1" stop-color="#C892F6"/>
</linearGradient>
<linearGradient id="paint16_linear_5016_490" x1="61.8115" y1="93.4573" x2="61.8115" y2="99.6591" gradientUnits="userSpaceOnUse">
<stop stop-color="#5442DD"/>
<stop offset="1" stop-color="#C892F6"/>
</linearGradient>
<linearGradient id="paint17_linear_5016_490" x1="94.4224" y1="130.071" x2="94.4224" y2="137.536" gradientUnits="userSpaceOnUse">
<stop stop-color="#5442DD"/>
<stop offset="1" stop-color="#C892F6"/>
</linearGradient>
<linearGradient id="paint18_linear_5016_490" x1="109.429" y1="90.8777" x2="109.429" y2="97.6565" gradientUnits="userSpaceOnUse">
<stop stop-color="#5442DD"/>
<stop offset="1" stop-color="#C892F6"/>
</linearGradient>
<linearGradient id="paint19_linear_5016_490" x1="79.6509" y1="54.0723" x2="79.6509" y2="61.7198" gradientUnits="userSpaceOnUse">
<stop stop-color="#5442DD"/>
<stop offset="1" stop-color="#C892F6"/>
</linearGradient>
<linearGradient id="paint20_linear_5016_490" x1="66.5946" y1="74.5393" x2="66.5946" y2="80.593" gradientUnits="userSpaceOnUse">
<stop stop-color="#5442DD"/>
<stop offset="1" stop-color="#C892F6"/>
</linearGradient>
<linearGradient id="paint21_linear_5016_490" x1="112.078" y1="177.505" x2="112.078" y2="180.476" gradientUnits="userSpaceOnUse">
<stop stop-color="#5442DD"/>
<stop offset="1" stop-color="#C892F6"/>
</linearGradient>
<linearGradient id="paint22_linear_5016_490" x1="78.2221" y1="119.782" x2="78.2221" y2="125.375" gradientUnits="userSpaceOnUse">
<stop stop-color="#5442DD"/>
<stop offset="1" stop-color="#C892F6"/>
</linearGradient>
<linearGradient id="paint23_linear_5016_490" x1="99.0785" y1="18.9128" x2="99.0785" y2="25.0077" gradientUnits="userSpaceOnUse">
<stop stop-color="#5442DD"/>
<stop offset="1" stop-color="#C892F6"/>
</linearGradient>
<linearGradient id="paint24_linear_5016_490" x1="71.8273" y1="7.61572" x2="71.8273" y2="10.7885" gradientUnits="userSpaceOnUse">
<stop stop-color="#5442DD"/>
<stop offset="1" stop-color="#C892F6"/>
</linearGradient>
<linearGradient id="paint25_linear_5016_490" x1="73.8232" y1="35.8713" x2="73.8232" y2="40.2609" gradientUnits="userSpaceOnUse">
<stop stop-color="#5442DD"/>
<stop offset="1" stop-color="#C892F6"/>
</linearGradient>
<linearGradient id="paint26_linear_5016_490" x1="63.3654" y1="98.7949" x2="63.3654" y2="102.028" gradientUnits="userSpaceOnUse">
<stop stop-color="#5442DD"/>
<stop offset="1" stop-color="#C892F6"/>
</linearGradient>
<linearGradient id="paint27_linear_5016_490" x1="32.6313" y1="76.3467" x2="32.6313" y2="78.3415" gradientUnits="userSpaceOnUse">
<stop stop-color="#5442DD"/>
<stop offset="1" stop-color="#C892F6"/>
</linearGradient>
<linearGradient id="paint28_linear_5016_490" x1="97.2292" y1="48.7993" x2="97.2292" y2="53.2966" gradientUnits="userSpaceOnUse">
<stop stop-color="#5442DD"/>
<stop offset="1" stop-color="#C892F6"/>
</linearGradient>
<linearGradient id="paint29_linear_5016_490" x1="104.42" y1="75.8657" x2="104.42" y2="79.7538" gradientUnits="userSpaceOnUse">
<stop stop-color="#5442DD"/>
<stop offset="1" stop-color="#C892F6"/>
</linearGradient>
<linearGradient id="paint30_linear_5016_490" x1="113.121" y1="151.328" x2="113.121" y2="152.965" gradientUnits="userSpaceOnUse">
<stop stop-color="#5442DD"/>
<stop offset="1" stop-color="#C892F6"/>
</linearGradient>
<linearGradient id="paint31_linear_5016_490" x1="98.39" y1="133.977" x2="98.39" y2="137.173" gradientUnits="userSpaceOnUse">
<stop stop-color="#5442DD"/>
<stop offset="1" stop-color="#C892F6"/>
</linearGradient>
<linearGradient id="paint32_linear_5016_490" x1="73.9685" y1="177.127" x2="73.9685" y2="179.591" gradientUnits="userSpaceOnUse">
<stop stop-color="#5442DD"/>
<stop offset="1" stop-color="#C892F6"/>
</linearGradient>
<linearGradient id="paint33_linear_5016_490" x1="73.5612" y1="152.873" x2="73.5612" y2="154.598" gradientUnits="userSpaceOnUse">
<stop stop-color="#5442DD"/>
<stop offset="1" stop-color="#C892F6"/>
</linearGradient>
<linearGradient id="paint34_linear_5016_490" x1="103.789" y1="15.2927" x2="103.789" y2="18.5363" gradientUnits="userSpaceOnUse">
<stop stop-color="#5442DD"/>
<stop offset="1" stop-color="#C892F6"/>
</linearGradient>
<linearGradient id="paint35_linear_5016_490" x1="64.4378" y1="75.665" x2="64.4378" y2="78.5254" gradientUnits="userSpaceOnUse">
<stop stop-color="#5442DD"/>
<stop offset="1" stop-color="#C892F6"/>
</linearGradient>
<linearGradient id="paint36_linear_5016_490" x1="75.9032" y1="36.3289" x2="75.9032" y2="38.7824" gradientUnits="userSpaceOnUse">
<stop stop-color="#5442DD"/>
<stop offset="1" stop-color="#C892F6"/>
</linearGradient>
<linearGradient id="paint37_linear_5016_490" x1="77.4066" y1="123.181" x2="77.4066" y2="125.494" gradientUnits="userSpaceOnUse">
<stop stop-color="#5442DD"/>
<stop offset="1" stop-color="#C892F6"/>
</linearGradient>
<linearGradient id="paint38_linear_5016_490" x1="98.3689" y1="3.61987" x2="98.3689" y2="5.84991" gradientUnits="userSpaceOnUse">
<stop stop-color="#5442DD"/>
<stop offset="1" stop-color="#C892F6"/>
</linearGradient>
<linearGradient id="paint39_linear_5016_490" x1="32.8701" y1="78.1755" x2="32.8701" y2="79.67" gradientUnits="userSpaceOnUse">
<stop stop-color="#5442DD"/>
<stop offset="1" stop-color="#C892F6"/>
</linearGradient>
<linearGradient id="paint40_linear_5016_490" x1="105.601" y1="15.0969" x2="105.601" y2="17.4872" gradientUnits="userSpaceOnUse">
<stop stop-color="#5442DD"/>
<stop offset="1" stop-color="#C892F6"/>
</linearGradient>
<linearGradient id="paint41_linear_5016_490" x1="84.7017" y1="57.0862" x2="84.7017" y2="59.5121" gradientUnits="userSpaceOnUse">
<stop stop-color="#5442DD"/>
<stop offset="1" stop-color="#C892F6"/>
</linearGradient>
<linearGradient id="paint42_linear_5016_490" x1="98.1234" y1="22.5908" x2="98.1234" y2="24.9254" gradientUnits="userSpaceOnUse">
<stop stop-color="#5442DD"/>
<stop offset="1" stop-color="#C892F6"/>
</linearGradient>
<linearGradient id="paint43_linear_5016_490" x1="73.5321" y1="8.99536" x2="73.5321" y2="10.7018" gradientUnits="userSpaceOnUse">
<stop stop-color="#5442DD"/>
<stop offset="1" stop-color="#C892F6"/>
</linearGradient>
<linearGradient id="paint44_linear_5016_490" x1="81.2662" y1="59.0979" x2="81.2662" y2="61.6174" gradientUnits="userSpaceOnUse">
<stop stop-color="#5442DD"/>
<stop offset="1" stop-color="#C892F6"/>
</linearGradient>
<linearGradient id="paint45_linear_5016_490" x1="100.799" y1="25.8054" x2="100.799" y2="28.0977" gradientUnits="userSpaceOnUse">
<stop stop-color="#5442DD"/>
<stop offset="1" stop-color="#C892F6"/>
</linearGradient>
<linearGradient id="paint46_linear_5016_490" x1="109.434" y1="101.419" x2="109.434" y2="103.097" gradientUnits="userSpaceOnUse">
<stop stop-color="#5442DD"/>
<stop offset="1" stop-color="#C892F6"/>
</linearGradient>
<linearGradient id="paint47_linear_5016_490" x1="126.371" y1="56.0903" x2="126.371" y2="57.9371" gradientUnits="userSpaceOnUse">
<stop stop-color="#5442DD"/>
<stop offset="1" stop-color="#C892F6"/>
</linearGradient>
<linearGradient id="paint48_linear_5016_490" x1="103.546" y1="81.7095" x2="103.546" y2="83.3828" gradientUnits="userSpaceOnUse">
<stop stop-color="#5442DD"/>
<stop offset="1" stop-color="#C892F6"/>
</linearGradient>
<linearGradient id="paint49_linear_5016_490" x1="95.3504" y1="126.641" x2="95.3504" y2="128.842" gradientUnits="userSpaceOnUse">
<stop stop-color="#5442DD"/>
<stop offset="1" stop-color="#C892F6"/>
</linearGradient>
<linearGradient id="paint50_linear_5016_490" x1="76.7649" y1="6.25317" x2="76.7649" y2="7.69669" gradientUnits="userSpaceOnUse">
<stop stop-color="#5442DD"/>
<stop offset="1" stop-color="#C892F6"/>
</linearGradient>
<linearGradient id="paint51_linear_5016_490" x1="123.215" y1="89.5923" x2="123.215" y2="98.3715" gradientUnits="userSpaceOnUse">
<stop stop-color="#5442DD"/>
<stop offset="1" stop-color="#C892F6"/>
</linearGradient>
<linearGradient id="paint52_linear_5016_490" x1="125.326" y1="93.2791" x2="125.326" y2="96.3512" gradientUnits="userSpaceOnUse">
<stop stop-color="#5442DD"/>
<stop offset="1" stop-color="#C892F6"/>
</linearGradient>
<linearGradient id="paint53_linear_5016_490" x1="134.823" y1="76.0686" x2="134.823" y2="79.9228" gradientUnits="userSpaceOnUse">
<stop stop-color="#5442DD"/>
<stop offset="1" stop-color="#C892F6"/>
</linearGradient>
<linearGradient id="paint54_linear_5016_490" x1="135.904" y1="72.5974" x2="135.904" y2="74.9298" gradientUnits="userSpaceOnUse">
<stop stop-color="#5442DD"/>
<stop offset="1" stop-color="#C892F6"/>
</linearGradient>
<linearGradient id="paint55_linear_5016_490" x1="39.0888" y1="86.2954" x2="39.0888" y2="95.3249" gradientUnits="userSpaceOnUse">
<stop stop-color="#5442DD"/>
<stop offset="1" stop-color="#C892F6"/>
</linearGradient>
<linearGradient id="paint56_linear_5016_490" x1="36.2025" y1="90.2603" x2="36.2025" y2="93.4342" gradientUnits="userSpaceOnUse">
<stop stop-color="#5442DD"/>
<stop offset="1" stop-color="#C892F6"/>
</linearGradient>
<linearGradient id="paint57_linear_5016_490" x1="41.8891" y1="96.0547" x2="41.8891" y2="97.6742" gradientUnits="userSpaceOnUse">
<stop stop-color="#5442DD"/>
<stop offset="1" stop-color="#C892F6"/>
</linearGradient>
<clipPath id="clip0_5016_490">
<rect width="135.413" height="190" fill="white" transform="translate(27.5)"/>
</clipPath>
</defs>
</svg>
