<svg width="191" height="190" viewBox="0 0 191 190" fill="none" xmlns="http://www.w3.org/2000/svg">
<g clip-path="url(#clip0_5016_55)">
<path d="M151.76 172.792V62.115C151.053 62.8145 150.448 63.469 149.78 64.0502C149.39 64.3908 148.926 64.6966 148.441 64.8618C147.939 65.0331 147.336 65.2676 146.958 64.5356C146.58 63.8076 146.181 63.1571 146.913 62.3699C148.482 60.6774 149.939 58.8788 151.566 57.2454C152.101 56.7091 153.015 56.2666 153.758 56.2605C162.47 56.1952 171.183 56.2136 179.896 56.2279C181.054 56.2279 181.242 56.4583 181.245 57.5778C181.285 71.5218 181.318 85.4638 181.369 99.4078C181.379 102.348 181.457 105.289 181.492 108.229C181.504 109.239 181.124 109.753 180.159 109.596C179.612 109.506 178.766 108.843 178.735 108.393C178.557 105.797 178.582 103.186 178.545 100.58C178.541 100.248 178.592 99.9136 178.592 99.5812C178.625 86.4732 178.653 73.3653 178.682 60.2553C178.682 60.0575 178.664 59.8576 178.649 59.5721H154.574V174.785C155.117 174.785 155.508 174.785 155.896 174.785C162.096 174.783 168.295 174.77 174.493 174.795C174.896 174.795 175.566 174.966 175.646 175.209C175.86 175.872 175.872 176.618 175.85 177.325C175.846 177.462 175.321 177.69 175.037 177.693C167.731 177.713 160.426 177.713 153.121 177.693C152.79 177.693 152.385 177.538 152.138 177.317C149.792 175.227 147.456 173.125 145.168 170.971C144.896 170.716 144.847 170.131 144.845 169.699C144.829 158.496 144.839 147.294 144.831 136.091C144.825 127.196 144.792 118.301 144.788 109.406C144.786 99.4099 144.802 89.4117 144.812 79.4156C144.816 76.004 144.845 72.5944 144.814 69.1829C144.806 68.359 145.045 67.9125 145.912 67.8859C146.843 67.8574 147.499 68.3081 147.595 69.0911C147.624 69.3215 147.606 69.5581 147.606 69.7926C147.626 102.363 147.653 134.933 147.647 167.501C147.647 168.526 147.91 169.273 148.695 169.933C149.686 170.767 150.595 171.701 151.754 172.79L151.76 172.792Z" fill="url(#paint0_linear_5016_55)"/>
<path d="M65.1309 125.701C65.1309 126.199 65.1309 126.59 65.1309 126.982C65.1309 141.762 65.1309 156.544 65.1309 171.324C65.1309 171.459 65.1391 171.591 65.1309 171.726C65.09 172.399 65.2658 173.265 64.3156 173.394C63.208 173.545 62.2926 172.656 62.2926 171.579C62.2905 157.233 62.2926 142.888 62.2905 128.54C62.2905 128.152 62.2905 127.763 62.2905 127.049C60.8458 128.411 59.6055 129.553 58.408 130.74C58.2323 130.913 58.2037 131.293 58.2037 131.576C58.1935 144.851 58.1935 158.128 58.2037 171.404C58.2037 171.716 58.2609 172.134 58.4611 172.325C60.3391 174.13 62.2394 175.912 64.1787 177.654C64.4627 177.911 64.9776 178.015 65.3863 178.015C72.8918 178.021 80.3973 178 87.9049 177.986C88.2972 177.986 88.6895 177.986 89.1841 177.986C89.1841 175.759 89.1841 173.661 89.1841 171.561C89.1841 170.792 89.18 170.023 89.1841 169.252C89.1902 168.308 89.7869 167.664 90.6839 167.615C91.3235 167.58 91.9999 168.351 92.006 169.222C92.0244 172.733 92.006 176.245 92.0224 179.754C92.0265 180.786 91.4175 180.929 90.5715 180.927C82.6635 180.912 74.7513 180.782 66.8474 180.992C64.0193 181.067 61.9309 180.319 60.0836 178.257C58.7963 176.822 57.233 175.639 55.8292 174.305C55.5779 174.067 55.3735 173.639 55.3735 173.298C55.3694 160.792 55.3919 148.285 55.4124 135.779C55.4144 134.007 55.3858 132.233 55.4491 130.463C55.4675 129.979 55.6412 129.376 55.9661 129.05C57.9973 127.012 60.0509 124.996 62.1945 123.081C62.6808 122.646 63.5472 122.469 64.242 122.465C71.1774 122.418 78.1148 122.43 85.0502 122.432C85.9023 122.432 86.5603 123.256 86.5603 124.278C86.5603 125.232 86.0842 125.693 85.0379 125.695C78.8382 125.703 72.6384 125.701 66.4407 125.701C66.0463 125.701 65.654 125.701 65.1309 125.701Z" fill="url(#paint1_linear_5016_55)"/>
<path d="M134.025 98.757C133.496 98.757 133.102 98.757 132.707 98.757C125.739 98.757 118.769 98.8263 111.803 98.7142C109.637 98.6795 108.082 99.5298 106.698 100.994C106.261 101.457 105.899 102.012 105.397 102.383C103.411 103.851 102.949 105.758 102.977 108.192C103.112 119.19 103.03 130.191 103.041 141.191C103.041 142.019 102.992 142.781 101.982 142.924C101.275 143.024 100.335 142.11 100.215 141.274C100.176 141.011 100.196 140.74 100.196 140.473C100.196 128.67 100.213 116.869 100.186 105.066C100.184 103.841 100.531 102.895 101.422 102.038C103.208 100.323 104.949 98.5592 106.656 96.7647C107.589 95.7838 108.587 95.3699 110.003 95.3841C118.044 95.4698 126.084 95.431 134.125 95.4372C134.561 95.4372 134.998 95.4474 135.427 95.4983C136.234 95.5962 136.676 96.1081 136.802 96.8768C136.868 97.2684 136.849 97.6762 136.849 98.0779C136.853 122.485 136.855 146.892 136.843 171.297C136.843 171.774 136.827 172.427 136.539 172.682C136.179 173.002 135.47 173.196 135.018 173.069C134.618 172.957 134.262 172.374 134.072 171.919C133.915 171.548 134.025 171.063 134.025 170.628C134.025 147.157 134.025 123.688 134.025 100.217V98.7529V98.757Z" fill="url(#paint2_linear_5016_55)"/>
<path d="M109.972 176.389C110.473 176.389 110.832 176.389 111.192 176.389C117.692 176.387 124.192 176.379 130.69 176.383C132.061 176.383 133.43 176.424 134.802 176.467C135.733 176.495 136.436 177.134 136.416 177.892C136.393 178.726 135.707 179.312 134.73 179.312C126.086 179.312 117.443 179.322 108.799 179.287C108.292 179.287 107.677 179.051 107.295 178.716C105.033 176.734 102.818 174.699 100.613 172.652C100.382 172.437 100.213 172.034 100.213 171.718C100.19 163.893 100.206 156.071 100.182 148.246C100.18 147.313 100.631 146.994 101.445 146.945C102.191 146.901 102.951 147.486 103.026 148.171C103.055 148.436 103.035 148.705 103.035 148.972C103.035 155.794 103.047 162.615 103.018 169.434C103.014 170.203 103.229 170.765 103.797 171.275C104.859 172.225 105.879 173.227 107.132 174.409C107.132 173.769 107.132 173.388 107.132 173.006C107.132 150.606 107.132 128.203 107.132 105.803C107.132 105.436 106.991 104.965 107.166 104.72C107.563 104.167 108.117 103.727 108.607 103.241C109.059 103.729 109.565 104.177 109.937 104.718C110.095 104.946 109.972 105.368 109.972 105.703C109.972 128.807 109.972 151.909 109.972 175.013V176.387V176.389Z" fill="url(#paint3_linear_5016_55)"/>
<path d="M17.5438 131.892C16.2278 131.678 14.9016 131.503 13.5959 131.236C12.5047 131.011 11.7752 130.024 11.7445 128.897C11.7077 127.587 12.5966 126.172 13.8635 125.838C17.6827 124.832 21.5203 123.896 25.3537 122.944C34.9762 120.552 44.1451 116.91 53.2097 112.96C59.7998 110.087 65.9464 106.406 72.1318 102.793C75.5116 100.817 78.8097 98.6981 82.1507 96.6589C82.631 96.3653 83.1377 96.0308 83.671 95.937C84.0552 95.8698 84.6846 96.0574 84.8726 96.3449C85.0647 96.6365 84.9931 97.2951 84.7765 97.6133C84.4516 98.0904 83.9326 98.4656 83.434 98.7878C70.4603 107.147 57.0146 114.569 42.5144 120.034C34.0853 123.209 25.4232 125.467 16.6733 127.477C15.8906 127.657 15.1019 127.836 14.3478 128.105C14.0618 128.207 13.6755 128.568 13.6796 128.807C13.6837 129.06 14.0495 129.433 14.3356 129.537C16.0214 130.143 17.7665 130.092 19.4911 129.753C30.2722 127.632 40.7898 124.641 50.731 119.9C56.4996 117.149 62.162 114.176 67.8835 111.323C68.4087 111.062 69.0013 110.819 69.5735 110.793C70.5236 110.748 70.9385 111.594 70.3888 112.375C70.1681 112.689 69.8309 112.964 69.4876 113.146C61.1852 117.495 52.8705 121.804 44.096 125.185C36.1778 128.236 28.004 130.21 19.6689 131.621C19.4053 131.666 19.1376 131.694 18.8699 131.713C18.4347 131.741 17.9994 131.756 17.5642 131.774C17.556 131.815 17.5499 131.855 17.5417 131.894L17.5438 131.892Z" fill="url(#paint4_linear_5016_55)"/>
<path d="M58.6655 83.7364C56.3483 83.922 55.018 82.7331 53.7776 81.2772C49.4027 76.1404 45.841 70.4327 42.1158 64.8392C41.2678 63.5667 41.2371 62.2739 42.3059 60.7486C41.7643 60.9301 41.4987 60.9953 41.2535 61.1075C38.6951 62.2719 36.1592 63.4872 33.5763 64.5925C32.573 65.0207 31.4818 65.3164 30.4009 65.4795C28.3636 65.7874 26.6716 65.0023 25.5232 63.3343C24.618 62.019 23.8782 60.5834 23.1487 59.158C22.7278 58.3342 22.9097 57.5491 23.6759 56.9251C27.256 54.0152 30.8586 51.1297 34.3896 48.1627C37.0788 45.9032 39.7271 43.5867 42.2977 41.1927C44.3922 39.2412 46.877 39.1678 49.4497 39.4084C51.3153 39.5817 53.1667 39.8998 55.0221 40.169C55.676 40.2628 56.3524 41.1315 56.1705 41.7718C55.9743 42.457 55.5309 42.8261 54.6727 42.6976C52.3248 42.3469 49.9667 42.0634 47.6045 41.8248C46.17 41.6801 44.9807 42.2082 43.865 43.1768C38.4806 47.8486 33.043 52.4572 27.6177 57.078C26.9822 57.6184 26.2977 58.0997 25.5273 58.6951C26.2098 60.0716 26.7799 61.5826 28.0591 62.5329C28.6537 62.9754 29.6775 63.2507 30.3682 63.0712C32.0703 62.6287 33.7194 61.9415 35.3419 61.24C38.0126 60.0838 40.6446 58.8379 43.2949 57.6327C43.5687 57.5083 43.8589 57.3125 44.1347 57.3227C44.6354 57.3411 45.2974 57.3288 45.5856 57.6245C45.8737 57.9223 45.9799 58.6543 45.8226 59.0683C45.4221 60.1246 44.8724 61.1299 44.3043 62.1128C43.9569 62.7144 43.961 63.1997 44.3432 63.7686C47.9988 69.2072 51.4992 74.7517 55.7639 79.7641C56.8591 81.0508 58.0014 81.5769 59.6178 81.0997C60.0305 80.9774 60.4719 80.906 60.9031 80.8958C62.0249 80.8652 62.6216 81.6728 62.1455 82.6801C61.7491 83.5182 61.2178 84.3054 60.6722 85.0619C58.4428 88.1554 56.2175 91.2509 53.9207 94.2954C53.3077 95.109 53.3322 95.7677 53.8144 96.5711C55.5493 99.4566 56.3891 99.6952 59.2356 97.9455C60.6027 97.1054 61.9473 96.2183 63.2448 95.2721C64.007 94.7155 64.5751 94.9724 65.0839 95.5209C65.5028 95.9757 65.2535 96.9198 64.6405 97.3154C62.7585 98.5308 60.9092 99.8114 58.9557 100.902C56.6834 102.171 55.2714 101.914 53.4916 100.005C52.6803 99.1344 51.957 98.1433 51.3828 97.1033C50.6246 95.735 50.7861 94.3892 51.7833 93.0882C53.8594 90.3822 55.8538 87.6129 57.8788 84.8661C58.0954 84.5745 58.2957 84.2727 58.6737 83.7344L58.6655 83.7364Z" fill="url(#paint5_linear_5016_55)"/>
<path d="M25.3782 88.3552C24.9225 88.5652 24.432 88.7222 24.0193 88.9975C23.4941 89.3483 23.0834 89.905 22.5255 90.168C21.9983 90.4168 21.2239 90.6452 20.7845 90.427C20.3534 90.2129 19.9508 89.4095 19.9815 88.8915C20.1756 85.6451 21.4527 82.8127 23.6269 80.4023C25.0655 78.8077 26.8862 77.7555 28.8479 76.9173C30.1393 76.3647 31.4083 75.7611 32.6793 75.1636C32.9572 75.0331 33.2024 74.8272 33.4619 74.6559C33.4313 74.558 33.3986 74.4622 33.368 74.3643C33.09 74.3928 32.8081 74.4051 32.5322 74.452C31.1835 74.6865 29.8451 74.9883 28.4882 75.1514C27.2397 75.3023 26.6696 74.5152 27.1784 73.3467C28.1245 71.1709 29.7511 69.6191 32.052 69.046C37.4916 67.692 43.2295 68.8564 46.8423 74.2256C48.9143 77.3068 50.3488 80.6858 50.1343 84.4562C50.028 86.316 49.3598 88.1574 48.8244 89.9702C48.6221 90.6554 48.097 91.3732 47.1631 90.9144C46.3171 90.4984 46.4091 89.7643 46.7115 89.0139C48.9123 83.5529 47.2959 76.846 42.7595 73.1C39.6249 70.5102 35.9978 70.2492 32.2257 71.3646C31.5023 71.5787 30.8913 72.1762 30.2292 72.5963C30.2681 72.6982 30.3069 72.8002 30.3457 72.9042C30.7319 72.8145 31.114 72.7125 31.5043 72.6412C32.6201 72.4352 33.7296 72.1721 34.8535 72.0661C35.7567 71.9805 36.6436 72.2619 37.0318 73.1815C37.4425 74.1542 37.0073 75.0209 36.2144 75.5511C34.7473 76.5319 33.2208 77.4353 31.6658 78.2734C30.5215 78.8892 29.2586 79.2869 28.1041 79.8925C25.3087 81.3587 23.631 83.7242 22.7115 86.8645C23.2387 86.6443 23.6351 86.4404 24.0561 86.3078C25.1963 85.9449 26.3263 85.8674 27.2336 86.8217C28.1633 87.8005 28.1184 88.9955 27.5851 90.0946C27.1866 90.9185 26.6001 91.6974 25.9421 92.3398C23.9437 94.2913 21.6734 95.8676 18.8004 96.9708C21.0992 97.8436 23.1631 97.7967 25.0287 96.62C26.3713 95.7738 27.4992 94.587 28.7192 93.549C29.5835 92.8129 30.3989 92.0094 31.3143 91.3406C32.3401 90.5902 33.5253 90.2129 34.8208 90.4494C37.2035 90.8838 38.2354 93.2391 36.9235 95.2681C36.568 95.8207 36.1143 96.3101 35.5626 97.0116C38.1802 96.5018 40.4423 95.7452 42.4183 94.2179C42.7922 93.9283 43.4277 93.6632 43.8282 93.7794C44.8908 94.0874 44.995 95.111 44.1286 95.8635C42.0995 97.6254 39.6719 98.5695 37.0952 99.1262C35.628 99.4423 34.1179 99.5769 32.6201 99.7441C31.8517 99.8297 31.1059 99.6952 30.8034 98.8407C30.5112 98.0189 31.065 97.5438 31.6167 97.0707C32.6323 96.2041 33.6724 95.3598 34.6104 94.4157C34.8944 94.1302 34.876 93.5429 34.9966 93.0943C34.5 93.0025 33.9095 92.6926 33.5294 92.8598C32.7222 93.2166 31.9682 93.757 31.2918 94.3362C30.0739 95.3802 28.9685 96.5568 27.7424 97.5927C24.0356 100.725 18.876 100.753 14.6767 96.9953C14.3396 96.6935 14.1352 95.9369 14.266 95.5148C14.3763 95.1579 15.0936 94.7236 15.4941 94.7664C19.536 95.1926 22.1066 92.6722 24.7161 90.2578C25.1534 89.854 25.3577 89.1974 25.6683 88.657C25.5682 88.553 25.4681 88.447 25.3679 88.343L25.3782 88.3552Z" fill="url(#paint6_linear_5016_55)"/>
<path d="M44.3431 177.923C44.3431 177.499 44.3431 177.14 44.3431 176.781C44.3431 164.58 44.3431 152.378 44.3431 140.177C44.3431 139.18 44.2573 138.173 44.3656 137.188C44.4085 136.796 44.7988 136.276 45.1605 136.125C45.7265 135.889 46.3109 136.058 46.6971 136.694C47.1732 137.479 47.1937 138.295 47.1896 139.18C47.1569 145.33 47.1712 151.483 47.1732 157.633C47.1732 164.921 47.1773 172.207 47.1773 179.495C47.1773 180.708 46.9832 180.922 45.798 180.922C36.8866 180.927 27.9773 180.933 19.0659 180.902C18.5878 180.902 18.0381 180.659 17.6478 180.366C16.8754 179.783 16.1704 179.108 15.4777 178.428C14.4825 177.454 14.8544 175.869 16.1806 175.51C16.5321 175.415 16.9612 175.602 17.4475 175.674C17.4475 175.38 17.4475 175.021 17.4475 174.662C17.4475 168.177 17.4475 161.691 17.4496 155.206C17.4496 153.813 18.1423 153.177 19.401 153.302C20.0631 153.367 20.3124 153.63 20.3022 154.311C20.2675 156.784 20.2879 159.258 20.2879 161.732C20.2879 166.746 20.2879 171.76 20.2879 176.775C20.2879 177.136 20.2879 177.495 20.2879 177.927H44.3411L44.3431 177.923Z" fill="url(#paint7_linear_5016_55)"/>
<path d="M157.727 29.7223C155.307 27.3018 152.919 24.9159 150.538 22.5219C150.256 22.2385 149.978 21.9346 149.778 21.5941C149.206 20.6316 149.437 19.7017 150.473 19.2715C152.326 18.5027 154.218 17.8216 156.108 17.1487C156.764 16.9141 157.418 17.1956 157.547 17.8461C157.676 18.5006 157.86 19.3632 156.895 19.718C155.583 20.1993 154.271 20.6724 152.571 21.2903C153.182 21.7511 153.613 22.0162 153.971 22.3568C155.861 24.1574 157.751 25.958 159.609 27.7933C160.976 29.1432 160.953 29.7284 159.695 31.1763C150.887 41.307 141.743 51.1216 132.174 60.5407C121.127 71.4137 109.128 81.1488 96.6263 90.2864C95.8968 90.8187 95.1407 91.3162 94.3826 91.8097C94.0761 92.0095 93.7349 92.2828 93.4059 92.2889C92.9114 92.295 92.2043 92.2481 91.9816 91.9402C91.7711 91.6466 91.9816 90.9573 92.1676 90.5046C92.2902 90.2008 92.6641 89.9744 92.9624 89.7664C113.219 75.7368 131.16 59.1275 147.685 40.9338C149.373 39.0761 151.11 37.2633 152.786 35.3954C154.437 33.554 156.037 31.6677 157.729 29.7244L157.727 29.7223Z" fill="url(#paint8_linear_5016_55)"/>
<path d="M107.134 11.6897C107.557 11.9813 107.9 12.12 108.106 12.3728C112.745 18.003 117.406 23.6129 121.969 29.3022C123.364 31.0417 124.515 32.985 125.686 34.8917C125.89 35.2261 125.765 35.899 125.573 36.3171C122.328 43.3706 116.999 48.6562 111.071 53.485C103.707 59.4844 95.7169 64.5803 87.815 69.8047C86.168 70.8937 84.4862 71.9357 82.874 73.0736C82.4592 73.3672 82.0934 73.8974 81.9544 74.3888C80.9123 78.0839 79.9294 81.7972 78.9322 85.5045C78.4418 87.3296 77.4058 88.6897 75.7608 89.6869C74.0464 90.7269 72.4586 91.9749 70.781 93.0781C69.7634 93.7469 69.0277 93.4308 68.8418 92.2359C68.7887 91.8953 69.0543 91.3509 69.3485 91.1347C71.2122 89.7705 73.1085 88.4491 75.0293 87.1685C75.7996 86.6546 76.3085 86.0163 76.5475 85.1395C77.5039 81.628 78.5624 78.141 79.3736 74.5968C79.7925 72.7595 80.6773 71.5095 82.2323 70.4919C88.5077 66.3829 94.8444 62.3576 100.936 57.9896C105.687 54.5821 110.17 50.7872 114.653 47.0249C118.24 44.015 120.81 40.1752 122.935 36.0275C123.23 35.4524 123.064 35.0997 122.735 34.6877C118.734 29.6652 114.731 24.6406 110.736 19.614C109.279 17.7808 107.8 15.9639 106.412 14.0796C106.138 13.7065 106.126 13.0335 106.218 12.54C106.273 12.2403 106.76 12.0221 107.136 11.6938L107.134 11.6897Z" fill="url(#paint9_linear_5016_55)"/>
<path d="M161.521 36.57C161.258 37.0309 161.06 37.4897 160.765 37.8771C152.565 48.7093 143.566 58.8237 133.347 67.8023C125.353 74.8273 117.302 81.7932 109.148 88.6347C102.05 94.5933 94.0782 99.3079 86.1088 103.994C83.34 105.623 80.4976 107.126 77.6756 108.666C77.0912 108.984 76.4597 109.22 75.8365 109.463C75.2051 109.708 74.5941 109.651 74.3039 108.968C74.0076 108.272 74.4265 107.842 75.0334 107.542C84.3249 102.936 93.1709 97.5481 101.58 91.5284C107.338 87.4071 112.704 82.7231 118.113 78.137C126.436 71.0793 134.769 64.0176 142.256 56.0525C148.078 49.8594 153.81 43.5787 158.834 36.6985C159.106 36.3253 159.421 35.9154 159.813 35.7197C160.152 35.5524 160.665 35.5647 161.035 35.6931C161.254 35.7686 161.34 36.2213 161.521 36.57Z" fill="url(#paint10_linear_5016_55)"/>
<path d="M20.2901 139.268C20.2901 141.24 20.2901 143.073 20.2901 144.906C20.2901 146.244 20.2942 147.582 20.2901 148.917C20.2881 149.531 20.4699 150.212 19.4114 150.192C18.0873 150.167 17.4927 149.853 17.462 148.862C17.4252 147.627 17.4518 146.389 17.4498 145.151C17.4498 143.697 17.4498 142.243 17.4498 140.569C16.0194 141.601 14.7626 142.465 13.5693 143.412C13.3609 143.577 13.3629 144.08 13.3629 144.427C13.3527 152.017 13.3547 159.607 13.3527 167.195C13.3527 168.999 13.322 170.804 13.3486 172.609C13.3609 173.435 13.0584 174 12.3391 174.409C11.4748 174.901 10.592 174.456 10.5205 173.443C10.5062 173.243 10.5164 173.041 10.5164 172.841C10.5164 162.912 10.5246 152.982 10.5042 143.053C10.5042 142.292 10.6738 141.752 11.3072 141.26C13.367 139.659 15.3593 137.971 17.4211 136.374C17.8053 136.077 18.3959 135.916 18.8924 135.913C25.8278 135.899 32.7611 135.922 39.6965 135.94C41.2924 135.944 41.9566 136.815 41.6214 138.324C41.4437 139.119 41.0043 139.284 40.2605 139.28C34.0628 139.258 27.8651 139.266 21.6674 139.266C21.2689 139.266 20.8704 139.266 20.2962 139.266L20.2901 139.268Z" fill="url(#paint11_linear_5016_55)"/>
<path d="M181.494 145.842C181.494 155.871 181.494 165.9 181.494 175.928C181.494 176.654 180.879 177.274 180.076 177.25C179.309 177.227 178.698 176.911 178.682 176.008C178.666 175.241 178.668 174.472 178.668 173.704C178.668 154.448 178.668 135.191 178.668 115.937C178.668 114.302 179.534 113.743 180.948 114.532C181.232 114.691 181.465 115.201 181.473 115.554C181.52 117.893 181.498 120.234 181.498 122.573C181.498 130.328 181.498 138.085 181.498 145.84L181.494 145.842Z" fill="url(#paint12_linear_5016_55)"/>
<path d="M102.501 13.1823C102.323 13.8777 101.686 14.2529 100.897 14.5547C98.1201 15.6192 95.2388 16.496 92.6192 17.8643C81.2965 23.7759 71.1387 31.3047 62.121 40.3485C61.649 40.8216 61.2403 41.4129 60.6763 41.727C60.1982 41.9921 59.4401 42.1634 58.9844 41.9656C58.3918 41.7086 58.5266 40.7033 59.1295 40.0671C65.1596 33.7027 71.8682 28.1419 79.1019 23.1968C84.331 19.6241 89.6541 16.2146 95.5515 13.8247C97.3456 13.0967 99.2133 12.5441 101.061 11.9527C101.851 11.6998 102.464 12.1811 102.499 13.1823H102.501Z" fill="url(#paint13_linear_5016_55)"/>
<path d="M92.0144 143.815C92.0144 149.898 92.0144 155.981 92.0144 162.064C92.0144 163.137 91.5219 163.775 90.6841 163.803C89.8238 163.832 89.1842 163.112 89.1863 162.088C89.2026 151.595 89.2128 141.099 89.2455 130.605C89.2496 129.07 89.3477 127.534 89.4172 126.001C89.4315 125.668 89.4601 125.322 89.5684 125.014C89.7911 124.373 90.0752 123.778 90.9498 123.872C91.8264 123.966 91.9919 124.494 91.9899 125.269C91.9715 131.452 91.9796 137.634 91.9796 143.817C91.9919 143.817 92.0042 143.817 92.0164 143.817L92.0144 143.815Z" fill="url(#paint14_linear_5016_55)"/>
<path d="M87.9703 37.0411C87.9805 32.9933 90.8617 29.4022 94.7708 28.5621C98.876 27.6791 102.942 29.6857 104.667 33.4439C106.379 37.1756 105.266 41.5844 101.98 44.0375C101.69 44.2537 101.367 44.4454 101.034 44.582C100.325 44.8716 100.053 44.4148 99.7649 43.8601C99.4502 43.2545 99.771 43.0546 100.208 42.7753C102.681 41.1888 103.837 38.5501 103.292 35.8114C102.746 33.0687 100.689 31.0315 97.932 30.5075C94.3887 29.8325 90.8924 32.1592 90.169 35.6748C89.4252 39.2923 91.6668 42.8059 95.2162 43.6073C95.5922 43.6929 96.1297 43.7663 96.2727 44.0233C96.4873 44.4046 96.5424 44.9858 96.4096 45.4018C96.3483 45.5955 95.6617 45.726 95.2959 45.6648C90.9986 44.945 87.958 41.3417 87.9703 37.0431V37.0411Z" fill="url(#paint15_linear_5016_55)"/>
<path d="M173.486 38.8966C173.89 36.6453 174.266 34.5531 174.644 32.4588C175.272 28.9739 175.899 25.4909 176.526 22.0059C176.545 21.9081 176.555 21.802 176.598 21.7143C176.906 21.0761 177.229 20.4052 178.094 20.5132C178.696 20.5867 179.338 21.6205 179.222 22.3016C178.809 24.7038 178.367 27.1019 177.934 29.5C177.36 32.6872 176.782 35.8765 176.205 39.0638C176.028 40.0508 175.848 40.9929 174.957 41.6964C174.234 42.2674 173.557 42.3897 172.862 41.8697C169.914 39.6694 166.977 37.4528 164.076 35.1934C163.238 34.5409 163.142 33.7007 163.632 33.091C164.133 32.467 164.897 32.4283 165.782 33.089C168.062 34.7896 170.314 36.525 172.58 38.244C172.834 38.4357 173.097 38.6152 173.49 38.8966H173.486Z" fill="url(#paint16_linear_5016_55)"/>
<path d="M113.341 12.33C113.583 12.5808 113.816 12.8398 114.065 13.0825C118.348 17.2567 121.803 22.0998 125.31 26.9021C125.761 27.52 126.381 28.0277 126.769 28.6782C127.045 29.1411 127.184 29.7631 127.151 30.3014C127.133 30.6196 126.703 31.0967 126.387 31.1661C126.068 31.2354 125.531 30.9866 125.306 30.7052C123.226 28.095 121.141 25.4849 119.159 22.7992C116.351 18.9941 113.221 15.4887 109.757 12.2729C108.905 11.4817 109.132 10.4336 110.295 10.1685C111.363 9.92377 112.475 9.83608 113.572 9.77083C115.209 9.67499 116.85 9.65255 118.489 9.61381C119.312 9.59546 119.748 10.0563 119.746 10.8434C119.744 11.6143 119.267 11.9507 118.503 11.9466C116.811 11.9365 115.121 11.9426 113.429 11.9426L113.341 12.328V12.33Z" fill="url(#paint17_linear_5016_55)"/>
<path d="M178.314 11.8712C173.992 13.4556 169.877 14.9646 165.763 16.4696C164.664 16.8733 163.569 17.2893 162.459 17.6645C161.734 17.9092 160.645 17.3974 160.524 16.702C160.389 15.9149 160.818 15.3888 161.572 15.1135C166.853 13.1824 172.129 11.239 177.413 9.31607C178.296 8.99388 179.146 8.7818 180.09 9.38336C180.928 9.91763 181.257 10.562 181.118 11.4633C180.832 13.3109 180.513 15.1563 180.168 16.9936C179.99 17.9419 179.191 17.948 178.508 17.8093C177.822 17.6707 177.323 17.2873 177.523 16.3778C177.836 14.9524 178.036 13.5025 178.316 11.8712H178.314Z" fill="url(#paint18_linear_5016_55)"/>
<path d="M126.481 9.45075C127.451 9.45075 128.424 9.4222 129.395 9.45687C131.244 9.5262 132.644 10.7823 132.607 12.6237C132.576 14.1368 132.323 15.6846 131.912 17.1446C131.264 19.4571 130.414 21.7145 129.63 23.9882C129.274 25.0159 128.461 25.6889 127.893 25.4911C127.335 25.2953 127.051 24.0534 127.349 23.1521C128.169 20.6786 128.988 18.205 129.795 15.7294C129.92 15.3501 129.995 14.9525 130.075 14.561C130.545 12.2404 130.259 11.8896 127.946 11.91C126.573 11.9223 125.199 11.9223 123.826 11.9161C122.856 11.9121 122.349 11.4471 122.402 10.5642C122.457 9.65059 123.058 9.44055 123.871 9.47726C124.74 9.516 125.612 9.48542 126.483 9.48542C126.483 9.47522 126.483 9.46299 126.483 9.45279L126.481 9.45075Z" fill="url(#paint19_linear_5016_55)"/>
<path d="M174.606 119.704C174.424 119.102 174.087 118.501 174.084 117.899C174.05 111.325 174.064 104.748 174.074 98.1741C174.074 97.5909 174.14 96.9241 174.928 96.9689C175.646 97.0097 175.633 97.648 175.633 98.1945C175.629 104.736 175.638 111.278 175.601 117.82C175.597 118.44 175.302 119.058 175.145 119.677C174.965 119.686 174.785 119.696 174.606 119.704Z" fill="url(#paint20_linear_5016_55)"/>
<path d="M90.3612 61.4461C89.9321 61.8478 89.5623 62.3474 89.0657 62.6288C87.7007 63.4078 86.303 64.1338 84.8848 64.8128C80.4016 66.9601 77.6164 70.3594 76.8848 75.3493C76.7316 76.3995 76.3883 77.4252 76.094 78.4509C75.9469 78.9607 75.763 79.4767 75.4974 79.9314C75.3584 80.1679 75.0028 80.276 74.7454 80.4432C74.6595 80.1292 74.4389 79.7805 74.5104 79.5072C74.917 77.9269 75.3952 76.3628 75.8407 74.7926C76.0593 74.0218 76.2882 73.253 76.4639 72.472C77.2384 69.038 79.2429 66.5033 82.2345 64.7476C84.3106 63.5302 86.4481 62.4147 88.5855 61.3074C89.0228 61.0811 89.5847 61.0954 90.0895 60.9995C90.1794 61.1484 90.2693 61.2952 90.3592 61.4441L90.3612 61.4461Z" fill="url(#paint21_linear_5016_55)"/>
<path d="M119.27 34.9671C118.71 36.3537 118.332 37.7241 117.645 38.919C115.064 43.4073 111.288 46.7944 107.197 49.8614C106.989 50.0163 106.723 50.1591 106.474 50.1795C106.247 50.1978 105.936 50.104 105.791 49.9429C105.695 49.8349 105.742 49.4556 105.863 49.321C106.259 48.8764 106.692 48.4543 107.16 48.0852C110.238 45.6463 113.19 43.0566 115.354 39.7592C116.362 38.2237 116.936 36.4088 117.745 34.7387C117.894 34.4328 118.232 34.2167 118.481 33.9597C118.716 34.2615 118.953 34.5633 119.268 34.9671H119.27Z" fill="url(#paint22_linear_5016_55)"/>
<path d="M98.635 27.41C94.9058 26.7003 92.0184 27.8137 89.5275 30.1486C88.283 31.315 87.3655 32.6854 86.8935 34.3432C86.7484 34.851 86.681 35.6504 85.8697 35.3791C85.1055 35.1242 85.457 34.4126 85.5918 33.9007C86.7954 29.3044 92.0021 25.5237 96.8777 25.693C97.4457 25.7134 98.0465 25.6889 98.5635 25.8745C98.9661 26.0192 99.2644 26.4597 99.6077 26.7676C99.2276 27.0184 98.8496 27.2693 98.635 27.41Z" fill="url(#paint23_linear_5016_55)"/>
<path d="M113.004 171.862C112.837 171.365 112.532 170.869 112.526 170.37C112.485 166.569 112.483 162.768 112.537 158.969C112.543 158.599 113.007 158.236 113.258 157.869C113.53 158.226 114.03 158.579 114.034 158.94C114.09 162.739 114.087 166.54 114.043 170.341C114.036 170.847 113.72 171.348 113.546 171.85C113.366 171.854 113.186 171.858 113.004 171.862Z" fill="url(#paint24_linear_5016_55)"/>
<path d="M56.9798 46.9311C56.2891 46.9311 55.5903 47.0046 54.9098 46.9169C52.7254 46.6395 50.5553 46.2378 48.3647 46.0176C46.9732 45.8769 45.6694 46.299 44.4659 47.082C44.1471 47.29 43.5954 47.1391 43.1499 47.1534C43.2991 46.7313 43.3216 46.1624 43.6178 45.9095C44.9236 44.79 46.5645 44.3556 48.2074 44.476C50.7004 44.6554 53.1811 45.0653 55.6475 45.4833C56.1767 45.573 56.6304 46.1175 57.1188 46.454C57.0718 46.613 57.0248 46.7741 56.9778 46.9332L56.9798 46.9311Z" fill="url(#paint25_linear_5016_55)"/>
<path d="M124.482 103.152C123.111 103.152 121.736 103.211 120.371 103.117C119.942 103.088 119.251 102.717 119.182 102.395C119.018 101.653 119.725 101.486 120.306 101.48C123.083 101.443 125.86 101.439 128.635 101.433C128.831 101.433 129.066 101.449 129.215 101.555C129.489 101.751 129.713 102.018 129.957 102.256C129.701 102.487 129.472 102.878 129.188 102.919C128.4 103.037 127.59 103.021 126.789 103.037C126.021 103.052 125.251 103.042 124.48 103.042C124.48 103.078 124.48 103.115 124.48 103.152H124.482Z" fill="url(#paint26_linear_5016_55)"/>
<path d="M156.274 72.7596C156.096 72.2682 155.775 71.7808 155.765 71.2873C155.714 68.5507 155.714 65.8121 155.769 63.0755C155.777 62.7247 156.213 62.3801 156.452 62.0334C156.734 62.3781 157.251 62.7186 157.259 63.0694C157.322 65.806 157.312 68.5426 157.261 71.2792C157.253 71.7624 156.946 72.2417 156.777 72.7229C156.609 72.7351 156.441 72.7453 156.274 72.7576V72.7596Z" fill="url(#paint27_linear_5016_55)"/>
<path d="M44.9664 83.1819C44.9664 83.5326 44.9705 83.5999 44.9664 83.6672C44.9337 84.2545 45.0686 85.06 44.2737 85.115C43.4257 85.1742 43.5156 84.3361 43.4686 83.7671C43.2234 80.8796 42.4612 78.196 40.6037 75.8856C40.4259 75.6634 40.5587 75.1923 40.5465 74.8354C40.9122 74.866 41.3168 74.813 41.6315 74.9558C41.9094 75.0822 42.122 75.4044 42.3038 75.6797C43.8568 78.0472 44.6967 80.6594 44.9664 83.1819Z" fill="url(#paint28_linear_5016_55)"/>
<path d="M171.015 116.741C171.015 115.146 170.982 113.552 171.042 111.959C171.054 111.618 171.399 111.29 171.589 110.958C171.875 111.219 172.351 111.441 172.413 111.747C172.582 112.583 172.629 113.454 172.629 114.31C172.627 116.145 172.566 117.981 172.523 119.816C172.517 120.083 172.558 120.387 172.443 120.605C172.264 120.95 171.969 121.237 171.724 121.549C171.495 121.215 171.091 120.891 171.068 120.542C170.989 119.28 171.038 118.007 171.038 116.741H171.013H171.015Z" fill="url(#paint29_linear_5016_55)"/>
<path d="M55.3818 75.1516C54.9731 75.0089 54.4704 74.9701 54.1741 74.7009C53.4385 74.0321 52.6518 73.349 52.1491 72.5108C50.637 69.9924 49.2495 67.3986 47.8211 64.8312C47.6924 64.6008 47.5657 64.3459 47.5371 64.091C47.5146 63.8932 47.627 63.52 47.721 63.5058C47.9376 63.4752 48.2319 63.5547 48.3974 63.7015C48.5854 63.8687 48.663 64.1563 48.7938 64.3887C50.1159 66.7481 51.3889 69.1401 52.7907 71.4525C53.3139 72.3151 54.1435 72.9921 54.8219 73.7629C55.11 74.0892 55.3695 74.4379 55.6434 74.7764L55.3818 75.1516Z" fill="url(#paint30_linear_5016_55)"/>
<path d="M103.662 116.152C103.662 114.814 103.627 113.476 103.688 112.143C103.703 111.831 104.04 111.533 104.23 111.229C104.436 111.521 104.812 111.804 104.827 112.104C105 115.674 105.123 119.247 105.256 122.82C105.262 122.985 105.286 123.175 105.221 123.315C105.115 123.54 104.941 123.731 104.794 123.935C104.612 123.768 104.357 123.635 104.267 123.43C104.136 123.132 104.091 122.785 104.073 122.457C103.946 120.356 103.836 118.254 103.721 116.152C103.703 116.152 103.682 116.152 103.664 116.152H103.662Z" fill="url(#paint31_linear_5016_55)"/>
<path d="M64.6487 85.9063C64.4627 86.2774 64.3462 86.7097 64.0806 87.0095C61.8226 89.5544 59.536 92.0769 57.2576 94.6055C57.1677 94.7054 57.0839 94.8522 56.9736 94.8808C56.6568 94.9603 56.3278 94.9889 56.0029 95.0358C56.0744 94.6891 56.0356 94.2466 56.2379 94.0121C57.7215 92.2951 59.252 90.6209 60.7662 88.9324C61.5672 88.0372 62.3375 87.1135 63.1794 86.257C63.486 85.9471 63.9559 85.7982 64.3524 85.5759C64.4505 85.686 64.5485 85.7962 64.6446 85.9042L64.6487 85.9063Z" fill="url(#paint32_linear_5016_55)"/>
<path d="M86.3601 163.247C86.3601 164.717 86.3968 166.187 86.3335 167.654C86.3172 168.004 85.9657 168.341 85.7675 168.685C85.5141 168.355 85.0461 168.025 85.0441 167.692C85.0134 164.689 85.0502 161.681 85.1197 158.677C85.1258 158.412 85.4977 158.155 85.7 157.896C85.9187 158.177 86.311 158.451 86.3233 158.74C86.3866 160.241 86.3519 161.744 86.3519 163.247H86.3621H86.3601Z" fill="url(#paint33_linear_5016_55)"/>
<path d="M166.983 18.8799C166.585 19.196 166.231 19.6201 165.778 19.8077C163.467 20.7621 161.133 21.6675 158.793 22.5545C158.483 22.6728 158.043 22.7034 157.755 22.5729C157.216 22.3302 157.318 21.6124 157.97 21.3534C160.449 20.3665 162.939 19.408 165.447 18.4945C165.864 18.3415 166.385 18.4721 166.859 18.4721C166.902 18.6066 166.943 18.7412 166.985 18.8779L166.983 18.8799Z" fill="url(#paint34_linear_5016_55)"/>
<path d="M96.6713 32.3263C96.8675 32.5016 97.1556 32.7626 97.4437 33.0216C97.1801 33.3051 96.9655 33.7455 96.6468 33.8434C94.3765 34.5367 93.8697 35.695 94.9099 37.8015C95.0692 38.1237 94.8853 38.6151 94.8608 39.0291C94.4583 38.8904 93.9106 38.8741 93.6777 38.5947C92.703 37.4222 92.5088 36.0682 93.1505 34.6673C93.7901 33.2724 94.9814 32.6117 96.6713 32.3242V32.3263Z" fill="url(#paint35_linear_5016_55)"/>
<path d="M117.279 34.0311C117.036 34.6408 116.928 35.2383 116.603 35.6767C115.252 37.4977 113.863 39.2922 112.42 41.0398C112.205 41.2988 111.627 41.256 111.216 41.3539C111.304 40.9338 111.267 40.422 111.502 40.114C112.228 39.1576 113.133 38.3297 113.826 37.353C114.594 36.2701 115.185 35.0609 115.904 33.9414C116.069 33.6844 116.433 33.4826 116.74 33.4234C116.87 33.399 117.085 33.8007 117.279 34.0311Z" fill="url(#paint36_linear_5016_55)"/>
<path d="M24.4974 169.674C24.3728 171.489 25.088 172.784 26.8351 173.447C26.9904 173.506 27.1906 173.565 27.2663 173.688C27.4583 173.995 27.5932 174.342 27.7505 174.672C27.397 174.787 27.017 175.046 26.692 174.991C24.6691 174.646 23.0609 172.698 23.0588 170.645C23.0588 170.147 23.0834 169.627 23.2305 169.16C23.3306 168.838 23.6637 168.59 23.8926 168.308C24.103 168.63 24.3278 168.944 24.5138 169.281C24.5689 169.381 24.5076 169.542 24.4995 169.674H24.4974Z" fill="url(#paint37_linear_5016_55)"/>
<path d="M37.136 141.097C37.749 141.152 38.5541 141.093 39.2652 141.325C39.9641 141.554 40.6159 142.021 41.1779 142.508C41.3781 142.681 41.2575 143.224 41.2821 143.597C40.9388 143.585 40.4627 143.717 40.2747 143.54C38.9301 142.288 37.3117 142.498 35.7096 142.577C35.4093 142.592 35.0803 142.72 34.8167 142.635C34.4529 142.516 34.1403 142.247 33.8052 142.041C34.0953 141.79 34.3528 141.387 34.6818 141.317C35.4277 141.16 36.2103 141.166 37.136 141.095V141.097Z" fill="url(#paint38_linear_5016_55)"/>
<path d="M66.2609 132.059C66.2037 129.947 68.7968 127.481 70.6727 127.64C70.9486 127.663 71.4165 127.942 71.4185 128.107C71.4226 128.399 71.1774 128.731 70.9547 128.97C70.8178 129.117 70.5297 129.141 70.3028 129.188C68.8357 129.486 68.0101 130.395 67.6157 131.813C67.5258 132.135 67.0865 132.359 66.8086 132.626C66.5818 132.392 66.3549 132.155 66.2609 132.059Z" fill="url(#paint39_linear_5016_55)"/>
<path d="M172.296 35.3995C171.855 35.2139 171.344 35.114 170.987 34.8244C169.454 33.5846 167.946 32.3121 166.479 30.9969C166.229 30.7726 166.215 30.2852 166.093 29.9202C166.452 29.9793 166.904 29.9202 167.155 30.118C168.786 31.3965 170.386 32.7139 171.959 34.0618C172.249 34.3106 172.378 34.7469 172.58 35.0956C172.486 35.1976 172.392 35.2975 172.298 35.3995H172.296Z" fill="url(#paint40_linear_5016_55)"/>
<path d="M150.146 150.123C150.146 151.02 150.189 151.919 150.119 152.812C150.099 153.075 149.768 153.314 149.578 153.565C149.343 153.322 148.938 153.1 148.905 152.831C148.777 151.811 148.766 150.777 148.717 149.747C148.683 149.015 148.599 148.277 148.658 147.553C148.687 147.198 148.993 146.866 149.175 146.523C149.465 146.825 149.945 147.094 150.007 147.435C150.16 148.314 150.129 149.225 150.17 150.123C150.162 150.123 150.152 150.123 150.144 150.123H150.146Z" fill="url(#paint41_linear_5016_55)"/>
<path d="M50.1383 46.5007C51.3153 46.7291 52.5148 46.8841 53.6571 47.2287C54.0351 47.3429 54.2661 47.9445 54.5644 48.3238C54.1251 48.4461 53.6755 48.699 53.2484 48.6664C51.9897 48.5685 50.7432 48.338 49.4865 48.2014C48.9102 48.1402 48.2134 48.2014 48.2298 47.4163C48.2441 46.6618 48.9327 46.6496 49.513 46.6272C49.7133 46.619 49.9136 46.6272 50.1159 46.6272C50.124 46.5864 50.1322 46.5436 50.1404 46.5028L50.1383 46.5007Z" fill="url(#paint42_linear_5016_55)"/>
<path d="M42.2671 159.843C42.2671 160.777 42.3141 161.715 42.2406 162.643C42.216 162.947 41.885 163.226 41.695 163.516C41.4804 163.222 41.0922 162.937 41.0758 162.633C40.9798 160.802 40.9389 158.964 40.9655 157.131C40.9696 156.874 41.4416 156.623 41.697 156.371C41.9136 156.626 42.2937 156.868 42.3182 157.141C42.3979 158.035 42.3489 158.942 42.3489 159.843H42.2671Z" fill="url(#paint43_linear_5016_55)"/>
<path d="M81.9056 166.934C81.9056 166.065 81.8565 165.192 81.9342 164.332C81.9587 164.062 82.3265 163.824 82.537 163.573C82.7679 163.81 83.1909 164.038 83.2011 164.285C83.2808 166.051 83.3135 167.823 83.2665 169.589C83.2583 169.892 82.7904 170.184 82.537 170.482C82.302 170.166 81.8994 169.868 81.8626 169.529C81.7646 168.673 81.8299 167.8 81.8299 166.934C81.8565 166.934 81.881 166.934 81.9076 166.934H81.9056Z" fill="url(#paint44_linear_5016_55)"/>
<path d="M127.991 105.648C127.321 105.648 126.638 105.725 125.986 105.615C125.641 105.556 125.353 105.17 125.038 104.932C125.312 104.646 125.571 104.128 125.86 104.112C127.327 104.027 128.806 104.029 130.275 104.102C130.561 104.116 130.827 104.577 131.101 104.832C130.801 105.091 130.529 105.521 130.196 105.574C129.476 105.688 128.726 105.609 127.991 105.609C127.991 105.621 127.991 105.635 127.991 105.648Z" fill="url(#paint45_linear_5016_55)"/>
<path d="M38.3027 163.041C38.3027 162.305 38.2435 161.562 38.3314 160.838C38.3702 160.522 38.7094 160.243 38.9137 159.947C39.161 160.206 39.6105 160.457 39.6208 160.726C39.6861 162.294 39.6821 163.869 39.6105 165.435C39.5983 165.714 39.163 165.973 38.9219 166.242C38.7155 165.945 38.3681 165.663 38.3334 165.345C38.2455 164.586 38.3048 163.81 38.3027 163.041Z" fill="url(#paint46_linear_5016_55)"/>
<path d="M149.095 161.699C149.095 160.598 149.053 159.493 149.122 158.396C149.142 158.086 149.494 157.796 149.694 157.496C149.843 157.792 150.125 158.092 150.121 158.385C150.078 160.588 149.997 162.79 149.878 164.988C149.864 165.253 149.572 165.502 149.41 165.759C149.249 165.506 148.959 165.26 148.946 165.001C148.893 163.901 148.924 162.798 148.924 161.697C148.981 161.697 149.036 161.697 149.093 161.697L149.095 161.699Z" fill="url(#paint47_linear_5016_55)"/>
<path d="M105.697 130.63C105.624 131.121 105.595 131.625 105.452 132.094C105.391 132.296 105.086 132.553 104.894 132.553C104.7 132.553 104.344 132.267 104.338 132.098C104.279 130.506 104.263 128.911 104.287 127.318C104.289 127.176 104.769 126.878 104.853 126.931C105.1 127.084 105.399 127.361 105.427 127.62C105.542 128.615 105.56 129.621 105.615 130.622C105.642 130.626 105.668 130.628 105.697 130.632V130.63Z" fill="url(#paint48_linear_5016_55)"/>
<path d="M61.8452 92.3704C61.6818 92.6477 61.5755 92.9414 61.3752 93.1453C60.5579 93.9793 59.7425 94.8194 58.8598 95.5821C58.6391 95.7738 58.1732 95.682 57.8197 95.7208C57.834 95.3904 57.7114 94.9377 57.883 94.7481C58.7331 93.81 59.6404 92.921 60.5763 92.0686C60.7765 91.8871 61.1811 91.881 61.4897 91.8891C61.6021 91.8932 61.7083 92.1746 61.8452 92.3704Z" fill="url(#paint49_linear_5016_55)"/>
<path d="M90.874 36.5884C91.0763 35.9501 91.1703 35.4525 91.3992 35.0263C91.4993 34.8408 91.8937 34.7021 92.1266 34.7368C92.2779 34.7592 92.5169 35.1589 92.4781 35.3383C92.2206 36.5272 92.6028 37.5529 93.1014 38.597C93.2403 38.8886 93.0135 39.3535 92.9542 39.7389C92.5885 39.586 92.0286 39.5289 91.8957 39.2597C91.4605 38.3808 91.1826 37.4265 90.874 36.5843V36.5884Z" fill="url(#paint50_linear_5016_55)"/>
<path d="M158.371 63.0714C158.371 62.5738 158.285 62.0538 158.401 61.5848C158.479 61.2667 158.838 61.0179 159.071 60.7385C159.331 60.9914 159.793 61.23 159.813 61.5012C159.893 62.5881 159.881 63.6892 159.801 64.7782C159.781 65.0494 159.386 65.292 159.163 65.5469C158.908 65.2859 158.499 65.0596 158.432 64.7557C158.311 64.2194 158.397 63.6362 158.397 63.0714C158.389 63.0714 158.379 63.0714 158.371 63.0714Z" fill="url(#paint51_linear_5016_55)"/>
<path d="M120.812 14.7608C120.281 14.7608 119.735 14.8261 119.214 14.7363C118.922 14.6854 118.673 14.3815 118.405 14.1898C118.626 13.9737 118.832 13.5903 119.069 13.572C120.5 13.4557 121.938 13.3945 123.375 13.3884C123.618 13.3884 123.863 13.7371 124.108 13.9268C123.877 14.1246 123.667 14.4508 123.409 14.4957C122.555 14.6405 121.685 14.6813 120.81 14.7628L120.812 14.7608Z" fill="url(#paint52_linear_5016_55)"/>
<path d="M160.453 163.328C160.161 163.436 159.65 163.75 159.539 163.646C158.593 162.749 157.704 161.787 156.846 160.806C156.758 160.706 156.903 160.235 157.067 160.127C157.277 159.988 157.751 159.911 157.874 160.037C158.726 160.916 159.521 161.854 160.324 162.782C160.381 162.847 160.371 162.971 160.451 163.33L160.453 163.328Z" fill="url(#paint53_linear_5016_55)"/>
<path d="M42.6982 81.9156C42.4081 82.2908 42.2119 82.7761 41.9524 82.8149C41.6929 82.8536 41.2249 82.5029 41.0941 82.2133C40.6855 81.3038 40.3585 80.3535 40.0786 79.3972C40.005 79.1463 40.1562 78.5998 40.2993 78.5631C40.5853 78.4897 41.1248 78.5754 41.2331 78.7732C41.7664 79.7581 42.1935 80.8022 42.7003 81.9156H42.6982Z" fill="url(#paint54_linear_5016_55)"/>
<path d="M29.512 87.0868C29.4364 87.1928 29.2075 87.7108 29.0522 87.6904C28.7293 87.6476 28.2757 87.3764 28.1776 87.0929C27.8445 86.1426 27.397 85.3514 26.4775 84.8396C26.265 84.7213 26.22 84.3053 26.0974 84.026C26.4121 83.9179 26.7534 83.6691 27.0374 83.7242C28.1981 83.9485 29.5099 85.6532 29.514 87.0868H29.512Z" fill="url(#paint55_linear_5016_55)"/>
<path d="M125.79 14.6262C125.923 14.7282 126.227 14.9606 126.532 15.1931C126.225 15.4317 125.943 15.8232 125.604 15.8803C124.527 16.0618 123.428 16.1699 122.337 16.1984C121.952 16.2086 121.56 15.9068 121.172 15.7478C121.493 15.4908 121.783 15.0687 122.136 15.0076C123.246 14.8159 124.378 14.7628 125.79 14.6262Z" fill="url(#paint56_linear_5016_55)"/>
<path d="M56.8716 73.2857C56.5364 73.3897 56.1788 73.6263 55.8744 73.5712C55.0938 73.4264 53.314 71.2404 53.2792 70.4553C53.2711 70.2575 53.3834 69.9761 53.5367 69.8762C53.6859 69.7783 54.0537 69.7742 54.1559 69.8843C55.0284 70.8203 55.8662 71.793 56.706 72.7596C56.7653 72.8269 56.7674 72.9452 56.8716 73.2877V73.2857Z" fill="url(#paint57_linear_5016_55)"/>
<path d="M124.797 22.52C125.246 21.2414 125.655 20.0179 126.125 18.8168C126.19 18.6516 126.634 18.464 126.767 18.5354C126.971 18.6455 127.22 19.0166 127.171 19.2001C126.842 20.4135 126.462 21.6145 126.033 22.7973C125.962 22.9951 125.547 23.2051 125.328 23.1705C125.136 23.1399 124.993 22.7769 124.799 22.52H124.797Z" fill="url(#paint58_linear_5016_55)"/>
<path d="M159.319 165.035C158.934 165.143 158.428 165.451 158.231 165.314C157.451 164.768 156.744 164.109 156.072 163.43C155.949 163.306 156.027 162.841 156.168 162.641C156.278 162.486 156.732 162.366 156.854 162.46C157.637 163.067 158.374 163.732 159.112 164.395C159.196 164.47 159.196 164.639 159.319 165.035Z" fill="url(#paint59_linear_5016_55)"/>
<path d="M116.331 167.425C116.331 168.086 116.419 168.514 116.302 168.877C116.21 169.164 115.9 169.493 115.622 169.564C115.456 169.607 115.003 169.215 114.97 168.979C114.856 168.159 114.813 167.317 114.868 166.493C114.884 166.242 115.311 165.824 115.538 165.832C115.787 165.841 116.129 166.212 116.239 166.497C116.376 166.854 116.321 167.286 116.329 167.425H116.331Z" fill="url(#paint60_linear_5016_55)"/>
<path d="M14.9568 149.248C14.8219 149.046 14.5829 148.848 14.5563 148.624C14.3928 147.27 14.2641 145.909 14.168 144.549C14.1578 144.396 14.3969 144.154 14.5747 144.084C14.6912 144.04 15.0385 144.221 15.0467 144.321C15.1775 145.92 15.7905 147.508 15.2041 149.127C15.1877 149.17 15.0937 149.184 14.9568 149.25V149.248Z" fill="url(#paint61_linear_5016_55)"/>
<path d="M59.6812 167.272C59.5729 166.991 59.3992 166.718 59.3686 166.428C59.25 165.274 59.1356 164.116 59.1172 162.955C59.1131 162.651 59.4585 162.343 59.6444 162.038C59.8365 162.331 60.1757 162.617 60.1941 162.921C60.2615 164.044 60.2391 165.176 60.2145 166.304C60.2084 166.616 60.0817 166.924 60.0122 167.233C59.9019 167.246 59.7916 167.258 59.6812 167.27V167.272Z" fill="url(#paint62_linear_5016_55)"/>
<path d="M62.6788 94.2405C62.6461 95.15 60.8479 96.5163 60.2492 96.3164C59.6627 96.1207 59.536 95.6007 59.9284 95.2214C60.4678 94.6973 61.1279 94.267 61.8042 93.9285C62.0147 93.8225 62.4397 94.1467 62.6809 94.2405H62.6788Z" fill="url(#paint63_linear_5016_55)"/>
<path d="M164.762 20.7192C165.065 20.8824 165.488 20.9823 165.52 21.1556C165.567 21.4126 165.42 21.8693 165.214 21.9815C164.581 22.3261 163.89 22.5892 163.195 22.7849C163.007 22.838 162.588 22.5933 162.513 22.3955C162.437 22.1956 162.578 21.749 162.758 21.645C163.383 21.2861 164.07 21.0292 164.762 20.7192Z" fill="url(#paint64_linear_5016_55)"/>
<path d="M70.8219 129.938C70.9465 130.069 71.3021 130.285 71.4063 130.589C71.5534 131.015 70.2987 132.014 69.5795 131.98C69.3118 131.967 68.901 131.586 68.8418 131.311C68.7233 130.77 69.794 129.979 70.8219 129.938Z" fill="url(#paint65_linear_5016_55)"/>
<path d="M38.0045 145.004C37.2689 144.533 36.2962 144.248 36.1716 143.75C35.9836 143.006 36.897 143.13 37.4324 143.134C38.0801 143.14 38.7974 143.21 38.8566 144.029C38.875 144.286 38.3928 144.58 38.0045 145.004Z" fill="url(#paint66_linear_5016_55)"/>
<path d="M28.0756 173.481C27.4442 172.862 26.964 172.391 26.4858 171.921C26.7515 171.693 27.0069 171.287 27.2869 171.269C28.0388 171.218 29.1443 172.009 29.0115 172.441C28.9134 172.762 28.5334 172.996 28.0777 173.484L28.0756 173.481Z" fill="url(#paint67_linear_5016_55)"/>
<path d="M159.979 158.557C159.619 158.807 159.263 159.256 158.896 159.268C158.123 159.293 157.786 158.62 157.827 157.973C157.845 157.68 158.487 157.141 158.703 157.205C159.184 157.343 159.572 157.792 159.999 158.114L159.976 158.559L159.979 158.557Z" fill="url(#paint68_linear_5016_55)"/>
<path d="M84.5988 61.2197C84.6907 61.3421 84.8767 61.5888 85.0626 61.8376C84.4782 62.2638 83.9081 62.7185 83.2869 63.0856C83.2052 63.1345 82.7147 62.7614 82.6575 62.5228C82.537 62.0334 83.6384 61.2238 84.5988 61.2197Z" fill="url(#paint69_linear_5016_55)"/>
<path d="M92.9358 25.4929C92.5945 25.24 92.3105 25.0259 92.0244 24.8139C92.2839 24.5263 92.5067 24.0594 92.8152 23.9921C93.3179 23.8819 93.8819 24.0043 94.405 24.1083C94.4888 24.1246 94.5889 24.7282 94.5133 24.7731C94.0535 25.0422 93.5447 25.2299 92.9358 25.4929Z" fill="url(#paint70_linear_5016_55)"/>
<path d="M115.667 32.4916C114.984 33.1564 114.478 33.6499 113.973 34.1434C113.781 33.9191 113.382 33.5724 113.431 33.4909C113.797 32.8771 114.251 32.3142 114.676 31.7351C114.923 31.9248 115.172 32.1144 115.669 32.4937L115.667 32.4916Z" fill="url(#paint71_linear_5016_55)"/>
<path d="M40.8797 166.636C40.6181 166.253 40.142 165.861 40.1563 165.49C40.1686 165.162 40.6856 164.67 41.0575 164.583C41.6603 164.442 42.1344 164.899 42.0465 165.514C41.9913 165.908 41.5806 166.249 41.3272 166.614C41.178 166.622 41.0268 166.628 40.8777 166.636H40.8797Z" fill="url(#paint72_linear_5016_55)"/>
<path d="M29.6715 83.5061C29.5325 83.5958 29.1566 83.9364 29.0769 83.8772C28.5537 83.4918 28.094 83.0187 27.6138 82.5742C27.8345 82.3744 28.0388 82.0338 28.2799 82.0032C28.9093 81.9257 29.7124 82.7312 29.6715 83.5082V83.5061Z" fill="url(#paint73_linear_5016_55)"/>
<path d="M47.0957 51.2235C46.6625 50.7627 46.1823 50.4894 46.1496 50.1672C46.074 49.4576 46.7258 49.2781 47.2469 49.3862C47.6474 49.4698 47.9784 49.8776 48.3422 50.1407C47.9825 50.4527 47.6229 50.7647 47.0957 51.2235Z" fill="url(#paint74_linear_5016_55)"/>
<path d="M123.303 105.158C122.656 105.548 122.263 105.97 121.908 105.941C121.611 105.917 121.096 105.309 121.15 105.06C121.225 104.708 121.707 104.257 122.065 104.208C122.349 104.169 122.705 104.675 123.301 105.16L123.303 105.158Z" fill="url(#paint75_linear_5016_55)"/>
<path d="M88.0767 59.4213C87.5638 59.8556 87.1817 60.3634 86.9896 60.3002C86.6095 60.1758 86.2254 59.7781 86.068 59.4009C86.0067 59.252 86.5503 58.628 86.818 58.626C87.1612 58.626 87.5066 59.0359 88.0767 59.4213Z" fill="url(#paint76_linear_5016_55)"/>
<path d="M41.041 92.9434C40.4157 93.3043 40.0295 93.704 39.7598 93.6367C39.4124 93.549 39.159 93.0882 38.8647 92.7884C39.161 92.5355 39.4655 92.0686 39.7475 92.0808C40.099 92.0971 40.4321 92.5111 41.041 92.9413V92.9434Z" fill="url(#paint77_linear_5016_55)"/>
<path d="M59.8201 158.92C60.1797 158.467 60.4208 158.163 60.662 157.859C60.8929 158.24 61.2505 158.603 61.3118 159.011C61.3526 159.276 60.9644 159.605 60.7662 159.906C60.4821 159.611 60.1981 159.315 59.8201 158.92Z" fill="url(#paint78_linear_5016_55)"/>
<path d="M86.7546 130.328C86.2049 130.719 85.8779 131.129 85.5878 131.105C85.2792 131.08 85.0054 130.644 84.7173 130.387C85.0034 130.091 85.2506 129.633 85.5878 129.555C85.8371 129.498 86.2008 129.938 86.7546 130.328Z" fill="url(#paint79_linear_5016_55)"/>
<path d="M84.7888 172.837C84.4067 172.25 84.0001 171.901 84.0409 171.618C84.0838 171.314 84.5497 171.071 84.8317 170.8C85.0994 171.081 85.551 171.345 85.5817 171.65C85.6103 171.936 85.1934 172.266 84.7888 172.837Z" fill="url(#paint80_linear_5016_55)"/>
<path d="M97.2884 40.4138C96.7244 40.8033 96.4118 41.1826 96.1032 41.1806C95.8396 41.1806 95.3389 40.6993 95.3716 40.4974C95.4227 40.1752 95.7946 39.7225 96.0909 39.6736C96.3647 39.6267 96.7162 40.0366 97.2904 40.4138H97.2884Z" fill="url(#paint81_linear_5016_55)"/>
<path d="M172.593 32.5282C172.198 31.9837 171.818 31.686 171.834 31.4168C171.853 31.1314 172.253 30.8703 172.486 30.5991C172.748 30.8438 173.175 31.062 173.226 31.3455C173.273 31.6126 172.924 31.9491 172.593 32.5302V32.5282Z" fill="url(#paint82_linear_5016_55)"/>
<path d="M128.68 13.7675C128.161 14.106 127.862 14.4527 127.572 14.4445C127.331 14.4384 127.1 14.0184 126.865 13.7818C127.12 13.5351 127.347 13.1476 127.641 13.0864C127.864 13.0416 128.173 13.4148 128.68 13.7675Z" fill="url(#paint83_linear_5016_55)"/>
<path d="M169.607 20.2094C169.133 20.6071 168.849 21.0129 168.649 20.9762C168.342 20.9191 167.973 20.5928 167.872 20.2992C167.817 20.136 168.234 19.6222 168.473 19.5977C168.753 19.5691 169.07 19.8974 169.609 20.2094H169.607Z" fill="url(#paint84_linear_5016_55)"/>
<path d="M118.965 169.587C118.507 169.848 118.213 170.151 117.947 170.125C117.735 170.104 117.365 169.627 117.416 169.46C117.498 169.197 117.856 168.895 118.129 168.857C118.319 168.83 118.569 169.222 118.963 169.584L118.965 169.587Z" fill="url(#paint85_linear_5016_55)"/>
</g>
<defs>
<linearGradient id="paint0_linear_5016_55" x1="163.14" y1="56.2141" x2="163.14" y2="177.708" gradientUnits="userSpaceOnUse">
<stop stop-color="#5442DD"/>
<stop offset="1" stop-color="#C892F6"/>
</linearGradient>
<linearGradient id="paint1_linear_5016_55" x1="73.6977" y1="122.429" x2="73.6977" y2="180.997" gradientUnits="userSpaceOnUse">
<stop stop-color="#5442DD"/>
<stop offset="1" stop-color="#C892F6"/>
</linearGradient>
<linearGradient id="paint2_linear_5016_55" x1="118.519" y1="95.3838" x2="118.519" y2="173.108" gradientUnits="userSpaceOnUse">
<stop stop-color="#5442DD"/>
<stop offset="1" stop-color="#C892F6"/>
</linearGradient>
<linearGradient id="paint3_linear_5016_55" x1="118.299" y1="103.241" x2="118.299" y2="179.313" gradientUnits="userSpaceOnUse">
<stop stop-color="#5442DD"/>
<stop offset="1" stop-color="#C892F6"/>
</linearGradient>
<linearGradient id="paint4_linear_5016_55" x1="48.3638" y1="95.9233" x2="48.3638" y2="131.894" gradientUnits="userSpaceOnUse">
<stop stop-color="#5442DD"/>
<stop offset="1" stop-color="#C892F6"/>
</linearGradient>
<linearGradient id="paint5_linear_5016_55" x1="44.1095" y1="39.311" x2="44.1095" y2="101.685" gradientUnits="userSpaceOnUse">
<stop stop-color="#5442DD"/>
<stop offset="1" stop-color="#C892F6"/>
</linearGradient>
<linearGradient id="paint6_linear_5016_55" x1="32.1908" y1="68.5291" x2="32.1908" y2="99.8823" gradientUnits="userSpaceOnUse">
<stop stop-color="#5442DD"/>
<stop offset="1" stop-color="#C892F6"/>
</linearGradient>
<linearGradient id="paint7_linear_5016_55" x1="31.0513" y1="136.023" x2="31.0513" y2="180.926" gradientUnits="userSpaceOnUse">
<stop stop-color="#5442DD"/>
<stop offset="1" stop-color="#C892F6"/>
</linearGradient>
<linearGradient id="paint8_linear_5016_55" x1="126.265" y1="17.0669" x2="126.265" y2="92.2894" gradientUnits="userSpaceOnUse">
<stop stop-color="#5442DD"/>
<stop offset="1" stop-color="#C892F6"/>
</linearGradient>
<linearGradient id="paint9_linear_5016_55" x1="97.3129" y1="11.6897" x2="97.3129" y2="93.423" gradientUnits="userSpaceOnUse">
<stop stop-color="#5442DD"/>
<stop offset="1" stop-color="#C892F6"/>
</linearGradient>
<linearGradient id="paint10_linear_5016_55" x1="117.864" y1="35.5955" x2="117.864" y2="109.595" gradientUnits="userSpaceOnUse">
<stop stop-color="#5442DD"/>
<stop offset="1" stop-color="#C892F6"/>
</linearGradient>
<linearGradient id="paint11_linear_5016_55" x1="26.1051" y1="135.909" x2="26.1051" y2="174.61" gradientUnits="userSpaceOnUse">
<stop stop-color="#5442DD"/>
<stop offset="1" stop-color="#C892F6"/>
</linearGradient>
<linearGradient id="paint12_linear_5016_55" x1="180.086" y1="114.179" x2="180.086" y2="177.251" gradientUnits="userSpaceOnUse">
<stop stop-color="#5442DD"/>
<stop offset="1" stop-color="#C892F6"/>
</linearGradient>
<linearGradient id="paint13_linear_5016_55" x1="80.5519" y1="11.8862" x2="80.5519" y2="42.0514" gradientUnits="userSpaceOnUse">
<stop stop-color="#5442DD"/>
<stop offset="1" stop-color="#C892F6"/>
</linearGradient>
<linearGradient id="paint14_linear_5016_55" x1="90.6014" y1="123.862" x2="90.6014" y2="163.804" gradientUnits="userSpaceOnUse">
<stop stop-color="#5442DD"/>
<stop offset="1" stop-color="#C892F6"/>
</linearGradient>
<linearGradient id="paint15_linear_5016_55" x1="96.7174" y1="28.3555" x2="96.7174" y2="45.68" gradientUnits="userSpaceOnUse">
<stop stop-color="#5442DD"/>
<stop offset="1" stop-color="#C892F6"/>
</linearGradient>
<linearGradient id="paint16_linear_5016_55" x1="171.285" y1="20.5017" x2="171.285" y2="42.1996" gradientUnits="userSpaceOnUse">
<stop stop-color="#5442DD"/>
<stop offset="1" stop-color="#C892F6"/>
</linearGradient>
<linearGradient id="paint17_linear_5016_55" x1="118.2" y1="9.61328" x2="118.2" y2="31.1778" gradientUnits="userSpaceOnUse">
<stop stop-color="#5442DD"/>
<stop offset="1" stop-color="#C892F6"/>
</linearGradient>
<linearGradient id="paint18_linear_5016_55" x1="170.824" y1="9.00122" x2="170.824" y2="17.8743" gradientUnits="userSpaceOnUse">
<stop stop-color="#5442DD"/>
<stop offset="1" stop-color="#C892F6"/>
</linearGradient>
<linearGradient id="paint19_linear_5016_55" x1="127.503" y1="9.4397" x2="127.503" y2="25.5256" gradientUnits="userSpaceOnUse">
<stop stop-color="#5442DD"/>
<stop offset="1" stop-color="#C892F6"/>
</linearGradient>
<linearGradient id="paint20_linear_5016_55" x1="174.848" y1="96.9668" x2="174.848" y2="119.704" gradientUnits="userSpaceOnUse">
<stop stop-color="#5442DD"/>
<stop offset="1" stop-color="#C892F6"/>
</linearGradient>
<linearGradient id="paint21_linear_5016_55" x1="82.4288" y1="60.9995" x2="82.4288" y2="80.4432" gradientUnits="userSpaceOnUse">
<stop stop-color="#5442DD"/>
<stop offset="1" stop-color="#C892F6"/>
</linearGradient>
<linearGradient id="paint22_linear_5016_55" x1="112.505" y1="33.9597" x2="112.505" y2="50.1818" gradientUnits="userSpaceOnUse">
<stop stop-color="#5442DD"/>
<stop offset="1" stop-color="#C892F6"/>
</linearGradient>
<linearGradient id="paint23_linear_5016_55" x1="92.5004" y1="25.6875" x2="92.5004" y2="35.4338" gradientUnits="userSpaceOnUse">
<stop stop-color="#5442DD"/>
<stop offset="1" stop-color="#C892F6"/>
</linearGradient>
<linearGradient id="paint24_linear_5016_55" x1="113.286" y1="157.869" x2="113.286" y2="171.862" gradientUnits="userSpaceOnUse">
<stop stop-color="#5442DD"/>
<stop offset="1" stop-color="#C892F6"/>
</linearGradient>
<linearGradient id="paint25_linear_5016_55" x1="50.1343" y1="44.4565" x2="50.1343" y2="47.193" gradientUnits="userSpaceOnUse">
<stop stop-color="#5442DD"/>
<stop offset="1" stop-color="#C892F6"/>
</linearGradient>
<linearGradient id="paint26_linear_5016_55" x1="124.557" y1="101.433" x2="124.557" y2="103.17" gradientUnits="userSpaceOnUse">
<stop stop-color="#5442DD"/>
<stop offset="1" stop-color="#C892F6"/>
</linearGradient>
<linearGradient id="paint27_linear_5016_55" x1="156.515" y1="62.0334" x2="156.515" y2="72.7596" gradientUnits="userSpaceOnUse">
<stop stop-color="#5442DD"/>
<stop offset="1" stop-color="#C892F6"/>
</linearGradient>
<linearGradient id="paint28_linear_5016_55" x1="42.7392" y1="74.8354" x2="42.7392" y2="85.118" gradientUnits="userSpaceOnUse">
<stop stop-color="#5442DD"/>
<stop offset="1" stop-color="#C892F6"/>
</linearGradient>
<linearGradient id="paint29_linear_5016_55" x1="171.818" y1="110.958" x2="171.818" y2="121.549" gradientUnits="userSpaceOnUse">
<stop stop-color="#5442DD"/>
<stop offset="1" stop-color="#C892F6"/>
</linearGradient>
<linearGradient id="paint30_linear_5016_55" x1="51.5888" y1="63.4993" x2="51.5888" y2="75.1516" gradientUnits="userSpaceOnUse">
<stop stop-color="#5442DD"/>
<stop offset="1" stop-color="#C892F6"/>
</linearGradient>
<linearGradient id="paint31_linear_5016_55" x1="104.459" y1="111.229" x2="104.459" y2="123.935" gradientUnits="userSpaceOnUse">
<stop stop-color="#5442DD"/>
<stop offset="1" stop-color="#C892F6"/>
</linearGradient>
<linearGradient id="paint32_linear_5016_55" x1="60.3258" y1="85.5759" x2="60.3258" y2="95.0358" gradientUnits="userSpaceOnUse">
<stop stop-color="#5442DD"/>
<stop offset="1" stop-color="#C892F6"/>
</linearGradient>
<linearGradient id="paint33_linear_5016_55" x1="85.7019" y1="157.896" x2="85.7019" y2="168.685" gradientUnits="userSpaceOnUse">
<stop stop-color="#5442DD"/>
<stop offset="1" stop-color="#C892F6"/>
</linearGradient>
<linearGradient id="paint34_linear_5016_55" x1="162.197" y1="18.4202" x2="162.197" y2="22.6579" gradientUnits="userSpaceOnUse">
<stop stop-color="#5442DD"/>
<stop offset="1" stop-color="#C892F6"/>
</linearGradient>
<linearGradient id="paint35_linear_5016_55" x1="95.1108" y1="32.3242" x2="95.1108" y2="39.0291" gradientUnits="userSpaceOnUse">
<stop stop-color="#5442DD"/>
<stop offset="1" stop-color="#C892F6"/>
</linearGradient>
<linearGradient id="paint36_linear_5016_55" x1="114.248" y1="33.4224" x2="114.248" y2="41.3539" gradientUnits="userSpaceOnUse">
<stop stop-color="#5442DD"/>
<stop offset="1" stop-color="#C892F6"/>
</linearGradient>
<linearGradient id="paint37_linear_5016_55" x1="25.4047" y1="168.308" x2="25.4047" y2="174.998" gradientUnits="userSpaceOnUse">
<stop stop-color="#5442DD"/>
<stop offset="1" stop-color="#C892F6"/>
</linearGradient>
<linearGradient id="paint38_linear_5016_55" x1="37.5506" y1="141.095" x2="37.5506" y2="143.633" gradientUnits="userSpaceOnUse">
<stop stop-color="#5442DD"/>
<stop offset="1" stop-color="#C892F6"/>
</linearGradient>
<linearGradient id="paint39_linear_5016_55" x1="68.8393" y1="127.633" x2="68.8393" y2="132.626" gradientUnits="userSpaceOnUse">
<stop stop-color="#5442DD"/>
<stop offset="1" stop-color="#C892F6"/>
</linearGradient>
<linearGradient id="paint40_linear_5016_55" x1="169.336" y1="29.9202" x2="169.336" y2="35.3995" gradientUnits="userSpaceOnUse">
<stop stop-color="#5442DD"/>
<stop offset="1" stop-color="#C892F6"/>
</linearGradient>
<linearGradient id="paint41_linear_5016_55" x1="149.404" y1="146.523" x2="149.404" y2="153.565" gradientUnits="userSpaceOnUse">
<stop stop-color="#5442DD"/>
<stop offset="1" stop-color="#C892F6"/>
</linearGradient>
<linearGradient id="paint42_linear_5016_55" x1="51.3969" y1="46.5007" x2="51.3969" y2="48.6692" gradientUnits="userSpaceOnUse">
<stop stop-color="#5442DD"/>
<stop offset="1" stop-color="#C892F6"/>
</linearGradient>
<linearGradient id="paint43_linear_5016_55" x1="41.6607" y1="156.371" x2="41.6607" y2="163.516" gradientUnits="userSpaceOnUse">
<stop stop-color="#5442DD"/>
<stop offset="1" stop-color="#C892F6"/>
</linearGradient>
<linearGradient id="paint44_linear_5016_55" x1="82.5484" y1="163.573" x2="82.5484" y2="170.482" gradientUnits="userSpaceOnUse">
<stop stop-color="#5442DD"/>
<stop offset="1" stop-color="#C892F6"/>
</linearGradient>
<linearGradient id="paint45_linear_5016_55" x1="128.07" y1="104.047" x2="128.07" y2="105.674" gradientUnits="userSpaceOnUse">
<stop stop-color="#5442DD"/>
<stop offset="1" stop-color="#C892F6"/>
</linearGradient>
<linearGradient id="paint46_linear_5016_55" x1="38.9752" y1="159.947" x2="38.9752" y2="166.242" gradientUnits="userSpaceOnUse">
<stop stop-color="#5442DD"/>
<stop offset="1" stop-color="#C892F6"/>
</linearGradient>
<linearGradient id="paint47_linear_5016_55" x1="149.518" y1="157.496" x2="149.518" y2="165.759" gradientUnits="userSpaceOnUse">
<stop stop-color="#5442DD"/>
<stop offset="1" stop-color="#C892F6"/>
</linearGradient>
<linearGradient id="paint48_linear_5016_55" x1="104.987" y1="126.925" x2="104.987" y2="132.553" gradientUnits="userSpaceOnUse">
<stop stop-color="#5442DD"/>
<stop offset="1" stop-color="#C892F6"/>
</linearGradient>
<linearGradient id="paint49_linear_5016_55" x1="59.8179" y1="91.887" x2="59.8179" y2="95.7208" gradientUnits="userSpaceOnUse">
<stop stop-color="#5442DD"/>
<stop offset="1" stop-color="#C892F6"/>
</linearGradient>
<linearGradient id="paint50_linear_5016_55" x1="92.0099" y1="34.7314" x2="92.0099" y2="39.7389" gradientUnits="userSpaceOnUse">
<stop stop-color="#5442DD"/>
<stop offset="1" stop-color="#C892F6"/>
</linearGradient>
<linearGradient id="paint51_linear_5016_55" x1="159.104" y1="60.7385" x2="159.104" y2="65.5469" gradientUnits="userSpaceOnUse">
<stop stop-color="#5442DD"/>
<stop offset="1" stop-color="#C892F6"/>
</linearGradient>
<linearGradient id="paint52_linear_5016_55" x1="121.257" y1="13.3884" x2="121.257" y2="14.7837" gradientUnits="userSpaceOnUse">
<stop stop-color="#5442DD"/>
<stop offset="1" stop-color="#C892F6"/>
</linearGradient>
<linearGradient id="paint53_linear_5016_55" x1="158.636" y1="159.973" x2="158.636" y2="163.667" gradientUnits="userSpaceOnUse">
<stop stop-color="#5442DD"/>
<stop offset="1" stop-color="#C892F6"/>
</linearGradient>
<linearGradient id="paint54_linear_5016_55" x1="41.3798" y1="78.5371" x2="41.3798" y2="82.8178" gradientUnits="userSpaceOnUse">
<stop stop-color="#5442DD"/>
<stop offset="1" stop-color="#C892F6"/>
</linearGradient>
<linearGradient id="paint55_linear_5016_55" x1="27.8057" y1="83.7163" x2="27.8057" y2="87.691" gradientUnits="userSpaceOnUse">
<stop stop-color="#5442DD"/>
<stop offset="1" stop-color="#C892F6"/>
</linearGradient>
<linearGradient id="paint56_linear_5016_55" x1="123.852" y1="14.6262" x2="123.852" y2="16.1987" gradientUnits="userSpaceOnUse">
<stop stop-color="#5442DD"/>
<stop offset="1" stop-color="#C892F6"/>
</linearGradient>
<linearGradient id="paint57_linear_5016_55" x1="55.0752" y1="69.8022" x2="55.0752" y2="73.5794" gradientUnits="userSpaceOnUse">
<stop stop-color="#5442DD"/>
<stop offset="1" stop-color="#C892F6"/>
</linearGradient>
<linearGradient id="paint58_linear_5016_55" x1="125.987" y1="18.5198" x2="125.987" y2="23.1742" gradientUnits="userSpaceOnUse">
<stop stop-color="#5442DD"/>
<stop offset="1" stop-color="#C892F6"/>
</linearGradient>
<linearGradient id="paint59_linear_5016_55" x1="157.665" y1="162.427" x2="157.665" y2="165.349" gradientUnits="userSpaceOnUse">
<stop stop-color="#5442DD"/>
<stop offset="1" stop-color="#C892F6"/>
</linearGradient>
<linearGradient id="paint60_linear_5016_55" x1="115.603" y1="165.832" x2="115.603" y2="169.567" gradientUnits="userSpaceOnUse">
<stop stop-color="#5442DD"/>
<stop offset="1" stop-color="#C892F6"/>
</linearGradient>
<linearGradient id="paint61_linear_5016_55" x1="14.8108" y1="144.077" x2="14.8108" y2="149.25" gradientUnits="userSpaceOnUse">
<stop stop-color="#5442DD"/>
<stop offset="1" stop-color="#C892F6"/>
</linearGradient>
<linearGradient id="paint62_linear_5016_55" x1="59.678" y1="162.038" x2="59.678" y2="167.272" gradientUnits="userSpaceOnUse">
<stop stop-color="#5442DD"/>
<stop offset="1" stop-color="#C892F6"/>
</linearGradient>
<linearGradient id="paint63_linear_5016_55" x1="61.1918" y1="93.9075" x2="61.1918" y2="96.3361" gradientUnits="userSpaceOnUse">
<stop stop-color="#5442DD"/>
<stop offset="1" stop-color="#C892F6"/>
</linearGradient>
<linearGradient id="paint64_linear_5016_55" x1="164.01" y1="20.7192" x2="164.01" y2="22.7923" gradientUnits="userSpaceOnUse">
<stop stop-color="#5442DD"/>
<stop offset="1" stop-color="#C892F6"/>
</linearGradient>
<linearGradient id="paint65_linear_5016_55" x1="70.1255" y1="129.938" x2="70.1255" y2="131.981" gradientUnits="userSpaceOnUse">
<stop stop-color="#5442DD"/>
<stop offset="1" stop-color="#C892F6"/>
</linearGradient>
<linearGradient id="paint66_linear_5016_55" x1="37.5018" y1="143.124" x2="37.5018" y2="145.004" gradientUnits="userSpaceOnUse">
<stop stop-color="#5442DD"/>
<stop offset="1" stop-color="#C892F6"/>
</linearGradient>
<linearGradient id="paint67_linear_5016_55" x1="27.7541" y1="171.267" x2="27.7541" y2="173.484" gradientUnits="userSpaceOnUse">
<stop stop-color="#5442DD"/>
<stop offset="1" stop-color="#C892F6"/>
</linearGradient>
<linearGradient id="paint68_linear_5016_55" x1="158.911" y1="157.199" x2="158.911" y2="159.269" gradientUnits="userSpaceOnUse">
<stop stop-color="#5442DD"/>
<stop offset="1" stop-color="#C892F6"/>
</linearGradient>
<linearGradient id="paint69_linear_5016_55" x1="83.8555" y1="61.2197" x2="83.8555" y2="63.09" gradientUnits="userSpaceOnUse">
<stop stop-color="#5442DD"/>
<stop offset="1" stop-color="#C892F6"/>
</linearGradient>
<linearGradient id="paint70_linear_5016_55" x1="93.2822" y1="23.9487" x2="93.2822" y2="25.4929" gradientUnits="userSpaceOnUse">
<stop stop-color="#5442DD"/>
<stop offset="1" stop-color="#C892F6"/>
</linearGradient>
<linearGradient id="paint71_linear_5016_55" x1="114.548" y1="31.7351" x2="114.548" y2="34.1434" gradientUnits="userSpaceOnUse">
<stop stop-color="#5442DD"/>
<stop offset="1" stop-color="#C892F6"/>
</linearGradient>
<linearGradient id="paint72_linear_5016_55" x1="41.1065" y1="164.557" x2="41.1065" y2="166.636" gradientUnits="userSpaceOnUse">
<stop stop-color="#5442DD"/>
<stop offset="1" stop-color="#C892F6"/>
</linearGradient>
<linearGradient id="paint73_linear_5016_55" x1="28.6434" y1="81.998" x2="28.6434" y2="83.8841" gradientUnits="userSpaceOnUse">
<stop stop-color="#5442DD"/>
<stop offset="1" stop-color="#C892F6"/>
</linearGradient>
<linearGradient id="paint74_linear_5016_55" x1="47.2429" y1="49.3572" x2="47.2429" y2="51.2235" gradientUnits="userSpaceOnUse">
<stop stop-color="#5442DD"/>
<stop offset="1" stop-color="#C892F6"/>
</linearGradient>
<linearGradient id="paint75_linear_5016_55" x1="122.225" y1="104.206" x2="122.225" y2="105.943" gradientUnits="userSpaceOnUse">
<stop stop-color="#5442DD"/>
<stop offset="1" stop-color="#C892F6"/>
</linearGradient>
<linearGradient id="paint76_linear_5016_55" x1="87.07" y1="58.626" x2="87.07" y2="60.3055" gradientUnits="userSpaceOnUse">
<stop stop-color="#5442DD"/>
<stop offset="1" stop-color="#C892F6"/>
</linearGradient>
<linearGradient id="paint77_linear_5016_55" x1="39.9529" y1="92.0806" x2="39.9529" y2="93.6442" gradientUnits="userSpaceOnUse">
<stop stop-color="#5442DD"/>
<stop offset="1" stop-color="#C892F6"/>
</linearGradient>
<linearGradient id="paint78_linear_5016_55" x1="60.5674" y1="157.859" x2="60.5674" y2="159.906" gradientUnits="userSpaceOnUse">
<stop stop-color="#5442DD"/>
<stop offset="1" stop-color="#C892F6"/>
</linearGradient>
<linearGradient id="paint79_linear_5016_55" x1="85.7359" y1="129.55" x2="85.7359" y2="131.106" gradientUnits="userSpaceOnUse">
<stop stop-color="#5442DD"/>
<stop offset="1" stop-color="#C892F6"/>
</linearGradient>
<linearGradient id="paint80_linear_5016_55" x1="84.8106" y1="170.8" x2="84.8106" y2="172.837" gradientUnits="userSpaceOnUse">
<stop stop-color="#5442DD"/>
<stop offset="1" stop-color="#C892F6"/>
</linearGradient>
<linearGradient id="paint81_linear_5016_55" x1="96.3303" y1="39.6699" x2="96.3303" y2="41.1806" gradientUnits="userSpaceOnUse">
<stop stop-color="#5442DD"/>
<stop offset="1" stop-color="#C892F6"/>
</linearGradient>
<linearGradient id="paint82_linear_5016_55" x1="172.532" y1="30.5991" x2="172.532" y2="32.5302" gradientUnits="userSpaceOnUse">
<stop stop-color="#5442DD"/>
<stop offset="1" stop-color="#C892F6"/>
</linearGradient>
<linearGradient id="paint83_linear_5016_55" x1="127.772" y1="13.0828" x2="127.772" y2="14.4447" gradientUnits="userSpaceOnUse">
<stop stop-color="#5442DD"/>
<stop offset="1" stop-color="#C892F6"/>
</linearGradient>
<linearGradient id="paint84_linear_5016_55" x1="168.738" y1="19.5959" x2="168.738" y2="20.9785" gradientUnits="userSpaceOnUse">
<stop stop-color="#5442DD"/>
<stop offset="1" stop-color="#C892F6"/>
</linearGradient>
<linearGradient id="paint85_linear_5016_55" x1="118.188" y1="168.855" x2="118.188" y2="170.127" gradientUnits="userSpaceOnUse">
<stop stop-color="#5442DD"/>
<stop offset="1" stop-color="#C892F6"/>
</linearGradient>
<clipPath id="clip0_5016_55">
<rect width="171" height="172" fill="white" transform="translate(10.5 9)"/>
</clipPath>
</defs>
</svg>
