<svg width="32" height="32" viewBox="0 0 32 32" fill="none" xmlns="http://www.w3.org/2000/svg">
<g id="_&#208;&#160;&#208;&#142;&#208;&#160;&#194;&#187;&#208;&#160;&#209;&#149;&#208;&#160;&#226;&#132;&#150;_1" clip-path="url(#clip0_5006_635)">
<path id="Vector" fill-rule="evenodd" clip-rule="evenodd" d="M13.9865 20.1978L19.9977 16.7313C20.5287 16.4208 20.5287 15.6493 19.9977 15.3387L13.9865 11.8722C13.4555 11.5617 12.7842 11.9524 12.7842 12.5635V19.5065C12.7842 20.1277 13.4555 20.5084 13.9865 20.1978ZM21.0998 18.6349C23.1036 17.4828 23.1036 14.5873 21.0998 13.4251L15.0885 9.95865C13.0848 8.80649 10.5801 10.2492 10.5801 12.5635V19.5065C10.5801 21.8209 13.0848 23.2636 15.0885 22.1114L21.0998 18.6449V18.6349Z" fill="url(#paint0_linear_5006_635)"/>
<path id="Vector_2" d="M18.6351 32H12.5437C11.7021 32 11.0008 31.3388 10.9406 30.5072L10.7002 26.9906C9.91873 26.65 9.18736 26.2292 8.50608 25.7282L5.35017 27.2812C4.59876 27.6518 3.67703 27.3713 3.25624 26.6399L0.21053 21.3601C-0.210259 20.6287 0.0101546 19.6969 0.701451 19.226L3.62694 17.2624C3.57684 16.8215 3.5568 16.4108 3.5568 16C3.5568 15.5892 3.57684 15.1785 3.62694 14.7376L0.701451 12.774C0.000135853 12.3031 -0.210259 11.3713 0.21053 10.6399L3.25624 5.36005C3.67703 4.62868 4.59876 4.35817 5.35017 4.71885L8.50608 6.27176C9.18736 5.78084 9.91873 5.36005 10.7002 5.00939L10.9406 1.4928C11.0008 0.651221 11.7021 0 12.5437 0H18.6351C19.4767 0 20.178 0.66124 20.2381 1.4928L20.4785 5.00939C21.26 5.35003 22.0014 5.78084 22.6726 6.27176L25.8286 4.71885C26.58 4.34815 27.5017 4.62868 27.9225 5.35003L30.9682 10.6299C31.389 11.3613 31.1686 12.293 30.4673 12.7639L27.5418 14.7276C27.5919 15.1684 27.6119 15.5792 27.6119 15.99C27.6119 16.4008 27.5919 16.8115 27.5418 17.2523L30.4673 19.216C31.1686 19.6869 31.379 20.6187 30.9682 21.35L27.9225 26.6299C27.5017 27.3613 26.58 27.6318 25.8286 27.2611L22.6726 25.7082C21.9914 26.1991 21.26 26.6199 20.4785 26.9706L20.2381 30.4872C20.178 31.3287 19.4767 31.98 18.6351 31.98V32ZM13.1047 29.7959H18.074L18.2944 26.4596C18.3345 25.8485 18.7152 25.3275 19.2863 25.087C20.1279 24.7464 20.9093 24.2956 21.6107 23.7545C22.0916 23.3838 22.7528 23.3137 23.2938 23.5842L26.2794 25.047L28.7641 20.7389L25.9889 18.8754C25.4779 18.5348 25.2074 17.9336 25.2976 17.3225C25.3677 16.8416 25.3978 16.4108 25.3978 15.99C25.3978 15.5692 25.3677 15.1384 25.2976 14.6675C25.2074 14.0463 25.4779 13.4552 25.9889 13.1046L28.754 11.2511L26.2694 6.94302L23.2838 8.40576C22.7428 8.67627 22.0815 8.60614 21.6006 8.22542C20.9093 7.68441 20.1279 7.24358 19.2763 6.89292C18.7052 6.66249 18.3245 6.1315 18.2744 5.52035L18.054 2.1841H13.0847L12.8643 5.52035C12.8242 6.1315 12.4435 6.66249 11.8624 6.89292C11.0208 7.23356 10.2393 7.68441 9.53802 8.22542C9.0471 8.60614 8.4059 8.67627 7.85486 8.39574L4.86927 6.933L2.38461 11.2411L5.15981 13.1046C5.67077 13.4452 5.94128 14.0463 5.85111 14.6575C5.78097 15.1384 5.75092 15.5692 5.75092 15.99C5.75092 16.4108 5.78097 16.8416 5.85111 17.3125C5.94128 17.9336 5.67077 18.5247 5.15981 18.8654L2.38461 20.7289L4.86927 25.0369L7.85486 23.5742C8.4059 23.3037 9.0471 23.3738 9.53802 23.7545C10.2293 24.2956 11.0108 24.7464 11.8624 25.087C12.4334 25.3175 12.8142 25.8485 12.8643 26.4596L13.0847 29.7959H13.1047Z" fill="url(#paint1_linear_5006_635)"/>
</g>
<defs>
<linearGradient id="paint0_linear_5006_635" x1="38.1017" y1="16.03" x2="2.8055" y2="16.03" gradientUnits="userSpaceOnUse">
<stop stop-color="#5442DD"/>
<stop offset="1" stop-color="#C892F6"/>
</linearGradient>
<linearGradient id="paint1_linear_5006_635" x1="46.7077" y1="-1.96368" x2="-2.08377" y2="26.1991" gradientUnits="userSpaceOnUse">
<stop stop-color="#5442DD"/>
<stop offset="1" stop-color="#C892F6"/>
</linearGradient>
<clipPath id="clip0_5006_635">
<rect width="31.1785" height="32" fill="white"/>
</clipPath>
</defs>
</svg>
