<svg width="40" height="40" viewBox="0 0 40 40" fill="none" xmlns="http://www.w3.org/2000/svg">
<g id="icon \ 14">
<g id="Vector">
<path fill-rule="evenodd" clip-rule="evenodd" d="M4.95189 5C5.47761 5 5.90379 5.42618 5.90379 5.95189V31.0472C5.90379 31.9553 6.63991 32.6914 7.54796 32.6914H32.6433C33.169 32.6914 33.5952 33.1176 33.5952 33.6433C33.5952 34.169 33.169 34.5952 32.6433 34.5952H7.54796C5.58848 34.5952 4 33.0067 4 31.0472V5.95189C4 5.42618 4.42618 5 4.95189 5Z" fill="url(#paint0_linear_5006_779)"/>
<path fill-rule="evenodd" clip-rule="evenodd" d="M31.838 7.31213C32.3998 7.31213 32.8553 7.7676 32.8553 8.32946C32.8553 10.1137 32.3525 12.21 31.6265 14.0252C30.9152 15.8033 29.9049 17.5249 28.749 18.3918C27.9246 19.0101 27.0176 19.1248 26.1983 19.042C25.4155 18.963 24.6394 18.6947 24.0197 18.4805L24.0144 18.4787C23.33 18.2422 22.8539 18.0809 22.47 18.0487C22.1653 18.0232 22.0921 18.0869 22.0161 18.1884C21.753 18.5391 21.5245 19.0153 21.2184 19.653C21.2 19.6914 21.1813 19.7304 21.1623 19.7699C20.85 20.42 20.4688 21.1957 19.9376 21.8809C19.3936 22.5825 18.6704 23.2202 17.6609 23.5769C16.6568 23.9316 15.4671 23.9737 14.0451 23.6577C13.1447 23.4577 12.5736 23.5358 12.1901 23.7082C11.8106 23.8787 11.4778 24.2031 11.1719 24.7677C10.8594 25.3447 10.6093 26.1103 10.3773 27.0665C10.1994 27.7996 10.0431 28.5951 9.87352 29.4579C9.82199 29.72 9.76924 29.9884 9.71429 30.2632C9.6041 30.8141 9.06815 31.1715 8.5172 31.0613C7.96625 30.9511 7.60894 30.4151 7.71912 29.8642C7.77041 29.6077 7.82081 29.3512 7.87093 29.0961C8.04233 28.2238 8.21052 27.3677 8.40002 26.5867C8.64489 25.5775 8.94398 24.6089 9.38285 23.7986C9.82846 22.9759 10.4494 22.2598 11.356 21.8523C12.2586 21.4466 13.306 21.4092 14.4865 21.6715C15.6379 21.9274 16.4252 21.8555 16.9832 21.6584C17.5356 21.4632 17.9596 21.1115 18.3295 20.6343C18.7122 20.1406 19.0116 19.5481 19.3283 18.8889C19.3545 18.8342 19.3811 18.7786 19.4081 18.7222C19.6834 18.1462 19.9981 17.4879 20.3883 16.9676C21.0059 16.1441 21.8653 15.9564 22.6396 16.0212C23.2956 16.076 23.9998 16.3202 24.5771 16.5203C24.6115 16.5323 24.6455 16.5441 24.6791 16.5557C25.3379 16.7834 25.893 16.9662 26.4028 17.0177C26.8782 17.0657 27.2274 16.9897 27.5282 16.7641C28.2219 16.2438 29.0613 14.9596 29.7373 13.2695C30.3985 11.6165 30.8206 9.78217 30.8206 8.32946C30.8206 7.7676 31.2761 7.31213 31.838 7.31213Z" fill="url(#paint1_linear_5006_779)"/>
</g>
</g>
<defs>
<linearGradient id="paint0_linear_5006_779" x1="33.2778" y1="19.7973" x2="7.8388" y2="19.7973" gradientUnits="userSpaceOnUse">
<stop stop-color="#5442DD"/>
<stop offset="1" stop-color="#C892F6"/>
</linearGradient>
<linearGradient id="paint1_linear_5006_779" x1="33.2778" y1="19.7973" x2="7.8388" y2="19.7973" gradientUnits="userSpaceOnUse">
<stop stop-color="#5442DD"/>
<stop offset="1" stop-color="#C892F6"/>
</linearGradient>
</defs>
</svg>
