<svg width="40" height="40" viewBox="0 0 40 40" fill="none" xmlns="http://www.w3.org/2000/svg">
<g id="icon \ 09">
<g id="Vector">
<path d="M28.4747 29.4388C28.9386 29.4401 29.4255 29.4351 29.8853 29.3764C30.2707 29.3273 30.643 29.2379 31.0202 29.1483C31.0134 29.334 30.9738 29.5005 30.9419 29.681C30.7177 30.9479 30.117 32.1994 29.2954 33.1891C29.2446 33.2503 29.1829 33.3027 29.1305 33.3632C28.9971 33.5171 28.8779 33.6655 28.7283 33.8058C28.5238 33.9975 28.3059 34.1741 28.0842 34.3441C27.992 34.4147 27.9126 34.4944 27.813 34.5559L27.5651 34.7263C26.7202 35.26 25.8209 35.6567 24.835 35.8421C24.7227 35.8631 24.6115 35.8988 24.4986 35.915C23.9473 35.994 23.3939 35.9963 22.8384 35.9967L20.1771 35.9971C19.9016 35.997 19.6173 36.0151 19.346 35.9623L19.3227 35.9579C19.0316 35.8998 18.7783 35.7176 18.6113 35.4752L18.5903 35.4452C18.4109 35.1856 18.3513 34.8121 18.4087 34.504C18.4175 34.4568 18.4326 34.4144 18.4485 34.3694C18.5614 34.0482 18.7412 33.8184 19.0452 33.6569L19.1153 33.6278L19.1493 33.615C19.5432 33.4691 20.0542 33.5286 20.4719 33.5287L22.3897 33.529C23.0028 33.5288 23.629 33.5463 24.2344 33.4371C24.6239 33.3669 24.973 33.2366 25.3414 33.0995C25.452 33.0583 25.5513 32.9929 25.6573 32.9417C26.7498 32.4128 27.6334 31.4693 28.1346 30.3671L28.4747 29.4388Z" fill="url(#paint0_linear_928_1475)"/>
<path d="M28.4747 29.4388C28.1956 29.4406 27.897 29.4324 27.6228 29.379C27.0843 29.274 26.5704 28.9908 26.1808 28.6074C25.5788 28.0149 25.3284 27.259 25.3232 26.4291L25.3231 19.0088C25.3232 18.635 25.2951 18.231 25.368 17.864C25.4811 17.2942 25.7282 16.7577 26.1442 16.3425C26.5689 15.9187 27.1255 15.6157 27.7207 15.5215C28.0185 15.4744 28.3179 15.479 28.6184 15.4808C28.5848 14.9629 28.5919 14.4492 28.5283 13.9322C28.3141 12.1941 27.5091 10.5661 26.344 9.27127C24.8573 7.61863 22.6835 6.59092 20.4644 6.48349C18.2675 6.37714 15.9678 7.11281 14.3325 8.61067C14.0288 8.88875 13.7225 9.17899 13.4567 9.49337C12.3986 10.7443 11.7016 12.2697 11.4793 13.8956C11.4072 14.4233 11.4114 14.9495 11.3879 15.4798C11.6893 15.478 11.9933 15.4775 12.2919 15.5247C12.6248 15.5773 12.944 15.7055 13.238 15.8664C13.939 16.25 14.3771 16.9236 14.5924 17.6753C14.6941 18.0303 14.6764 18.4325 14.6767 18.7985L14.6766 25.4845C14.6766 25.9551 14.7009 26.4364 14.6514 26.9043C14.6116 27.2818 14.4896 27.6413 14.3044 27.9719C13.9242 28.6506 13.3044 29.1136 12.5634 29.3295C12.1721 29.4436 11.7644 29.4385 11.3608 29.4379C10.9144 29.4371 10.4675 29.4333 10.0241 29.3747C9.35147 29.2856 8.68195 29.082 8.0668 28.799C6.38409 28.0248 5.07048 26.6075 4.42797 24.8699C3.79698 23.1634 3.8628 21.2253 4.6316 19.5739C5.30024 18.1377 6.44298 16.9556 7.86395 16.2508C8.21092 16.0787 8.56313 15.9519 8.92581 15.8207L8.92881 14.7441C9.00902 11.8472 10.254 9.04087 12.3653 7.04985C14.5155 5.02202 17.3695 3.91234 20.3295 4.00542C22.6428 4.07817 24.8898 4.86336 26.7286 6.27466C27.2713 6.69118 27.7618 7.16199 28.2286 7.66101C29.7288 9.26489 30.7046 11.4539 30.9877 13.6234C31.0822 14.347 31.0985 15.0951 31.0751 15.824C31.8496 16.0645 32.6293 16.4545 33.2683 16.9558C34.4029 17.8458 35.2409 18.9998 35.6787 20.3772C35.7947 20.742 35.8936 21.124 35.9383 21.5048C36.0064 22.0852 36.0246 22.6718 35.9599 23.2536C35.8138 24.5682 35.2757 25.8133 34.4531 26.8451C33.5626 27.9623 32.3644 28.7037 31.0202 29.1483C30.643 29.2379 30.2707 29.3273 29.8853 29.3764C29.4255 29.4351 28.9386 29.4401 28.4747 29.4388ZM28.1118 17.9645C27.9856 18.0073 27.908 18.0611 27.8451 18.1812C27.8085 18.2511 27.8082 18.3236 27.8064 18.4005L27.8039 20.3963L27.8038 26.4005C27.8041 26.497 27.7957 26.6047 27.8257 26.6971C27.8593 26.8001 27.9251 26.8724 28.0233 26.919C28.173 26.9898 28.3909 26.9627 28.5553 26.9627C29.2798 26.9627 29.9335 26.9287 30.6189 26.6653C31.1524 26.4603 31.6387 26.1569 32.0617 25.773C32.9468 24.9859 33.4447 23.8465 33.5151 22.6749C33.5848 21.5163 33.161 20.3386 32.389 19.4745C31.5968 18.588 30.4842 18.031 29.2937 17.9633L28.1118 17.9645ZM10.6926 17.968C9.44699 18.0692 8.30558 18.6233 7.5053 19.5952C7.02511 20.1784 6.73293 20.8413 6.56695 21.574C6.30291 22.7394 6.60264 23.9657 7.23601 24.9576C7.58239 25.5002 8.08695 25.9664 8.63412 26.3016C9.13238 26.5835 9.64302 26.8092 10.2137 26.9002C10.5893 26.96 10.9604 26.9624 11.3394 26.9623C11.5165 26.9622 11.7648 26.9922 11.934 26.9381C12.0422 26.9034 12.1306 26.8012 12.1747 26.6983C12.212 26.6113 12.1973 26.4774 12.1972 26.3829L12.1941 18.3644C12.1923 18.3008 12.1857 18.2495 12.1592 18.1908C12.1193 18.1025 12.0453 18.0205 11.9537 17.9857C11.8291 17.9383 11.6514 17.954 11.5186 17.9533C11.245 17.9517 10.9654 17.945 10.6926 17.968Z" fill="url(#paint0_linear_928_1475)"/>
</g>
</g>

<defs>
<linearGradient id="paint0_linear_928_1475" x1="36.6354" y1="19.9997" x2="7.41015" y2="19.9997" gradientUnits="userSpaceOnUse">
<stop stop-color="#5442DD"/>
<stop offset="1" stop-color="#C892F6"/>
</linearGradient>
</defs>
</svg>
