<svg width="32" height="32" viewBox="0 0 32 32" fill="none" xmlns="http://www.w3.org/2000/svg">
<g id="_&#195;&#144;&#194;&#161;&#195;&#144;&#194;&#187;&#195;&#144;&#194;&#190;&#195;&#144;&#194;&#185;_1" clip-path="url(#clip0_5006_485)">
<g id="Vector">
<path fill-rule="evenodd" clip-rule="evenodd" d="M16.6055 32H17.1053C19.6479 30.5163 21.6033 28.4881 22.7922 25.7756C23.4725 24.225 23.7349 22.5887 23.5594 20.8981C23.5194 20.5131 23.6018 20.2625 23.9117 19.9944C26.1763 18.0363 27.8412 15.6287 29.1007 12.9275C30.5419 9.83625 31.4034 6.58375 31.8008 3.20187C31.8209 3.03073 31.8476 2.86014 31.8744 2.68974C31.8876 2.6059 31.9009 2.5213 31.9132 2.4375V0.5625L31.226 0H30.2889C30.1085 0.020679 29.928 0.0406738 29.7476 0.0606636C29.3828 0.101089 29.0181 0.141499 28.654 0.1875C24.0766 0.77 19.7591 2.09813 15.8733 4.66125C14.389 5.64125 13.0508 6.79563 11.9013 8.1575C11.712 8.38125 11.5277 8.46625 11.2378 8.4325C9.65916 8.24875 8.1267 8.46062 6.63922 9.01188C5.08365 9.58813 3.73924 10.4988 2.53726 11.6294C1.65327 12.4613 0.916091 13.4125 0.233263 14.4144C-0.266773 15.1483 0.0776457 15.9387 0.880656 16.0863L1.66579 16.1354C3.61126 16.2312 5.55562 16.3784 7.5 16.5C7.69795 16.5124 8.10296 16.5 8.6571 17.0456L14.9275 23.3181C15.5 23.5 15.5 25 15.5348 25.5562C15.5372 25.5537 15.5397 25.5512 15.5422 25.5487C15.6627 27.2605 15.791 28.9738 15.8583 30.6887C15.8815 31.2731 16.0414 31.7419 16.6055 32ZM28.5699 8.79212C28.5848 8.81177 28.5989 8.83037 28.6122 8.84688C28.5678 8.97654 28.526 9.10135 28.4854 9.22277C28.4076 9.45516 28.3337 9.67592 28.2542 9.89375C27.3658 12.3244 26.1788 14.5906 24.5227 16.5919C23.0246 18.4025 21.2154 19.8394 19.155 20.9562C18.6789 21.2143 18.1884 21.4453 17.6979 21.6762C17.4175 21.8083 17.1368 21.9404 16.8592 22.0775C16.6992 22.1569 16.5949 22.1569 16.4562 22.0175C14.2978 19.8475 12.1337 17.6838 9.9659 15.5231C9.84346 15.4012 9.82409 15.3081 9.89218 15.1475C10.9186 12.7194 12.2674 10.5 14.1266 8.615C15.481 7.24125 17.0347 6.13 18.7302 5.2175C20.069 4.49688 21.4678 3.91313 22.9115 3.435C23.0927 3.375 23.2076 3.39125 23.3463 3.53125C24.5328 4.72519 25.7225 5.91607 26.9123 7.10688C27.4222 7.61723 27.932 8.12757 28.4416 8.63813C28.4906 8.68756 28.5329 8.74334 28.5699 8.79212ZM3.67751 14.3026L2.75904 14.245C4.76567 11.9163 7.07966 10.3562 10.2483 10.3038C10.2297 10.3387 10.2154 10.3669 10.2034 10.3906C10.1838 10.4292 10.1702 10.4561 10.1539 10.4812C9.35554 11.7156 8.68521 13.0162 8.10296 14.365C8.06548 14.4519 7.93116 14.5588 7.84745 14.5544C6.47198 14.4782 5.09736 14.3918 3.67751 14.3026ZM21.6221 21.7719C22.0519 23.71 19.9178 27.7906 17.7331 29.1719C17.6276 27.4969 17.5239 25.8563 17.4183 24.2156C17.4089 24.0619 17.4177 23.9494 17.5963 23.8756C18.9732 23.3069 20.2858 22.6125 21.539 21.8069C21.5556 21.7965 21.5743 21.7897 21.5933 21.7829C21.6029 21.7794 21.6126 21.7759 21.6221 21.7719ZM25.3311 2.70625L27.2933 2.38826C28.1637 2.24724 29.0361 2.10591 29.9085 1.96438C29.9433 1.99552 29.9776 2.02667 30.0118 2.05782C29.8634 2.9766 29.7156 3.89591 29.5677 4.81352L29.2719 6.64813L25.3311 2.70625ZM24.4153 11.5075C24.4215 9.3375 22.6666 7.57 20.5001 7.56313C18.3335 7.55625 16.5655 9.31125 16.5537 11.48C16.5418 13.6356 18.3117 15.42 20.4726 15.43C22.6304 15.44 24.409 13.6706 24.4153 11.5075ZM22.4661 11.5031C22.4567 12.5788 21.5696 13.4631 20.492 13.4713C19.4174 13.4794 18.5322 12.605 18.5122 11.5162C18.4922 10.4362 19.3931 9.51812 20.4795 9.5125C21.5546 9.50688 22.4748 10.4288 22.4661 11.5031Z" fill="white"/>
<path fill-rule="evenodd" clip-rule="evenodd" d="M16.6055 32H17.1053C19.6479 30.5163 21.6033 28.4881 22.7922 25.7756C23.4725 24.225 23.7349 22.5887 23.5594 20.8981C23.5194 20.5131 23.6018 20.2625 23.9117 19.9944C26.1763 18.0363 27.8412 15.6287 29.1007 12.9275C30.5419 9.83625 31.4034 6.58375 31.8008 3.20187C31.8209 3.03073 31.8476 2.86014 31.8744 2.68974C31.8876 2.6059 31.9009 2.5213 31.9132 2.4375V0.5625L31.226 0H30.2889C30.1085 0.020679 29.928 0.0406738 29.7476 0.0606636C29.3828 0.101089 29.0181 0.141499 28.654 0.1875C24.0766 0.77 19.7591 2.09813 15.8733 4.66125C14.389 5.64125 13.0508 6.79563 11.9013 8.1575C11.712 8.38125 11.5277 8.46625 11.2378 8.4325C9.65916 8.24875 8.1267 8.46062 6.63922 9.01188C5.08365 9.58813 3.73924 10.4988 2.53726 11.6294C1.65327 12.4613 0.916091 13.4125 0.233263 14.4144C-0.266773 15.1483 0.0776457 15.9387 0.880656 16.0863L1.66579 16.1354C3.61126 16.2312 5.55562 16.3784 7.5 16.5C7.69795 16.5124 8.10296 16.5 8.6571 17.0456L14.9275 23.3181C15.5 23.5 15.5 25 15.5348 25.5562C15.5372 25.5537 15.5397 25.5512 15.5422 25.5487C15.6627 27.2605 15.791 28.9738 15.8583 30.6887C15.8815 31.2731 16.0414 31.7419 16.6055 32ZM28.5699 8.79212C28.5848 8.81177 28.5989 8.83037 28.6122 8.84688C28.5678 8.97654 28.526 9.10135 28.4854 9.22277C28.4076 9.45516 28.3337 9.67592 28.2542 9.89375C27.3658 12.3244 26.1788 14.5906 24.5227 16.5919C23.0246 18.4025 21.2154 19.8394 19.155 20.9562C18.6789 21.2143 18.1884 21.4453 17.6979 21.6762C17.4175 21.8083 17.1368 21.9404 16.8592 22.0775C16.6992 22.1569 16.5949 22.1569 16.4562 22.0175C14.2978 19.8475 12.1337 17.6838 9.9659 15.5231C9.84346 15.4012 9.82409 15.3081 9.89218 15.1475C10.9186 12.7194 12.2674 10.5 14.1266 8.615C15.481 7.24125 17.0347 6.13 18.7302 5.2175C20.069 4.49688 21.4678 3.91313 22.9115 3.435C23.0927 3.375 23.2076 3.39125 23.3463 3.53125C24.5328 4.72519 25.7225 5.91607 26.9123 7.10688C27.4222 7.61723 27.932 8.12757 28.4416 8.63813C28.4906 8.68756 28.5329 8.74334 28.5699 8.79212ZM3.67751 14.3026L2.75904 14.245C4.76567 11.9163 7.07966 10.3562 10.2483 10.3038C10.2297 10.3387 10.2154 10.3669 10.2034 10.3906C10.1838 10.4292 10.1702 10.4561 10.1539 10.4812C9.35554 11.7156 8.68521 13.0162 8.10296 14.365C8.06548 14.4519 7.93116 14.5588 7.84745 14.5544C6.47198 14.4782 5.09736 14.3918 3.67751 14.3026ZM21.6221 21.7719C22.0519 23.71 19.9178 27.7906 17.7331 29.1719C17.6276 27.4969 17.5239 25.8563 17.4183 24.2156C17.4089 24.0619 17.4177 23.9494 17.5963 23.8756C18.9732 23.3069 20.2858 22.6125 21.539 21.8069C21.5556 21.7965 21.5743 21.7897 21.5933 21.7829C21.6029 21.7794 21.6126 21.7759 21.6221 21.7719ZM25.3311 2.70625L27.2933 2.38826C28.1637 2.24724 29.0361 2.10591 29.9085 1.96438C29.9433 1.99552 29.9776 2.02667 30.0118 2.05782C29.8634 2.9766 29.7156 3.89591 29.5677 4.81352L29.2719 6.64813L25.3311 2.70625ZM24.4153 11.5075C24.4215 9.3375 22.6666 7.57 20.5001 7.56313C18.3335 7.55625 16.5655 9.31125 16.5537 11.48C16.5418 13.6356 18.3117 15.42 20.4726 15.43C22.6304 15.44 24.409 13.6706 24.4153 11.5075ZM22.4661 11.5031C22.4567 12.5788 21.5696 13.4631 20.492 13.4713C19.4174 13.4794 18.5322 12.605 18.5122 11.5162C18.4922 10.4362 19.3931 9.51812 20.4795 9.5125C21.5546 9.50688 22.4748 10.4288 22.4661 11.5031Z" fill="url(#paint0_linear_5006_485)"/>
<path fill-rule="evenodd" clip-rule="evenodd" d="M4.00005 24.2428C3.60952 23.8522 3.60952 23.2191 4.00005 22.8285L7.53558 19.293C7.9261 18.9025 8.55927 18.9025 8.94979 19.293C9.34032 19.6835 9.34032 20.3167 8.94979 20.7072L5.41426 24.2428C5.02374 24.6333 4.39057 24.6333 4.00005 24.2428Z" fill="white"/>
<path fill-rule="evenodd" clip-rule="evenodd" d="M4.00005 24.2428C3.60952 23.8522 3.60952 23.2191 4.00005 22.8285L7.53558 19.293C7.9261 18.9025 8.55927 18.9025 8.94979 19.293C9.34032 19.6835 9.34032 20.3167 8.94979 20.7072L5.41426 24.2428C5.02374 24.6333 4.39057 24.6333 4.00005 24.2428Z" fill="url(#paint1_linear_5006_485)"/>
<path fill-rule="evenodd" clip-rule="evenodd" d="M8.24272 28.4854C7.8522 28.0949 7.8522 27.4617 8.24272 27.0712L11.7783 23.5357C12.1688 23.1452 12.8019 23.1452 13.1925 23.5357C13.583 23.9262 13.583 24.5594 13.1925 24.9499L9.65694 28.4854C9.26641 28.876 8.63325 28.876 8.24272 28.4854Z" fill="white"/>
<path fill-rule="evenodd" clip-rule="evenodd" d="M8.24272 28.4854C7.8522 28.0949 7.8522 27.4617 8.24272 27.0712L11.7783 23.5357C12.1688 23.1452 12.8019 23.1452 13.1925 23.5357C13.583 23.9262 13.583 24.5594 13.1925 24.9499L9.65694 28.4854C9.26641 28.876 8.63325 28.876 8.24272 28.4854Z" fill="url(#paint2_linear_5006_485)"/>
<path fill-rule="evenodd" clip-rule="evenodd" d="M3.29289 29.1925C2.90237 28.8019 2.90237 28.1688 3.29289 27.7782L9.65685 21.4143C10.0474 21.0238 10.6805 21.0238 11.0711 21.4143C11.4616 21.8048 11.4616 22.438 11.0711 22.8285L4.70711 29.1925C4.31658 29.583 3.68342 29.583 3.29289 29.1925Z" fill="white"/>
<path fill-rule="evenodd" clip-rule="evenodd" d="M3.29289 29.1925C2.90237 28.8019 2.90237 28.1688 3.29289 27.7782L9.65685 21.4143C10.0474 21.0238 10.6805 21.0238 11.0711 21.4143C11.4616 21.8048 11.4616 22.438 11.0711 22.8285L4.70711 29.1925C4.31658 29.583 3.68342 29.583 3.29289 29.1925Z" fill="url(#paint3_linear_5006_485)"/>
</g>
</g>
<defs>
<linearGradient id="paint0_linear_5006_485" x1="14.9546" y1="-19.9446" x2="14.9546" y2="36.43" gradientUnits="userSpaceOnUse">
<stop stop-color="#5442DD"/>
<stop offset="1" stop-color="#C892F6"/>
</linearGradient>
<linearGradient id="paint1_linear_5006_485" x1="14.9546" y1="-19.9446" x2="14.9546" y2="36.43" gradientUnits="userSpaceOnUse">
<stop stop-color="#5442DD"/>
<stop offset="1" stop-color="#C892F6"/>
</linearGradient>
<linearGradient id="paint2_linear_5006_485" x1="14.9546" y1="-19.9446" x2="14.9546" y2="36.43" gradientUnits="userSpaceOnUse">
<stop stop-color="#5442DD"/>
<stop offset="1" stop-color="#C892F6"/>
</linearGradient>
<linearGradient id="paint3_linear_5006_485" x1="14.9546" y1="-19.9446" x2="14.9546" y2="36.43" gradientUnits="userSpaceOnUse">
<stop stop-color="#5442DD"/>
<stop offset="1" stop-color="#C892F6"/>
</linearGradient>
<clipPath id="clip0_5006_485">
<rect width="32" height="32" fill="white"/>
</clipPath>
</defs>
</svg>
