<svg width="40" height="40" viewBox="0 0 40 40" fill="none" xmlns="http://www.w3.org/2000/svg">
<g id="icon \ 12">
<g id="Vector">
<path d="M18.605 27.1784C19.1615 27.1784 19.6127 27.6296 19.6127 28.1862V31.2094C19.6127 31.766 19.1615 32.2172 18.605 32.2172C18.0484 32.2172 17.5972 31.766 17.5972 31.2094V28.1862C17.5972 27.6296 18.0484 27.1784 18.605 27.1784Z" fill="url(#paint0_linear_5006_641)"/>
<path d="M17.003 32.5596C16.5446 31.5511 15.6042 30.124 14.2192 29.5005C13.4838 29.1694 12.6282 29.0706 11.7256 29.3839C11.0335 29.6242 10.3731 30.0859 9.74225 30.7626C9.49431 30.6952 9.23786 30.6502 8.97557 30.6351C8.11071 30.5855 7.24626 30.8693 6.52869 31.6055C5.84461 32.3073 5.35014 33.361 5.02603 34.7654C4.90088 35.3077 5.23906 35.8488 5.78138 35.974C6.32369 36.0991 6.86478 35.7609 6.98993 35.2186C7.27048 34.0029 7.64519 33.3476 7.97202 33.0123C8.26536 32.7113 8.55353 32.6297 8.86018 32.6473C9.03797 32.6575 9.23528 32.7033 9.44678 32.7842C9.55838 32.8654 9.68146 32.9204 9.80847 32.9501C9.90385 33.0008 10.0012 33.0576 10.1002 33.1208C10.5537 33.4099 10.977 33.7896 11.3055 34.1545C11.6778 34.5682 12.315 34.6018 12.7287 34.2294C13.1424 33.8571 13.1759 33.2199 12.8036 32.8062C12.4814 32.4482 12.0842 32.0724 11.637 31.7361C11.9237 31.4978 12.1756 31.3612 12.3866 31.288C12.751 31.1615 13.0733 31.195 13.3918 31.3384C14.1147 31.6638 14.7867 32.5546 15.1681 33.3936C15.3984 33.9003 15.9959 34.1243 16.5026 33.894C17.0092 33.6637 17.2333 33.0663 17.003 32.5596Z" fill="url(#paint1_linear_5006_641)"/>
<path d="M23.2302 32.5596C23.6886 31.5511 24.629 30.124 26.014 29.5005C26.7494 29.1694 27.605 29.0706 28.5076 29.3839C29.1997 29.6242 29.8601 30.0859 30.4909 30.7626C30.7389 30.6952 30.9953 30.6502 31.2576 30.6351C32.1225 30.5855 32.9869 30.8693 33.7045 31.6055C34.3886 32.3073 34.8831 33.361 35.2072 34.7654C35.3323 35.3077 34.9941 35.8488 34.4518 35.974C33.9095 36.0991 33.3684 35.7609 33.2433 35.2186C32.9627 34.0029 32.588 33.3476 32.2612 33.0123C31.9678 32.7113 31.6797 32.6297 31.373 32.6473C31.1952 32.6575 30.9979 32.7033 30.7864 32.7842C30.6748 32.8654 30.5517 32.9204 30.4247 32.9501C30.3293 33.0008 30.2319 33.0576 30.1329 33.1208C29.6795 33.4099 29.2562 33.7896 28.9277 34.1545C28.5554 34.5682 27.9182 34.6018 27.5045 34.2294C27.0908 33.8571 27.0573 33.2199 27.4296 32.8062C27.7518 32.4482 28.149 32.0724 28.5962 31.7361C28.3095 31.4978 28.0576 31.3612 27.8466 31.288C27.4822 31.1615 27.1599 31.195 26.8414 31.3384C26.1185 31.6638 25.4465 32.5546 25.0651 33.3936C24.8348 33.9003 24.2373 34.1243 23.7306 33.894C23.224 33.6637 22.9999 33.0663 23.2302 32.5596Z" fill="url(#paint2_linear_5006_641)"/>
<path d="M22.636 28.1862C22.636 27.6296 22.1848 27.1784 21.6282 27.1784C21.0717 27.1784 20.6205 27.6296 20.6205 28.1862V31.2094C20.6205 31.766 21.0717 32.2172 21.6282 32.2172C22.1848 32.2172 22.636 31.766 22.636 31.2094V28.1862Z" fill="url(#paint3_linear_5006_641)"/>
<path fill-rule="evenodd" clip-rule="evenodd" d="M20.1166 18.579C19.214 18.579 18.3634 18.2263 17.7196 17.585C17.0716 16.9401 16.7157 16.0857 16.717 15.1775C16.7194 13.3087 18.2416 11.7878 20.1104 11.7859H20.1135C21.9817 11.7859 23.5051 13.3032 23.5107 15.1701C23.5163 17.0401 22.0015 18.5691 20.1345 18.579H20.1166ZM18.5703 15.1924C18.5746 16.0387 19.2665 16.7257 20.1141 16.7257L20.1179 16.7251C20.9654 16.7232 21.6561 16.0319 21.6574 15.1837C21.658 14.3355 20.9698 13.6417 20.1228 13.638H20.1154C19.7033 13.638 19.3154 13.7993 19.0231 14.0915C18.7291 14.3855 18.5685 14.7766 18.5703 15.1924Z" fill="url(#paint4_linear_5006_641)"/>
<path fill-rule="evenodd" clip-rule="evenodd" d="M24.9655 25.9974L24.9662 25.9924C25.1602 25.9924 25.3523 25.993 25.5438 25.9937L25.5631 25.9937C26.2003 25.9949 26.8029 25.9961 27.4182 25.9906C28.435 25.9807 29.3314 25.3048 29.5983 24.346C29.8201 23.5491 29.6416 22.8077 29.0677 22.1412C28.0934 21.01 27.0524 19.7979 26.0405 18.5994C26.0078 18.5611 25.9787 18.4703 25.9831 18.4234C26.0306 17.9335 26.0974 17.4102 26.1999 16.7257C26.4235 15.2263 26.4211 13.8864 26.1925 12.6298C25.5061 8.86194 23.5787 5.97381 20.4632 4.04633L20.3884 4H19.8331L19.7534 4.0556C19.6234 4.14583 19.4871 4.23606 19.3549 4.32355L19.3388 4.33422C19.0318 4.53685 18.7143 4.7469 18.4227 4.99216C15.3597 7.56893 13.8344 10.9229 13.8888 14.9619C13.8999 15.7897 14.016 16.62 14.1285 17.4232L14.1358 17.4755C14.1767 17.7687 14.2189 18.0703 14.2545 18.3659C14.2693 18.4882 14.2489 18.5519 14.1631 18.6507C12.98 20.0148 12.0088 21.1472 11.1063 22.2159C10.3575 23.1024 10.3396 24.2855 11.063 25.1603C11.5177 25.7101 12.1151 25.9906 12.8398 25.993C13.4625 25.9955 14.0858 25.9949 14.7134 25.9943L14.7172 25.9943H15.2652L15.2656 25.9974H24.9655ZM25.6303 20.9822L25.2084 24.1391H26.2883C26.6429 24.1391 26.995 24.1391 27.3471 24.1403C27.5745 24.1409 27.7073 24.0649 27.7932 23.8864C27.8506 23.7659 27.8846 23.6127 27.6962 23.3928C27.4707 23.1302 27.2455 22.8673 27.0204 22.6046L25.6303 20.9822ZM18.802 7.1408C18.6241 7.30699 18.456 7.49479 18.2837 7.69372H21.9452C21.3973 7.04814 20.7956 6.50449 20.1197 6.04177L20.0402 6.10459C19.6229 6.435 19.1915 6.77655 18.802 7.1408ZM20.504 9.56004L20.4912 9.56004C19.3677 9.56066 18.207 9.5613 17.0648 9.56745C17.0456 9.57177 17.0123 9.58969 16.9968 9.6039C15.9194 11.6376 15.5209 13.8104 15.8113 16.0622C16.0245 17.7125 16.25 19.3899 16.4682 21.0128L16.7188 22.8806C16.7562 23.1632 16.7957 23.4454 16.8352 23.7278L16.8918 24.1317H23.3402C23.4471 23.3242 23.554 22.5162 23.6602 21.7087L23.6635 21.6838C23.9016 19.8796 24.1476 18.0152 24.3978 16.182C24.7092 13.9018 24.3225 11.6908 23.2469 9.61131C23.2302 9.57919 23.2191 9.56436 23.2142 9.55818C23.208 9.55695 23.1975 9.55633 23.1715 9.55509C22.2827 9.5588 21.3928 9.55942 20.504 9.56004ZM14.556 24.1385C14.7079 24.1366 14.8624 24.1347 15.0181 24.1335L14.5961 20.9847L14.2638 21.372C14.0908 21.5734 13.9178 21.7742 13.7442 21.975C13.3402 22.4426 12.9225 22.927 12.5222 23.4095C12.3721 23.5899 12.3783 23.7888 12.4333 23.9148C12.4654 23.9877 12.5469 24.1113 12.736 24.1212C13.334 24.152 13.9277 24.1459 14.556 24.1385Z" fill="url(#paint5_linear_5006_641)"/>
</g>
</g>
<defs>
<linearGradient id="paint0_linear_5006_641" x1="33.4957" y1="20.125" x2="7.86085" y2="20.125" gradientUnits="userSpaceOnUse">
<stop stop-color="#5442DD"/>
<stop offset="1" stop-color="#C892F6"/>
</linearGradient>
<linearGradient id="paint1_linear_5006_641" x1="33.4957" y1="20.125" x2="7.86085" y2="20.125" gradientUnits="userSpaceOnUse">
<stop stop-color="#5442DD"/>
<stop offset="1" stop-color="#C892F6"/>
</linearGradient>
<linearGradient id="paint2_linear_5006_641" x1="33.4957" y1="20.125" x2="7.86085" y2="20.125" gradientUnits="userSpaceOnUse">
<stop stop-color="#5442DD"/>
<stop offset="1" stop-color="#C892F6"/>
</linearGradient>
<linearGradient id="paint3_linear_5006_641" x1="33.4957" y1="20.125" x2="7.86085" y2="20.125" gradientUnits="userSpaceOnUse">
<stop stop-color="#5442DD"/>
<stop offset="1" stop-color="#C892F6"/>
</linearGradient>
<linearGradient id="paint4_linear_5006_641" x1="33.4957" y1="20.125" x2="7.86085" y2="20.125" gradientUnits="userSpaceOnUse">
<stop stop-color="#5442DD"/>
<stop offset="1" stop-color="#C892F6"/>
</linearGradient>
<linearGradient id="paint5_linear_5006_641" x1="33.4957" y1="20.125" x2="7.86085" y2="20.125" gradientUnits="userSpaceOnUse">
<stop stop-color="#5442DD"/>
<stop offset="1" stop-color="#C892F6"/>
</linearGradient>
</defs>
</svg>
