<svg width="40" height="40" viewBox="0 0 40 40" fill="none" xmlns="http://www.w3.org/2000/svg">
<g id="icon \ 16">
<g id="Vector">
<path fill-rule="evenodd" clip-rule="evenodd" d="M13.81 22.8202C13.9896 23.815 13.4658 24.8036 12.5418 25.2136L9.46864 26.5771C7.47164 27.4631 6.8158 29.565 7.95457 31.4295C9.21004 33.4851 12.1121 34.3906 14.3138 33.4137L30.6863 26.1495C32.6833 25.2634 33.3391 23.1616 32.2003 21.2971C31.3667 19.9322 29.7645 19.0248 28.0598 18.9273C27.0493 18.8695 26.2098 18.1274 26.0284 17.1317C25.8469 16.1359 26.3708 15.1454 27.2959 14.735L30.5942 13.2716C32.5487 12.4044 33.1898 10.3499 32.0752 8.52512C30.844 6.50921 27.996 5.62055 25.8368 6.57856L9.21917 13.9516C7.26465 14.8188 6.62362 16.8732 7.73816 18.698C8.55254 20.0314 10.1166 20.921 11.7847 21.0216C12.7938 21.0825 13.6303 21.8254 13.81 22.8202ZM8.37168 24.67C8.43998 24.6368 8.50928 24.6045 8.5796 24.5733L11.6528 23.2098C10.517 23.1413 9.39548 22.8105 8.40311 22.2534C7.37764 21.6777 6.49011 20.8602 5.86737 19.8406C4.06263 16.8858 5.16525 13.352 8.33013 11.9478L24.9477 4.5748C28.1126 3.17058 32.1413 4.42763 33.946 7.3825C35.7499 10.336 34.6492 13.8678 31.4877 15.2734C31.4862 15.274 31.4847 15.2747 31.4833 15.2753L28.185 16.7387C29.3272 16.8041 30.456 17.1313 31.4576 17.6849C32.5153 18.2696 33.4312 19.1067 34.0711 20.1545C35.9001 23.149 34.7827 26.7302 31.5753 28.1532L15.2029 35.4175C11.9955 36.8406 7.91274 35.5666 6.08377 32.5721C4.29491 29.6432 5.32465 26.1531 8.37168 24.67Z" fill="url(#paint0_linear_5006_645)"/>
<path d="M18.9499 15.9571C18.9499 15.4068 19.396 14.9607 19.9464 14.9607C20.4967 14.9607 20.9428 15.4068 20.9428 15.9571V23.9285C20.9428 24.4788 20.4967 24.9249 19.9464 24.9249C19.396 24.9249 18.9499 24.4788 18.9499 23.9285V15.9571Z" fill="url(#paint1_linear_5006_645)"/>
<path d="M23.932 18.9464C24.4824 18.9464 24.9285 19.3925 24.9285 19.9428C24.9285 20.4931 24.4824 20.9392 23.932 20.9392H15.9607C15.4103 20.9392 14.9642 20.4931 14.9642 19.9428C14.9642 19.3925 15.4103 18.9464 15.9607 18.9464H23.932Z" fill="url(#paint2_linear_5006_645)"/>
</g>
</g>
<defs>
<linearGradient id="paint0_linear_5006_645" x1="32.4023" y1="19.9997" x2="8.5929" y2="19.9997" gradientUnits="userSpaceOnUse">
<stop stop-color="#5442DD"/>
<stop offset="1" stop-color="#C892F6"/>
</linearGradient>
<linearGradient id="paint1_linear_5006_645" x1="32.4023" y1="19.9997" x2="8.5929" y2="19.9997" gradientUnits="userSpaceOnUse">
<stop stop-color="#5442DD"/>
<stop offset="1" stop-color="#C892F6"/>
</linearGradient>
<linearGradient id="paint2_linear_5006_645" x1="32.4023" y1="19.9997" x2="8.5929" y2="19.9997" gradientUnits="userSpaceOnUse">
<stop stop-color="#5442DD"/>
<stop offset="1" stop-color="#C892F6"/>
</linearGradient>
</defs>
</svg>
