<svg width="40" height="40" viewBox="0 0 40 40" fill="none" xmlns="http://www.w3.org/2000/svg">
<g id="icon \ 10">
<g id="Vector">
<path fill-rule="evenodd" clip-rule="evenodd" d="M20 33.8C27.6215 33.8 33.8 27.6215 33.8 20C33.8 12.3785 27.6215 6.2 20 6.2C12.3785 6.2 6.2 12.3785 6.2 20C6.2 27.6215 12.3785 33.8 20 33.8ZM20 36C28.8366 36 36 28.8366 36 20C36 11.1634 28.8366 4 20 4C11.1634 4 4 11.1634 4 20C4 28.8366 11.1634 36 20 36Z" fill="url(#paint0_linear_5006_555)"/>
<path fill-rule="evenodd" clip-rule="evenodd" d="M24.1912 13.2139C24.5786 12.746 25.272 12.6808 25.74 13.0682C27.1657 14.2487 28.1927 15.8402 28.6811 17.6256C29.1695 19.411 29.0955 21.3036 28.4692 23.0454C27.8429 24.7873 26.6947 26.2936 25.1812 27.3592C23.6677 28.4249 21.8624 28.9979 20.0114 29.0002C18.1604 29.0026 16.3537 28.4341 14.8375 27.3723C13.3212 26.3106 12.1693 24.8071 11.5386 23.0669C10.9079 21.3266 10.8291 19.4342 11.3129 17.6476C11.7968 15.8609 12.8198 14.2669 14.2425 13.0828C14.7094 12.6941 15.403 12.7576 15.7917 13.2245C16.1803 13.6915 16.1168 14.3851 15.6499 14.7737C14.575 15.6684 13.802 16.8727 13.4364 18.2227C13.0709 19.5726 13.1304 21.0024 13.6069 22.3172C14.0835 23.6321 14.9538 24.768 16.0994 25.5703C17.245 26.3725 18.6101 26.802 20.0086 26.8002C21.4072 26.7985 22.7711 26.3655 23.9147 25.5604C25.0582 24.7552 25.9257 23.6171 26.3989 22.301C26.8721 20.985 26.928 19.555 26.559 18.206C26.19 16.8571 25.4141 15.6547 24.3369 14.7627C23.8689 14.3752 23.8037 13.6818 24.1912 13.2139Z" fill="url(#paint1_linear_5006_555)"/>
<path fill-rule="evenodd" clip-rule="evenodd" d="M20 9.8999C20.6075 9.8999 21.1 10.3924 21.1 10.9999V16.9999C21.1 17.6074 20.6075 18.0999 20 18.0999C19.3925 18.0999 18.9 17.6074 18.9 16.9999V10.9999C18.9 10.3924 19.3925 9.8999 20 9.8999Z" fill="url(#paint2_linear_5006_555)"/>
</g>
</g>
<defs>
<linearGradient id="paint0_linear_5006_555" x1="18.9953" y1="-15.9446" x2="18.9953" y2="40.43" gradientUnits="userSpaceOnUse">
<stop stop-color="#5442DD"/>
<stop offset="1" stop-color="#C892F6"/>
</linearGradient>
<linearGradient id="paint1_linear_5006_555" x1="18.9953" y1="-15.9446" x2="18.9953" y2="40.43" gradientUnits="userSpaceOnUse">
<stop stop-color="#5442DD"/>
<stop offset="1" stop-color="#C892F6"/>
</linearGradient>
<linearGradient id="paint2_linear_5006_555" x1="18.9953" y1="-15.9446" x2="18.9953" y2="40.43" gradientUnits="userSpaceOnUse">
<stop stop-color="#5442DD"/>
<stop offset="1" stop-color="#C892F6"/>
</linearGradient>
</defs>
</svg>
