<svg width="1440" height="992" viewBox="0 0 1440 992" fill="none" xmlns="http://www.w3.org/2000/svg">
<g filter="url(#filter0_bdi_18_203)">
<path fill-rule="evenodd" clip-rule="evenodd" d="M-23 860.827C-13.2734 855.976 -5.24802 850.276 1.37439 844.19C22.7683 899.773 83.0716 948.342 209.175 925.436C227.826 922.024 243.794 916.943 257.466 910.709C268.925 921.691 285.651 929.86 305.259 932.759C335.846 937.276 364.735 927.716 379.855 910.217C416.233 925.649 450.67 929.929 480.873 927.399C534.077 928.416 576.657 912.639 610.082 890.451C616.6 923.26 651.574 949.43 696.011 951.825C734.56 953.892 769.253 937.515 785.864 912.378C896.648 949.54 986.442 906.241 1025.2 861.319C1033.4 865.209 1042.55 868.79 1052.76 871.988C1096.14 885.532 1132.57 877.963 1161.61 862.403C1162.03 887.393 1181.85 910.309 1210.65 916.537C1235.64 921.932 1260.26 913.259 1274.07 896.278C1344.78 936.399 1410.86 909.988 1440 879.026V137.565C1437.68 136.004 1435.29 134.576 1432.82 133.298C1409.07 121.014 1369.81 112.413 1323.45 133.447C1303.69 98.2088 1251.29 78.7482 1196.47 88.9195C1150.94 97.3552 1116.12 123.978 1104.51 155.29C1080.74 144.905 1048.87 143.518 1022.27 153.255C1021.6 153.506 1020.92 153.764 1020.26 154.028L1019.72 153.862C1019.46 153.782 1019.19 153.703 1018.93 153.625C989.473 102.097 925.214 64.5766 847.752 60.3868C755.235 55.381 673.021 99.4526 643.094 163.982C631.108 158.759 617.231 154.841 601.321 153.1C585.972 151.413 572.795 152.066 561.44 154.079C547.913 136.886 526.957 123.121 502.146 117.136C467.592 108.974 428.413 116.428 400.798 134.329C381.103 95.0454 333.513 66.0455 275.76 62.9442C206.232 59.1899 144.764 94.1205 126.331 144.122C65.4238 124.535 18.3245 142.816 -8.94006 163.22C-12.8651 166.163 -16.5775 169.463 -20.0533 173.054C-21.0395 173.148 -22.0217 173.251 -23 173.364V860.827Z" fill="#221F27" fill-opacity="0.1" shape-rendering="crispEdges"/>
</g>
<defs>
<filter id="filter0_bdi_18_203" x="-373" y="-290" width="2163" height="1592" filterUnits="userSpaceOnUse" color-interpolation-filters="sRGB">
<feFlood flood-opacity="0" result="BackgroundImageFix"/>
<feGaussianBlur in="BackgroundImageFix" stdDeviation="175"/>
<feComposite in2="SourceAlpha" operator="in" result="effect1_backgroundBlur_18_203"/>
<feColorMatrix in="SourceAlpha" type="matrix" values="0 0 0 0 0 0 0 0 0 0 0 0 0 0 0 0 0 0 127 0" result="hardAlpha"/>
<feOffset dx="-3" dy="-10"/>
<feGaussianBlur stdDeviation="25"/>
<feComposite in2="hardAlpha" operator="out"/>
<feColorMatrix type="matrix" values="0 0 0 0 0 0 0 0 0 0 0 0 0 0 0 0 0 0 0.15 0"/>
<feBlend mode="normal" in2="effect1_backgroundBlur_18_203" result="effect2_dropShadow_18_203"/>
<feBlend mode="normal" in="SourceGraphic" in2="effect2_dropShadow_18_203" result="shape"/>
<feColorMatrix in="SourceAlpha" type="matrix" values="0 0 0 0 0 0 0 0 0 0 0 0 0 0 0 0 0 0 127 0" result="hardAlpha"/>
<feOffset dx="8" dy="8"/>
<feGaussianBlur stdDeviation="10"/>
<feComposite in2="hardAlpha" operator="arithmetic" k2="-1" k3="1"/>
<feColorMatrix type="matrix" values="0 0 0 0 0.82618 0 0 0 0 0.393333 0 0 0 0 1 0 0 0 0.1 0"/>
<feBlend mode="normal" in2="shape" result="effect3_innerShadow_18_203"/>
</filter>
</defs>
</svg>
