<svg width="40" height="40" viewBox="0 0 40 40" fill="none" xmlns="http://www.w3.org/2000/svg">
<g id="_&#208;&#160;&#208;&#142;&#208;&#160;&#194;&#187;&#208;&#160;&#209;&#149;&#208;&#160;&#226;&#132;&#150;_1">
<g id="Vector">
<path d="M25.7098 3.00621H26.2413C26.8144 3.27144 27.0211 3.72472 26.9785 4.34299C26.9457 4.81579 26.9723 5.29303 26.9723 5.76849V6.37523H28.9649C28.9649 5.68599 28.9924 5.01272 28.9569 4.34299C28.9241 3.72472 29.121 3.27144 29.695 3.00621H30.2264C30.8004 3.27144 30.9965 3.72561 30.9646 4.34477C30.93 5.01449 30.9566 5.68865 30.9566 6.39297C31.4827 6.39297 31.9768 6.39208 32.4719 6.39297C33.2233 6.39474 33.6101 6.78505 33.6128 7.5417C33.6137 8.03579 33.6128 8.52988 33.6128 9.0488C34.4352 9.0488 35.2186 9.04082 36.0019 9.05146C36.5688 9.05944 36.9973 9.49765 36.9982 10.0414C36.9991 10.5852 36.5724 11.0234 36.0064 11.0367C35.4865 11.0491 34.9666 11.0393 34.4458 11.0393C34.1744 11.0393 33.902 11.0393 33.6394 11.0393V13.0325C34.4521 13.0325 35.2372 13.0228 36.0232 13.0361C36.544 13.045 36.953 13.4441 36.9965 13.9471C37.0382 14.4323 36.7072 14.8847 36.2149 14.9956C36.0765 15.0266 35.9292 15.0222 35.7864 15.0231C35.0704 15.0257 34.3553 15.024 33.6359 15.024V17.0163C34.3988 17.0163 35.1387 17.0145 35.8786 17.0163C36.5484 17.0181 37.0027 17.427 36.9982 18.0187C36.9929 18.6112 36.5422 19.0051 35.8644 19.0068C35.2115 19.0086 34.5585 19.0068 33.9056 19.0077C33.8115 19.0077 33.7166 19.0201 33.6314 19.0263V21C34.4334 21 35.2168 20.9921 36.0002 21.0027C36.568 21.0107 36.9965 21.4471 36.9982 21.9909C37 22.5346 36.5733 22.9737 36.0082 22.9879C35.5326 23.0003 35.0562 22.9906 34.5807 22.9906C34.264 22.9906 33.9481 22.9906 33.6385 22.9906V24.9838C34.4503 24.9838 35.2354 24.974 36.0206 24.9873C36.5422 24.9962 36.9512 25.3927 36.9956 25.8966C37.0382 26.3809 36.709 26.8342 36.2158 26.9459C36.0782 26.977 35.9301 26.9734 35.7872 26.9734C35.0713 26.9761 34.3554 26.9743 33.6341 26.9743V28.9666C34.4183 28.9666 35.1804 28.9631 35.9425 28.9675C36.5573 28.972 37.0009 29.3977 36.9974 29.9672C36.9938 30.5367 36.5511 30.951 35.9319 30.9572C35.4785 30.9616 35.0243 30.9581 34.5709 30.9581C34.2551 30.9581 33.9393 30.9581 33.6128 30.9581C33.6128 31.5063 33.6146 32.0039 33.6128 32.5015C33.6092 33.2112 33.2109 33.6103 32.502 33.6139C31.9964 33.6166 31.4907 33.6139 30.9566 33.6139C30.9566 33.7576 30.9566 33.8649 30.9566 33.9732C30.9566 34.626 30.9601 35.2789 30.9557 35.9318C30.9513 36.5509 30.5361 36.9953 29.9674 36.9989C29.3987 37.0033 28.9729 36.5589 28.9658 35.9451C28.9613 35.5574 28.9649 35.1707 28.9649 34.783C28.9649 34.3998 28.9649 34.0175 28.9649 33.6387H26.9918C26.9838 33.6751 26.9794 33.6849 26.9794 33.6955C26.9767 34.4477 26.975 35.1999 26.9723 35.9522C26.9705 36.362 26.8037 36.6813 26.4382 36.8774C25.7702 37.2348 24.9975 36.7674 24.9841 35.9894C24.9708 35.207 24.9815 34.4247 24.9815 33.6343H22.988C22.988 34.4282 22.9942 35.2008 22.9862 35.9743C22.98 36.5642 22.5453 37.0007 21.989 36.998C21.4328 36.9962 21.0052 36.5589 20.9981 35.9672C20.991 35.3366 20.9963 34.7059 20.9963 34.0752C20.9963 33.9253 20.9963 33.7762 20.9963 33.6299H19.0037C19.0037 33.7656 19.0037 33.8845 19.0037 34.0033C19.0037 34.6784 19.0135 35.3534 18.9984 36.0285C18.9869 36.5483 18.585 36.9554 18.0819 36.9962C17.5975 37.0353 17.1433 36.7 17.0377 36.2085C17.0058 36.0595 17.0129 35.9007 17.012 35.7464C17.0093 35.0421 17.0111 34.3386 17.0111 33.6378H15.0185C15.0185 34.4256 15.0185 35.1884 15.0185 35.9513C15.0185 36.3611 14.8509 36.6813 14.4853 36.8774C13.8173 37.2357 13.0437 36.7691 13.0304 35.9912C13.0171 35.2088 13.0277 34.4264 13.0277 33.6343H11.0342C11.0342 34.4389 11.0431 35.223 11.0316 36.0063C11.0227 36.5713 10.58 36.9998 10.0371 36.9989C9.49411 36.998 9.05673 36.5687 9.04608 36.0027C9.03455 35.3836 9.04342 34.7635 9.04342 34.1435C9.04342 33.9714 9.04342 33.7993 9.04342 33.613C8.49781 33.613 8.00011 33.6148 7.50329 33.613C6.79178 33.6103 6.39077 33.2121 6.38723 32.506C6.38456 32.0004 6.38723 31.4938 6.38723 30.9572C5.68281 30.9572 5.00856 30.9297 4.33874 30.9652C3.7195 30.9971 3.26615 30.8002 3 30.2271V29.6958C3.26526 29.1228 3.71861 28.9161 4.33697 28.9587C4.80983 28.9915 5.28713 28.9649 5.76266 28.9649H6.36948V26.9725C5.68015 26.9725 5.00678 26.9451 4.33697 26.9805C3.71861 27.0125 3.26526 26.8147 3 26.2425V25.7112C3.26526 25.1381 3.71861 24.9314 4.33697 24.974C4.80983 25.0068 5.28713 24.9802 5.76266 24.9802H6.36948V22.9879C5.68015 22.9879 5.00678 22.9604 4.33697 22.9959C3.71861 23.0278 3.26526 22.83 3 22.2579V21.7265C3.26526 21.1535 3.71861 20.9468 4.33697 20.9894C4.80983 21.0222 5.28713 20.9956 5.76266 20.9956H6.36948V19.0033C5.68015 19.0033 5.00678 18.9758 4.33697 19.0113C3.71861 19.0432 3.26526 18.8454 3 18.2732V17.7419C3.26526 17.1689 3.71861 16.9622 4.33697 17.0048C4.80983 17.0376 5.28713 17.011 5.76266 17.011C5.96671 17.011 6.17164 17.011 6.36948 17.011V15.0187C5.68015 15.0187 5.00678 14.9912 4.33697 15.0266C3.71861 15.0586 3.26526 14.8608 3 14.2886V13.7573C3.26526 13.1842 3.71861 12.9775 4.33697 13.0201C4.80983 13.0529 5.28713 13.0263 5.76266 13.0263H6.36948V11.034C5.68015 11.034 5.00678 11.0065 4.33697 11.042C3.71861 11.0739 3.26526 10.8761 3 10.304V9.77263C3.26526 9.19871 3.71861 8.9938 4.33697 9.03549C4.83201 9.0692 5.33149 9.04259 5.82919 9.04259H6.38634C6.38634 8.49173 6.38456 7.99498 6.38634 7.49735C6.38989 6.78859 6.78823 6.39031 7.49708 6.38676C8.00277 6.38499 8.50757 6.38676 9.04253 6.38676C9.04253 5.68067 9.07004 5.0074 9.03455 4.33679C9.00172 3.71851 9.19868 3.26434 9.77268 3H10.3041C10.8772 3.26523 11.0839 3.71851 11.0413 4.33679C11.0085 4.80958 11.0351 5.28682 11.0351 5.76228V6.36902H13.0277C13.0277 5.67978 13.0552 5.00651 13.0197 4.33679C12.9869 3.71851 13.1839 3.26523 13.7579 3H14.2893C14.8624 3.26523 15.0691 3.71851 15.0265 4.33679C14.9937 4.80958 15.0203 5.28682 15.0203 5.76228V6.36902H17.0129C17.0129 5.67978 17.0404 5.00651 17.0049 4.33679C16.9721 3.71851 17.169 3.26523 17.743 3H18.2745C18.8476 3.26523 19.0543 3.71851 19.0117 4.33679C18.9789 4.80958 19.0055 5.28682 19.0055 5.76228C19.0055 5.9663 19.0055 6.17121 19.0055 6.36902H20.9981C20.9981 5.67978 21.0256 5.00651 20.9901 4.33679C20.9573 3.71851 21.1542 3.26523 21.7282 3H22.2596C22.8327 3.26523 23.0395 3.71851 22.9969 4.33679C22.964 4.80958 22.9907 5.28682 22.9907 5.76228V6.36902H24.9833C24.9833 5.67978 25.0108 5.00651 24.9753 4.33679C24.9424 3.71851 25.1394 3.26523 25.7134 3L25.7098 3.00621ZM8.40022 8.39948V31.5985H31.6033V8.39948H8.40022Z" fill="url(#paint0_linear_928_1490)"/>
<path d="M20.0018 10.3767C22.8123 10.3767 25.622 10.3767 28.4326 10.3767C29.255 10.3767 29.6285 10.7493 29.6285 11.5698C29.6285 17.1893 29.6285 22.8087 29.6285 28.4282C29.6285 29.2673 29.2585 29.6319 28.4104 29.6319C22.8008 29.6319 17.1921 29.6319 11.5825 29.6319C10.7379 29.6319 10.3706 29.2647 10.3706 28.422C10.3706 22.8025 10.3706 17.1831 10.3706 11.5636C10.3706 10.7457 10.7441 10.3767 11.5719 10.3767C14.3824 10.3767 17.1921 10.3767 20.0027 10.3767H20.0018ZM27.6128 27.6254V12.3948H12.3792V27.6254H27.6128Z" fill="url(#paint1_linear_928_1490)"/>
<path d="M18.3259 15.0266C18.8538 15.0213 19.2619 15.314 19.473 15.8684C20.0071 17.2718 20.535 18.6777 21.0646 20.0828C21.5091 21.2608 21.9562 22.4371 22.3945 23.6168C22.548 24.0284 22.4717 24.4081 22.1505 24.7115C21.8507 24.9944 21.4709 25.0938 21.1116 24.8951C20.8792 24.7665 20.6716 24.5305 20.5412 24.2945C20.3611 23.9699 20.2777 23.592 20.1215 23.2523C20.0763 23.1529 19.9246 23.042 19.8199 23.0403C18.8245 23.0243 17.8291 23.0243 16.8337 23.0403C16.7317 23.042 16.5853 23.16 16.5383 23.2611C16.3857 23.5911 16.2739 23.9397 16.139 24.2777C15.9101 24.8534 15.3654 25.1177 14.834 24.9181C14.3017 24.7177 14.0595 24.1562 14.2786 23.5769C15.2554 20.9956 16.2375 18.4161 17.2223 15.8374C17.4192 15.3229 17.8291 15.032 18.325 15.0275L18.3259 15.0266ZM17.382 21.0169H19.2885C18.9753 20.1893 18.6746 19.3954 18.3392 18.5083C18.0003 19.3971 17.6996 20.1866 17.382 21.0169Z" fill="url(#paint2_linear_928_1490)"/>
<path d="M23.8175 19.9986C23.8175 18.6928 23.8086 17.3871 23.8211 16.0813C23.829 15.3096 24.5033 14.8279 25.1731 15.0967C25.5156 15.2342 25.7303 15.4906 25.7861 15.8605C25.8074 16.0015 25.8083 16.147 25.8083 16.2907C25.8092 18.7691 25.8092 21.2475 25.8083 23.7268C25.8083 24.5181 25.4339 24.9864 24.8067 24.9829C24.1795 24.9793 23.8166 24.5163 23.8157 23.7162C23.8157 22.477 23.8157 21.2378 23.8157 19.9986H23.8175Z" fill="url(#paint3_linear_928_1490)"/>
</g>
</g>
<defs>
<linearGradient id="paint0_linear_928_1490" x1="36.6354" y1="19.9997" x2="7.41015" y2="19.9997" gradientUnits="userSpaceOnUse">
<stop stop-color="#5442DD"/>
<stop offset="1" stop-color="#C892F6"/>
</linearGradient>
<linearGradient id="paint1_linear_928_1490" x1="36.6354" y1="19.9997" x2="7.41015" y2="19.9997" gradientUnits="userSpaceOnUse">
<stop stop-color="#5442DD"/>
<stop offset="1" stop-color="#C892F6"/>
</linearGradient>
<linearGradient id="paint2_linear_928_1490" x1="36.6354" y1="19.9997" x2="7.41015" y2="19.9997" gradientUnits="userSpaceOnUse">
<stop stop-color="#5442DD"/>
<stop offset="1" stop-color="#C892F6"/>
</linearGradient>
<linearGradient id="paint3_linear_928_1490" x1="36.6354" y1="19.9997" x2="7.41015" y2="19.9997" gradientUnits="userSpaceOnUse">
<stop stop-color="#5442DD"/>
<stop offset="1" stop-color="#C892F6"/>
</linearGradient>
</defs>
</svg>
