<svg width="40" height="40" viewBox="0 0 40 40" fill="none" xmlns="http://www.w3.org/2000/svg">
<g id="_&#195;&#144;&#194;&#161;&#195;&#144;&#194;&#187;&#195;&#144;&#194;&#190;&#195;&#144;&#194;&#185;_1">
<g id="Vector">
<path d="M37 21.0576C36.915 21.6802 36.8451 22.3055 36.7415 22.9255C35.64 29.5082 30.5356 34.9946 24.0251 36.5068C19.0924 37.6527 14.5016 36.8022 10.2976 33.9507C10.2427 33.9135 10.1878 33.8762 10.1303 33.8425C10.1134 33.8328 10.0904 33.8337 10.0231 33.8195C10.0842 34.2984 10.1418 34.7623 10.202 35.2261C10.2285 35.4345 10.2648 35.6412 10.287 35.8505C10.3472 36.411 9.95141 36.9095 9.39625 36.976C8.88625 37.0372 8.38688 36.6523 8.31339 36.1148C8.10797 34.6141 7.90521 33.1135 7.71839 31.611C7.61656 30.7898 7.96453 30.388 8.7738 30.2869C10.2223 30.1068 11.6682 29.9144 13.115 29.7193C13.7366 29.635 14.2545 29.9773 14.3431 30.5503C14.4298 31.1126 14.0261 31.6013 13.3992 31.6873C12.6342 31.7929 11.8683 31.8957 11.0174 32.011C11.2326 32.1689 11.3831 32.2869 11.5416 32.3942C14.3085 34.2638 17.3668 35.1206 20.6977 34.984C27.5198 34.7046 33.4194 29.627 34.7183 22.9131C35.3398 19.7006 34.9662 16.6 33.5903 13.6244C33.2866 12.9681 33.5371 12.333 34.1614 12.1477C34.6421 12.0049 35.1149 12.2124 35.3469 12.6913C36.0677 14.184 36.5511 15.7521 36.7981 17.3911C36.8752 17.9037 36.9327 18.4182 36.9991 18.9326V21.0567L37 21.0576Z" fill="url(#paint0_linear_929_1531)"/>
<path d="M30.8906 3C31.4254 3.19512 31.6671 3.58004 31.7327 4.14501C31.8947 5.54989 32.1028 6.95033 32.2781 8.35432C32.3843 9.20753 32.047 9.59777 31.1819 9.70686C29.7449 9.88868 28.3096 10.0794 26.8744 10.2727C26.2581 10.3561 25.734 10.0022 25.6534 9.43103C25.5746 8.87582 25.9721 8.38713 26.5733 8.30554C27.3498 8.19999 28.1264 8.098 29.0011 7.98092C28.6399 7.7317 28.361 7.52327 28.0679 7.3388C25.2532 5.57028 22.1887 4.80399 18.8693 5.0408C12.2615 5.51263 6.62844 10.4058 5.295 17.0124C4.65484 20.1858 5.00901 23.2581 6.33802 26.2142C6.40089 26.3552 6.47703 26.4944 6.51333 26.6425C6.63906 27.149 6.3699 27.6554 5.90062 27.8248C5.40479 28.004 4.89391 27.7982 4.6513 27.2989C4.04036 26.0403 3.59323 24.7241 3.33646 23.3494C3.2125 22.6878 3.14964 22.0155 3.05755 21.3476C3.04427 21.2501 3.01948 21.1543 3 21.0585C3 20.3507 3 19.6421 3 18.9343C3.10891 18.1814 3.19036 17.4239 3.32937 16.6771C4.59375 9.90819 10.248 4.37738 17.0374 3.26164C17.6678 3.15787 18.3044 3.08603 18.9375 3C19.6237 3 20.3099 3 20.9961 3C21.1041 3.01863 21.2113 3.04701 21.3202 3.05499C23.701 3.23326 25.9465 3.88337 28.044 5.02306C28.6904 5.37428 29.3084 5.77871 29.9397 6.1592C29.9477 6.14057 29.9645 6.12106 29.9618 6.10421C29.8936 5.54456 29.8219 4.98581 29.7555 4.42616C29.6572 3.59956 29.7741 3.37605 30.4922 3H30.8906Z" fill="url(#paint1_linear_929_1531)"/>
<path d="M26.7602 27.6456C26.6344 27.5907 26.3847 27.5055 26.1598 27.3778C25.78 27.1614 25.3984 26.9751 24.9442 27.0053C24.0579 27.0638 23.3752 27.7467 23.3247 28.639C23.3132 28.8483 23.3247 29.0594 23.3177 29.2696C23.3008 29.8549 22.8927 30.2789 22.3101 30.2824C20.7721 30.2904 19.2341 30.2904 17.6953 30.2824C17.0958 30.2798 16.6956 29.8532 16.6761 29.2456C16.6664 28.937 16.6797 28.6204 16.6124 28.3232C16.3654 27.2314 15.1966 26.6904 14.1961 27.1871C13.988 27.29 13.7932 27.4186 13.5869 27.5232C13.0902 27.7751 12.5386 27.6394 12.2561 27.1596C11.4664 25.8159 10.6863 24.4669 9.91865 23.1108C9.63708 22.6142 9.80885 22.0678 10.3003 21.7609C10.4782 21.6501 10.6668 21.5552 10.8421 21.4399C11.8852 20.7507 11.9108 19.3095 10.8899 18.5849C10.7014 18.451 10.4906 18.3481 10.2949 18.2239C9.80531 17.9144 9.63885 17.3689 9.9213 16.8714C10.6898 15.5162 11.4699 14.1663 12.2606 12.8235C12.5421 12.3454 13.0955 12.2142 13.5931 12.4696C13.7897 12.5707 13.9765 12.6905 14.174 12.7898C15.3108 13.3618 16.6044 12.6089 16.6735 11.3344C16.685 11.125 16.6735 10.914 16.6797 10.7038C16.6983 10.1379 17.1056 9.7113 17.6696 9.70775C19.2191 9.69799 20.7677 9.69888 22.3171 9.70775C22.8971 9.7113 23.2973 10.1388 23.3194 10.7268C23.3318 11.0461 23.3159 11.3743 23.3867 11.682C23.6355 12.7534 24.7919 13.2909 25.7853 12.8128C25.9943 12.7126 26.1882 12.5822 26.3936 12.4749C26.9018 12.2106 27.4579 12.349 27.7483 12.843C28.5319 14.1778 29.3057 15.5171 30.0698 16.8625C30.3541 17.3627 30.1956 17.9064 29.7086 18.2186C29.5324 18.3321 29.3438 18.427 29.1685 18.5432C28.067 19.2723 28.0839 20.7703 29.2004 21.47C29.3686 21.5756 29.5466 21.6669 29.7139 21.7742C30.1867 22.0776 30.3541 22.6177 30.0805 23.102C29.3075 24.4678 28.5186 25.8248 27.7261 27.1791C27.5464 27.486 27.2542 27.6341 26.7584 27.6448L26.7602 27.6456ZM27.8483 23.0017C25.8659 21.455 25.8845 18.521 27.8492 16.9893C27.4056 16.223 26.9611 15.4532 26.5149 14.6816C25.3399 15.1419 24.227 15.0887 23.1645 14.4696C22.1046 13.8523 21.522 12.9007 21.3379 11.7069H18.6577C18.4753 12.9166 17.8839 13.8647 16.8205 14.4794C15.7571 15.0931 14.6432 15.1383 13.4842 14.6825C13.0327 15.4638 12.5882 16.2337 12.1402 17.0088C13.1212 17.7929 13.6321 18.7791 13.6294 20.0119C13.6259 21.2421 13.0946 22.2195 12.1428 22.9867C12.5979 23.7734 13.0389 24.5352 13.4851 25.3077C14.6441 24.8492 15.758 24.8962 16.8205 25.5108C17.8839 26.1255 18.4753 27.0736 18.6568 28.2771H21.3432C21.53 27.0594 22.1259 26.1184 23.1928 25.5046C24.2597 24.8918 25.3718 24.8581 26.5176 25.3042C26.9682 24.5237 27.4092 23.7601 27.8483 23.0009V23.0017Z" fill="url(#paint2_linear_929_1531)"/>
<path d="M15.6836 19.9809C15.6889 17.6031 17.6439 15.6696 20.031 15.6811C22.3942 15.6927 24.3208 17.6394 24.3155 20.0102C24.3102 22.3889 22.3552 24.3224 19.9681 24.3108C17.6058 24.2993 15.6783 22.3507 15.6836 19.9809ZM17.6767 20.0093C17.682 21.2847 18.7347 22.325 20.0142 22.3188C21.2909 22.3126 22.3295 21.2616 22.3233 19.9818C22.3171 18.7055 21.267 17.6678 19.9858 17.6731C18.7091 17.6785 17.6714 18.7286 17.6767 20.0093Z" fill="url(#paint3_linear_929_1531)"/>
</g>
</g>
<defs>
<linearGradient id="paint0_linear_929_1531" x1="18.9325" y1="-18.1911" x2="18.9325" y2="41.7069" gradientUnits="userSpaceOnUse">
<stop stop-color="#5442DD"/>
<stop offset="1" stop-color="#C892F6"/>
</linearGradient>
<linearGradient id="paint1_linear_929_1531" x1="18.9325" y1="-18.1911" x2="18.9325" y2="41.7069" gradientUnits="userSpaceOnUse">
<stop stop-color="#5442DD"/>
<stop offset="1" stop-color="#C892F6"/>
</linearGradient>
<linearGradient id="paint2_linear_929_1531" x1="18.9325" y1="-18.1911" x2="18.9325" y2="41.7069" gradientUnits="userSpaceOnUse">
<stop stop-color="#5442DD"/>
<stop offset="1" stop-color="#C892F6"/>
</linearGradient>
<linearGradient id="paint3_linear_929_1531" x1="18.9325" y1="-18.1911" x2="18.9325" y2="41.7069" gradientUnits="userSpaceOnUse">
<stop stop-color="#5442DD"/>
<stop offset="1" stop-color="#C892F6"/>
</linearGradient>
</defs>
</svg>
