<svg width="40" height="40" viewBox="0 0 40 40" fill="none" xmlns="http://www.w3.org/2000/svg">
<g id="_&#208;&#160;&#208;&#142;&#208;&#160;&#194;&#187;&#208;&#160;&#209;&#149;&#208;&#160;&#226;&#132;&#150;_1">
<path id="Vector" d="M32.4853 37H31.4229C31.3937 36.9858 31.3653 36.9619 31.3343 36.9574C30.0608 36.7996 29.0366 36.1905 28.1427 35.2869C25.7785 32.8973 23.393 30.529 21.019 28.1492C20.9268 28.057 20.8701 27.9284 20.7424 27.7342C20.5819 27.9435 20.5118 28.0579 20.4196 28.1501C17.9117 30.662 15.395 33.1651 12.8969 35.6859C12.3045 36.2836 11.697 36.8236 10.8448 37H10.0485C9.20248 36.8386 8.59236 36.319 8.00974 35.7232C6.68752 34.3701 5.33959 33.0436 4.00142 31.7056C2.66501 30.3703 2.66679 28.7823 4.00319 27.446C6.63963 24.8108 9.27519 22.1739 11.9108 19.5378C11.9861 19.4624 12.0571 19.3808 12.1413 19.2895C12.0438 19.1866 11.9622 19.098 11.8779 19.0128C10.1185 17.2528 8.36179 15.4892 6.59707 13.7336C5.60208 12.744 4.90329 11.5834 4.55389 10.225C4.05019 8.26809 3.5589 6.30764 3.07117 4.34631C2.85213 3.4685 3.46934 2.85137 4.34727 3.06861C6.1581 3.51815 7.96185 3.99962 9.77801 4.427C11.4204 4.81448 12.7975 5.61426 13.9734 6.82369C15.6388 8.53675 17.3459 10.209 19.0362 11.8981C19.1186 11.9806 19.2064 12.0577 19.3341 12.1766C19.4405 12.0462 19.5159 11.9345 19.609 11.8414C22.2357 9.21151 24.8633 6.58251 27.4927 3.95617C28.7679 2.68202 30.3854 2.68202 31.657 3.95174C33.0032 5.29594 34.3387 6.65256 35.6982 7.98346C36.3012 8.57399 36.8377 9.18669 36.9991 10.0468V10.843C36.8235 11.6951 36.2826 12.3025 35.6858 12.8948C33.1575 15.4014 30.6461 17.9258 28.1258 20.4404C28.0416 20.5246 27.9228 20.5743 27.8199 20.6399C27.8199 20.6913 27.819 20.7428 27.8181 20.7942C27.929 20.8678 28.0567 20.9245 28.1498 21.0167C30.584 23.4454 33.0138 25.8793 35.4481 28.3079C36.1212 28.9791 36.5947 29.7612 36.8333 30.6824C36.8971 30.9271 36.945 31.1754 37 31.4228V32.485C36.9796 32.5586 36.9521 32.6304 36.9388 32.7058C36.5442 34.825 35.3186 36.2002 33.2542 36.8209C33.0032 36.8963 32.7425 36.9406 32.4862 36.9991L32.4853 37ZM26.5331 19.1326C25.5807 18.1803 24.6106 17.212 23.6413 16.2411C23.1651 15.7641 23.1234 15.1602 23.534 14.7408C23.9526 14.3135 24.5503 14.3409 25.0327 14.8206C25.9354 15.7171 26.8329 16.6179 27.733 17.5161C27.8154 17.5986 27.9015 17.6766 27.9378 17.7112C28.4637 17.1863 28.9603 16.6898 29.4764 16.1746C29.0153 15.7171 28.5222 15.2418 28.0478 14.7479C27.9068 14.6016 27.7791 14.4172 27.7152 14.2266C27.5725 13.7965 27.7729 13.3337 28.1524 13.1111C28.555 12.8753 29.0179 12.9267 29.3709 13.2707C29.8914 13.7788 30.3996 14.3002 30.8864 14.7887C31.4061 14.2709 31.9054 13.7726 32.4392 13.2406C32.2751 13.0836 32.0907 12.9125 31.9124 12.7352C31.0904 11.915 30.2657 11.0966 29.4498 10.2693C29.1057 9.92086 29.049 9.44471 29.2751 9.05014C29.4897 8.67507 29.9216 8.46848 30.3526 8.5935C30.5636 8.65557 30.7747 8.79211 30.9334 8.94817C31.8353 9.82953 32.7212 10.7277 33.6133 11.6188C33.6967 11.7022 33.7854 11.7784 33.9051 11.8893C34.1756 11.6047 34.4239 11.3378 34.6775 11.0771C35.1209 10.6222 35.1244 10.2392 34.6757 9.78874C33.1983 8.30887 31.72 6.83078 30.24 5.35358C29.7584 4.873 29.3886 4.87477 28.9062 5.35712C21.0519 13.2122 13.1984 21.0664 5.34491 28.9215C4.88023 29.3861 4.88112 29.7629 5.34757 30.2311C6.32394 31.21 7.30296 32.1871 8.28021 33.1651C8.80431 33.6891 9.32485 34.2176 9.85427 34.7354C10.1877 35.0617 10.5814 35.1123 10.8954 34.8383C11.2341 34.543 11.5383 34.207 11.8682 33.8771C11.7768 33.7796 11.705 33.6989 11.6288 33.6218C11.1916 33.1828 10.7428 32.7546 10.319 32.3033C9.79929 31.75 10.0121 30.8846 10.7154 30.6629C11.1215 30.5352 11.4771 30.6478 11.776 30.9484C12.2717 31.4494 12.7692 31.9486 13.248 32.4318C13.7757 31.9034 14.2732 31.4042 14.8283 30.8482C14.7591 30.8003 14.6465 30.7436 14.5623 30.6594C13.6595 29.7629 12.7594 28.8638 11.862 27.9621C11.4088 27.5063 11.3822 26.8945 11.7893 26.4858C12.2043 26.069 12.7984 26.0921 13.264 26.554C14.0807 27.3645 14.893 28.1793 15.7045 28.9951C15.8747 29.1662 16.0326 29.3497 16.1496 29.4774C16.6941 28.9357 17.1987 28.4347 17.7255 27.9116C17.4985 27.6925 17.2422 27.4496 16.9903 27.2013C16.7296 26.9451 16.4662 26.6924 16.217 26.4255C15.6654 25.8358 15.9173 24.9385 16.6862 24.7505C17.063 24.6583 17.3832 24.7816 17.6519 25.0511C18.1565 25.5565 18.6602 26.0637 19.1293 26.5354C19.6543 26.0105 20.1526 25.5122 20.6625 25.0024C20.6093 24.9456 20.5366 24.8649 20.4604 24.7878C19.5691 23.8958 18.6708 23.01 17.7911 22.1065C17.6288 21.9398 17.4852 21.7181 17.4249 21.4964C17.306 21.0611 17.5251 20.6355 17.9046 20.4298C18.2983 20.2161 18.7728 20.2852 19.1222 20.6319C20.0418 21.5434 20.9534 22.462 21.8695 23.3762C21.952 23.4587 22.0389 23.5358 22.0601 23.5562C22.5771 23.0375 23.064 22.5489 23.5748 22.0364C23.3557 21.8263 23.0986 21.5833 22.8467 21.3359C22.594 21.0886 22.3395 20.8412 22.0965 20.5849C21.5564 20.0157 21.7427 19.1521 22.4601 18.9171C22.8645 18.7841 23.2218 18.8931 23.5216 19.1946C24.0191 19.6947 24.5175 20.1948 24.9954 20.6745C25.516 20.1531 26.0135 19.6548 26.5331 19.1334V19.1326ZM22.226 26.4148C23.6094 27.8043 25.0008 29.2017 26.37 30.5769C27.7684 29.1786 29.1909 27.7573 30.5911 26.3572C29.2122 24.9775 27.8163 23.5828 26.4391 22.2049C25.038 23.605 23.6156 25.0263 22.226 26.4148ZM27.7871 32.1162C28.4176 32.7431 29.0667 33.3903 29.7185 34.0341C29.8444 34.1582 29.9748 34.2788 30.1158 34.3852C31.3378 35.3073 33.0378 35.1894 34.1144 34.1112C35.1803 33.0428 35.347 31.3137 34.3928 30.1478C33.6967 29.2965 32.8729 28.5508 32.1244 27.7785C30.6656 29.238 29.2388 30.6656 27.788 32.1162H27.7871ZM12.9616 8.6733C11.9888 7.51175 10.8209 6.67473 9.30623 6.36616C8.52851 6.20745 7.76409 5.98223 6.99347 5.78805C6.4738 5.65682 5.95414 5.52559 5.42029 5.39082C5.41763 5.45998 5.40876 5.49278 5.41586 5.52116C5.7759 6.94428 6.13682 8.36828 6.49952 9.79051C6.83916 11.1223 7.68605 12.103 8.6704 12.963C10.1088 11.5249 11.5303 10.1035 12.9616 8.6733ZM17.7893 13.6041C16.6454 12.4568 15.5032 11.3112 14.3849 10.1895C12.99 11.5825 11.5667 13.0029 10.1771 14.3906C11.3104 15.5247 12.4561 16.6702 13.5859 17.8016C14.9826 16.4069 16.405 14.9864 17.7884 13.6041H17.7893Z" fill="url(#paint0_linear_928_1481)"/>
</g>
<defs>
<linearGradient id="paint0_linear_928_1481" x1="36.6354" y1="19.9997" x2="7.41015" y2="19.9997" gradientUnits="userSpaceOnUse">
<stop stop-color="#5442DD"/>
<stop offset="1" stop-color="#C892F6"/>
</linearGradient>
</defs>
</svg>
