<svg width="40" height="40" viewBox="0 0 40 40" fill="none" xmlns="http://www.w3.org/2000/svg">
<g id="_&#195;&#144;&#194;&#161;&#195;&#144;&#194;&#187;&#195;&#144;&#194;&#190;&#195;&#144;&#194;&#185;_1">
<g id="Vector">
<path d="M3 20.9974V19.0054C3.02746 18.7667 3.05491 18.5271 3.08154 18.2884C3.4884 14.6304 4.88621 11.4032 7.35317 8.66671C9.97239 5.76141 13.2173 3.94736 17.0779 3.2645C17.7169 3.15138 18.3659 3.08733 19.0099 3C19.6738 3 20.3386 3 21.0026 3C21.243 3.02745 21.4827 3.0549 21.7231 3.08151C25.6503 3.524 29.0724 5.07355 31.8789 7.85992C35.7203 11.6743 37.4019 16.3238 36.9193 21.7094C36.6173 25.0772 35.3526 28.0964 33.1951 30.7039C29.9627 34.6098 25.7901 36.7242 20.7222 36.9778C17.3683 37.1458 14.2141 36.359 11.3427 34.609C6.92717 31.9191 4.21892 28.0199 3.26542 22.9271C3.1456 22.2891 3.08736 21.6404 3 20.9966V20.9974ZM30.8796 29.9828C36.381 24.0225 36.2029 14.3709 29.5334 8.7108C23.2174 3.351 13.5992 4.19439 8.35909 10.9191C3.17722 17.5698 5.08506 25.8723 9.15285 29.9537C10.5798 27.2505 12.7198 25.3292 15.562 24.1622C11.3702 21.0798 11.5025 15.7308 14.0918 12.7689C16.919 9.53423 21.6241 9.09423 24.9123 11.7816C26.5056 13.0841 27.4708 14.7751 27.6971 16.8212C28.0341 19.8629 26.875 22.29 24.4522 24.1656C27.3119 25.3367 29.4402 27.2622 30.8804 29.982L30.8796 29.9828ZM29.1639 31.5773C27.6721 27.9658 23.8581 25.4914 19.9617 25.5421C15.557 25.5995 12.1465 28.3925 10.8593 31.5814C16.0146 35.7626 23.7658 35.9115 29.1639 31.5773ZM25.5455 17.7835C25.5455 14.7385 23.071 12.2532 20.0225 12.2383C16.9739 12.2233 14.4645 14.7285 14.467 17.7852C14.4695 20.8361 16.9415 23.3155 19.99 23.3247C23.051 23.3338 25.5446 20.8469 25.5455 17.7844V17.7835Z" fill="black"/>
<path d="M3 20.9974V19.0054C3.02746 18.7667 3.05491 18.5271 3.08154 18.2884C3.4884 14.6304 4.88621 11.4032 7.35317 8.66671C9.97239 5.76141 13.2173 3.94736 17.0779 3.2645C17.7169 3.15138 18.3659 3.08733 19.0099 3C19.6738 3 20.3386 3 21.0026 3C21.243 3.02745 21.4827 3.0549 21.7231 3.08151C25.6503 3.524 29.0724 5.07355 31.8789 7.85992C35.7203 11.6743 37.4019 16.3238 36.9193 21.7094C36.6173 25.0772 35.3526 28.0964 33.1951 30.7039C29.9627 34.6098 25.7901 36.7242 20.7222 36.9778C17.3683 37.1458 14.2141 36.359 11.3427 34.609C6.92717 31.9191 4.21892 28.0199 3.26542 22.9271C3.1456 22.2891 3.08736 21.6404 3 20.9966V20.9974ZM30.8796 29.9828C36.381 24.0225 36.2029 14.3709 29.5334 8.7108C23.2174 3.351 13.5992 4.19439 8.35909 10.9191C3.17722 17.5698 5.08506 25.8723 9.15285 29.9537C10.5798 27.2505 12.7198 25.3292 15.562 24.1622C11.3702 21.0798 11.5025 15.7308 14.0918 12.7689C16.919 9.53423 21.6241 9.09423 24.9123 11.7816C26.5056 13.0841 27.4708 14.7751 27.6971 16.8212C28.0341 19.8629 26.875 22.29 24.4522 24.1656C27.3119 25.3367 29.4402 27.2622 30.8804 29.982L30.8796 29.9828ZM29.1639 31.5773C27.6721 27.9658 23.8581 25.4914 19.9617 25.5421C15.557 25.5995 12.1465 28.3925 10.8593 31.5814C16.0146 35.7626 23.7658 35.9115 29.1639 31.5773ZM25.5455 17.7835C25.5455 14.7385 23.071 12.2532 20.0225 12.2383C16.9739 12.2233 14.4645 14.7285 14.467 17.7852C14.4695 20.8361 16.9415 23.3155 19.99 23.3247C23.051 23.3338 25.5446 20.8469 25.5455 17.7844V17.7835Z" fill="url(#paint0_linear_929_1558)"/>
</g>
</g>
<defs>
<linearGradient id="paint0_linear_929_1558" x1="36.6354" y1="19.9997" x2="7.41015" y2="19.9997" gradientUnits="userSpaceOnUse">
<stop stop-color="#5442DD"/>
<stop offset="1" stop-color="#C892F6"/>
</linearGradient>
</defs>
</svg>
