<svg width="40" height="40" viewBox="0 0 40 40" fill="none" xmlns="http://www.w3.org/2000/svg">
<g id="_&#208;&#160;&#208;&#142;&#208;&#160;&#194;&#187;&#208;&#160;&#209;&#149;&#208;&#160;&#226;&#132;&#150;_1">
<path id="Vector" d="M29.0174 8.22346H21.0953V31.79C21.2208 31.79 21.3463 31.79 21.4728 31.79C22.3457 31.79 23.2186 31.7861 24.0915 31.792C24.7842 31.7968 25.2537 32.2578 25.2461 32.9115C25.2384 33.5466 24.7708 33.9968 24.0963 33.9978C21.3578 34.0007 18.6194 34.0007 15.8819 33.9978C15.2093 33.9978 14.7407 33.5437 14.735 32.9086C14.7292 32.2568 15.1997 31.7959 15.8924 31.792C16.8822 31.7861 17.873 31.791 18.8858 31.791V8.2352H10.9617C11.0173 8.39277 11.0681 8.54739 11.1246 8.69908C12.5935 12.6537 14.0508 16.6123 15.5437 20.5582C15.8493 21.3665 15.7679 22.1416 15.5829 22.9255C14.849 26.0366 12.0923 28.0839 8.90259 27.9077C5.96772 27.7463 3.45923 25.3271 3.03764 22.2728C2.95236 21.6523 3.00985 21.0778 3.23214 20.4858C4.9281 15.9684 6.60298 11.4412 8.28553 6.91796C8.55094 6.20258 8.83264 6 9.57139 6C16.5191 6 23.4658 6 30.4135 6C31.1474 6 31.4311 6.20453 31.6974 6.9209C33.4097 11.5244 35.1162 16.1299 36.8371 20.7295C37.1159 21.4752 36.9875 22.2033 36.8179 22.9236C36.0858 26.0366 33.3321 28.0819 30.1404 27.9087C27.2065 27.7492 24.698 25.332 24.2745 22.2747C24.1883 21.6543 24.2458 21.0798 24.468 20.4877C25.9523 16.5389 27.4144 12.5823 28.8823 8.62764C28.9283 8.50433 28.9657 8.37809 29.0174 8.22444V8.22346ZM34.341 20.2763C33.104 16.9451 31.8757 13.6402 30.6482 10.3354C30.6205 10.3363 30.5936 10.3373 30.5658 10.3383C29.3384 13.6441 28.1101 16.95 26.875 20.2763H34.3401H34.341ZM9.41617 10.3432C9.38742 10.3432 9.35772 10.3432 9.32898 10.3432C8.10156 13.6471 6.8751 16.9509 5.64194 20.2705H13.1032C11.8672 16.9412 10.6417 13.6422 9.41617 10.3432ZM5.33628 22.5174C5.56241 24.2839 7.61002 25.8066 9.60109 25.7058C11.4101 25.6138 13.3571 23.9756 13.3887 22.5174H5.33628ZM34.6543 22.5125H26.576C26.7255 24.0744 28.5834 25.6236 30.3934 25.7068C32.3758 25.7978 34.318 24.3592 34.6534 22.5125H34.6543Z" fill="url(#paint0_linear_928_1475)"/>
</g>
<defs>
<linearGradient id="paint0_linear_928_1475" x1="36.6354" y1="19.9997" x2="7.41015" y2="19.9997" gradientUnits="userSpaceOnUse">
<stop stop-color="#5442DD"/>
<stop offset="1" stop-color="#C892F6"/>
</linearGradient>
</defs>
</svg>
