<svg width="40" height="40" viewBox="0 0 40 40" fill="none" xmlns="http://www.w3.org/2000/svg">
<g id="_&#195;&#144;&#194;&#161;&#195;&#144;&#194;&#187;&#195;&#144;&#194;&#190;&#195;&#144;&#194;&#185;_1">
<g id="Vector">
<path d="M29.3702 33.2695C29.4615 32.4527 29.4545 31.6032 29.4475 30.7822C29.4454 30.4998 29.4426 30.2074 29.4447 29.9192C29.4489 29.1722 28.9524 28.6243 28.2648 28.6165C27.9453 28.613 27.6616 28.7254 27.4439 28.9424C27.2002 29.1843 27.0646 29.5357 27.0618 29.932C27.0583 30.4322 27.059 30.9409 27.0597 31.4332C27.0597 31.7149 27.0604 31.9967 27.0597 32.2777C27.0576 34.2833 25.7801 35.5789 23.8053 35.5796C19.4174 35.581 15.0294 35.581 10.6408 35.5796C8.66949 35.5796 7.39623 34.2933 7.39553 32.304C7.39412 24.1009 7.39412 15.8977 7.39553 7.69455C7.39553 5.70601 8.66949 4.4204 10.6394 4.41826C11.8242 4.41684 13.0089 4.41755 14.1944 4.41826H15.7647C16.5703 4.41826 17.3758 4.41826 18.182 4.41755C20.0593 4.41613 22.0004 4.41542 23.9099 4.4204C25.7506 4.42538 27.0457 5.73802 27.0583 7.61202C27.0604 7.90656 27.0597 8.2004 27.0583 8.49494C27.0569 8.86988 27.0562 9.25763 27.0611 9.63755C27.0709 10.364 27.5703 10.8926 28.248 10.8947C28.9306 10.8975 29.4341 10.3732 29.4433 9.64893C29.4447 9.51945 29.4468 9.38996 29.4489 9.25976C29.4587 8.62087 29.4693 7.95992 29.4356 7.31605C29.3218 5.14182 28.2985 3.5453 26.3939 2.56988C26.0287 2.38277 25.6256 2.27391 25.1979 2.15866C25.0139 2.10885 24.8243 2.05763 24.6382 2H9.81633C9.63022 2.05834 9.4406 2.10957 9.2566 2.15866C8.82961 2.27391 8.42649 2.38277 8.0613 2.56988C6.1602 3.54458 5.13626 5.14111 5.01897 7.31676C4.99369 7.79202 4.99931 8.28079 5.00422 8.7532C5.00633 8.9581 5.00914 9.163 5.00914 9.36719V14.7402C5.00844 20.6183 5.00774 26.4971 5.00984 32.3752C5.01055 34.861 6.41583 36.9015 8.67651 37.7005C8.92652 37.7887 9.18427 37.8499 9.45746 37.9139C9.57544 37.9417 9.69343 37.9694 9.81071 38H24.6333C24.6396 37.9972 24.6459 37.995 24.6522 37.9922C24.7014 37.9715 24.7625 37.9459 24.8327 37.9345C27.2388 37.5674 29.1041 35.6493 29.3702 33.2695Z" fill="black"/>
<path d="M29.3702 33.2695C29.4615 32.4527 29.4545 31.6032 29.4475 30.7822C29.4454 30.4998 29.4426 30.2074 29.4447 29.9192C29.4489 29.1722 28.9524 28.6243 28.2648 28.6165C27.9453 28.613 27.6616 28.7254 27.4439 28.9424C27.2002 29.1843 27.0646 29.5357 27.0618 29.932C27.0583 30.4322 27.059 30.9409 27.0597 31.4332C27.0597 31.7149 27.0604 31.9967 27.0597 32.2777C27.0576 34.2833 25.7801 35.5789 23.8053 35.5796C19.4174 35.581 15.0294 35.581 10.6408 35.5796C8.66949 35.5796 7.39623 34.2933 7.39553 32.304C7.39412 24.1009 7.39412 15.8977 7.39553 7.69455C7.39553 5.70601 8.66949 4.4204 10.6394 4.41826C11.8242 4.41684 13.0089 4.41755 14.1944 4.41826H15.7647C16.5703 4.41826 17.3758 4.41826 18.182 4.41755C20.0593 4.41613 22.0004 4.41542 23.9099 4.4204C25.7506 4.42538 27.0457 5.73802 27.0583 7.61202C27.0604 7.90656 27.0597 8.2004 27.0583 8.49494C27.0569 8.86988 27.0562 9.25763 27.0611 9.63755C27.0709 10.364 27.5703 10.8926 28.248 10.8947C28.9306 10.8975 29.4341 10.3732 29.4433 9.64893C29.4447 9.51945 29.4468 9.38996 29.4489 9.25976C29.4587 8.62087 29.4693 7.95992 29.4356 7.31605C29.3218 5.14182 28.2985 3.5453 26.3939 2.56988C26.0287 2.38277 25.6256 2.27391 25.1979 2.15866C25.0139 2.10885 24.8243 2.05763 24.6382 2H9.81633C9.63022 2.05834 9.4406 2.10957 9.2566 2.15866C8.82961 2.27391 8.42649 2.38277 8.0613 2.56988C6.1602 3.54458 5.13626 5.14111 5.01897 7.31676C4.99369 7.79202 4.99931 8.28079 5.00422 8.7532C5.00633 8.9581 5.00914 9.163 5.00914 9.36719V14.7402C5.00844 20.6183 5.00774 26.4971 5.00984 32.3752C5.01055 34.861 6.41583 36.9015 8.67651 37.7005C8.92652 37.7887 9.18427 37.8499 9.45746 37.9139C9.57544 37.9417 9.69343 37.9694 9.81071 38H24.6333C24.6396 37.9972 24.6459 37.995 24.6522 37.9922C24.7014 37.9715 24.7625 37.9459 24.8327 37.9345C27.2388 37.5674 29.1041 35.6493 29.3702 33.2695Z" fill="url(#paint0_linear_929_1546)"/>
<path d="M16.4966 14.7281C15.059 15.9155 13.8918 16.9109 12.825 17.8614C12.2295 18.3921 11.9142 19.1399 11.8889 20.084C11.9177 21.0473 12.2667 21.8271 12.9269 22.4026C13.9621 23.3055 15.0302 24.2055 16.064 25.0756L16.4728 25.42C16.7797 25.6782 17.1259 25.7593 17.503 25.6597C17.9799 25.5338 18.2671 25.2407 18.3816 24.7633C18.4968 24.2837 18.3605 23.8853 17.9658 23.546C17.2853 22.9604 16.5893 22.3699 15.9165 21.7993C15.5247 21.4671 15.1328 21.1341 14.7416 20.8011C14.4972 20.5927 14.2711 20.3607 14.2711 20.0783C14.2711 19.7951 14.5 19.5618 14.7472 19.3526C15.0661 19.0822 15.3849 18.8126 15.7044 18.543C16.4503 17.9126 17.2221 17.2609 17.9721 16.6106C18.5003 16.1524 18.5733 15.4353 18.1456 14.906C17.7207 14.3802 17.0114 14.3041 16.4966 14.7295V14.7281Z" fill="black"/>
<path d="M16.4966 14.7281C15.059 15.9155 13.8918 16.9109 12.825 17.8614C12.2295 18.3921 11.9142 19.1399 11.8889 20.084C11.9177 21.0473 12.2667 21.8271 12.9269 22.4026C13.9621 23.3055 15.0302 24.2055 16.064 25.0756L16.4728 25.42C16.7797 25.6782 17.1259 25.7593 17.503 25.6597C17.9799 25.5338 18.2671 25.2407 18.3816 24.7633C18.4968 24.2837 18.3605 23.8853 17.9658 23.546C17.2853 22.9604 16.5893 22.3699 15.9165 21.7993C15.5247 21.4671 15.1328 21.1341 14.7416 20.8011C14.4972 20.5927 14.2711 20.3607 14.2711 20.0783C14.2711 19.7951 14.5 19.5618 14.7472 19.3526C15.0661 19.0822 15.3849 18.8126 15.7044 18.543C16.4503 17.9126 17.2221 17.2609 17.9721 16.6106C18.5003 16.1524 18.5733 15.4353 18.1456 14.906C17.7207 14.3802 17.0114 14.3041 16.4966 14.7295V14.7281Z" fill="url(#paint1_linear_929_1546)"/>
<path d="M30.4723 25.4249C31.8144 24.2923 32.9886 23.2706 34.0617 22.3023C34.6482 21.7737 34.9635 21.0345 35 20.1053C34.9824 19.1897 34.658 18.422 34.0358 17.8237C33.8258 17.6216 33.5982 17.4274 33.3784 17.2388C33.2997 17.172 33.2218 17.1044 33.1438 17.0368C32.9233 16.8454 32.7035 16.654 32.4837 16.4626C31.8629 15.9219 31.2203 15.3627 30.5833 14.8206C30.308 14.5865 29.9976 14.462 29.6949 14.462C29.6492 14.462 29.6043 14.4649 29.5593 14.4705C29.2447 14.5104 28.9708 14.6826 28.7672 14.9693C28.3732 15.5235 28.482 16.1759 29.0523 16.6725C29.6612 17.2026 30.2722 17.7312 30.8825 18.2591C31.313 18.6312 31.7428 19.0033 32.1726 19.3768C32.4022 19.5767 32.6157 19.7994 32.6157 20.0776C32.6157 20.3558 32.4029 20.5799 32.1733 20.7805C31.7905 21.1135 31.4071 21.4457 31.0229 21.7773C30.3501 22.3585 29.6549 22.9597 28.9785 23.5588C28.4546 24.0234 28.3872 24.7405 28.8184 25.2649C29.2426 25.78 29.9681 25.8504 30.4716 25.4256L30.4723 25.4249Z" fill="black"/>
<path d="M30.4723 25.4249C31.8144 24.2923 32.9886 23.2706 34.0617 22.3023C34.6482 21.7737 34.9635 21.0345 35 20.1053C34.9824 19.1897 34.658 18.422 34.0358 17.8237C33.8258 17.6216 33.5982 17.4274 33.3784 17.2388C33.2997 17.172 33.2218 17.1044 33.1438 17.0368C32.9233 16.8454 32.7035 16.654 32.4837 16.4626C31.8629 15.9219 31.2203 15.3627 30.5833 14.8206C30.308 14.5865 29.9976 14.462 29.6949 14.462C29.6492 14.462 29.6043 14.4649 29.5593 14.4705C29.2447 14.5104 28.9708 14.6826 28.7672 14.9693C28.3732 15.5235 28.482 16.1759 29.0523 16.6725C29.6612 17.2026 30.2722 17.7312 30.8825 18.2591C31.313 18.6312 31.7428 19.0033 32.1726 19.3768C32.4022 19.5767 32.6157 19.7994 32.6157 20.0776C32.6157 20.3558 32.4029 20.5799 32.1733 20.7805C31.7905 21.1135 31.4071 21.4457 31.0229 21.7773C30.3501 22.3585 29.6549 22.9597 28.9785 23.5588C28.4546 24.0234 28.3872 24.7405 28.8184 25.2649C29.2426 25.78 29.9681 25.8504 30.4716 25.4256L30.4723 25.4249Z" fill="url(#paint2_linear_929_1546)"/>
<path d="M23.9718 14.2414C23.5638 15.7127 23.1438 17.2068 22.7379 18.6518C22.4731 19.5938 22.2084 20.535 21.9457 21.4777C21.8565 21.7965 21.7666 22.1152 21.6767 22.4332C21.3958 23.4271 21.1058 24.4545 20.8501 25.4712C20.7609 25.8255 20.8283 26.1741 21.0404 26.453C21.2553 26.7361 21.5889 26.9005 21.9562 26.9041C21.9611 26.9041 21.9654 26.9041 21.9703 26.9041C22.5686 26.9041 23.0462 26.527 23.219 25.9165C23.8587 23.6555 24.5027 21.3561 25.1074 19.1954C25.2219 18.7863 25.3378 18.3779 25.4536 17.9688C25.7711 16.8518 26.099 15.6971 26.387 14.5538C26.4846 14.1653 26.3779 13.7754 26.0934 13.4844C25.8589 13.244 25.5485 13.1152 25.2261 13.1152C25.1285 13.1152 25.0302 13.1273 24.9318 13.1508C24.4374 13.2724 24.1502 13.599 23.9718 14.2414Z" fill="black"/>
<path d="M23.9718 14.2414C23.5638 15.7127 23.1438 17.2068 22.7379 18.6518C22.4731 19.5938 22.2084 20.535 21.9457 21.4777C21.8565 21.7965 21.7666 22.1152 21.6767 22.4332C21.3958 23.4271 21.1058 24.4545 20.8501 25.4712C20.7609 25.8255 20.8283 26.1741 21.0404 26.453C21.2553 26.7361 21.5889 26.9005 21.9562 26.9041C21.9611 26.9041 21.9654 26.9041 21.9703 26.9041C22.5686 26.9041 23.0462 26.527 23.219 25.9165C23.8587 23.6555 24.5027 21.3561 25.1074 19.1954C25.2219 18.7863 25.3378 18.3779 25.4536 17.9688C25.7711 16.8518 26.099 15.6971 26.387 14.5538C26.4846 14.1653 26.3779 13.7754 26.0934 13.4844C25.8589 13.244 25.5485 13.1152 25.2261 13.1152C25.1285 13.1152 25.0302 13.1273 24.9318 13.1508C24.4374 13.2724 24.1502 13.599 23.9718 14.2414Z" fill="url(#paint3_linear_929_1546)"/>
<path d="M18.7614 7.08194C17.743 7.03214 16.7114 7.03214 15.6959 7.08194C15.4044 7.09617 15.1354 7.22566 14.9395 7.44692C14.7281 7.68526 14.6171 8.00969 14.6354 8.33768C14.6719 8.97728 15.167 9.45396 15.8138 9.47104C16.1334 9.47957 16.4599 9.47744 16.7753 9.4753C16.9206 9.47459 17.066 9.47317 17.2114 9.47317H17.2142C17.3624 9.47317 17.5113 9.47388 17.6595 9.4753C17.9832 9.47744 18.3175 9.47957 18.6448 9.47104C19.2916 9.45396 19.7867 8.97728 19.8225 8.33696C19.8408 8.00969 19.7298 7.68526 19.5184 7.44692C19.3218 7.22566 19.0528 7.09617 18.7614 7.08194Z" fill="black"/>
<path d="M18.7614 7.08194C17.743 7.03214 16.7114 7.03214 15.6959 7.08194C15.4044 7.09617 15.1354 7.22566 14.9395 7.44692C14.7281 7.68526 14.6171 8.00969 14.6354 8.33768C14.6719 8.97728 15.167 9.45396 15.8138 9.47104C16.1334 9.47957 16.4599 9.47744 16.7753 9.4753C16.9206 9.47459 17.066 9.47317 17.2114 9.47317H17.2142C17.3624 9.47317 17.5113 9.47388 17.6595 9.4753C17.9832 9.47744 18.3175 9.47957 18.6448 9.47104C19.2916 9.45396 19.7867 8.97728 19.8225 8.33696C19.8408 8.00969 19.7298 7.68526 19.5184 7.44692C19.3218 7.22566 19.0528 7.09617 18.7614 7.08194Z" fill="url(#paint4_linear_929_1546)"/>
<path d="M16.0377 31.732C16.0335 32.0536 16.155 32.3581 16.379 32.5893C16.6031 32.8205 16.9022 32.9486 17.2211 32.9507C17.5434 32.9514 17.8433 32.8277 18.0701 32.5993C18.2956 32.3723 18.4199 32.0699 18.4206 31.7484C18.4206 31.4282 18.2942 31.1244 18.0638 30.8925C17.8349 30.662 17.535 30.5367 17.2225 30.5389C16.5771 30.5439 16.0461 31.0796 16.0384 31.7327L16.0377 31.732Z" fill="black"/>
<path d="M16.0377 31.732C16.0335 32.0536 16.155 32.3581 16.379 32.5893C16.6031 32.8205 16.9022 32.9486 17.2211 32.9507C17.5434 32.9514 17.8433 32.8277 18.0701 32.5993C18.2956 32.3723 18.4199 32.0699 18.4206 31.7484C18.4206 31.4282 18.2942 31.1244 18.0638 30.8925C17.8349 30.662 17.535 30.5367 17.2225 30.5389C16.5771 30.5439 16.0461 31.0796 16.0384 31.7327L16.0377 31.732Z" fill="url(#paint5_linear_929_1546)"/>
</g>
</g>
<defs>
<linearGradient id="paint0_linear_929_1546" x1="19.0581" y1="-20.4377" x2="19.0581" y2="42.9837" gradientUnits="userSpaceOnUse">
<stop stop-color="#5442DD"/>
<stop offset="1" stop-color="#C892F6"/>
</linearGradient>
<linearGradient id="paint1_linear_929_1546" x1="19.0581" y1="-20.4377" x2="19.0581" y2="42.9837" gradientUnits="userSpaceOnUse">
<stop stop-color="#5442DD"/>
<stop offset="1" stop-color="#C892F6"/>
</linearGradient>
<linearGradient id="paint2_linear_929_1546" x1="19.0581" y1="-20.4377" x2="19.0581" y2="42.9837" gradientUnits="userSpaceOnUse">
<stop stop-color="#5442DD"/>
<stop offset="1" stop-color="#C892F6"/>
</linearGradient>
<linearGradient id="paint3_linear_929_1546" x1="19.0581" y1="-20.4377" x2="19.0581" y2="42.9837" gradientUnits="userSpaceOnUse">
<stop stop-color="#5442DD"/>
<stop offset="1" stop-color="#C892F6"/>
</linearGradient>
<linearGradient id="paint4_linear_929_1546" x1="19.0581" y1="-20.4377" x2="19.0581" y2="42.9837" gradientUnits="userSpaceOnUse">
<stop stop-color="#5442DD"/>
<stop offset="1" stop-color="#C892F6"/>
</linearGradient>
<linearGradient id="paint5_linear_929_1546" x1="19.0581" y1="-20.4377" x2="19.0581" y2="42.9837" gradientUnits="userSpaceOnUse">
<stop stop-color="#5442DD"/>
<stop offset="1" stop-color="#C892F6"/>
</linearGradient>
</defs>
</svg>
