<svg width="40" height="40" viewBox="0 0 40 40" fill="none" xmlns="http://www.w3.org/2000/svg">
<g id="_&#208;&#160;&#208;&#142;&#208;&#160;&#194;&#187;&#208;&#160;&#209;&#149;&#208;&#160;&#226;&#132;&#150;_1">
<g id="Vector">
<path d="M35.4879 14.5826H4.53859C4.5302 14.7145 4.51657 14.8286 4.51657 14.9426C4.51657 20.765 4.51343 26.5885 4.51657 32.4108C4.51657 33.9661 5.41728 35.1279 6.85171 35.4251C7.14321 35.4858 7.45044 35.4827 7.74928 35.4837C11.7275 35.4869 15.7047 35.4848 19.6829 35.489C19.9031 35.489 20.1317 35.4973 20.3435 35.5497C20.9129 35.6899 21.3019 36.2666 21.2526 36.8538C21.2023 37.443 20.722 37.9328 20.1369 37.9873C20.0331 37.9967 19.9283 37.9977 19.8234 37.9977C15.7278 37.9977 11.6321 38.004 7.53642 37.9956C4.88986 37.9904 2.7487 36.3326 2.15627 33.8186C2.04092 33.3287 2.01052 32.8086 2.00947 32.302C2.00003 26.2305 2.00318 20.159 2.00318 14.0875C2.00318 11.8896 1.99479 9.69276 2.00527 7.49484C2.01891 4.70139 3.88534 2.51394 6.64095 2.05657C6.94818 2.00528 7.26589 2.00319 7.57941 2.00319C15.862 2.00005 24.1456 1.99795 32.4282 2.00319C35.2865 2.00423 37.4759 3.85048 37.9446 6.63975C37.9897 6.90873 37.9971 7.18713 37.9971 7.46135C38.0002 12.1586 38.0012 16.8548 37.9981 21.5521C37.9981 22.3883 37.478 22.9347 36.721 22.9211C35.9933 22.9075 35.492 22.3528 35.49 21.5332C35.4858 19.3877 35.4879 17.241 35.4879 15.0954C35.4879 14.9395 35.4879 14.7836 35.4879 14.5836V14.5826ZM35.4669 12.0267C35.4742 11.8896 35.4868 11.7755 35.4868 11.6604C35.4879 10.2998 35.4931 8.94023 35.4868 7.57962C35.4774 5.72813 34.2631 4.51509 32.4051 4.51405C24.1393 4.51091 15.8735 4.51091 7.60772 4.51405C5.73185 4.51405 4.52286 5.73023 4.51552 7.60892C4.51133 8.95593 4.51343 10.3029 4.51552 11.6499C4.51552 11.7745 4.5323 11.899 4.54069 12.0267H35.4669Z"  fill="url(#paint0_linear_928_1475)"/>
<path d="M30.998 33.5058C30.3018 34.4111 29.6359 35.2662 28.9827 36.1317C28.3441 36.9764 27.5136 37.3605 26.4787 37.0915C25.4815 36.8319 24.9468 36.1286 24.7706 35.1123C24.0712 31.0828 23.3561 27.0564 22.6473 23.029C22.4795 22.0766 22.7742 21.2843 23.5522 20.7212C24.3334 20.156 25.1921 20.1246 26.0278 20.5967C27.8932 21.6517 29.7439 22.7318 31.6009 23.8025C33.2765 24.7685 34.9458 25.745 36.6298 26.6964C37.5913 27.2396 38.1219 28.0172 37.972 29.134C37.8315 30.1785 37.1625 30.7835 36.1695 31.0797C35.1472 31.3842 34.1353 31.7202 33.0783 32.0551C33.1769 32.2069 33.2503 32.3262 33.331 32.4403C34.1626 33.6303 34.9983 34.8161 35.8256 36.0093C36.138 36.4604 36.1559 36.9408 35.8686 37.4097C35.5865 37.8691 35.1545 38.0439 34.6271 37.978C34.2244 37.9267 33.9403 37.6964 33.7117 37.3678C32.899 36.1966 32.078 35.0317 31.2601 33.8647C31.1857 33.759 31.1081 33.6565 30.998 33.5058ZM25.189 23.0018C25.8601 26.8115 26.5144 30.5291 27.1823 34.3253C27.3207 34.1557 27.4035 34.0594 27.4811 33.9579C28.2938 32.8998 29.1096 31.8448 29.9138 30.7814C30.1686 30.4444 30.4769 30.2214 30.889 30.1053C31.5674 29.9137 32.2353 29.6877 32.9074 29.4741C33.6341 29.2439 34.3586 29.0105 35.1597 28.7541C31.8127 26.823 28.5391 24.9339 25.189 23.0008V23.0018Z" fill="url(#paint0_linear_928_1475)"/>
<path d="M14.1288 8.29041C14.1225 8.977 13.5573 9.53799 12.8768 9.5338C12.2057 9.52962 11.6269 8.94978 11.6238 8.27785C11.6206 7.57975 12.1984 7.01666 12.9062 7.02713C13.5993 7.0376 14.1351 7.59126 14.1277 8.28936L14.1288 8.29041Z"  fill="url(#paint0_linear_928_1475)"/>
<path d="M17.0847 7.02818C17.7704 7.03446 18.3335 7.59964 18.3293 8.2789C18.3262 8.95397 17.7505 9.52962 17.0763 9.5338C16.3832 9.53799 15.8149 8.95502 15.8243 8.25064C15.8338 7.55358 16.3821 7.0219 17.0847 7.02818Z"  fill="url(#paint0_linear_928_1475)"/>
<path d="M9.95029 8.29355C9.9398 8.97176 9.36205 9.53904 8.68678 9.5338C7.99368 9.52857 7.42117 8.93199 7.44109 8.23703C7.45996 7.55044 8.02618 7.01771 8.72243 7.02922C9.40714 7.04074 9.95973 7.6101 9.95029 8.2946V8.29355Z" fill="url(#paint0_linear_928_1475)"/>
</g>
</g>
<defs>
<linearGradient id="paint0_linear_928_1475" x1="36.6354" y1="19.9997" x2="7.41015" y2="19.9997" gradientUnits="userSpaceOnUse">
<stop stop-color="#5442DD"/>
<stop offset="1" stop-color="#C892F6"/>
</linearGradient>
</defs>
</svg>
